<?xml version="1.0" standalone="no"?>
<!DOCTYPE svg PUBLIC "-//W3C//DTD SVG 1.1//EN" "http://www.w3.org/Graphics/SVG/1.1/DTD/svg11.dtd" >
<svg xmlns="http://www.w3.org/2000/svg">
<metadata></metadata>
<defs>
<font id="fanwood_textitalic" horiz-adv-x="1024" >
<font-face units-per-em="2048" ascent="1413" descent="-635" />
<missing-glyph horiz-adv-x="409" />
<glyph horiz-adv-x="2048" />
<glyph horiz-adv-x="2048" />
<glyph unicode="&#xd;" horiz-adv-x="681" />
<glyph unicode=" "  horiz-adv-x="409" />
<glyph unicode="&#x09;" horiz-adv-x="409" />
<glyph unicode="&#xa0;" horiz-adv-x="409" />
<glyph unicode="!" horiz-adv-x="450" d="M127 78q0 41 34 76.5t66 35.5q31 0 64 -34.5t33 -67.5q0 -51 -32 -81t-56 -30q-43 0 -76 35t-33 66zM203 307q0 47 41 375q55 432 69 618q2 51 66 52h10q57 0 57 -41q0 -6 -4 -27q-68 -303 -176 -977q-2 -14 -22 -14h-17q-24 0 -24 14z" />
<glyph unicode="&#x22;" horiz-adv-x="534" d="M55 1047q0 2 4 66.5t9.5 140t7.5 96.5q8 66 71 65q66 0 66 -57q0 -10 -4 -31q-8 -29 -25.5 -88t-36 -117.5t-20.5 -66.5q-2 -4 -4 -11.5t-3 -10.5t-3 -8t-4 -6t-6.5 -3t-9.5 -3t-11 -1q-31 0 -31 35zM322 1047q0 2 4 66.5t9 140t7 96.5q8 66 72 65q66 0 65 -57 q0 -10 -4 -31q-8 -29 -25.5 -88t-36 -117.5t-20.5 -66.5q-2 -4 -4 -11.5t-3 -10.5t-3 -8t-4 -6l-6 -3t-9.5 -3t-11.5 -1q-30 0 -30 35z" />
<glyph unicode="#" horiz-adv-x="905" d="M55 346v8q0 33 29 33h141q16 0 19 14v7q20 156 28 229q2 18 -12 18h-184q-20 0 -21 33v12q0 29 21 29h194q12 0 17.5 2t5.5 4t2 15q25 172 41 288q4 35 6 39q8 16 23 17q8 2 26 2q45 0 45 -29q0 -2 -49 -317q-2 -14 -1 -17.5t13 -3.5h168h6q12 4 13 10q2 6 2 11 q49 315 51 327q8 18 35 19q55 0 55 -27q0 -8 -10 -74.5t-22.5 -147.5t-14.5 -102q-2 -10 0 -13t10 -3h121q23 0 30 -7t7 -32q0 -35 -33 -35h-133q-14 0 -17 -3t-5 -15l-35 -231q-2 -8 -1 -12.5t3 -5.5t12 -1h180q18 0 23.5 -8t5.5 -33q0 -20 -7 -27.5t-28 -7.5h-186 q-14 0 -17 -14l-41 -293q-2 -12 -5 -18t-14 -9.5t-34 -3.5q-41 0 -41 23q0 25 43 299q2 10 1 13t-13 3h-172q-12 0 -14.5 -2t-4.5 -14q-41 -297 -43 -301q-12 -20 -51 -21q-43 0 -43 33q0 6 9.5 64.5t19.5 130t14 94.5q2 12 -1 14t-17 2h-119q-31 0 -31 35zM332 393.5 q2 -2.5 16 -2.5h168q12 0 15.5 2t5.5 15q33 221 34 227q4 16 2 20t-16 4h-166q-20 0 -22 -16t-37 -235q-2 -12 0 -14.5z" />
<glyph unicode="$" d="M96 262q0 20 27 40t47 20q8 0 18.5 -19.5t25.5 -55.5t28 -59q47 -84 102 -114q33 -14 49 -17q8 -2 11.5 1t5.5 16l65 479q4 23 2 30t-14 15q-72 45 -108 69.5t-86 71.5t-72.5 101.5t-22.5 122.5q0 154 112.5 240.5t262.5 86.5q18 0 20 15l11 73q2 25 18 25h29 q14 0 12 -25l-10 -75q-2 -16 6 -19q125 -20 196.5 -110.5t71.5 -157.5q0 -27 -12 -42.5t-31 -15.5q-23 0 -43 19.5t-24 44.5q-4 14 -8.5 45t-9.5 52.5t-13 31.5q-53 70 -125 82q-18 4 -19 -4l-65 -502q-4 -29 4 -35t29 -18q66 -43 100.5 -68.5t81.5 -73t68.5 -105.5 t21.5 -130q0 -139 -108.5 -220t-276.5 -81q-14 0 -18 -25l-29 -252q-2 -16 -18 -16h-39q-14 0 -11 23l37 247q2 8 2 19q0 8 -3 11t-15 5q-6 2 -10 2q-121 25 -197 105.5t-76 146.5zM295 993q0 -72 53 -143.5t125 -110.5q20 -10 23 15l63 477q0 8 -8 8q-98 -4 -177 -73 t-79 -173zM471 57q0 -10 5 -11t26 -1q100 4 164.5 71.5t64.5 180.5q0 76 -54 145.5t-134 108.5q-8 4 -11 -6q-61 -474 -61 -488z" />
<glyph unicode="%" horiz-adv-x="1345" d="M96 741q0 129 108.5 273.5t260.5 144.5q84 0 149 -65q47 -47 115 -47q90 0 186 57q27 16 54.5 38.5t44 38t46.5 45t38 36.5l8 10q10 10 18.5 19t10.5 9q10 0 26.5 -11t16.5 -19t-15 -29q-96 -139 -475 -702.5t-412 -614.5q-8 -14 -45 -14q-43 0 -43 22q0 2 9 19 q0 2 162.5 234.5t348 501.5t230.5 349q14 23 -6 13q-104 -49 -203 -50q-27 0 -41 2q-25 -16 -24 -22v-29q0 -35 -2 -51q-12 -150 -119 -271.5t-236 -121.5q-98 0 -154.5 67.5t-56.5 167.5zM209 688q0 -59 26.5 -99t77.5 -40q102 0 190.5 117.5t88.5 277.5q0 137 -100 137 q-90 0 -186.5 -129t-96.5 -264zM682 211q0 147 115.5 284.5t261.5 137.5q88 0 139 -62.5t51 -167.5q0 -162 -110.5 -295t-245.5 -133q-98 0 -154.5 68t-56.5 168zM795 160q0 -139 104 -140q100 0 189.5 118t89.5 276q0 139 -103 139q-88 0 -184 -129t-96 -264z" />
<glyph unicode="&#x26;" horiz-adv-x="1419" d="M66 412q0 78 28.5 145.5t61 103t66.5 63.5t34 30l-18 20q-16 18 -32 40t-29 66t-13 95q0 143 91 245.5t249 102.5q84 0 162 -33q80 -33 79 -90q0 -66 -45 -110q-6 -6 -13 -8.5t-13 0.5t-9 6.5t-10 11.5l-6 8q-80 86 -194 86q-86 0 -150.5 -67.5t-64.5 -155.5 q0 -72 34.5 -125t79.5 -53q27 0 61 5t52 5q45 0 45 -31q0 -37 -48 -65.5t-83 -28.5q-25 0 -82 29q-6 0 -16.5 -6.5t-27.5 -22.5t-31.5 -38t-25 -59.5t-10.5 -84.5q0 -172 119 -276.5t295 -104.5q55 0 109.5 12t111 44t99.5 79t70.5 123t27.5 170q0 37 -6 80t-15 45 q-156 57 -231 57q-57 0 -92 -28.5t-35 -82.5q0 -41 22.5 -64.5t46 -30.5t64.5 -15q8 -2 12 -2q37 -6 37 -25q0 -20 -22.5 -36.5t-47 -16.5t-53.5 8q-59 18 -87.5 64.5t-28.5 83.5q0 121 83 189.5t197 68.5q45 0 182.5 -48.5t217.5 -48.5q49 0 78.5 31t29.5 78 q0 123 -166 123q-29 0 -28 20q0 35 26.5 56.5t55.5 21.5q84 0 124.5 -60.5t40.5 -127.5q0 -78 -34 -138q-31 -51 -92.5 -81.5t-110.5 -30.5t-78 6q-18 4 -18 -8q0 -6 1 -29.5t1 -34.5q0 -68 -18.5 -142.5t-61.5 -155.5t-106.5 -144.5t-163 -105.5t-220.5 -42 q-213 0 -335.5 123.5t-122.5 311.5z" />
<glyph unicode="'" horiz-adv-x="268" d="M55 1047q0 2 4 66.5t9.5 140t7.5 96.5q8 66 71 65q66 0 66 -57q0 -10 -4 -31q-8 -29 -25.5 -88t-36 -117.5t-20.5 -66.5q-2 -4 -4 -11.5t-3 -10.5t-3 -8t-4 -6t-6.5 -3t-9.5 -3t-11 -1q-31 0 -31 35z" />
<glyph unicode="(" horiz-adv-x="571" d="M76 584q0 152 39 293t92 234t110.5 166t95.5 106.5t44 33.5q12 0 25.5 -10t13.5 -23q0 -2 -30 -36.5t-73 -99t-86 -150.5t-72.5 -216t-29.5 -274q0 -162 28.5 -307t70.5 -238.5t84 -163t70.5 -109.5t28.5 -48q0 -35 -38 -35q-10 0 -50.5 45t-94.5 129t-105.5 188.5 t-87 243t-35.5 271.5z" />
<glyph unicode=")" horiz-adv-x="571" d="M76 -260q0 2 29.5 37t72.5 99.5t86 150.5t73 216t30 273q0 162 -29 307.5t-71 238.5t-84 162.5t-70.5 109.5t-28.5 48q0 35 39 35q10 0 50 -45t94.5 -129t105.5 -188.5t87 -242.5t36 -271q0 -152 -39 -293.5t-92.5 -234.5t-110.5 -165.5t-95 -106.5t-44 -34 q-12 0 -25.5 10.5t-13.5 22.5z" />
<glyph unicode="*" horiz-adv-x="800" d="M55 915q0 49 51 70q23 10 103 38t104 38q27 10 32 16t1 10.5t-27 20.5q-12 8 -86.5 55t-93.5 68q-29 33 -28 63q0 25 16 43.5t47 18.5q39 0 68 -33q16 -16 38.5 -51t50 -81t36.5 -61q14 -23 15 -22.5t11 20.5q8 18 25.5 69.5t33 92.5t27.5 58q27 41 70 41q27 0 44 -20.5 t17 -43.5q0 -29 -20 -57q-18 -27 -81 -82.5t-79 -71.5q-23 -25 -17.5 -29t29.5 -6q16 -2 114.5 -4t125.5 -10q63 -20 63 -70q0 -31 -21.5 -48t-49.5 -17q-20 0 -59.5 17.5t-95.5 47t-79 39.5q-29 12 -29.5 12.5t1.5 -28.5q6 -23 21.5 -73t26.5 -90t11 -62q0 -35 -16.5 -60.5 t-51 -25.5t-54 26.5t-19.5 57.5q0 18 6 53t15 81t14 70q4 20 4 33q0 29 -27 2l-6 -6q-12 -12 -73.5 -76.5t-86 -79t-53.5 -14.5t-48.5 16t-19.5 45z" />
<glyph unicode="+" horiz-adv-x="1079" d="M57 434q0 25 7.5 36t35.5 11h349q18 0 26 4t10 10.5t2 18.5v360q0 25 11.5 31t38.5 6q18 0 27 -2t18.5 -13t9.5 -32v-334q0 -49 29 -49h362q18 0 26.5 -7t10.5 -16t2 -26q0 -31 -8 -42t-41 -11h-352q-14 0 -20.5 -3t-7.5 -7t-1 -21v-358q0 -41 -47 -41q-35 0 -46.5 7 t-11.5 36v356q0 23 -7 27t-36 4h-346q-18 0 -27.5 7t-11.5 17.5t-2 30.5z" />
<glyph unicode="," horiz-adv-x="399" d="M8 -258q0 2 12.5 12t36 29.5t41.5 36.5q96 96 97 157q0 31 -29 68q-12 14 -33.5 36.5t-35 37t-13.5 20.5q0 16 45 40t72 24q31 0 77 -50.5t46 -119.5q0 -59 -65.5 -144.5t-131.5 -141.5t-78 -56t-26.5 19.5t-14.5 31.5z" />
<glyph unicode="-" horiz-adv-x="548" d="M55 412q0 27 13.5 56.5t29.5 31.5q14 2 189.5 8t187.5 6q8 0 8 -16q0 -80 -20 -82q-229 -16 -393 -17q-15 1 -15 13z" />
<glyph unicode="." horiz-adv-x="430" d="M117 78q0 41 33.5 76.5t66.5 35.5q31 0 63.5 -34.5t32.5 -67.5q0 -51 -31.5 -81t-56.5 -30q-43 0 -75.5 35t-32.5 66z" />
<glyph unicode="/" horiz-adv-x="831" d="M10 -459q0 16 43 127l649 1741q8 27 17.5 33t48.5 6q51 0 51 -23q0 -20 -31 -98l-643 -1743q-20 -57 -32 -63q-10 -4 -43 -4q-60 -1 -60 24z" />
<glyph unicode="0" d="M121 336q0 180 119.5 300t300.5 120q164 0 264 -100.5t100 -249.5q0 -176 -120.5 -299t-292.5 -123q-158 0 -264.5 96t-106.5 256zM225 319q0 -123 68.5 -190.5t179.5 -67.5q125 0 223.5 103.5t98.5 259.5q0 119 -72 188.5t-182 69.5q-127 0 -221.5 -116t-94.5 -247z" />
<glyph unicode="1" d="M260 25q0 18 5 25t26 7h86h4q10 0 10 9q2 6 2 12q18 94 44 249.5t42.5 264t16.5 113.5q2 12 1 17t-12 5h-112q-25 0 -25 33q0 35 25 35q18 0 93 -2t101.5 -2t98 2t90.5 2q16 0 20 -7.5t4 -27.5q0 -18 -5 -25.5t-25 -7.5h-84q-16 0 -19 -12q-2 -4 -2 -8q-82 -539 -94 -631 q-2 -10 2 -14.5t18 -4.5h109q25 0 25 -32q0 -35 -25 -35q-14 0 -84 2t-117 2q-41 0 -114.5 -2t-79.5 -2q-25 0 -25 35z" />
<glyph unicode="2" d="M104 23q0 18 27 38q29 27 143.5 106t176.5 132q147 131 147 246q0 80 -44 132t-122 52q-59 0 -117.5 -41t-93.5 -83t-37 -42q-10 0 -26.5 13.5t-16.5 25.5t46 61.5t132.5 99.5t169.5 50q127 0 195 -63.5t68 -176.5q0 -63 -42 -127.5t-119 -124t-126 -92t-119 -73.5 q-37 -20 -49 -31h510q6 0 34.5 50t32.5 50q8 0 28 -8t20 -12q0 -6 -15.5 -37t-38 -78t-34.5 -80q-6 -16 -25 -16h-668q-37 0 -37 29z" />
<glyph unicode="3" d="M109 -299q0 31 77 31q51 0 74 -25q74 -88 160 -88q109 0 199 96.5t90 212.5q0 221 -283 222q-25 0 -70 -3l-45 -4q-39 0 -39 29q0 25 8.5 33t34.5 16q348 98 349 336q0 78 -44.5 125t-119.5 47q-59 0 -111.5 -18.5t-83.5 -37t-35 -18.5q-6 0 -17 16.5t-11 24.5 q0 12 46 37t117.5 45.5t133.5 20.5q115 0 185.5 -58.5t70.5 -165.5q0 -170 -238 -303q-6 -2 -8 -4q152 -33 219 -96q88 -80 88 -215q0 -164 -141.5 -282.5t-315.5 -118.5q-92 0 -162.5 28.5t-99 61t-28.5 55.5z" />
<glyph unicode="4" d="M88 16q0 47 90 164q10 14 37 41t35 37q70 84 334 356q37 41 115.5 118t99.5 77q29 0 28 -35q0 -12 -2 -20l-102 -607q-4 -16 -2 -23t18 -7h179q20 0 20 -27v-70q0 -16 -6 -21t-25 -5h-202q-12 0 -15 -6v-4q-6 -53 -18.5 -147.5t-21.5 -161t-9 -68.5q-2 -18 -9 -22.5 t-26 -8.5q-86 -16 -90 -16q-35 0 -35 37q0 4 12.5 69.5t32 168t27.5 145.5q2 10 -1 12t-15 2h-406q-43 -1 -43 22zM221 131q0 -14 39 -14h301q16 0 22.5 5t10.5 30l72 444q2 12 -2.5 12t-12.5 -8l-403 -430q-27 -27 -27 -39z" />
<glyph unicode="5" d="M113 -408q0 27 20 27q86 6 162 28.5t146.5 63.5t111.5 113t41 166q0 76 -54.5 143.5t-120 105t-119.5 73.5t-54 57q0 14 22.5 75.5t58 156.5t56.5 163q6 16 33 16q8 0 172 -15t176 -15h16q25 0 31 12q27 53 29 53q49 0 49 -22q0 -4 -51 -142q-14 -35 -27 -39 q-8 -4 -20 -4t-58.5 6.5t-127.5 18.5t-146 20q-43 4 -51 -10q-23 -45 -46.5 -110.5t-23.5 -75.5q0 -4 41 -25.5t99.5 -57.5t115.5 -84t98 -120t41 -152q0 -137 -100.5 -245.5t-234.5 -160.5t-263 -52q-22 -1 -22 32z" />
<glyph unicode="6" d="M106 383q0 221 115 422t285 348q113 96 231.5 157.5t155.5 61.5q27 0 27 -45q0 -8 -21 -18q-166 -66 -264 -162q-186 -180 -275 -352q-29 -61 -28 -66q147 23 182 23q164 0 261 -94.5t97 -266.5q0 -184 -121.5 -295.5t-295.5 -111.5q-145 0 -247 90t-102 309zM244 354 q0 -106 55 -202.5t178 -96.5q106 0 174 103.5t68 244.5q0 293 -240 293q-37 0 -97 -14t-69 -27q-69 -94 -69 -301z" />
<glyph unicode="7" d="M127 586q0 8 12.5 42t28.5 89t27 110q6 47 30 47q41 0 41 -24q0 -6 -2 -18.5t-2 -18.5q14 -2 98 -2h549q33 0 33 -25q0 -16 -85 -159.5t-206 -342t-149 -247.5q-166 -285 -223 -438q-12 -35 -31 -35q-25 0 -47.5 13t-22.5 34q0 59 115 253.5t295 465t209 317.5 q10 16 10 23q0 10 -23 10h-395q-147 0 -168 -14l-26 -82q-10 -23 -27 -23q-41 0 -41 25z" />
<glyph unicode="8" d="M137 266q0 68 25.5 130.5t67.5 109.5t79 79.5t75 59.5t40 29q-2 2 -23.5 22.5t-41 40t-46 54t-46 68.5t-33 78t-13.5 87q0 147 100.5 241.5t258.5 94.5q129 0 207.5 -74t78.5 -207q0 -70 -40 -141.5t-84 -112.5t-93 -79.5t-51 -40.5q2 -2 24.5 -24t45 -44.5t52.5 -61 t52.5 -76.5t37.5 -89.5t15 -102.5q0 -139 -109.5 -229t-269.5 -90q-141 0 -225 70.5t-84 207.5zM260 297q0 -111 61.5 -178.5t143.5 -67.5q96 0 161.5 71t65.5 165q0 98 -95 214.5t-136 137.5q-20 -6 -64.5 -47t-90.5 -124t-46 -171zM342 1094q0 -70 50 -156t98.5 -137 t64.5 -60q18 6 63.5 48t90.5 124t45 162q0 98 -55.5 161.5t-147.5 63.5q-96 0 -152.5 -63t-56.5 -143z" />
<glyph unicode="9" d="M80 -379q0 10 70 33q233 82 479 379q27 33 37 57q-6 -2 -24.5 -9t-25.5 -9q-84 -27 -153 -27q-131 0 -210 95.5t-79 252.5q0 184 129 302t303 118q145 0 228.5 -109.5t83.5 -287.5q0 -160 -81 -311.5t-208 -258.5q-100 -86 -229.5 -153.5t-204 -93t-91.5 -25.5 q-24 0 -24 47zM307 354q0 -111 52.5 -176t158.5 -65q88 0 150 26q49 20 83.5 127t34.5 226q0 123 -50 189.5t-132 66.5q-131 0 -214 -123.5t-83 -270.5z" />
<glyph unicode=":" horiz-adv-x="428" d="M117 78q0 41 33.5 76.5t66.5 35.5q31 0 63.5 -34.5t32.5 -67.5q0 -51 -31.5 -81t-56.5 -30q-43 0 -75.5 35t-32.5 66zM176 641q0 41 34 77t66 36q31 0 64 -35t33 -68q0 -51 -32 -80.5t-56 -29.5q-43 0 -76 34.5t-33 65.5z" />
<glyph unicode=";" horiz-adv-x="399" d="M8 -258q0 2 12.5 12t36 29.5t41.5 36.5q96 96 97 157q0 31 -29 68q-12 14 -33.5 36.5t-35 37t-13.5 20.5q0 16 45 40t72 24q31 0 77 -50.5t46 -119.5q0 -59 -65.5 -144.5t-131.5 -141.5t-78 -56t-26.5 19.5t-14.5 31.5zM158 641q0 41 33.5 77t66.5 36q31 0 63.5 -35 t32.5 -68q0 -51 -31.5 -80.5t-56.5 -29.5q-43 0 -75.5 34.5t-32.5 65.5z" />
<glyph unicode="&#x3c;" horiz-adv-x="1079" d="M78 432q0 35 35 47l845 307q45 0 46 -57q0 -25 -37 -39l-645 -227q-70 -25 -82 -37q2 -2 82 -31l655 -229q27 -8 27 -33q0 -18 -14.5 -36.5t-41.5 -18.5q-8 0 -837 301q-33 10 -33 53z" />
<glyph unicode="=" horiz-adv-x="1079" d="M57 274q0 25 7.5 37.5t35.5 12.5h883q18 0 26.5 -7.5t10.5 -16.5t2 -26q0 -31 -8 -43t-41 -12h-875q-29 0 -35 12t-6 43zM57 594q0 25 7.5 36t35.5 11h883q18 0 26.5 -7t10.5 -16.5t2 -25.5q0 -31 -8 -42t-41 -11h-875q-29 0 -35 12t-6 43z" />
<glyph unicode="&#x3e;" horiz-adv-x="1079" d="M78 133q0 27 24 33l658 229q76 27 82 31q-10 10 -82 37l-647 227q-35 12 -35 39q0 57 43 57q2 0 846 -307q37 -14 37 -47q0 -41 -35 -53q-829 -301 -838 -301q-27 0 -40 18.5t-13 36.5z" />
<glyph unicode="?" horiz-adv-x="765" d="M158 78q0 41 33.5 76.5t66.5 35.5q31 0 63.5 -34.5t32.5 -67.5q0 -51 -31.5 -81t-56.5 -30q-43 0 -75.5 35t-32.5 66zM166 422q0 92 135 227q29 29 87 84t93 90t75 80t59.5 83t19.5 69q0 41 -22.5 81t-51.5 58q-47 29 -178 29q-27 0 -92.5 -3t-71.5 -3q-31 0 -31 65v21 q0 23 9.5 28.5t33.5 9.5q61 10 131 11q127 0 189 -39q68 -45 108.5 -125t40.5 -162q0 -20 -2 -38.5t-3 -32t-6 -29t-7 -24.5t-10 -22.5t-10.5 -18.5t-14.5 -19.5t-14 -17.5t-17.5 -19.5t-17.5 -20.5q-33 -37 -215 -219q-6 -6 -28.5 -27.5t-37 -36t-33 -36t-27.5 -39.5 t-9 -33q0 -31 28 -69l29 -39q0 -6 -13 -19.5t-22 -13.5q-10 0 -33.5 23.5t-47 65.5t-23.5 81z" />
<glyph unicode="@" horiz-adv-x="1628" d="M96 383q0 172 75 327.5t195.5 264t276.5 172t315 63.5q156 0 280 -46t209 -163.5t85 -295.5q0 -188 -112.5 -330t-267.5 -206.5t-314 -64.5q-78 0 -78 52q0 33 8 77q-125 -125 -231 -124q-61 0 -93 52t-32 124q0 53 40 141t106.5 175t166.5 150.5t205 63.5q12 0 27.5 -3 t24.5 -6t11 -3q4 2 25 28q29 35 61 35q57 0 58 -32q0 -14 -7 -31q-225 -485 -225 -567q0 -31 5 -44.5t30 -13.5q86 0 188.5 50.5t192.5 140.5q137 137 137 321q0 225 -134 338t-359 113q-319 0 -553 -221.5t-234 -548.5q0 -240 163 -388.5t388 -148.5q197 0 344.5 65.5 t286.5 194.5q20 20 31 21q14 0 25 -16.5t11 -24.5q0 -10 -12 -23q-129 -139 -309 -214t-383 -75q-258 0 -442.5 166t-184.5 455zM561 301q0 -35 22.5 -61.5t57.5 -26.5q86 0 190.5 217t104.5 287q0 18 -18.5 30.5t-40.5 12.5q-82 0 -199 -152.5t-117 -306.5z" />
<glyph unicode="A" horiz-adv-x="1409" d="M35 31q0 20 8 25t35 5h65q16 18 158.5 264t313.5 535t241 393q8 12 45 51t57 76q16 33 37 33q29 0 33 -43q213 -1268 234 -1309h84q18 0 23 -7t5 -25q0 -25 -5 -33t-23 -8q-12 0 -81 3t-104 3q-33 0 -120 -3t-109 -3q-20 0 -26.5 8t-6.5 35q0 20 8 25t35 5h115v17 q0 49 -28 246.5t-30 212.5q-4 25 -6 28.5t-16 3.5h-395q-18 0 -24.5 -3t-16.5 -23q-238 -444 -248 -482h135q18 0 23.5 -7t5.5 -25q0 -25 -5.5 -33t-23.5 -8t-88 3t-121 3q-35 0 -89 -3t-62 -3q-20 0 -26.5 8t-6.5 35zM588 637q0 -6 30 -6h343q20 0 20 4q0 20 -43 279.5 t-47 259.5l-64 -113q-63 -111 -140 -245t-85 -150q-14 -25 -14 -29z" />
<glyph unicode="B" horiz-adv-x="1169" d="M35 31q0 20 8 25t35 5h82l8 52q8 51 19.5 127.5t26.5 179t30.5 209t31 215t26.5 196.5t18.5 155t7.5 91v10h-140q-20 0 -26 6.5t-6 30.5q0 35 24 35l107 -4q106 -2 149 -2q33 0 124 3t102 3q411 0 411 -309q0 -73 -31.5 -134t-72.5 -97.5t-100.5 -67.5t-94.5 -44.5 t-74 -23.5q39 -6 76 -13t97.5 -32.5t102.5 -61.5t74.5 -100.5t32.5 -146.5q0 -350 -598 -350q-23 0 -97.5 3t-107 3t-110.5 -3t-100 -3q-20 0 -27.5 8t-7.5 35zM346 98q0 -18 10.5 -21t53.5 -7q29 -2 92 -2q186 0 293.5 74.5t107.5 228.5q0 143 -101.5 213.5t-264.5 70.5 h-64q-37 0 -43 -3t-10 -17q-4 -23 -39 -273t-35 -264zM430 721q0 -10 21 -10h32q18 0 43 -1t42.5 -1h19.5q41 0 110 34q201 102 201 283q0 123 -82 197.5t-221 74.5h-33q-31 0 -41 -10t-18 -49q-20 -125 -72 -494q-2 -10 -2 -24z" />
<glyph unicode="C" horiz-adv-x="1404" d="M66 596q0 332 223 558t526 226q125 0 240.5 -49t189.5 -123q23 78 29 78q18 0 41.5 -7t23.5 -22q0 -6 -15 -83.5t-34.5 -174t-21.5 -110.5q-4 -14 -33 -15q-20 0 -36.5 9.5t-16.5 19.5q0 4 22.5 95.5t24.5 103.5q-12 20 -66.5 65t-156 94.5t-193.5 49.5q-152 0 -281 -114 t-199.5 -278.5t-70.5 -328.5q0 -250 140.5 -396.5t349.5 -146.5q94 0 184 34t135 67.5t51 50.5q20 59 52 172q8 25 35 25q9 0 20 -3q39 -8 39 -28q0 -14 -68 -240q-12 -39 -170 -99.5t-293 -60.5q-131 0 -246.5 34t-213 104.5t-154.5 197.5t-57 295z" />
<glyph unicode="D" horiz-adv-x="1519" d="M33 20q0 25 9 31t32 6h84q14 49 83.5 541t94.5 682l-4 16l-142 -4q-33 0 -32 31q0 14 2 21.5t9 12.5t21 5q2 0 49.5 -1t105.5 -1h89q68 0 155 2t116 2q340 0 539.5 -165t199.5 -513q0 -332 -214 -516t-532 -184q-66 0 -221 4t-217 4q-33 0 -112.5 -4t-86.5 -4 q-18 0 -23 7t-5 27zM356 94q0 -25 11 -31q8 -6 116 -6q143 0 261 29t196 74t137.5 108.5t91 125t51 132t25.5 121.5t6 101q0 250 -150.5 398t-453.5 148q-123 0 -123 -8q-29 -184 -98.5 -658.5t-69.5 -533.5z" />
<glyph unicode="E" horiz-adv-x="1185" d="M35 31q0 20 8 25t35 5h82q0 4 21.5 140.5t44 285t47 318.5t41 302t16.5 175l-2 14h-119q-20 0 -28.5 6.5t-8.5 30.5q0 35 27 35l96 -4q98 -2 141 -2q57 0 222 3t206 3q186 0 189 21q0 30 30 30h2q41 0 41 -28q0 -10 -8 -87t-10 -174q0 -14 -8 -18t-31 -4q-37 0 -37 27 q0 6 12 153q-86 12 -528 12q-20 -57 -82 -544q-2 -10 -2 -21q18 -8 25 -8h336q86 0 90 23l22 112q2 14 39 15q33 0 33 -19q0 -8 -5 -35.5t-14.5 -70.5t-15.5 -74q-29 -150 -31 -184q-2 -16 -32 -17h-9q-33 0 -32 17q0 6 12 73.5t12 69.5q0 22 -88 22h-8h-309q-23 0 -27 -2 t-8 -14q-6 -29 -40 -264.5t-40 -298.5q0 -12 8 -12q29 0 337 7t317 7q6 6 18 40t27.5 83t25.5 71q8 23 35 23q14 0 27.5 -8t13.5 -20.5t-11.5 -45t-35 -97.5t-39.5 -114q-8 -26 -39 -26h-2q-23 0 -367 3t-376.5 3t-110.5 -3t-100 -3q-20 0 -27.5 8t-7.5 35z" />
<glyph unicode="F" horiz-adv-x="1107" d="M35 31q0 20 7 25t32 5h86q0 4 21.5 140.5t44 285t47 318.5t41 302t16.5 175l-2 14h-111q-45 0 -45 37q0 35 31 35l96 -4q94 -2 137 -2q57 0 222 3t206 3q133 0 135 18v3q4 30 31 30h2q27 0 34 -4t7 -24q0 -4 -4 -39t-8 -95.5t-6 -121.5q0 -16 -7.5 -21.5t-31.5 -5.5 q-10 0 -17.5 2t-10.5 3t-5 8t-2 9.5v12.5q0 23 10 145q-74 12 -475 12q-8 -25 -82 -546q-2 -8 -2 -19q18 -8 25 -8h319q86 0 90 23l17 88q2 18 39 18q33 0 32 -18q0 -4 -28 -160q-6 -29 -11.5 -62.5t-9.5 -63.5t-4 -36q-2 -18 -33 -18q-12 0 -19 1t-14.5 5t-7.5 14 q2 8 7.5 39t8.5 54.5t3 25.5q0 22 -88 22h-8h-293q-23 0 -27 -2t-8 -14q-4 -27 -38 -266.5t-42 -302.5q-2 -12 10 -13h137q16 0 20.5 -6t4.5 -26q0 -18 -1 -25.5t-6 -11.5t-18 -4q-23 0 -99.5 3t-109 3t-112.5 -3t-102 -3q-20 0 -25.5 8t-5.5 35z" />
<glyph unicode="G" horiz-adv-x="1476" d="M66 545q0 340 231 592t545 252q238 0 442 -123q2 10 4 25.5t4 24.5t9.5 17t19.5 8t22.5 -1t19.5 -7t7 -16q-27 -172 -47 -359q-4 -35 -37 -34q-45 0 -45 30q0 2 1 5.5t1 5.5q2 4 16.5 94t16.5 106q-23 27 -175.5 93.5t-250.5 66.5q-158 0 -294 -116.5t-210 -291 t-74 -352.5q0 -248 135.5 -395t333.5 -147q90 0 168 24.5t117 51t43 46.5q31 113 37 277q0 23 -12 22h-179q-18 0 -18 31q0 43 21 43q31 0 132 -3t138 -3q35 0 104.5 3t110.5 3q18 0 18 -35q0 -39 -18 -39h-117q0 -2 -37 -292q-2 -25 -93 -74t-241.5 -93t-283.5 -44 q-57 0 -122 13t-146.5 53t-145 103.5t-107.5 176.5t-44 258z" />
<glyph unicode="H" horiz-adv-x="1628" d="M35 27q0 20 7 27t32 7h108q20 49 100 601t80 614q0 27 -12 27h-133q-23 0 -22 36q0 25 7 31t29 6q12 0 101.5 -3t124.5 -3q33 0 108.5 3t98.5 3q20 0 27 -8t7 -35q0 -20 -8 -25t-35 -5h-100q-18 -39 -92 -547q-4 -14 -1 -23.5t19 -9.5h693q20 0 22 18q61 449 61 535 q0 18 -2 22.5t-10 4.5h-129q-27 0 -26 36q0 25 9 31t31 6q12 0 100.5 -3t123.5 -3q33 0 107.5 3t97.5 3q20 0 27 -8t7 -35q0 -20 -8 -25t-35 -5h-100q-23 -43 -95.5 -612.5t-72.5 -608.5q0 -20 10 -21h117q18 0 23.5 -7t5.5 -25q0 -25 -5.5 -33t-23.5 -8q-23 0 -112 3 t-121.5 3t-102 -3t-92.5 -3q-20 0 -27.5 8t-7.5 35q0 20 8.5 25t34.5 5h105q10 33 88 582q2 12 -1 15.5t-16 3.5h-692q-18 0 -22.5 -3.5t-6.5 -23.5q-65 -474 -65 -551q0 -22 10 -23h121q18 0 23.5 -7t5.5 -25q0 -25 -5.5 -33t-23.5 -8q-23 0 -111 3t-120.5 3t-111.5 -3 t-101 -3q-20 0 -25.5 8t-5.5 31z" />
<glyph unicode="I" horiz-adv-x="772" d="M35 31q0 20 8 25t35 5h119q18 55 99 598t81 617q0 27 -12 27h-138q-29 0 -28 36q0 25 9 31t32 6q12 0 108 -3t131 -3q33 0 117 3t106 3q20 0 27.5 -8t7.5 -35q0 -20 -8 -25t-35 -5h-114q-23 -47 -100 -588t-77 -633q0 -20 11 -21h135q18 0 23.5 -7t5.5 -25 q0 -25 -5.5 -33t-23.5 -8q-23 0 -119 3t-129 3t-121 -3t-110 -3q-20 0 -27.5 8t-7.5 35z" />
<glyph unicode="J" horiz-adv-x="747" d="M-125 -385q0 49 59.5 93t83.5 44q18 0 52 -21.5t55 -21.5q43 0 60.5 67.5t29.5 186.5q2 18 2 27q23 217 62.5 533.5t68.5 526.5t29 222q0 31 -15 31h-143q-23 0 -33 6t-10 30.5t10.5 30.5t32.5 6q12 0 116.5 -3t139.5 -3q33 0 106.5 3t96.5 3q20 0 27.5 -8t7.5 -35 q0 -20 -8.5 -25t-34.5 -5h-101q-18 -39 -147 -1037q-2 -8 -8 -58t-9.5 -65.5t-10.5 -62.5t-14 -68.5t-18.5 -64.5t-24.5 -70t-30.5 -61.5t-40 -64.5t-49.5 -58q-39 -41 -65.5 -64.5t-71.5 -46t-90 -22.5q-41 0 -78 15t-37 40z" />
<glyph unicode="K" horiz-adv-x="1343" d="M35 27q0 20 8 27t35 7h63q20 51 105.5 603.5t85.5 611.5q0 27 -13 27h-116q-31 0 -31 36q0 25 10.5 31t34.5 6q12 0 93 -3t116 -3q33 0 100.5 3t89.5 3q20 0 25.5 -8t5.5 -35q0 -20 -7 -25t-32 -5h-76q-20 -16 -64 -268.5t-48 -301.5q-4 -35 20 -35h101q14 0 187 221.5 t267 350.5q16 25 17 26q0 6 -23 7h-47q-23 0 -32 6t-9 30.5t8.5 30.5t28.5 6q10 0 62.5 -3t86.5 -3q47 0 99.5 3t64.5 3q20 0 27.5 -8t7.5 -35q0 -20 -8 -25t-35 -5h-115q-164 -219 -446 -533q-6 -6 -16 -18q-14 -14 -15 -17q0 -6 15 -20q49 -45 115.5 -124t115.5 -144.5 t133 -182.5t125 -170q23 -33 68 -33h61q16 0 20.5 -6t4.5 -26q0 -18 -1 -25.5t-6.5 -11.5t-17.5 -4q-14 0 -93 3t-144 3q-33 0 -87.5 -3t-76.5 -3q-20 0 -25.5 8t-5.5 35q0 20 8 25t35 5h16q35 0 35 9q0 6 -22 36q-385 543 -400 543h-100q-16 0 -18 -14q-8 -68 -30 -208 t-34 -230.5t-12 -118.5q0 -4 2 -10v-7h137q18 0 23.5 -7t5.5 -25q0 -25 -5.5 -33t-23.5 -8q-23 0 -111 3t-120.5 3t-91 -3t-80.5 -3q-20 0 -25.5 8t-5.5 31z" />
<glyph unicode="L" horiz-adv-x="1200" d="M35 31q0 20 8 25t33 5h102q12 76 84 628t72 593v21h-121q-23 0 -29 7t-6 29q0 25 7.5 31t31.5 6q8 0 82 -3t127 -3q55 0 132 3t93 3q27 0 34 -7t7 -30q0 -20 -9 -28t-34 -8h-121q-14 -96 -85.5 -637t-71.5 -557q0 -39 37 -39q465 0 587 12q23 2 27 6t14 37l54 162 q6 20 26 18q49 -6 49 -29q0 -4 -10 -37.5t-30.5 -99t-37.5 -125.5q-8 -26 -34 -26h-2q-23 0 -384.5 3t-394 3t-107.5 -3t-97 -3q-20 0 -26.5 8t-6.5 35z" />
<glyph unicode="M" horiz-adv-x="1808" d="M35 31q0 20 8 25t35 5h94q23 106 94.5 427t123.5 557.5t52 247t-45 10.5h-94q-18 0 -23.5 7t-5.5 25q0 25 5.5 33t23.5 8q12 0 102.5 -3t112.5 -3q27 0 59.5 3t36.5 3q41 0 48 -30l206 -1043q8 -37 16.5 -37t24.5 37q344 719 516 1034q18 33 50 33h90q33 0 92 3t82 3 q20 0 27.5 -8t7.5 -35q0 -20 -8.5 -25t-34.5 -5h-89q-18 -150 -73.5 -655t-57.5 -587h152q18 0 25.5 -6t7.5 -26q0 -25 -5 -33t-24 -8q-23 0 -120 3t-130 3q-37 0 -114.5 -3t-81.5 -3q-20 0 -27.5 8t-7.5 35q0 20 8 25t35 5h78q41 53 155 1180q-352 -672 -501 -989 q-18 -41 -40 -68.5t-56 -62.5t-60 -70q-23 -27 -37 -26q-31 0 -39 49q-33 213 -221 1163q-61 -236 -109 -467q-121 -573 -129 -709h127q18 0 23.5 -7t5.5 -25q0 -25 -5 -33t-24 -8q-4 0 -73.5 3t-106.5 3q-35 0 -86 -3t-61 -3q-20 0 -27.5 8t-7.5 35z" />
<glyph unicode="N" horiz-adv-x="1687" d="M35 31q0 20 8 25t35 5h96q45 276 182 1047q23 113 23 149q0 4 -10 23q-8 14 -14.5 18.5t-28.5 4.5h-123q-16 0 -20.5 6t-4.5 26q0 18 1 25.5t6 11.5t17.5 4t112 -3t121.5 -3q27 0 57.5 3t34.5 3q29 0 47 -28l672 -1022q16 -23 27 -23q18 49 80.5 472t62.5 509v19h-153 q-18 0 -23.5 7t-5.5 25q0 25 5 33t24 8q12 0 75.5 -3t106.5 -3q49 0 106.5 3t65.5 3q20 0 27.5 -8t7.5 -35q0 -20 -8.5 -25t-34.5 -5h-82q-23 -70 -162 -951q-18 -121 -35 -348q-2 -31 -9 -42t-28 -11q-8 0 -15 4t-14.5 12t-11.5 14.5l-12 19.5t-10 17q-113 182 -240 369 l-524 766q-25 31 -29 23q-2 -4 -4 -17l-12 -78q-12 -76 -27.5 -175t-34 -228t-34 -242.5t-25.5 -211t-10 -138.5q0 -10 2 -20v-5h172q18 0 23.5 -7t5.5 -25q0 -25 -5.5 -33t-23.5 -8q-23 0 -103.5 3t-113.5 3q-37 0 -106.5 -3t-71.5 -3q-20 0 -27.5 8t-7.5 35z" />
<glyph unicode="O" horiz-adv-x="1503" d="M66 573q0 178 67.5 334t176 258.5t245.5 160.5t279 58q279 0 441.5 -184t162.5 -487q0 -313 -220.5 -538.5t-533.5 -225.5q-268 0 -443 155.5t-175 468.5zM266 586q0 -111 26.5 -210.5t79 -183t142.5 -133t205 -49.5q150 0 273.5 122t185 292t61.5 340q0 90 -22.5 182 t-67.5 177t-126 138.5t-183 53.5q-217 0 -395.5 -228.5t-178.5 -500.5z" />
<glyph unicode="P" horiz-adv-x="1167" d="M35 31q0 20 8 25t35 5h82q170 1190 170 1221l-2 14h-115q-23 0 -32 6.5t-9 30.5q0 35 27 35l92 -4q92 -2 135 -2q33 0 129 5t111 5q205 0 320.5 -99t115.5 -257q0 -113 -44 -195t-121 -126t-161 -63.5t-180 -19.5q-33 0 -91.5 2t-64.5 2q-29 0 -30 -14q-14 -55 -68 -528 q-2 -12 10 -13h137q16 0 20.5 -6t4.5 -26q0 -18 -1 -25.5t-6 -11.5t-18 -4q-23 0 -99.5 3t-109 3t-110.5 -3t-100 -3q-20 0 -27.5 8t-7.5 35zM420 686q0 -18 57 -18q188 0 321.5 83t133.5 253q0 150 -85 228.5t-251 78.5q-72 0 -86 -6q-35 -205 -86 -580q-4 -37 -4 -39z" />
<glyph unicode="Q" horiz-adv-x="1468" d="M27 -219q0 90 213 90q29 0 78 -5t67 -5q25 0 45 8q82 37 209 102q16 8 16 9.5t-16 5.5q-59 8 -114.5 21t-145.5 57.5t-153.5 108t-111.5 182t-48 270.5q0 186 96 361t271 289t382 114q264 0 426 -177.5t162 -443.5q0 -274 -144.5 -469t-359.5 -272q-27 -10 -55.5 -18.5 t-52 -17.5t-58.5 -26q-106 -51 -186 -94q-35 -18 -35 -23q0 -4 45 -16q545 -147 723 -147q61 0 108.5 6t71 11t25.5 5q12 0 12 -29q0 -6 -59.5 -27.5t-146.5 -42t-144 -20.5q-174 0 -378 44t-341 89.5t-152 45.5q-27 0 -73 -19q-72 -27 -103 -27q-73 1 -73 60zM254 594 q0 -272 147.5 -412.5t352.5 -140.5q39 0 112.5 56.5t152.5 151.5t136 249.5t57 320.5q0 231 -115.5 364.5t-308.5 133.5q-180 0 -357 -216t-177 -507z" />
<glyph unicode="R" horiz-adv-x="1280" d="M35 27q0 20 8 27t35 7h78q39 221 95 620.5t73 567.5q2 16 2 47h-133q-20 0 -28.5 6.5t-8.5 30.5q0 35 32 35q2 0 33 -2t83 -3t112 -1q31 0 142.5 7t148.5 7q178 0 298.5 -94t120.5 -244q0 -279 -376 -372q-8 -2 -11 -2q6 -2 26.5 -9.5t45.5 -15.5t49 -18 q236 -94 236 -342q0 -12 -3 -90t-3 -111v-10l2 -7h92q25 0 33 -7t8 -29q0 -37 -17 -37q-4 0 -62.5 2t-131 3t-111.5 1q-16 0 -12 33q33 193 33 321q0 96 -77 173t-196 102q-49 10 -143 10h-59q-41 0 -48 -43q-53 -373 -59 -516q0 -12 10 -13h109q18 0 25.5 -6t7.5 -26 q0 -25 -5.5 -33t-23.5 -8q-23 0 -87.5 3t-97 3t-110.5 -3t-100.5 -3t-28.5 7t-6 32zM424 717q0 -23 31 -23h14q41 0 89 -3t54 -3q106 0 217 101.5t111 230.5q0 291 -344 291q-78 0 -96 -6l-74 -564q-2 -12 -2 -24z" />
<glyph unicode="S" horiz-adv-x="1034" d="M76 137q0 10 22.5 140.5t26.5 138.5q2 4 18 4q55 0 56 -21q0 -4 -17.5 -96t-17.5 -96q0 -18 56 -57t149.5 -75t173.5 -36q113 0 186.5 69.5t73.5 176.5q0 84 -64.5 145.5t-157 104.5t-184.5 92t-156.5 135t-64.5 207q0 180 120 293.5t306 113.5q135 0 281 -112 q2 8 6 30.5t6 28.5q8 27 31 25q2 0 11 -1t14 -2.5t11.5 -6.5t6.5 -11q0 -14 -66 -348q-4 -25 -26 -25q-47 0 -48 29l15 64q16 63 16 79q-4 14 -34.5 52.5t-100.5 80t-145 41.5q-115 0 -181.5 -72.5t-66.5 -191.5q0 -90 63.5 -152.5t153.5 -101.5t181 -84t154.5 -130 t63.5 -210q0 -121 -69.5 -213t-168 -135t-198.5 -43q-113 0 -219.5 34t-161.5 72.5t-55 63.5z" />
<glyph unicode="T" horiz-adv-x="1394" d="M35 1118q0 4 11 36t33.5 96.5t43.5 127.5q4 16 11 23.5t14.5 8.5t23.5 1q29 0 29 -31v-8q29 -12 211 -12h667q203 0 207 16q2 18 8 26.5t27 8.5q23 0 31 -5t8 -24q0 -16 -3 -47.5t-7 -92t-9 -130.5q0 -23 -45 -22q-20 0 -24 6t-4 24q0 4 6 77t6 85q-18 8 -213 8h-217 q-14 0 -21 -35q-14 -96 -55 -383.5t-75.5 -535.5t-34.5 -252q0 -23 10 -23h131q18 0 23.5 -7t5.5 -25q0 -25 -5.5 -33t-23.5 -8q-23 0 -118 3t-128 3q-35 0 -127 -3t-104 -3q-20 0 -25.5 8t-5.5 35q0 20 7 25t32 5h113q20 37 107 609.5t87 603.5q0 16 -6 16h-281 q-182 0 -188 -18l-49 -144q-8 -23 -15.5 -30.5t-23.5 -7.5q-45 -1 -45 28z" />
<glyph unicode="U" horiz-adv-x="1554" d="M117 1329.5q0 24.5 8 30.5t31 6q12 0 84.5 -3t107.5 -3q33 0 110 3t99 3q20 0 25.5 -8t5.5 -35q0 -20 -7.5 -25.5t-31.5 -5.5h-68q-20 -41 -84.5 -435t-64.5 -497q0 -74 30.5 -129t69.5 -81.5t91 -42t81 -17.5t55 -2q84 0 178.5 33t155.5 72q55 41 78 118q25 96 66 334 q82 481 98 647h-135q-23 0 -33 6.5t-10 31t10 30.5t33 6q12 0 97 -3t120 -3t98.5 3t69.5 3q20 0 27.5 -8t7.5 -35q0 -20 -8.5 -25.5t-34.5 -5.5h-62q-2 -12 -43 -237q-127 -774 -194 -1004q-14 -55 -45 -55q-37 0 -39 29q-14 131 -21 131q-4 0 -90 -50q-229 -126 -431 -126 h-3q-170 0 -284.5 89t-114.5 240q0 96 67.5 511t67.5 468v4h-129q-20 0 -29.5 6.5t-9.5 31z" />
<glyph unicode="V" horiz-adv-x="1363" d="M35 1329.5q0 24.5 10 30.5t33 6q12 0 82.5 -3t105.5 -3q33 0 113 3t102 3q20 0 27.5 -8t7.5 -35q0 -20 -8 -25.5t-35 -5.5h-113q-2 0 -2 -4q0 -43 63.5 -490.5t90.5 -588.5q4 -25 8 -25t19 25q123 193 335 598l242 461l8 20q0 4 -14 4h-137q-23 0 -33 6.5t-10 31t9 30.5 t32 6q2 0 69.5 -3t133.5 -3q16 0 63 3t55 3q23 0 30 -8t7 -35q0 -20 -9 -25.5t-36 -5.5q-31 0 -35 -1t-8 -11l-643 -1102q-8 -14 -45 -58t-66 -89q-47 -72 -81 -72q-20 0 -27.5 23.5t-20.5 107.5q-37 276 -109.5 719.5t-90.5 482.5h-80q-23 0 -33 6.5t-10 31z" />
<glyph unicode="W" horiz-adv-x="2068" d="M35 1329.5q0 24.5 10 30.5t33 6q12 0 82.5 -3t105.5 -3q33 0 106.5 3t96.5 3q20 0 27.5 -8t7.5 -35q0 -20 -8.5 -25.5t-34.5 -5.5h-109q-2 0 -2 -4q0 -39 55.5 -449.5t83.5 -590.5q10 -55 14.5 -55t37.5 55q115 188 407 735q8 16 6 45q-29 248 -34 264h-86q-23 0 -33 6.5 t-10 31t10 30.5t33 6q12 0 75.5 -3t98.5 -3q27 0 121 3t139 3q23 0 30 -8t7 -35q0 -20 -9.5 -25.5t-35.5 -5.5h-148q-2 -6 -2 -32q0 -10 24.5 -223.5t56.5 -471.5t46 -358q6 -37 12 -37q4 0 23 35q170 299 545 1063l8 20q0 4 -15 4h-131q-23 0 -33 6.5t-10 31t9.5 30.5 t31.5 6q2 0 66.5 -3t130.5 -3q16 0 65.5 3t57.5 3q23 0 30 -8t7 -35q0 -20 -9.5 -25.5t-35.5 -5.5h-23q-23 0 -29 -5t-20 -34q-315 -612 -397 -755l-181 -320q-8 -14 -45 -60t-65 -89q-47 -70 -82 -70q-20 0 -27.5 23.5t-19.5 107.5q-82 541 -121 766q-2 14 -4 14t-14 -20 l-375 -672q-8 -14 -45 -59t-66 -90q-47 -70 -78 -70q-20 0 -27.5 23.5t-19.5 107.5q-37 266 -107.5 712.5t-86.5 489.5h-78q-23 0 -33 6.5t-10 31z" />
<glyph unicode="X" horiz-adv-x="1353" d="M35 25q0 25 9 30.5t30 5.5h53q12 6 83 96.5t192.5 248t209.5 264.5q14 16 6 37l-256 520q-29 61 -38 65h-88q-23 0 -33 6.5t-10 31t10 30.5t33 6q12 0 85.5 -3t108.5 -3q33 0 109.5 3t99.5 3q20 0 27.5 -8t7.5 -35q0 -20 -8.5 -25.5t-34.5 -5.5h-103q0 -2 3.5 -9t5.5 -13 q8 -25 73.5 -176.5t120.5 -262.5q14 -27 16.5 -26.5t22.5 26.5q317 446 317 459v2h-94q-27 0 -35 5.5t-8 25.5q0 27 7.5 35t27.5 8q23 0 65 -3t74 -3q35 0 89.5 3t66.5 3q23 0 31 -7t8 -30q0 -25 -9.5 -31t-29.5 -6h-57q-16 -12 -126 -148t-210 -267l-101 -129q-8 -10 0 -27 q27 -47 118 -220t161 -301t84 -139h96q23 0 33 -6t10 -30.5t-10 -30.5t-33 -6q-12 0 -91 3t-114 3q-33 0 -124 -3t-113 -3q-20 0 -27.5 8t-7.5 35q0 20 8 25t35 5h96h10.5h8.5l2 2l-2 3q0 4 -2 8t-4 10q-6 16 -252 528q-6 12 -9 13q-4 0 -16 -17q-74 -94 -225.5 -307 t-153.5 -238q4 -2 21 -2h84q27 0 35 -5t8 -25q0 -27 -7.5 -35t-27.5 -8q-8 0 -73.5 3t-100.5 3t-79 -3t-50 -3q-23 0 -31 7t-8 30z" />
<glyph unicode="Y" horiz-adv-x="1255" d="M35 1339.5q0 24.5 10 30.5t33 6q12 0 92 -3t115 -3q33 0 96 3t86 3q20 0 26.5 -8t6.5 -35q0 -20 -7.5 -25t-33.5 -5h-82q0 -2 2 -9.5t4 -13.5q27 -90 211 -543q6 -12 10 -15t10.5 4t14.5 19q2 2 2 5q20 31 72.5 107.5t94.5 139t87 132t70.5 115.5t25.5 59h-102 q-27 0 -35 5t-8 25q0 27 7 35t27 8q23 0 75 -3t85 -3q35 0 90.5 3t67.5 3q20 0 26.5 -6t6.5 -30.5t-6.5 -30.5t-26.5 -6h-78q-25 -25 -199 -264.5t-254 -360.5q-10 -18 -16 -45l-70 -420q-20 -127 -20 -145q0 -6 2 -7h131q18 0 23.5 -7t5.5 -25q0 -25 -5.5 -33t-23.5 -8 q-23 0 -102.5 3t-112.5 3t-103.5 -3t-93.5 -3q-20 0 -25 8t-5 31q0 20 7 27t32 7h90q8 10 86 474q10 55 10 81q0 6 -137 321.5t-160 365.5h-92q-23 0 -33 6t-10 30.5z" />
<glyph unicode="Z" horiz-adv-x="1226" d="M66 31q0 12 188 279.5t412.5 578.5t265.5 373q8 8 8 14t-18 6h-543q-82 0 -84 -16l-11.5 -57.5t-12.5 -66t-5 -30.5q-6 -25 -22 -27h-11q-49 0 -49 21q0 6 9.5 51t21.5 113.5t18 122.5q0 18 35 18q39 0 39 -16v-19q0 -16 111 -16h712q41 0 41 -37q0 -14 -385 -567 q-453 -655 -456 -670q0 -14 16 -14l629 6q25 0 33 26q10 27 47 187q4 16 32 16q47 0 48 -26q0 -6 -13.5 -58.5t-31 -118t-23.5 -90.5q-8 -26 -48 -26h-3q-117 0 -470 3t-458 3q-22 0 -22 37z" />
<glyph unicode="[" horiz-adv-x="606" d="M158 -264v1653q0 18 6 24t24 6h314q18 0 23 -5t5 -19v-29q0 -20 -5 -26.5t-23 -6.5h-219q-16 0 -18.5 -2t-2.5 -16v-1505q0 -14 2 -16.5t19 -2.5h219q18 0 23 -6t5 -27v-24q0 -29 -28 -29h-312q-23 0 -27.5 4t-4.5 27z" />
<glyph unicode="\" horiz-adv-x="831" d="M12 1425q0 23 51 23q39 0 48.5 -6t17.5 -33l649 -1741q43 -111 43 -127q0 -25 -59 -24q-39 0 -48 9t-28 58l-643 1743q-31 78 -31 98z" />
<glyph unicode="]" horiz-adv-x="606" d="M76 -242q0 20 5 26.5t23 6.5h220q16 0 18 2t2 17v1505q0 14 -2 16t-18 2h-220q-18 0 -23 6.5t-5 26.5v25q0 29 28 28h312q20 0 26.5 -5t6.5 -23v-1653q0 -14 -1.5 -19.5t-7.5 -9.5t-18 -4h-318q-18 0 -23 5t-5 20v28z" />
<glyph unicode="^" horiz-adv-x="823" d="M96 633l303 663l2 2q6 2 14.5 2t14.5 -2l2 -2l303 -663q-27 -8 -61 -8q-23 0 -56 6h-2l-204 465l-197 -465h-4q-37 -6 -57 -6q-33 0 -58 8z" />
<glyph unicode="_" horiz-adv-x="839" d="M45 -84q0 39 35 39h686q29 0 29 -29v-28q0 -47 -29 -48h-692q-18 0 -23.5 8.5t-5.5 32.5v25z" />
<glyph unicode="`" horiz-adv-x="819" d="M256 1178q0 70 76 69q49 0 59 -53l53 -258l2 -6v-6q0 -10 -14 -11h-31q-12 0 -20 17l-117 219q-8 15 -8 29z" />
<glyph unicode="a" horiz-adv-x="886" d="M45 121q0 94 30.5 206.5t86 220t150 179.5t204.5 72q20 0 58 -18.5t57 -45.5l39 -53q6 0 26 84q6 27 97 27q33 0 32 -17q0 -10 -83 -303t-83 -344q0 -35 23 -35q14 0 69.5 57.5t61.5 57.5q10 0 19.5 -11.5t9.5 -23.5q0 -8 -46 -57t-113 -97.5t-108 -48.5q-61 0 -61 56 q0 68 98 383q-113 -188 -227 -308q-49 -51 -68.5 -69.5t-57.5 -39t-75 -20.5q-66 0 -102.5 42.5t-36.5 105.5zM195 197q0 -102 51 -103q57 0 164.5 123t195.5 268q31 51 31 107q0 49 -58.5 81t-113.5 32q-66 0 -131.5 -93.5t-102 -211t-36.5 -203.5z" />
<glyph unicode="b" horiz-adv-x="927" d="M45 24.5q0 22.5 29 51.5q8 12 14 37q59 322 118.5 714t59.5 449q0 12 -8 12q-6 0 -87 -23.5t-89 -23.5q-16 0 -16 62q0 18 14 22q317 78 338 78q31 0 31 -27q0 -14 -36 -241.5t-46 -288.5q-8 -51 -28 -146.5t-40 -201t-27 -131.5q111 174 162 243q78 106 134.5 148.5 t148.5 42.5q86 0 135 -49q31 -31 31 -90q0 -150 -58.5 -284t-143.5 -218t-174 -133.5t-159 -49.5q-43 0 -85 14.5t-67.5 29t-27.5 14.5q-6 0 -39 -17q-41 -16 -57 -16q-27 0 -27 22.5zM236 164q0 -49 33.5 -83t99.5 -34q82 0 169 103.5t139 227.5t52 200q0 45 -19.5 79.5 t-60.5 34.5q-82 0 -166 -119q-247 -343 -247 -409z" />
<glyph unicode="c" horiz-adv-x="823" d="M45 262q0 238 147.5 391.5t311.5 153.5q121 0 180 -66q47 -51 47 -118q0 -45 -26.5 -76t-67.5 -31q-51 0 -51 82q0 8 1 24.5t1 24.5q0 39 -22.5 65.5t-67.5 26.5q-55 0 -112.5 -36.5t-98.5 -98.5q-96 -141 -97 -309q0 -25 2.5 -43.5t13.5 -52t30.5 -55t62.5 -39 t102 -17.5q78 0 157 40t126 81l49 39q6 0 18.5 -13.5t12.5 -21.5q0 -14 -62.5 -69.5t-170 -112t-199.5 -56.5q-154 0 -220.5 84t-66.5 203z" />
<glyph unicode="d" horiz-adv-x="968" d="M45 152q0 72 29.5 173t82 206.5t141.5 178t194 72.5q29 0 54 -3t44.5 -9t32 -11t24.5 -12.5t15 -7.5q10 -4 14 -6t9 -2t8 5t5 16q12 63 31 186t32 219t13 98q4 16 0 23.5t-10 5.5t-8 -2l-166 -43q-14 0 -15 23q0 16 3 26q2 25 20 31q80 18 156.5 37.5t114.5 30t44 10.5 q29 0 29 -37q0 -8 -102.5 -592t-102.5 -645q0 -25 21 -25q25 0 69.5 38t80.5 76t38 38q8 0 18.5 -9.5t10.5 -15.5q0 -10 -45 -67.5t-128 -117.5t-159 -60q-27 0 -44 21.5t-17 55.5q0 70 73 385q-88 -150 -161 -245q-41 -55 -62.5 -81t-59.5 -63t-77 -52t-86 -15q-20 0 -41 4 t-52.5 18.5t-51 51.5t-19.5 92zM193 209q0 -57 20 -83t68 -26q86 0 278 285q109 158 109 238q0 25 -57.5 63.5t-118.5 38.5q-80 0 -153 -99.5t-109.5 -217t-36.5 -199.5z" />
<glyph unicode="e" horiz-adv-x="798" d="M45 215q0 236 151.5 414t356.5 178q80 0 138.5 -32t58.5 -109q0 -90 -74 -162t-182 -113q-133 -49 -291 -49q-10 0 -10 -88q0 -176 190 -176q84 0 165 45t129 89t54 44q12 0 22.5 -12.5t10.5 -22.5q0 -12 -59.5 -67.5t-172 -112.5t-223.5 -57q-115 0 -189.5 58t-74.5 173 zM223 410q0 -8 15 -9q150 0 258 74t108 193q0 35 -26.5 56t-69.5 21q-164 0 -256 -245q-29 -72 -29 -90z" />
<glyph unicode="f" horiz-adv-x="581" d="M-262 -492q0 31 37 61t69 30q27 0 79 -25t87 -25q18 0 32.5 12.5t27 38t20.5 49t16.5 63.5t11.5 61.5l9 64.5t8 51q20 133 48 329t44.5 329t16.5 139q0 18 -23 19h-145q-10 0 -10 18q0 45 16 45h154q16 0 18 18q18 199 86 324q96 170 209 233q98 57 190 58 q51 0 103.5 -26.5t52.5 -53.5q0 -31 -41 -60.5t-76 -29.5q-29 0 -81 38t-85 38q-150 0 -219 -533q0 -6 10 -6h179q6 0 6 -6q0 -12 -6.5 -34.5t-10.5 -22.5h-168q-16 0 -18 -17q-4 -23 -26.5 -186.5t-48 -336.5t-42.5 -276q-6 -35 -22.5 -92t-63.5 -146t-108 -134 q-4 -2 -17.5 -12.5t-20.5 -15.5t-21.5 -14.5t-23.5 -14.5t-23.5 -12t-27 -10t-27.5 -6t-30 -3q-49 0 -97 26t-48 53z" />
<glyph unicode="g" horiz-adv-x="872" d="M-18 -322q0 82 62 141.5t128 88.5q20 8 4 16q-72 33 -72 82q0 16 38 75.5t59 68.5l110 40q14 4 2 9q-4 2 -6 2q-190 72 -190 270q0 147 107.5 249.5t260.5 102.5q113 0 195 -82q8 -8 14 2q8 14 24.5 53.5t20.5 47.5q10 22 46 22h3q61 0 62 -28q0 -25 -22.5 -68t-47 -78 t-24.5 -37q0 -8 6 -24q14 -37 14 -84q0 -152 -110 -252q-53 -49 -106.5 -72.5t-153.5 -50.5q-186 -51 -187 -90q0 -8 6 -15.5t18.5 -14.5t27 -12t38 -11t43 -10.5t49 -9.5t51 -8t55.5 -8t54 -9q133 -20 204 -62.5t71 -138.5q0 -106 -72 -177t-179.5 -98.5t-246.5 -27.5 q-92 0 -166 14t-132 61t-58 123zM80 -309q0 -41 36 -71t92 -43t108.5 -19.5t101.5 -6.5q127 0 203.5 45.5t76.5 131.5q0 61 -52 88.5t-157 46.5q-201 35 -217 35q-14 0 -63 -23q-129 -65 -129 -184zM258 469q0 -121 48 -174t97 -53q78 0 156 96t78 233q0 74 -44 133.5 t-110 59.5q-98 0 -161.5 -97.5t-63.5 -197.5z" />
<glyph unicode="h" horiz-adv-x="958" d="M45 12l35 164q35 162 85 469t81 623q4 31 -8 30q-20 0 -94 -26.5t-78 -26.5q-12 0 -13 27q0 39 19 47q61 23 170.5 46.5t148.5 23.5q18 0 19 -37q-12 -227 -181 -1049q102 211 215 346q117 141 258 142q55 0 91 -27t36 -78q0 -78 -68.5 -304t-68.5 -245q0 -39 37 -39 q29 0 111 90l84 88q8 0 19 -9t11 -17t-28.5 -47t-72.5 -86t-105.5 -85t-116.5 -38q-39 0 -64.5 23.5t-25.5 60.5q0 33 74.5 264t74.5 287q0 74 -63 74l-1 -1q-64 0 -132 -81.5t-150 -217.5q-96 -164 -111 -219l-43 -172q-6 -22 -113 -22h-9h-2q-21 0 -21 22z" />
<glyph unicode="i" horiz-adv-x="552" d="M45 578q0 20 132 116.5t183 96.5q47 0 48 -52q0 -55 -67 -309t-67 -276q0 -35 20.5 -35t89.5 65.5t73 65.5q8 0 19 -11.5t11 -19.5q0 -29 -134 -133t-181 -104q-55 0 -55 43q0 51 72.5 298.5t72.5 311.5q0 31 -18 31q-29 0 -95.5 -60.5t-72.5 -60.5q-10 0 -20.5 11.5 t-10.5 21.5zM256 1124q0 43 24.5 72t65.5 29q45 0 70.5 -33t25.5 -72q0 -43 -25.5 -71.5t-64.5 -28.5q-45 0 -70.5 32.5t-25.5 71.5z" />
<glyph unicode="j" horiz-adv-x="608" d="M-147 -453q0 35 22.5 57.5t54.5 22.5q41 0 82 -25.5t72 -25.5q33 0 53.5 53.5t42.5 163.5q39 190 88 495.5t49 346.5q0 31 -18 31q-27 0 -112 -91.5t-91 -91.5q-8 0 -19 9.5t-11 19.5q0 12 61 78.5t148 133.5t141 67q18 0 33.5 -14.5t15.5 -41.5q0 -66 -113 -741 q-49 -330 -198 -443q-110 -79 -181 -79h-2q-51 0 -84.5 23t-33.5 52zM315 1186q0 43 25 71.5t66 28.5q45 0 70.5 -32.5t25.5 -71.5q0 -43 -25.5 -72t-64.5 -29q-45 0 -71 33t-26 72z" />
<glyph unicode="k" horiz-adv-x="921" d="M45 -6q0 16 43 219t99.5 511t78.5 552q0 12 -12 12q-10 0 -84 -20.5t-76 -20.5q-12 0 -12 19q0 49 18 53l148 37q158 41 168 41q29 0 28 -29q0 -27 -190 -962q74 133 129 204q68 90 137.5 133t171.5 43q127 0 127 -81q0 -88 -67.5 -164t-139 -111t-135.5 -49q-4 0 -15 -2 t-13 -2q18 -8 43 -31q96 -92 149 -158q33 -41 49.5 -58t45 -32.5t61.5 -15.5q63 0 63 49q0 6 -2 19.5t-2 21.5q0 31 23 31q18 0 33.5 -23.5t15.5 -70.5q0 -51 -81 -85t-153 -34q-47 0 -92 43q-23 20 -48.5 51t-59 77t-50.5 66q-20 25 -47.5 57.5t-42 50t-14.5 23.5 q0 12 37 50q6 6 24 6q33 0 56 10q76 35 143.5 108.5t67.5 139.5q0 37 -58 37q-55 0 -125 -66q-23 -23 -50 -58.5t-42.5 -58t-57.5 -86t-52 -80.5q-35 -55 -50 -116q-33 -135 -43 -199q-14 -49 -26 -51q-2 0 -22.5 -3t-45 -6t-35.5 -3q-16 0 -16 12z" />
<glyph unicode="l" horiz-adv-x="557" d="M106 57q0 12 37 218t86.5 499t71.5 479q4 16 -2 23.5t-23 3.5q-150 -39 -151 -39q-14 0 -14 21q0 16 2 26q2 27 24 33q80 18 158 37.5t113.5 29t42.5 9.5q20 0 20 -21q0 -25 -102.5 -625.5t-102.5 -611.5q0 -37 22.5 -37t73 43t90.5 86t42 43q6 0 22 -13t16 -19 q0 -12 -58 -76t-148 -128.5t-154 -64.5q-66 0 -66 84z" />
<glyph unicode="m" horiz-adv-x="1513" d="M25 522q0 27 142 137.5t212 110.5q43 0 43 -45q0 -41 -7 -99.5t-14.5 -101.5t-21.5 -122.5t-21 -114.5q225 495 446 495h1q37 0 56.5 -30.5t19.5 -71.5q0 -143 -97 -451q41 78 71 131.5t86 140.5t104.5 142t111 97t119.5 42q110 0 110 -74q0 -58 -74.5 -291t-74.5 -267 q0 -43 31 -44q20 0 104 85t88 85q6 0 18.5 -12t12.5 -18q0 -12 -59.5 -74.5t-144.5 -124t-138 -61.5q-33 0 -55.5 19.5t-22.5 45.5q0 39 80 283t80 309q0 39 -37 39t-106.5 -78t-143.5 -192q-137 -209 -184 -383q-8 -25 -35 -29q-49 -6 -86 -6q-23 0 -23 20q0 2 59.5 227.5 t59.5 364.5q0 70 -37 70q-33 0 -71 -49q-127 -152 -219 -340q-35 -70 -84 -242q-12 -39 -27 -45q-74 -29 -102 -29q-20 0 -17 29q25 104 58.5 310t33.5 296q0 29 -22 29q-29 0 -108 -77t-85 -77q-30 0 -30 41z" />
<glyph unicode="n" horiz-adv-x="1054" d="M25 588q0 8 62.5 58t151.5 100.5t144 50.5q18 0 33.5 -12.5t15.5 -36.5q0 -27 -5 -65t-10 -68.5t-18.5 -83t-19.5 -79t-23.5 -88t-21.5 -79.5q143 248 263 380t232 132q111 0 111 -97q0 -61 -79 -298.5t-79 -258.5q0 -35 33 -34q25 0 70 38.5t80 77.5l34 39q4 0 17.5 -13 t13.5 -20q0 -12 -49 -67t-132 -111.5t-153 -56.5q-33 0 -52 25.5t-19 64.5q0 59 81.5 278.5t81.5 280.5q0 53 -38 53q-49 0 -158 -136t-203 -288q-45 -72 -90 -227q0 -2 -2 -10t-5 -14.5t-6 -14.5t-9.5 -13t-14.5 -5q-82 -8 -98 -8q-20 0 -17 28q123 510 123 637 q0 31 -20.5 31t-65.5 -33t-83 -65.5t-40 -32.5q-10 0 -23 12.5t-13 28.5z" />
<glyph unicode="o" horiz-adv-x="858" d="M45 283q0 227 136 381.5t343 154.5q78 0 137.5 -32.5t91 -85t46 -106.5t14.5 -108q0 -195 -141.5 -352.5t-333.5 -157.5q-139 0 -216 89.5t-77 216.5zM184 299q0 -260 158 -260q90 0 170 95t120 216t40 219q0 72 -38 131.5t-132 59.5q-113 0 -215.5 -160t-102.5 -301z " />
<glyph unicode="p" horiz-adv-x="995" d="M14 459q0 2 21.5 37.5t62.5 89t88 104.5t108.5 88t117.5 37q41 0 41 -70q0 -92 -58 -423q76 180 185 348q73 118 206 118h2q94 0 128 -51t34 -141q0 -227 -153.5 -421.5t-313.5 -194.5q-23 0 -65.5 7t-48.5 7q-18 0 -21 -10l-65 -430q-8 -39 22 -41q23 -2 57.5 -6.5 t47.5 -4.5q53 -6 53 -28q0 -55 -27 -56q-10 0 -134 15.5t-243 15.5q-14 0 -21 1t-13.5 7t-6.5 19q2 37 8.5 44t36.5 7q6 0 18.5 -1t16.5 -1q29 0 37 41q96 557 128 759.5t32 297.5q0 31 -19 30q-37 0 -129 -114.5t-94 -114.5q-6 0 -22.5 13.5t-16.5 21.5zM377 104 q0 -59 125 -59q100 0 204.5 180.5t104.5 343.5q0 125 -84 125q-29 0 -57.5 -19.5t-56 -59.5t-45 -68.5t-45 -82.5t-34.5 -67q-112 -215 -112 -293z" />
<glyph unicode="q" horiz-adv-x="931" d="M45 152q0 76 36 180t98.5 207.5t164.5 175t217 71.5q86 0 178 -41q8 -4 14.5 -7t8.5 -5h4q10 0 33 15q45 26 64 26h1q23 0 23 -26q0 -8 -56 -127q-6 -14 -14 -52q-29 -172 -77 -441t-77.5 -435t-29.5 -176q0 -16 22 -17q41 0 113 -4q25 -2 25 -33q0 -18 -1 -26 t-10.5 -16.5t-27.5 -8.5q-2 0 -28 1t-67 3t-79 2q-29 0 -70 -4t-72.5 -7t-36.5 -3q-10 0 -16 1t-11 9t-5 21q2 27 11 36t36 13q47 6 51 12q2 4 10 37q4 23 33 144.5t59.5 278.5t89.5 482q-90 -164 -149 -241q-78 -102 -145.5 -159.5t-141.5 -57.5q-18 0 -41.5 5t-57.5 20 t-56.5 53.5t-22.5 93.5zM188 203q0 -53 27 -84t64 -31q86 0 286 297q129 188 129 266q0 23 -36.5 52.5t-96.5 29.5q-121 0 -247 -200.5t-126 -329.5z" />
<glyph unicode="r" horiz-adv-x="698" d="M43 596q0 23 105.5 112t168.5 89q43 0 43 -47q0 -41 -51 -342q82 221 119 286q63 117 154 117q39 0 70.5 -21.5t31.5 -58.5q0 -82 -51 -82q-27 0 -60.5 18.5t-52.5 18.5q-25 0 -45 -33q-49 -76 -117 -254q-4 -12 -22 -77q-18 -74 -40 -177.5t-28 -132.5q-6 -26 -105 -26 h-7q-27 0 -27 14q0 4 24.5 131t49 272.5t24.5 196.5q0 72 -20 72q-29 0 -84 -53.5t-57 -53.5q-4 0 -13.5 10.5t-9.5 20.5z" />
<glyph unicode="s" horiz-adv-x="688" d="M35 125q0 25 19.5 41t35.5 16q10 0 18.5 -1t16.5 -5l12 -6t12.5 -8t10.5 -8t11 -11.5t11 -11.5q8 -8 21.5 -22.5t20.5 -20.5t17.5 -15.5t17.5 -13.5t17.5 -7t22.5 -3q59 0 99 40t40 104q0 39 -46 86t-101 85.5t-101.5 97t-46.5 118.5q0 100 82 171.5t193 71.5 q63 0 108 -17.5t63.5 -43t26 -44t7.5 -32.5q0 -41 -43 -41q-61 0 -105 76q-29 51 -59 51q-53 0 -94 -28.5t-41 -94.5q0 -51 30.5 -93t73.5 -73.5t87 -65.5t75 -84t31 -114q0 -94 -82 -164.5t-193 -70.5q-94 0 -181 45t-87 96z" />
<glyph unicode="t" horiz-adv-x="581" d="M66 709q0 2 1 18t1 21q0 20 22 20h125q12 0 14 8q2 2 2 4q20 119 33 205q2 14 6 21.5t12.5 12.5t24.5 7q12 2 43 2h15q49 0 49 -16q0 -4 -11.5 -53.5t-23.5 -104.5t-14 -72q-4 -14 14 -14h156q23 0 18 -23q-6 -51 -27 -51h-159q-14 0 -17 -16q-84 -451 -84 -504 q0 -37 33 -37q20 0 74.5 47t101.5 95l47 47q4 0 19.5 -13.5t15.5 -19.5q0 -10 -65.5 -83t-158.5 -146.5t-151 -73.5q-78 0 -78 76q0 20 54.5 314t54.5 298q-4 16 -12 16h-113q-22 1 -22 15z" />
<glyph unicode="u" horiz-adv-x="1067" d="M25 524q0 4 14 25.5t40.5 56.5t53.5 68q33 39 56.5 62.5t66.5 47t88 23.5q47 0 83 -20.5t36 -59.5q0 -29 -65.5 -273.5t-65.5 -295.5q0 -41 51 -41q66 0 176 157q143 207 205 406q14 45 24 111q4 12 15 14q53 12 106 12q18 0 19 -24q0 -12 -56.5 -300t-56.5 -311 q0 -45 33 -45q20 0 61 47t74 93.5t35 46.5q4 0 15 -7.5t11 -11.5q0 -14 -46 -88t-119.5 -148.5t-130.5 -74.5q-31 0 -52.5 17.5t-21.5 43.5q0 35 17.5 120t42 193.5t34.5 163.5q-70 -143 -123 -223q-214 -325 -359 -325h-1q-119 0 -119 92q0 25 62.5 259t62.5 310 q0 53 -35 53q-23 0 -70 -50t-85 -101t-40 -51q-8 0 -22 10t-14 18z" />
<glyph unicode="v" horiz-adv-x="907" d="M14 612q0 27 93.5 112t146.5 85q51 0 88 -21q51 -29 67.5 -46t16.5 -52q0 -80 -25.5 -268.5t-25.5 -216.5q0 -20 26.5 -44t36.5 -24q27 0 43 21q4 4 64 84q61 84 96 135t73 139t38 162q0 76 -45 76q-23 0 -50.5 -4.5t-48 -9.5t-22.5 -5q-18 0 -19 39q0 16 80 35t127 18 q41 0 64.5 -18t23.5 -70q0 -92 -53 -205.5t-110.5 -193.5t-155.5 -205q-23 -27 -33 -41q-20 -25 -45 -67q-27 -43 -55 -43q-33 0 -88 45q-47 37 -64.5 68.5t-17.5 101.5q0 37 20.5 211t20.5 243q0 29 -19 41q-25 16 -45 17q-29 0 -65.5 -33t-64.5 -65.5t-32 -32.5 q-12 0 -26.5 11t-14.5 21z" />
<glyph unicode="w" horiz-adv-x="1394" d="M14 618q0 25 104.5 102t155.5 77q16 0 49 -14.5t48 -24.5q43 -29 54 -49.5t11 -49.5q0 -61 -13 -173.5t-25.5 -200.5t-12.5 -90q0 -23 24.5 -50.5t39.5 -27.5q16 0 40 35q16 23 96.5 139.5t102.5 144.5q25 31 46.5 94.5t21.5 90.5q0 23 -39 61q-12 12 -27.5 23.5 t-23 17.5t-7.5 12q0 23 31 51.5t53 28.5q37 0 94.5 -49t57.5 -82t-30.5 -242t-30.5 -247q0 -31 25.5 -56.5t45.5 -25.5q14 0 58 49q117 135 180 227q88 129 90 285q0 61 -37 61q-29 0 -67.5 -6t-65.5 -12t-29 -6q-18 0 -18 43q0 4 50 19t113.5 27.5t94.5 12.5q76 0 76 -86 q0 -119 -100.5 -289t-239.5 -311q-16 -16 -99 -102q-23 -23 -37 -23q-74 0 -124 49t-50 115q0 23 54 283q-160 -248 -240 -349q-6 -10 -26.5 -38.5t-26.5 -36.5q-25 -33 -47 -33q-29 0 -88 47q-45 35 -59.5 60.5t-14.5 76.5q0 29 22.5 174.5t22.5 259.5q0 23 -30.5 55.5 t-53.5 32.5q-29 0 -68 -29.5t-66.5 -58t-29.5 -28.5q-14 0 -24.5 13t-10.5 23z" />
<glyph unicode="x" horiz-adv-x="937" d="M25 47q0 70 53 189q8 14 22 14q35 0 35 -23q0 -2 -10 -35.5t-10 -58.5q0 -39 37 -39q41 0 130 96.5t150 180.5q10 12 2 37q-104 299 -198 299q-27 0 -63 -30t-61.5 -59.5t-27.5 -29.5q-10 0 -20.5 12t-10.5 23q0 12 32 53t94.5 83t123.5 42q47 0 79 -14.5t58.5 -54.5 t41 -71.5t42.5 -107.5q10 -29 17 -43q4 -10 14 6q4 6 43 68.5t57.5 87t55.5 67.5t70.5 60.5t70.5 17.5q27 0 42 -26.5t15 -61.5q0 -20 -3 -41.5t-7 -44t-6 -33.5q0 -8 -21 -8q-27 0 -26 10l2 11v26.5v30.5q0 45 -29 45q-61 0 -244 -270q-8 -10 -2 -35q35 -106 84.5 -206.5 t90.5 -100.5q33 0 77 67l45 68q8 0 25.5 -7.5t17.5 -13.5q0 -43 -81.5 -141t-153.5 -98q-18 0 -34.5 5t-31 17.5t-26 23.5t-23.5 33.5t-20 39t-18.5 47t-17.5 49t-19.5 54.5t-18.5 56q-4 10 -14 0l-86 -112q-84 -111 -145.5 -162t-123.5 -51q-75 0 -75 59z" />
<glyph unicode="y" horiz-adv-x="864" d="M-33 -537q0 31 18.5 52.5t34 28.5t56.5 18.5t49 15.5q61 23 104 96q76 141 98.5 215t22.5 146q0 66 -2 130t-7 141t-15.5 141.5t-24.5 120t-36.5 86t-49.5 30.5q-35 0 -74 -31.5t-63.5 -63.5t-26.5 -32q-6 0 -22.5 8t-16.5 17q0 10 35 58t100.5 98t129 50t102.5 -43 t57.5 -133t25.5 -186t13 -248q2 -45 2 -67q14 27 55 102.5t65 119.5t53.5 111.5t45.5 122.5q25 76 35 205q4 41 28.5 41t52.5 -15.5t28 -41.5q0 -10 -4 -35q-25 -158 -304 -639q-8 -14 -59 -100l-20 -39q-168 -322 -207 -389q-23 -43 -84 -80q-119 -72 -154 -72 q-18 0 -29.5 20.5t-11.5 40.5z" />
<glyph unicode="z" horiz-adv-x="847" d="M45 4q0 14 8 29.5t16.5 26t24 24.5t17.5 18l481 537l4 8h-4q-12 -2 -19 -2q-49 0 -155.5 33t-137 33t-61.5 -26t-50 -50.5t-24 -24.5q-8 0 -21 9.5t-13 15.5q0 8 28.5 51t80.5 87t104 44q49 0 174 -45t166 -45q12 0 42.5 38t59.5 38q14 0 25.5 -11.5t11.5 -27.5 q0 -35 -62 -72l-61 -39l-451 -499q-6 -12 17 -15q86 -4 245.5 -16t198.5 -12q16 0 20.5 5t4.5 25l-2 31v31q0 14 28 14h11q14 0 14 -12q2 -27 6 -72t7 -73.5t3 -34.5q0 -35 -69 -35h-25q-47 0 -257 16.5t-298 16.5q-2 0 -21.5 -25t-37.5 -25q-29 0 -29 31z" />
<glyph unicode="{" horiz-adv-x="628" d="M76 561.5q0 16.5 11 23.5t29.5 9t38 14.5t38 35t29.5 75.5t11 133v164q0 72 1.5 108.5t6.5 89t16 77t31.5 54t51.5 42t76 21.5t106 9q18 0 24.5 -6t6.5 -27q0 -33 -35 -32q-86 0 -126 -37t-40 -146v-305q0 -150 -20.5 -209t-102.5 -86q-16 -6 -16 -9t16 -7 q82 -27 102.5 -86t20.5 -209v-305q0 -109 40 -145.5t126 -36.5q35 0 35 -33q0 -20 -6 -26.5t-25 -6.5q-61 0 -106 9.5t-76 21.5t-51.5 41.5t-31.5 54.5t-16 77t-6.5 89t-1.5 108v164q0 80 -11 133.5t-29.5 76t-38 34.5t-38 14t-29.5 9.5t-11 24z" />
<glyph unicode="|" horiz-adv-x="505" d="M199 -383v1911q0 39 43 39h14q23 0 32 -2t14 -11.5t5 -27.5v-1909q0 -18 -1 -26.5t-8 -16.5t-22 -8h-43q-25 0 -29.5 9t-4.5 42z" />
<glyph unicode="}" horiz-adv-x="628" d="M76 -262q0 33 35 33q86 0 125.5 36.5t39.5 145.5v305q0 150 20.5 209t102.5 86q18 8 19 8l-19 8q-82 27 -102.5 86.5t-20.5 208.5v305q0 109 -39.5 146t-125.5 37q-35 0 -35 32q0 20 7 26.5t23 6.5q61 0 106.5 -9t76 -21.5t51 -42t32 -54t16.5 -77t6 -89.5t1 -108v-164 q0 -80 11.5 -133t30 -75.5t38 -35t37.5 -14.5t29.5 -9t11.5 -23.5t-11.5 -24t-29.5 -9.5t-37.5 -14t-38 -34.5t-30 -76t-11.5 -133.5v-164q0 -72 -1 -108.5t-6 -88.5t-16.5 -77t-32 -54.5t-51 -41.5t-75.5 -21.5t-107 -9.5q-16 0 -23 6.5t-7 26.5z" />
<glyph unicode="~" horiz-adv-x="1624" d="M86 240q0 12 8 36q12 47 35 95.5t66 108t113.5 96t158.5 36.5q100 0 210.5 -46t191.5 -101t178.5 -101.5t175.5 -46.5q51 0 96 32t73.5 83t44 87t25.5 71q6 25 39 18q27 -8 27 -20q0 -8 -2 -15q-14 -57 -40 -112t-70 -112.5t-112.5 -93.5t-152.5 -36q-102 0 -216 44 t-196 97.5t-182 97.5t-180 44q-158 0 -223 -254q-8 -33 -21 -33q-6 0 -22 4q-25 7 -25 21z" />
<glyph unicode="&#xa1;" horiz-adv-x="450" d="M4 18q0 6 4 27q68 303 176 977q2 14 23 14h16q25 0 25 -14q0 -47 -41 -375q-55 -432 -70 -618q-2 -51 -65 -52h-11q-57 0 -57 41zM127 1241q0 51 31.5 81t56.5 30q43 0 76 -35t33 -66q0 -41 -34 -76.5t-67 -35.5q-31 0 -63.5 34.5t-32.5 67.5z" />
<glyph unicode="&#xa2;" horiz-adv-x="833" d="M80 313q0 215 118.5 350.5t274.5 155.5q16 2 19 25q4 31 10 66.5t9 57t5 31.5q0 16 10 17h13q33 0 32 -10l-6 -31q-4 -33 -11 -75t-11 -64q-4 -14 10 -17q4 -2 6 -2q84 -16 143.5 -67.5t59.5 -118.5q0 -35 -25 -56q-37 -29 -63 -28q-29 0 -37 26q-2 10 -9 46t-11.5 48.5 t-13.5 35t-24.5 32.5t-35.5 17q-8 2 -11.5 -1t-5.5 -16l-104 -637q-2 -14 10 -18q20 -4 47 -4q57 0 111.5 15t86.5 30.5t38 15.5q20 0 18 -22q-2 -12 -39 -44t-115.5 -65t-164.5 -33q-14 0 -19 -12q-6 -31 -12 -74t-10 -66.5t-9.5 -48t-8.5 -34.5t-7 -10h-12q-27 0 -27 8 q0 2 5 30.5t14.5 85t17.5 111.5q2 12 0 13t-16 6q-119 23 -184.5 110.5t-65.5 220.5zM219 373q0 -195 137 -269l9 -4q4 0 4 6l104 631q4 16 -6 17h-4q-2 -2 -4 -2q-104 -25 -172 -136.5t-68 -242.5z" />
<glyph unicode="&#xa3;" horiz-adv-x="1001" d="M35 -33q0 14 5 24.5t15.5 18.5t18.5 13.5t24.5 9.5t23.5 6t23.5 4t18.5 2q47 8 74 184q25 168 26 246q0 18 -2 22.5t-12 4.5h-150q-14 0 -14 24q0 37 14 37h154q14 0 16 1t2 11q0 2 2 41t9.5 105.5t17.5 142.5q20 150 87 269.5t173 173.5q78 37 166 36q96 0 161.5 -57 t65.5 -168q0 -133 -57 -133q-55 0 -55 84q0 16 6 56t6 61q0 31 -43 63.5t-102 32.5q-172 0 -232 -221q-39 -143 -71 -483q0 -14 10 -15h229q20 0 20.5 -30.5t-22.5 -30.5h-225q-16 0 -18.5 -2t-8.5 -27q-39 -190 -125 -362l-12 -29q0 -4 4 -4q6 0 31 10q45 18 112 18 q59 0 207 -23.5t172 -23.5q111 0 111 70q0 20 -28.5 55t-33.5 45q-2 2 -2 9q0 27 62 26q33 0 50 -32.5t17 -71.5q0 -96 -77.5 -145.5t-178.5 -49.5q-66 0 -266.5 29t-208.5 29q-12 0 -64 -49.5t-87 -49.5q-39 0 -39 43z" />
<glyph unicode="&#xa4;" horiz-adv-x="1011" d="M45 16.5q0 22.5 37 59.5l121 123q-70 98 -70 219t68 215l-119 123q-37 37 -37 59q0 25 16.5 40t38.5 15q27 0 62 -34l123 -123q94 70 215 69q123 0 217 -69l123 123q35 35 59.5 34.5t40.5 -16.5t16 -38.5t-36 -59.5l-123 -125q74 -104 73 -217q0 -115 -73 -213l123 -125 q37 -37 36 -60q0 -25 -17 -41t-39.5 -16t-59.5 37l-123 123q-98 -72 -217 -72q-123 0 -215 70l-123 -121q-35 -35 -62 -35q-25 0 -40 16.5t-15 39zM250 413.5q0 -104.5 73.5 -178t176 -73.5t177.5 74.5t75 179t-75 181.5t-177 77q-104 0 -177 -78t-73 -182.5z" />
<glyph unicode="&#xa5;" horiz-adv-x="1255" d="M35 1339.5q0 24.5 10 30.5t33 6q12 0 92 -3t115 -3q33 0 96 3t86 3q20 0 26.5 -8t6.5 -35q0 -20 -7.5 -25t-33.5 -5h-82q0 -2 2 -9.5t4 -13.5q27 -90 211 -543q6 -12 10 -15t10.5 4t14.5 19q2 2 2 5q20 31 72.5 107.5t94.5 139t87 132t70.5 115.5t25.5 59h-102 q-27 0 -35 5t-8 25q0 27 7 35t27 8q23 0 75 -3t85 -3q35 0 90.5 3t67.5 3q20 0 26.5 -6t6.5 -30.5t-6.5 -30.5t-26.5 -6h-78q-20 -20 -158.5 -209t-236.5 -332h262q10 0 10 -31t-10 -31h-305l-15 -22q-10 -18 -16 -45l-20 -121h315q10 0 10 -30.5t-10 -30.5h-326l-39 -238 q-20 -127 -20 -145q0 -6 2 -7h131q18 0 23.5 -7t5.5 -25q0 -25 -5.5 -33t-23.5 -8q-23 0 -102.5 3t-112.5 3t-103.5 -3t-93.5 -3q-20 0 -25 8t-5 31q0 20 7 27t32 7h90q10 10 71 390h-292q-12 0 -13 32q0 29 13 29h303l4 23q10 55 10 81l-35 84h-244q-10 0 -10 33 q0 29 10 29h218l-236 541h-92q-23 0 -33 6t-10 30.5z" />
<glyph unicode="&#xa6;" horiz-adv-x="505" d="M199 -383v770q0 35 28 35h52q29 0 28 -35v-770q0 -18 -1 -26.5t-8 -16.5t-22 -8h-43q-25 0 -29.5 9t-4.5 42zM199 776v752q0 39 43 39h14q23 0 32 -2t14 -11.5t5 -27.5v-750q0 -27 -8 -36t-27 -9h-36q-23 0 -30 8t-7 37z" />
<glyph unicode="&#xa7;" horiz-adv-x="780" d="M76 635q0 139 143 246q12 8 -4 28q-92 127 -92 230q0 111 71.5 182.5t190.5 71.5q88 0 164 -23.5t76 -75.5q0 -63 -82 -63q-49 0 -117 33.5t-121 33.5q-98 0 -98 -81q0 -47 51 -127t124 -174.5t146.5 -198t125 -223t51.5 -224.5q0 -33 -8.5 -60.5t-29 -50t-31.5 -33.5 t-39 -30.5t-30 -21.5q-16 -14 -16 -21q0 -4 12 -26q86 -156 86 -236q0 -117 -82 -188.5t-223 -71.5q-217 0 -217 96q0 23 19.5 38.5t43.5 15.5q16 0 91 -27q70 -25 145 -25q141 0 141 101q0 49 -76.5 160.5t-169 226t-169 261t-76.5 257.5zM168 731q0 -158 338 -620 q12 -16 16 -17q6 0 25 17q63 59 63 98q0 35 -14 83t-43 103.5t-56.5 103.5t-68.5 108.5t-64.5 94t-59.5 83t-40 53.5q-10 12 -13 13t-15 -9q-68 -52 -68 -111z" />
<glyph unicode="&#xa8;" horiz-adv-x="819" d="M176 1096q0 43 24.5 71.5t65.5 28.5q45 0 70.5 -33t25.5 -71q0 -43 -25.5 -72t-64.5 -29q-45 0 -70.5 33t-25.5 72zM463 1096q0 43 24.5 71.5t65.5 28.5q45 0 70.5 -33t25.5 -71q0 -43 -25.5 -72t-64.5 -29q-45 0 -70.5 33t-25.5 72z" />
<glyph unicode="&#xa9;" horiz-adv-x="1726" d="M104 387.5q0 321.5 218.5 544.5t537.5 223q322 0 539 -222t217 -546q0 -322 -218 -545t-537.5 -223t-538 223.5t-218.5 545zM186 387q0 -287 194.5 -488.5t479.5 -201.5t479.5 201.5t194.5 488.5t-194.5 488.5t-479.5 201.5t-479.5 -201.5t-194.5 -488.5zM395 412 q0 205 135.5 330.5t339.5 125.5q29 0 56.5 -3t49 -9t44 -14t37 -14.5t31 -16.5t24.5 -15t19.5 -13.5t13.5 -10.5q12 -10 12 2v39q0 18 37 18q31 0 31 -18q0 -4 -1 -55t-2 -112.5t-1 -92.5q0 -25 -27 -25q-43 0 -43 17q0 2 3 57t3 61.5t-14.5 22.5t-42 37.5t-62 42t-83 35 t-95.5 14.5q-139 0 -229 -115.5t-90 -291.5q0 -164 104.5 -280t253.5 -116q88 0 155.5 25.5t99.5 51.5t34 26q6 0 18.5 -19.5t12.5 -25.5q0 -14 -38 -43t-126 -58.5t-193 -29.5q-197 0 -332 123t-135 350z" />
<glyph unicode="&#xaa;" horiz-adv-x="776" d="M55 817q0 78 25.5 172t73 183.5t126 148.5t173.5 59q20 0 48.5 -14t45.5 -39q6 -8 16 -22.5t12 -18.5q20 45 21 64q6 27 76 26q35 0 35 -18q0 -8 -69 -251t-69 -284q0 -27 17 -26q10 0 56 48t52 48q10 0 18.5 -10.5t8.5 -22.5q0 -18 -86 -94t-137 -76q-23 0 -38.5 13.5 t-15.5 35.5q0 61 74 293q-84 -137 -178 -231q-80 -80 -115 -96q-27 -12 -55 -13q-55 0 -85 36t-30 89zM180 881q0 -84 41 -84q51 0 136 99t163 224q25 39 25 86q0 39 -44 64.5t-89 25.5q-88 0 -160 -148t-72 -267z" />
<glyph unicode="&#xab;" horiz-adv-x="835" d="M96 395q0 8 13.5 22.5t49.5 46.5t52 48q31 29 74 71t66.5 65.5t27.5 23.5t19.5 -14.5t15.5 -16.5q0 -8 -64.5 -121.5t-64.5 -124t64.5 -123t64.5 -122.5q0 -6 -15.5 -18.5t-19.5 -12.5t-27.5 23.5t-66.5 65.5t-74 71q-12 12 -32.5 30.5t-33 29.5t-24.5 23.5t-18.5 20.5 t-6.5 12zM403 395q0 8 13.5 22.5t49.5 46.5t52 48q31 29 74 71t66.5 65.5t27.5 23.5t19.5 -14.5t15.5 -16.5q0 -8 -64.5 -121.5t-64.5 -124t64.5 -123t64.5 -122.5q0 -6 -15.5 -18.5t-19.5 -12.5t-27.5 23.5t-66.5 65.5t-74 71q-12 12 -32.5 30.5t-33 29.5t-24.5 23.5 t-18.5 20.5t-6.5 12z" />
<glyph unicode="&#xac;" horiz-adv-x="1079" d="M57 440q0 41 45 41h875q29 0 38 -9t9 -36v-323q0 -37 -39 -37q-23 0 -35 2t-21 13t-9 32v227q0 29 -48 29h-770q-29 0 -37 13t-8 48z" />
<glyph unicode="&#xad;" horiz-adv-x="548" d="M55 412q0 27 13.5 56.5t29.5 31.5q14 2 189.5 8t187.5 6q8 0 8 -16q0 -80 -20 -82q-229 -16 -393 -17q-15 1 -15 13z" />
<glyph unicode="&#xae;" horiz-adv-x="1097" d="M45 963q0 215 144.5 363.5t359.5 148.5t359.5 -147.5t144.5 -364.5q0 -215 -144.5 -363.5t-359.5 -148.5t-359.5 148.5t-144.5 363.5zM109 962.5q0 -188.5 126.5 -320.5t313 -132t313.5 132t127 320.5t-127 320.5t-313.5 132t-313 -132t-126.5 -320.5zM285 1286 q0 16 6 20.5t18 4.5q6 0 50 -1t58.5 -1t71 3t66.5 3q213 0 213 -170q0 -94 -121 -158q147 -51 154 -221q2 -25 4 -47v-4h45q16 0 16 -31q0 -18 -22 -18l-127 2q-20 0 -21 20v55q0 96 -22.5 149.5t-102.5 63.5q-31 4 -106 5h-4q0 -176 8 -246h53q16 0 17 -21q0 -29 -17 -28 q-10 0 -51 1t-55.5 1t-53 -1t-40.5 -1q-20 0 -21 28q0 20 25 21h36q4 41 5 112v123q0 268 -9 312l-49 -2q-24 -1 -24 26zM461 1004h4q25 0 69 -1.5t58 -1.5q76 39 76 132q0 61 -48.5 99t-113.5 38q-6 0 -20.5 -1t-22.5 -1q-2 -10 -2 -41v-223z" />
<glyph unicode="&#xaf;" horiz-adv-x="819" d="M199 1055q0 16 4 49q2 23 24 22h371q23 0 23 -18q0 -16 -5 -49q-2 -23 -22 -23h-371q-24 1 -24 19z" />
<glyph unicode="&#xb0;" horiz-adv-x="524" d="M76 1095.5q0 75.5 54 131t132 55.5t132.5 -55.5t54.5 -131t-54.5 -131t-132.5 -55.5t-132 55.5t-54 131zM152 1096q0 -47 32.5 -79t77.5 -32t78 32t33 79t-33 78.5t-78 31.5t-77.5 -31.5t-32.5 -78.5z" />
<glyph unicode="&#xb1;" horiz-adv-x="1079" d="M57 184q0 33 7.5 47.5t35.5 14.5h879q25 0 34 -10.5t9 -37t-9 -41t-40 -14.5h-875q-41 0 -41 41zM57 664q0 51 43 51h371q12 0 14 3t2 11v285q0 37 39 37q37 0 50.5 -8.5t13.5 -32.5v-279q0 -16 18 -16h375q39 0 39 -37t-8 -52.5t-41 -15.5h-365q-18 0 -18 -28v-271 q0 -35 -39 -35q-35 0 -49.5 6.5t-14.5 28.5v271v15t-2 8t-8 5h-16h-363q-18 0 -27.5 8.5t-11.5 18t-2 27.5z" />
<glyph unicode="&#xb2;" horiz-adv-x="737" d="M78 731q0 16 54 90t67 84q313 285 313 418q0 59 -38 99t-107 40q-47 0 -90.5 -20.5t-66 -46t-41.5 -46t-26 -20.5q-10 0 -23.5 10.5t-13.5 22.5q0 18 40 64.5t114 91.5t148 45q102 0 165.5 -64.5t63.5 -163.5q0 -106 -107 -225q-43 -47 -93 -89t-101 -80t-60 -44 q-2 -2 -69 -78h356q2 6 14.5 41t21.5 58.5t13 23.5q47 0 47 -10q0 -4 -11 -42t-27.5 -88t-22.5 -77q-2 -14 -25 -14h-467q-28 0 -28 20z" />
<glyph unicode="&#xb3;" horiz-adv-x="737" d="M94 772q0 16 23.5 29.5t44.5 13.5q35 0 76 -31.5t67 -31.5q76 0 125 52t49 134q0 150 -170 149q-10 0 -35.5 -2t-35.5 -2q-20 0 -21 33q0 35 14 37q59 4 107 23q139 55 139 186q0 59 -31.5 93t-80.5 34q-53 0 -106.5 -35t-55.5 -35q-10 0 -21.5 9.5t-9.5 21.5 q2 25 70.5 69t142.5 44q102 0 159.5 -56.5t57.5 -130.5q0 -147 -219 -229q221 -45 221 -201q0 -119 -96 -186.5t-219 -67.5q-53 0 -124 27.5t-71 52.5z" />
<glyph unicode="&#xb4;" horiz-adv-x="819" d="M346 924q0 2 6 14l125 252q27 53 72 53q31 0 50 -13t19 -36q0 -33 -20 -55l-186 -211q-10 -14 -21 -15h-31q-14 1 -14 11z" />
<glyph unicode="&#xb5;" horiz-adv-x="1042" d="M45 -279q0 86 17.5 175.5t53.5 217.5t52 205q37 164 58.5 252t37 135.5t23.5 58.5t20 11q86 0 86 -41q0 -16 -19.5 -84.5t-46 -178.5t-38.5 -210q-6 -74 -6 -88q0 -90 53 -90q90 0 208 190.5t201 401.5q37 96 48 100q2 2 6 2q29 0 58.5 -9t29.5 -28q0 -6 -51.5 -275 t-51.5 -323q0 -20 14.5 -33.5t30.5 -13.5q39 0 74 68.5t51 68.5q23 0 23 -32q0 -70 -77 -156t-175 -86q-76 0 -76 137q0 49 16.5 164t16.5 117q0 6 -4 0q-45 -76 -111 -172q-2 -4 -31.5 -47t-40 -57.5t-41 -48.5t-52 -48t-55.5 -27.5t-68 -13.5q-61 0 -95 107q-8 27 -14 0 q-31 -135 -31 -232q0 -37 24.5 -94t24.5 -63q0 -16 -16 -39t-51 -23q-31 0 -53.5 26.5t-22.5 75.5z" />
<glyph unicode="&#xb6;" horiz-adv-x="1007" d="M76 854q0 123 49 218t126 147.5t155.5 79t152.5 26.5q18 0 24.5 -6t6.5 -23v-964q0 -23 -17 -23q-61 0 -140 30t-162 89t-139 171t-56 255zM567 -420q0 23 23 23h123q12 0 14 1t2 9v1706q0 18 5 22.5t20 4.5h155q23 0 23 -29v-29q0 -14 -3 -19t-20 -5h-102q-8 0 -9 -2 t-1 -13v-1708q0 -16 -3 -18t-24 -2h-180q-23 0 -23 22v37z" />
<glyph unicode="&#xb7;" horiz-adv-x="256" d="M45 696q0 43 24.5 72t65.5 29q45 0 70.5 -33t25.5 -72q0 -43 -25.5 -71.5t-64.5 -28.5q-45 0 -70.5 32.5t-25.5 71.5z" />
<glyph unicode="&#xb8;" horiz-adv-x="819" d="M217 -389q0 27 23 27q4 0 19 -7.5t41 -14.5t54 -7q135 0 135 94q0 35 -21.5 60.5t-68.5 25.5q-23 0 -47 -6t-26 -6q-4 0 -12.5 5t-8.5 7t21.5 43t51.5 95.5t40 72.5h53q-68 -123 -74 -135q20 4 52 4q74 0 118.5 -41t44.5 -96q0 -80 -67.5 -131.5t-167.5 -51.5 q-45 0 -84 12.5t-57.5 26t-18.5 23.5z" />
<glyph unicode="&#xb9;" horiz-adv-x="737" d="M154 737q0 37 28 37h113q78 524 92 707q-12 -2 -40 -7.5t-50.5 -10.5t-26.5 -5q-20 0 -20 25v16q0 20 22 25q25 2 84.5 12t108.5 18.5t53 8.5q20 0 21 -23q0 -8 -7.5 -51t-19.5 -117t-18 -119l-72 -479h113q23 0 22 -39q0 -29 -22 -28q-8 0 -77 2t-91.5 2t-97 -2 t-89.5 -2q-26 -1 -26 30z" />
<glyph unicode="&#xba;" horiz-adv-x="772" d="M55 950q0 190 114 318.5t286 128.5q125 0 183 -88t58 -189q0 -162 -117.5 -294t-277.5 -132q-117 0 -181.5 75t-64.5 181zM176 965q0 -39 3 -66t13.5 -66.5t39 -60t71.5 -20.5q109 0 189.5 151.5t80.5 284.5q0 57 -30.5 105t-106.5 48q-92 0 -176 -129.5t-84 -246.5z" />
<glyph unicode="&#xbb;" horiz-adv-x="835" d="M115 150q0 8 64.5 121.5t64.5 124t-64.5 123t-64.5 122.5q0 6 15 18.5t19.5 12.5t28 -23.5t66.5 -65.5t73 -71q12 -12 33 -30.5t33 -30t24.5 -23.5t18.5 -20.5t6 -12.5q0 -8 -13 -22.5t-49 -46t-53 -47.5q-31 -29 -73.5 -71t-66 -65.5t-28 -23.5t-19.5 14.5t-15 16.5z M422 150q0 8 64.5 121.5t64.5 124t-64.5 123t-64.5 122.5q0 6 15.5 18.5t19.5 12.5t27.5 -23.5t66.5 -65.5t74 -71q12 -12 32.5 -30.5t32.5 -30t24.5 -23.5t18.5 -20.5t6 -12.5q0 -8 -13 -22.5t-49 -46t-52 -47.5q-31 -29 -74 -71t-66.5 -65.5t-27.5 -23.5t-19.5 14.5 t-15.5 16.5z" />
<glyph unicode="&#xbc;" horiz-adv-x="1626" d="M154 532q0 37 28 37h113q78 524 92 707q-12 -2 -40 -7t-50.5 -10.5t-26.5 -5.5q-20 0 -20 25v16q0 20 22 25q25 2 84.5 12t108.5 18.5t53 8.5q20 0 21 -23q0 -8 -7.5 -51t-19.5 -116.5t-18 -118.5l-72 -480h113q23 0 22 -39q0 -29 -22 -28q-8 0 -77 2t-91.5 2t-97 -2 t-89.5 -2q-26 -1 -26 30zM420 -20l12 24l838 1348q2 2 4 6l3 6t5 4t8 3t12.5 2t18.5 1q47 0 47 -12l-8 -16l-840 -1352q-12 -20 -19 -23.5t-34 -3.5q-47 1 -47 13zM932 289q0 33 37 82q37 51 160.5 181t168.5 185q12 16 32 28.5t22 14.5q74 74 86 74q20 0 20 -35 q0 -23 -25.5 -209t-35.5 -241q0 -8 12 -9h76q18 0 18 -22v-47q0 -20 -24 -21h-90q-12 0 -15 -12q-37 -252 -37 -260q-2 -16 -18 -16v-2h-2q-41 -8 -86 -9q-20 0 -14 29l47 258q2 6 -2.5 9t-12.5 3h-284q-33 1 -33 19zM1028 360h240q14 0 18 23q37 195 43 307 q-123 -123 -282 -307q-11 -11 -19 -23z" />
<glyph unicode="&#xbd;" horiz-adv-x="1728" d="M154 532q0 37 28 37h113q78 524 92 707q-12 -2 -40 -7t-50.5 -10.5t-26.5 -5.5q-20 0 -20 25v16q0 20 22 25q25 2 84.5 12t108.5 18.5t53 8.5q20 0 21 -23q0 -8 -7.5 -51t-19.5 -116.5t-18 -118.5l-72 -480h113q23 0 22 -39q0 -29 -22 -28q-8 0 -77 2t-91.5 2t-97 -2 t-89.5 -2q-26 -1 -26 30zM420 -20l12 24l838 1348q2 2 4 6l3 6t5 4t8 3t12.5 2t18.5 1q47 0 47 -12l-8 -16l-840 -1352q-12 -20 -19 -23.5t-34 -3.5q-47 1 -47 13zM1069 14q0 16 54.5 90t66.5 84q313 285 313 418q0 59 -38 99t-107 40q-47 0 -90 -20t-65.5 -46t-42 -46.5 t-25.5 -20.5q-10 0 -23.5 10.5t-13.5 22.5q0 18 40 64.5t113.5 91.5t147.5 45q102 0 165.5 -64.5t63.5 -163.5q0 -106 -106 -225q-43 -47 -93.5 -89t-101.5 -80t-59 -44q-2 -2 -70 -78h356q2 6 14.5 41t21.5 58.5t14 23.5q47 0 47 -10q0 -4 -11.5 -42t-28 -88t-22.5 -77 q-2 -14 -24 -14h-467q-29 0 -29 20z" />
<glyph unicode="&#xbe;" horiz-adv-x="1626" d="M94 567q0 16 23.5 29.5t44.5 13.5q35 0 76 -31.5t67 -31.5q76 0 125 52t49 134q0 150 -170 150q-10 0 -35.5 -2t-35.5 -2q-20 0 -21 32q0 35 14 37q59 4 107 23q139 55 139 186q0 59 -31.5 93t-80.5 34q-53 0 -106.5 -35t-55.5 -35q-10 0 -21.5 9.5t-9.5 21.5 q2 25 70.5 69t142.5 44q102 0 159.5 -56.5t57.5 -130.5q0 -147 -219 -229q221 -45 221 -201q0 -119 -96 -186.5t-219 -67.5q-53 0 -124 27.5t-71 52.5zM420 -20l12 24l838 1348q2 2 4 6l3 6t5 4t8 3t12.5 2t18.5 1q47 0 47 -12l-8 -16l-840 -1352q-12 -20 -19 -23.5 t-34 -3.5q-47 1 -47 13zM932 289q0 33 37 82q37 51 160.5 181t168.5 185q12 16 32 28.5t22 14.5q74 74 86 74q20 0 20 -35q0 -23 -25.5 -209t-35.5 -241q0 -8 12 -9h76q18 0 18 -22v-47q0 -20 -24 -21h-90q-12 0 -15 -12q-37 -252 -37 -260q-2 -16 -18 -16v-2h-2 q-41 -8 -86 -9q-20 0 -14 29l47 258q2 6 -2.5 9t-12.5 3h-284q-33 1 -33 19zM1028 360h240q14 0 18 23q37 195 43 307q-123 -123 -282 -307q-11 -11 -19 -23z" />
<glyph unicode="&#xbf;" horiz-adv-x="765" d="M66 303q0 20 2 38.5t3 32t6 29t7 24.5t10 22.5t10 18.5t14.5 19.5t14.5 17.5t17.5 19.5t17.5 20.5q33 37 215 219q6 6 28.5 27.5t37 36t33 36t27.5 40t9 32.5q0 31 -29 70l-28 38q0 6 13 19.5t22 13.5q10 0 33.5 -23.5t47 -65.5t23.5 -81q0 -92 -135 -227 q-29 -29 -87.5 -84t-93 -90t-74.5 -80t-59.5 -83t-19.5 -69q0 -41 22.5 -80.5t51.5 -58.5q47 -29 178 -29q27 0 92.5 3.5t71.5 3.5q31 0 31 -66v-20q0 -23 -9.5 -29t-33.5 -10q-61 -10 -132 -11q-127 0 -188 39q-68 45 -108.5 125t-40.5 162zM412 1241q0 51 31.5 81t56.5 30 q43 0 75.5 -35t32.5 -66q0 -41 -33.5 -76.5t-66.5 -35.5q-31 0 -63.5 34.5t-32.5 67.5z" />
<glyph unicode="&#xc0;" horiz-adv-x="1409" d="M35 31q0 20 8 25t35 5h65q16 18 158.5 264t313.5 535t241 393q8 12 45 51t57 76q16 33 37 33q29 0 33 -43q213 -1268 234 -1309h84q18 0 23 -7t5 -25q0 -25 -5 -33t-23 -8q-12 0 -81 3t-104 3q-33 0 -120 -3t-109 -3q-20 0 -26.5 8t-6.5 35q0 20 8 25t35 5h115v17 q0 49 -28 246.5t-30 212.5q-4 25 -6 28.5t-16 3.5h-395q-18 0 -24.5 -3t-16.5 -23q-238 -444 -248 -482h135q18 0 23.5 -7t5.5 -25q0 -25 -5.5 -33t-23.5 -8t-88 3t-121 3q-35 0 -89 -3t-62 -3q-20 0 -26.5 8t-6.5 35zM588 637q0 -6 30 -6h343q20 0 20 4q0 20 -43 279.5 t-47 259.5l-64 -113q-63 -111 -140 -245t-85 -150q-14 -25 -14 -29zM817 1675q0 66 66 66q39 0 67 -55l82 -175q2 -4 2 -12q0 -12 -14 -12h-37q-4 0 -18 14l-125 123q-23 22 -23 51z" />
<glyph unicode="&#xc1;" horiz-adv-x="1409" d="M35 31q0 20 8 25t35 5h65q16 18 158.5 264t313.5 535t241 393q8 12 45 51t57 76q16 33 37 33q29 0 33 -43q213 -1268 234 -1309h84q18 0 23 -7t5 -25q0 -25 -5 -33t-23 -8q-12 0 -81 3t-104 3q-33 0 -120 -3t-109 -3q-20 0 -26.5 8t-6.5 35q0 20 8 25t35 5h115v17 q0 49 -28 246.5t-30 212.5q-4 25 -6 28.5t-16 3.5h-395q-18 0 -24.5 -3t-16.5 -23q-238 -444 -248 -482h135q18 0 23.5 -7t5.5 -25q0 -25 -5.5 -33t-23.5 -8t-88 3t-121 3q-35 0 -89 -3t-62 -3q-20 0 -26.5 8t-6.5 35zM588 637q0 -6 30 -6h343q20 0 20 4q0 20 -43 279.5 t-47 259.5l-64 -113q-63 -111 -140 -245t-85 -150q-14 -25 -14 -29zM981 1497q0 8 6 14l137 177q41 53 82 53q59 0 60 -49q0 -41 -39 -68l-170 -123q-20 -14 -23 -14h-39q-14 0 -14 10z" />
<glyph unicode="&#xc2;" horiz-adv-x="1409" d="M35 31q0 20 8 25t35 5h65q16 18 158.5 264t313.5 535t241 393q8 12 45 51t57 76q16 33 37 33q29 0 33 -43q213 -1268 234 -1309h84q18 0 23 -7t5 -25q0 -25 -5 -33t-23 -8q-12 0 -81 3t-104 3q-33 0 -120 -3t-109 -3q-20 0 -26.5 8t-6.5 35q0 20 8 25t35 5h115v17 q0 49 -28 246.5t-30 212.5q-4 25 -6 28.5t-16 3.5h-395q-18 0 -24.5 -3t-16.5 -23q-238 -444 -248 -482h135q18 0 23.5 -7t5.5 -25q0 -25 -5.5 -33t-23.5 -8t-88 3t-121 3q-35 0 -89 -3t-62 -3q-20 0 -26.5 8t-6.5 35zM588 637q0 -6 30 -6h343q20 0 20 4q0 20 -43 279.5 t-47 259.5l-64 -113q-63 -111 -140 -245t-85 -150q-14 -25 -14 -29zM786 1495q0 4 13 16l186 189q25 25 45 24h41q25 0 39 -24l109 -189q6 -8 6 -16t-19 -8h-20q-8 0 -23 14l-129 107q-2 2 -8 0l-174 -109q-20 -12 -27 -12h-26q-13 0 -13 8z" />
<glyph unicode="&#xc3;" horiz-adv-x="1409" d="M35 31q0 20 8 25t35 5h65q16 18 158.5 264t313.5 535t241 393q8 12 45 51t57 76q16 33 37 33q29 0 33 -43q213 -1268 234 -1309h84q18 0 23 -7t5 -25q0 -25 -5 -33t-23 -8q-12 0 -81 3t-104 3q-33 0 -120 -3t-109 -3q-20 0 -26.5 8t-6.5 35q0 20 8 25t35 5h115v17 q0 49 -28 246.5t-30 212.5q-4 25 -6 28.5t-16 3.5h-395q-18 0 -24.5 -3t-16.5 -23q-238 -444 -248 -482h135q18 0 23.5 -7t5.5 -25q0 -25 -5.5 -33t-23.5 -8t-88 3t-121 3q-35 0 -89 -3t-62 -3q-20 0 -26.5 8t-6.5 35zM588 637q0 -6 30 -6h343q20 0 20 4q0 20 -43 279.5 t-47 259.5l-64 -113q-63 -111 -140 -245t-85 -150q-14 -25 -14 -29zM799 1524q0 18 22 55q31 51 69 81t66 30q35 0 89.5 -37t74.5 -37q43 0 76 63q2 4 4 9q4 10 19 10h26q2 0 2 -4q0 -14 -20 -62q-61 -117 -144 -116q-39 0 -87 35.5t-76 35.5q-41 0 -72 -55q-6 -16 -21 -16 h-22q-6 0 -6 8z" />
<glyph unicode="&#xc4;" horiz-adv-x="1409" d="M35 31q0 20 8 25t35 5h65q16 18 158.5 264t313.5 535t241 393q8 12 45 51t57 76q16 33 37 33q29 0 33 -43q213 -1268 234 -1309h84q18 0 23 -7t5 -25q0 -25 -5 -33t-23 -8q-12 0 -81 3t-104 3q-33 0 -120 -3t-109 -3q-20 0 -26.5 8t-6.5 35q0 20 8 25t35 5h115v17 q0 49 -28 246.5t-30 212.5q-4 25 -6 28.5t-16 3.5h-395q-18 0 -24.5 -3t-16.5 -23q-238 -444 -248 -482h135q18 0 23.5 -7t5.5 -25q0 -25 -5.5 -33t-23.5 -8t-88 3t-121 3q-35 0 -89 -3t-62 -3q-20 0 -26.5 8t-6.5 35zM588 637q0 -6 30 -6h343q20 0 20 4q0 20 -43 279.5 t-47 259.5l-64 -113q-63 -111 -140 -245t-85 -150q-14 -25 -14 -29zM793 1608q0 43 24.5 71.5t65.5 28.5q45 0 70.5 -33t25.5 -71q0 -43 -25.5 -72t-64.5 -29q-45 0 -70.5 33t-25.5 72zM1079 1608q0 43 24.5 71.5t65.5 28.5q45 0 71 -33t26 -71q0 -43 -26 -72t-64 -29 q-45 0 -71 33t-26 72z" />
<glyph unicode="&#xc5;" horiz-adv-x="1409" d="M35 31q0 20 8 25t35 5h65q16 18 158.5 264t313.5 535t241 393q8 12 45 51t57 76q16 33 37 33q29 0 33 -43q213 -1268 234 -1309h84q18 0 23 -7t5 -25q0 -25 -5 -33t-23 -8q-12 0 -81 3t-104 3q-33 0 -120 -3t-109 -3q-20 0 -26.5 8t-6.5 35q0 20 8 25t35 5h115v17 q0 49 -28 246.5t-30 212.5q-4 25 -6 28.5t-16 3.5h-395q-18 0 -24.5 -3t-16.5 -23q-238 -444 -248 -482h135q18 0 23.5 -7t5.5 -25q0 -25 -5.5 -33t-23.5 -8t-88 3t-121 3q-35 0 -89 -3t-62 -3q-20 0 -26.5 8t-6.5 35zM588 637q0 -6 30 -6h343q20 0 20 4q0 20 -43 279.5 t-47 259.5l-64 -113q-63 -111 -140 -245t-85 -150q-14 -25 -14 -29zM881 1599.5q0 59.5 43 102.5t102 43t102 -43t43 -102.5t-43 -102.5t-102 -43t-102 43t-43 102.5zM950 1599.5q0 -32.5 21.5 -54t54.5 -21.5t54.5 21.5t21.5 54t-21.5 54t-54.5 21.5t-54.5 -21.5t-21.5 -54 z" />
<glyph unicode="&#xc6;" horiz-adv-x="1982" d="M-27 31q0 20 8.5 25t34.5 5h66q12 0 208.5 250t443.5 570.5t325 414.5h-127q-45 0 -45 37q0 35 31 35l135 -4q137 -2 180 -2q57 0 222 3t206 3q186 0 188 21q0 31 33 30q41 0 41 -28q0 -10 -8 -87t-10 -174q0 -14 -8.5 -18t-30.5 -4q-37 0 -37 27q0 6 12 153 q-86 12 -528 12q-20 -57 -82 -544q-2 -10 -2 -21q18 -8 24 -8h336q86 0 90 23l23 112q2 14 39 15q33 0 33 -19q0 -8 -5.5 -35.5t-14.5 -70.5t-15 -74q-29 -150 -31 -184q-2 -16 -33 -17h-8q-33 0 -33 17q0 6 12.5 73.5t12.5 69.5q0 23 -96 22h-310q-23 0 -27.5 -2t-6.5 -14 q-6 -29 -40 -264.5t-40 -298.5q0 -12 8 -12q29 0 337 7t316 7q6 6 18.5 40t28 83t25.5 71q8 23 35 23q14 0 27.5 -8t13.5 -20.5t-11.5 -45t-35 -97.5t-39.5 -114q-8 -27 -41 -26q-23 0 -367 3t-377 3t-110.5 -3t-100.5 -3q-20 0 -27.5 8t-7.5 35q0 20 8.5 25t34.5 5h82 l86 549h-405q-23 0 -43 -28q-334 -483 -350 -521h133q18 0 23.5 -7t5.5 -25q0 -25 -5.5 -33t-23.5 -8q-23 0 -105 3t-114.5 3t-79.5 -3t-70 -3q-20 0 -27.5 8t-7.5 35zM680 696q-16 -25 10 -24h361l41 291q41 295 41 315q0 14 -19 -8z" />
<glyph unicode="&#xc7;" horiz-adv-x="1404" d="M66 596q0 332 223 558t526 226q125 0 240.5 -49t189.5 -123q23 78 29 78q18 0 41.5 -7t23.5 -22q0 -6 -15 -83.5t-34.5 -174t-21.5 -110.5q-4 -14 -33 -15q-20 0 -36.5 9.5t-16.5 19.5q0 4 22.5 95.5t24.5 103.5q-12 20 -66.5 65t-156 94.5t-193.5 49.5q-152 0 -281 -114 t-199.5 -278.5t-70.5 -328.5q0 -250 140.5 -396.5t349.5 -146.5q94 0 184 34t135 67.5t51 50.5q20 59 52 172q10 33 55 22q39 -8 39 -28q0 -14 -68 -240q-12 -37 -159.5 -95.5t-282.5 -64.5q-51 -92 -56 -100q20 4 52 4q74 0 119 -41t45 -96q0 -80 -68 -131.5t-168 -51.5 q-45 0 -84 12.5t-57.5 26t-18.5 23.5q0 27 23 27q4 0 19.5 -7.5t41 -14.5t53.5 -7q135 0 136 94q0 35 -21.5 60.5t-68.5 25.5q-23 0 -47.5 -6t-26.5 -6q-4 0 -12.5 5t-8.5 7t15.5 30.5t41 75t38.5 70.5q-127 4 -238 40t-203 107.5t-145 195.5t-53 288z" />
<glyph unicode="&#xc8;" horiz-adv-x="1185" d="M35 31q0 20 8 25t35 5h82q0 4 21.5 140.5t44 285t47 318.5t41 302t16.5 175l-2 14h-119q-20 0 -28.5 6.5t-8.5 30.5q0 35 27 35l96 -4q98 -2 141 -2q57 0 222 3t206 3q186 0 189 21q0 31 32 30q41 0 41 -28q0 -10 -8 -87t-10 -174q0 -14 -8 -18t-31 -4q-37 0 -37 27 q0 6 12 153q-86 12 -528 12q-20 -57 -82 -544q-2 -10 -2 -21q18 -8 25 -8h336q86 0 90 23l22 112q2 14 39 15q33 0 33 -19q0 -8 -5 -35.5t-14.5 -70.5t-15.5 -74q-29 -150 -31 -184q-2 -16 -32 -17h-9q-33 0 -32 17q0 6 12 73.5t12 69.5q0 23 -96 22h-309q-23 0 -27 -2 t-8 -14q-6 -29 -40 -264.5t-40 -298.5q0 -12 8 -12q29 0 337 7t317 7q6 6 18 40t27.5 83t25.5 71q8 23 35 23q14 0 27.5 -8t13.5 -20.5t-11.5 -45t-35 -97.5t-39.5 -114q-8 -27 -41 -26q-23 0 -367 3t-376.5 3t-110.5 -3t-100 -3q-20 0 -27.5 8t-7.5 35zM512 1675 q0 66 66 66q41 0 67 -55l82 -175q2 -4 2 -12q0 -12 -14 -12h-37q-4 0 -19 14l-124 123q-23 22 -23 51z" />
<glyph unicode="&#xc9;" horiz-adv-x="1185" d="M35 31q0 20 8 25t35 5h82q0 4 21.5 140.5t44 285t47 318.5t41 302t16.5 175l-2 14h-119q-20 0 -28.5 6.5t-8.5 30.5q0 35 27 35l96 -4q98 -2 141 -2q57 0 222 3t206 3q186 0 189 21q0 31 32 30q41 0 41 -28q0 -10 -8 -87t-10 -174q0 -14 -8 -18t-31 -4q-37 0 -37 27 q0 6 12 153q-86 12 -528 12q-20 -57 -82 -544q-2 -10 -2 -21q18 -8 25 -8h336q86 0 90 23l22 112q2 14 39 15q33 0 33 -19q0 -8 -5 -35.5t-14.5 -70.5t-15.5 -74q-29 -150 -31 -184q-2 -16 -32 -17h-9q-33 0 -32 17q0 6 12 73.5t12 69.5q0 23 -96 22h-309q-23 0 -27 -2 t-8 -14q-6 -29 -40 -264.5t-40 -298.5q0 -12 8 -12q29 0 337 7t317 7q6 6 18 40t27.5 83t25.5 71q8 23 35 23q14 0 27.5 -8t13.5 -20.5t-11.5 -45t-35 -97.5t-39.5 -114q-8 -27 -41 -26q-23 0 -367 3t-376.5 3t-110.5 -3t-100 -3q-20 0 -27.5 8t-7.5 35zM676 1497q0 8 6 14 l137 177q41 53 82 53q59 0 60 -49q0 -41 -39 -68l-170 -123l-23 -14h-39q-14 0 -14 10z" />
<glyph unicode="&#xca;" horiz-adv-x="1185" d="M35 31q0 20 8 25t35 5h82q0 4 21.5 140.5t44 285t47 318.5t41 302t16.5 175l-2 14h-119q-20 0 -28.5 6.5t-8.5 30.5q0 35 27 35l96 -4q98 -2 141 -2q57 0 222 3t206 3q186 0 189 21q0 31 32 30q41 0 41 -28q0 -10 -8 -87t-10 -174q0 -14 -8 -18t-31 -4q-37 0 -37 27 q0 6 12 153q-86 12 -528 12q-20 -57 -82 -544q-2 -10 -2 -21q18 -8 25 -8h336q86 0 90 23l22 112q2 14 39 15q33 0 33 -19q0 -8 -5 -35.5t-14.5 -70.5t-15.5 -74q-29 -150 -31 -184q-2 -16 -32 -17h-9q-33 0 -32 17q0 6 12 73.5t12 69.5q0 23 -96 22h-309q-23 0 -27 -2 t-8 -14q-6 -29 -40 -264.5t-40 -298.5q0 -12 8 -12q29 0 337 7t317 7q6 6 18 40t27.5 83t25.5 71q8 23 35 23q14 0 27.5 -8t13.5 -20.5t-11.5 -45t-35 -97.5t-39.5 -114q-8 -27 -41 -26q-23 0 -367 3t-376.5 3t-110.5 -3t-100 -3q-20 0 -27.5 8t-7.5 35zM481 1495q0 4 13 16 l186 189q25 25 45 24h41q25 0 39 -24l108 -189q6 -8 6.5 -16t-18.5 -8h-20q-8 0 -23 14l-129 107q-2 2 -8 0l-174 -109q-20 -12 -27 -12h-26q-13 0 -13 8z" />
<glyph unicode="&#xcb;" horiz-adv-x="1185" d="M35 31q0 20 8 25t35 5h82q0 4 21.5 140.5t44 285t47 318.5t41 302t16.5 175l-2 14h-119q-20 0 -28.5 6.5t-8.5 30.5q0 35 27 35l96 -4q98 -2 141 -2q57 0 222 3t206 3q186 0 189 21q0 31 32 30q41 0 41 -28q0 -10 -8 -87t-10 -174q0 -14 -8 -18t-31 -4q-37 0 -37 27 q0 6 12 153q-86 12 -528 12q-20 -57 -82 -544q-2 -10 -2 -21q18 -8 25 -8h336q86 0 90 23l22 112q2 14 39 15q33 0 33 -19q0 -8 -5 -35.5t-14.5 -70.5t-15.5 -74q-29 -150 -31 -184q-2 -16 -32 -17h-9q-33 0 -32 17q0 6 12 73.5t12 69.5q0 23 -96 22h-309q-23 0 -27 -2 t-8 -14q-6 -29 -40 -264.5t-40 -298.5q0 -12 8 -12q29 0 337 7t317 7q6 6 18 40t27.5 83t25.5 71q8 23 35 23q14 0 27.5 -8t13.5 -20.5t-11.5 -45t-35 -97.5t-39.5 -114q-8 -27 -41 -26q-23 0 -367 3t-376.5 3t-110.5 -3t-100 -3q-20 0 -27.5 8t-7.5 35zM487 1608 q0 43 25 71.5t66 28.5q45 0 70.5 -33t25.5 -71q0 -43 -25.5 -72t-64.5 -29q-45 0 -71 33t-26 72zM774 1608q0 43 24.5 71.5t65.5 28.5q45 0 71 -33t26 -71q0 -43 -26 -72t-65 -29q-45 0 -70.5 33t-25.5 72z" />
<glyph unicode="&#xcc;" horiz-adv-x="772" d="M35 31q0 20 8 25t35 5h119q18 55 99 598t81 617q0 27 -12 27h-138q-29 0 -28 36q0 25 9 31t32 6q12 0 108 -3t131 -3q33 0 117 3t106 3q20 0 27.5 -8t7.5 -35q0 -20 -8 -25t-35 -5h-114q-23 -47 -100 -588t-77 -633q0 -20 11 -21h135q18 0 23.5 -7t5.5 -25 q0 -25 -5.5 -33t-23.5 -8q-23 0 -119 3t-129 3t-121 -3t-110 -3q-20 0 -27.5 8t-7.5 35zM303 1675q0 66 66 66q41 0 67 -55l82 -175q2 -4 2 -12q0 -12 -14 -12h-37q-4 0 -18 14l-125 123q-23 22 -23 51z" />
<glyph unicode="&#xcd;" horiz-adv-x="772" d="M35 31q0 20 8 25t35 5h119q18 55 99 598t81 617q0 27 -12 27h-138q-29 0 -28 36q0 25 9 31t32 6q12 0 108 -3t131 -3q33 0 117 3t106 3q20 0 27.5 -8t7.5 -35q0 -20 -8 -25t-35 -5h-114q-23 -47 -100 -588t-77 -633q0 -20 11 -21h135q18 0 23.5 -7t5.5 -25 q0 -25 -5.5 -33t-23.5 -8q-23 0 -119 3t-129 3t-121 -3t-110 -3q-20 0 -27.5 8t-7.5 35zM467 1497q0 8 6 14l137 177q41 53 82 53q59 0 60 -49q0 -41 -39 -68l-170 -123l-23 -14h-39q-14 0 -14 10z" />
<glyph unicode="&#xce;" horiz-adv-x="772" d="M35 31q0 20 8 25t35 5h119q18 55 99 598t81 617q0 27 -12 27h-138q-29 0 -28 36q0 25 9 31t32 6q12 0 108 -3t131 -3q33 0 117 3t106 3q20 0 27.5 -8t7.5 -35q0 -20 -8 -25t-35 -5h-114q-23 -47 -100 -588t-77 -633q0 -20 11 -21h135q18 0 23.5 -7t5.5 -25 q0 -25 -5.5 -33t-23.5 -8q-23 0 -119 3t-129 3t-121 -3t-110 -3q-20 0 -27.5 8t-7.5 35zM272 1495q0 4 13 16l186 189q25 25 45 24h41q25 0 39 -24l109 -189q6 -8 6 -16t-19 -8h-20q-8 0 -23 14l-129 107q-2 2 -8 0l-174 -109q-20 -12 -27 -12h-26q-13 0 -13 8z" />
<glyph unicode="&#xcf;" horiz-adv-x="772" d="M35 31q0 20 8 25t35 5h119q18 55 99 598t81 617q0 27 -12 27h-138q-29 0 -28 36q0 25 9 31t32 6q12 0 108 -3t131 -3q33 0 117 3t106 3q20 0 27.5 -8t7.5 -35q0 -20 -8 -25t-35 -5h-114q-23 -47 -100 -588t-77 -633q0 -20 11 -21h135q18 0 23.5 -7t5.5 -25 q0 -25 -5.5 -33t-23.5 -8q-23 0 -119 3t-129 3t-121 -3t-110 -3q-20 0 -27.5 8t-7.5 35zM279 1608q0 43 24.5 71.5t65.5 28.5q45 0 70.5 -33t25.5 -71q0 -43 -25.5 -72t-64.5 -29q-45 0 -70.5 33t-25.5 72zM565 1608q0 43 24.5 71.5t65.5 28.5q45 0 71 -33t26 -71 q0 -43 -26 -72t-64 -29q-45 0 -71 33t-26 72z" />
<glyph unicode="&#xd0;" horiz-adv-x="1519" d="M33 20q0 25 9 31t32 6h84q18 53 92 576q2 14 -1 16t-16 2h-133q-10 0 -10 27v12q0 23 10 23h140q14 0 17 2t5 16q2 10 21.5 150.5t36 268.5t16.5 144v2l-146 -4q-33 0 -32 31q0 14 2 21.5t9 12.5t21 5q2 0 49.5 -1t105.5 -1h89q68 0 155 2t116 2q340 0 539.5 -165 t199.5 -513q0 -332 -214 -516t-532 -184q-66 0 -221 4t-217 4q-33 0 -112.5 -4t-86.5 -4q-18 0 -23 7t-5 27zM356 94q0 -25 11 -31q8 -6 116 -6q143 0 261 29t196 74t137.5 108.5t91 125t51 132t25.5 121.5t6 101q0 250 -150.5 398t-453.5 148q-121 0 -123 -8 q-2 -4 -22.5 -140t-41 -274.5t-20.5 -140.5q-2 -18 15 -18h401q8 0 8 -31t-8 -31h-410q-18 0 -20 -20q-70 -480 -70 -537z" />
<glyph unicode="&#xd1;" horiz-adv-x="1687" d="M35 31q0 20 8 25t35 5h96q45 276 182 1047q23 113 23 149q0 4 -10 23q-8 14 -14.5 18.5t-28.5 4.5h-123q-16 0 -20.5 6t-4.5 26q0 18 1 25.5t6 11.5t17.5 4t112 -3t121.5 -3q27 0 57.5 3t34.5 3q29 0 47 -28l672 -1022q16 -23 27 -23q18 49 80.5 472t62.5 509v19h-153 q-18 0 -23.5 7t-5.5 25q0 25 5 33t24 8q12 0 75.5 -3t106.5 -3q49 0 106.5 3t65.5 3q20 0 27.5 -8t7.5 -35q0 -20 -8.5 -25t-34.5 -5h-82q-23 -70 -162 -951q-18 -121 -35 -348q-2 -31 -9 -42t-28 -11q-8 0 -15 4t-14.5 12t-11.5 14.5l-12 19.5t-10 17q-113 182 -240 369 l-524 766q-25 31 -29 23q-2 -4 -4 -17l-12 -78q-12 -76 -27.5 -175t-34 -228t-34 -242.5t-25.5 -211t-10 -138.5q0 -10 2 -20v-5h172q18 0 23.5 -7t5.5 -25q0 -25 -5.5 -33t-23.5 -8q-23 0 -103.5 3t-113.5 3q-37 0 -106.5 -3t-71.5 -3q-20 0 -27.5 8t-7.5 35zM743 1524 q0 18 23 55q31 51 68.5 81t66.5 30q35 0 89 -37t75 -37q45 0 76 63q2 4 4 9q4 10 18 10h27q2 0 2 -4q0 -14 -21 -62q-61 -117 -143 -116q-39 0 -87 35.5t-77 35.5q-41 0 -71 -55q-6 -16 -21 -16h-22q-7 0 -7 8z" />
<glyph unicode="&#xd2;" horiz-adv-x="1503" d="M66 573q0 178 67.5 334t176 258.5t245.5 160.5t279 58q279 0 441.5 -184t162.5 -487q0 -313 -220.5 -538.5t-533.5 -225.5q-268 0 -443 155.5t-175 468.5zM266 586q0 -111 26.5 -210.5t79 -183t142.5 -133t205 -49.5q150 0 273.5 122t185 292t61.5 340q0 90 -22.5 182 t-67.5 177t-126 138.5t-183 53.5q-217 0 -395.5 -228.5t-178.5 -500.5zM690 1675q0 66 66 66q39 0 67 -55l82 -175q2 -4 2 -12q0 -12 -14 -12h-37q-4 0 -18 14l-125 123q-23 22 -23 51z" />
<glyph unicode="&#xd3;" horiz-adv-x="1503" d="M66 573q0 178 67.5 334t176 258.5t245.5 160.5t279 58q279 0 441.5 -184t162.5 -487q0 -313 -220.5 -538.5t-533.5 -225.5q-268 0 -443 155.5t-175 468.5zM266 586q0 -111 26.5 -210.5t79 -183t142.5 -133t205 -49.5q150 0 273.5 122t185 292t61.5 340q0 90 -22.5 182 t-67.5 177t-126 138.5t-183 53.5q-217 0 -395.5 -228.5t-178.5 -500.5zM854 1497q0 8 6 14l137 177q41 53 82 53q59 0 60 -49q0 -41 -39 -68l-170 -123q-20 -14 -23 -14h-39q-14 0 -14 10z" />
<glyph unicode="&#xd4;" horiz-adv-x="1503" d="M66 573q0 178 67.5 334t176 258.5t245.5 160.5t279 58q279 0 441.5 -184t162.5 -487q0 -313 -220.5 -538.5t-533.5 -225.5q-268 0 -443 155.5t-175 468.5zM266 586q0 -111 26.5 -210.5t79 -183t142.5 -133t205 -49.5q150 0 273.5 122t185 292t61.5 340q0 90 -22.5 182 t-67.5 177t-126 138.5t-183 53.5q-217 0 -395.5 -228.5t-178.5 -500.5zM659 1495q0 4 13 16l186 189q25 25 45 24h41q25 0 39 -24l109 -189q6 -8 6 -16t-19 -8h-20q-8 0 -23 14l-129 107q-2 2 -8 0l-174 -109q-20 -12 -27 -12h-26q-13 0 -13 8z" />
<glyph unicode="&#xd5;" horiz-adv-x="1503" d="M66 573q0 178 67.5 334t176 258.5t245.5 160.5t279 58q279 0 441.5 -184t162.5 -487q0 -313 -220.5 -538.5t-533.5 -225.5q-268 0 -443 155.5t-175 468.5zM266 586q0 -111 26.5 -210.5t79 -183t142.5 -133t205 -49.5q150 0 273.5 122t185 292t61.5 340q0 90 -22.5 182 t-67.5 177t-126 138.5t-183 53.5q-217 0 -395.5 -228.5t-178.5 -500.5zM672 1524q0 18 22 55q31 51 69 81t66 30q35 0 89.5 -37t74.5 -37q43 0 76 63q2 4 4 9q4 10 19 10h26q2 0 2 -4q0 -14 -20 -62q-61 -117 -144 -116q-39 0 -87 35.5t-76 35.5q-41 0 -72 -55 q-6 -16 -21 -16h-22q-6 0 -6 8z" />
<glyph unicode="&#xd6;" horiz-adv-x="1503" d="M66 573q0 178 67.5 334t176 258.5t245.5 160.5t279 58q279 0 441.5 -184t162.5 -487q0 -313 -220.5 -538.5t-533.5 -225.5q-268 0 -443 155.5t-175 468.5zM266 586q0 -111 26.5 -210.5t79 -183t142.5 -133t205 -49.5q150 0 273.5 122t185 292t61.5 340q0 90 -22.5 182 t-67.5 177t-126 138.5t-183 53.5q-217 0 -395.5 -228.5t-178.5 -500.5zM666 1608q0 43 24.5 71.5t65.5 28.5q45 0 70.5 -33t25.5 -71q0 -43 -25.5 -72t-64.5 -29q-45 0 -70.5 33t-25.5 72zM952 1608q0 43 24.5 71.5t65.5 28.5q45 0 71 -33t26 -71q0 -43 -26 -72t-64 -29 q-45 0 -71 33t-26 72z" />
<glyph unicode="&#xd7;" horiz-adv-x="1079" d="M174 733q0 14 23.5 37t40.5 23q14 0 32 -19l238 -235q33 -35 53 -15l256 256q14 14 28.5 14.5t36 -22t21.5 -39.5q0 -12 -20 -33l-248 -247q-14 -16 -14 -22.5t14 -20.5l254 -254q14 -14 14 -28.5t-22.5 -38t-37 -23.5t-30.5 16l-252 254q-18 14 -25.5 12t-25.5 -20 l-246 -246q-16 -16 -28 -16q-14 0 -37 22.5t-23 36.5q0 12 19 31l245 247q27 27 4 50l-254 254q-16 16 -16 26z" />
<glyph unicode="&#xd8;" horiz-adv-x="1503" d="M66 573q0 178 67.5 334t176 258.5t245.5 160.5t279 58q133 0 253 -49q12 -6 19 6l82 142q4 4 10 4q10 0 25 -10q27 -12 18 -27l-80 -133q-6 -14 2 -23q131 -86 203 -235.5t72 -345.5q0 -313 -220.5 -538.5t-533.5 -225.5q-139 0 -260 43q-23 8 -29 -4l-59 -101 q-6 -6 -10 -6q-12 0 -31 12.5t-14 20.5l53 92q6 10 7 14.5t-1 8.5t-12 10q-262 163 -262 534zM266 586q0 -268 133 -428q14 -16 25 2q4 8 306 531t306 530q8 14 8 20q0 8 -14 16q-80 57 -190 58q-217 0 -395.5 -228.5t-178.5 -500.5zM471 88q104 -78 248 -78 q150 0 273.5 122t185 292t61.5 340q0 113 -35 228.5t-102 197.5q-8 8 -17 -6l-614 -1063q-12 -23 0 -33z" />
<glyph unicode="&#xd9;" horiz-adv-x="1554" d="M117 1329.5q0 24.5 8 30.5t31 6q12 0 84.5 -3t107.5 -3q33 0 110 3t99 3q20 0 25.5 -8t5.5 -35q0 -20 -7.5 -25.5t-31.5 -5.5h-68q-20 -41 -84.5 -435t-64.5 -497q0 -74 30.5 -129t69.5 -81.5t91 -42t81 -17.5t55 -2q84 0 178.5 33t155.5 72q55 41 78 118q25 96 66 334 q82 481 98 647h-135q-23 0 -33 6.5t-10 31t10 30.5t33 6q12 0 97 -3t120 -3t98.5 3t69.5 3q20 0 27.5 -8t7.5 -35q0 -20 -8.5 -25.5t-34.5 -5.5h-62q-2 -12 -43 -237q-127 -774 -194 -1004q-14 -55 -45 -55q-37 0 -39 29q-14 131 -21 131q-4 0 -90 -50q-231 -127 -434 -126 q-170 0 -284.5 89t-114.5 240q0 96 67.5 511t67.5 468v4h-129q-20 0 -29.5 6.5t-9.5 31zM666 1675q0 66 65 66q39 0 68 -55l82 -175q2 -4 2 -12q0 -12 -15 -12h-37q-4 0 -18 14l-125 123q-22 22 -22 51z" />
<glyph unicode="&#xda;" horiz-adv-x="1554" d="M117 1329.5q0 24.5 8 30.5t31 6q12 0 84.5 -3t107.5 -3q33 0 110 3t99 3q20 0 25.5 -8t5.5 -35q0 -20 -7.5 -25.5t-31.5 -5.5h-68q-20 -41 -84.5 -435t-64.5 -497q0 -74 30.5 -129t69.5 -81.5t91 -42t81 -17.5t55 -2q84 0 178.5 33t155.5 72q55 41 78 118q25 96 66 334 q82 481 98 647h-135q-23 0 -33 6.5t-10 31t10 30.5t33 6q12 0 97 -3t120 -3t98.5 3t69.5 3q20 0 27.5 -8t7.5 -35q0 -20 -8.5 -25.5t-34.5 -5.5h-62q-2 -12 -43 -237q-127 -774 -194 -1004q-14 -55 -45 -55q-37 0 -39 29q-14 131 -21 131q-4 0 -90 -50q-231 -127 -434 -126 q-170 0 -284.5 89t-114.5 240q0 96 67.5 511t67.5 468v4h-129q-20 0 -29.5 6.5t-9.5 31zM829 1497q0 8 7 14l137 177q41 53 82 53q59 0 59 -49q0 -41 -39 -68l-170 -123q-20 -14 -22 -14h-39q-15 0 -15 10z" />
<glyph unicode="&#xdb;" horiz-adv-x="1554" d="M117 1329.5q0 24.5 8 30.5t31 6q12 0 84.5 -3t107.5 -3q33 0 110 3t99 3q20 0 25.5 -8t5.5 -35q0 -20 -7.5 -25.5t-31.5 -5.5h-68q-20 -41 -84.5 -435t-64.5 -497q0 -74 30.5 -129t69.5 -81.5t91 -42t81 -17.5t55 -2q84 0 178.5 33t155.5 72q55 41 78 118q25 96 66 334 q82 481 98 647h-135q-23 0 -33 6.5t-10 31t10 30.5t33 6q12 0 97 -3t120 -3t98.5 3t69.5 3q20 0 27.5 -8t7.5 -35q0 -20 -8.5 -25.5t-34.5 -5.5h-62q-2 -12 -43 -237q-127 -774 -194 -1004q-14 -55 -45 -55q-37 0 -39 29q-14 131 -21 131q-4 0 -90 -50q-231 -127 -434 -126 q-170 0 -284.5 89t-114.5 240q0 96 67.5 511t67.5 468v4h-129q-20 0 -29.5 6.5t-9.5 31zM635 1495q0 4 12 16l187 189q25 25 45 24h41q25 0 38 -24l109 -189q6 -8 6 -16t-18 -8h-21q-8 0 -22 14l-129 107q-2 2 -9 0l-174 -109q-20 -12 -26 -12h-27q-12 0 -12 8z" />
<glyph unicode="&#xdc;" horiz-adv-x="1554" d="M117 1329.5q0 24.5 8 30.5t31 6q12 0 84.5 -3t107.5 -3q33 0 110 3t99 3q20 0 25.5 -8t5.5 -35q0 -20 -7.5 -25.5t-31.5 -5.5h-68q-20 -41 -84.5 -435t-64.5 -497q0 -74 30.5 -129t69.5 -81.5t91 -42t81 -17.5t55 -2q84 0 178.5 33t155.5 72q55 41 78 118q25 96 66 334 q82 481 98 647h-135q-23 0 -33 6.5t-10 31t10 30.5t33 6q12 0 97 -3t120 -3t98.5 3t69.5 3q20 0 27.5 -8t7.5 -35q0 -20 -8.5 -25.5t-34.5 -5.5h-62q-2 -12 -43 -237q-127 -774 -194 -1004q-14 -55 -45 -55q-37 0 -39 29q-14 131 -21 131q-4 0 -90 -50q-231 -127 -434 -126 q-170 0 -284.5 89t-114.5 240q0 96 67.5 511t67.5 468v4h-129q-20 0 -29.5 6.5t-9.5 31zM641 1608q0 43 24.5 71.5t65.5 28.5q45 0 70.5 -33t25.5 -71q0 -43 -25.5 -72t-64.5 -29q-45 0 -70.5 33t-25.5 72zM928 1608q0 43 24.5 71.5t65.5 28.5q45 0 70.5 -33t25.5 -71 q0 -43 -25.5 -72t-64.5 -29q-45 0 -70.5 33t-25.5 72z" />
<glyph unicode="&#xdd;" horiz-adv-x="1255" d="M35 1339.5q0 24.5 10 30.5t33 6q12 0 92 -3t115 -3q33 0 96 3t86 3q20 0 26.5 -8t6.5 -35q0 -20 -7.5 -25t-33.5 -5h-82q0 -2 2 -9.5t4 -13.5q27 -90 211 -543q6 -12 10 -15t10.5 4t14.5 19q2 2 2 5q20 31 72.5 107.5t94.5 139t87 132t70.5 115.5t25.5 59h-102 q-27 0 -35 5t-8 25q0 27 7 35t27 8q23 0 75 -3t85 -3q35 0 90.5 3t67.5 3q20 0 26.5 -6t6.5 -30.5t-6.5 -30.5t-26.5 -6h-78q-25 -25 -199 -264.5t-254 -360.5q-10 -18 -16 -45l-70 -420q-20 -127 -20 -145q0 -6 2 -7h131q18 0 23.5 -7t5.5 -25q0 -25 -5.5 -33t-23.5 -8 q-23 0 -102.5 3t-112.5 3t-103.5 -3t-93.5 -3q-20 0 -25 8t-5 31q0 20 7 27t32 7h90q8 10 86 474q10 55 10 81q0 6 -137 321.5t-160 365.5h-92q-23 0 -33 6t-10 30.5zM653 1497q0 8 6 14l138 177q41 53 82 53q59 0 59 -49q0 -41 -39 -68l-170 -123q-20 -14 -22 -14h-39 q-15 0 -15 10z" />
<glyph unicode="&#xde;" horiz-adv-x="1159" d="M23 31q0 20 7 25t33 5h121q18 55 99.5 598t81.5 617q0 27 -13 27h-139q-27 0 -27 36q0 25 7.5 31t29.5 6q12 0 110.5 -3t133.5 -3q33 0 119 3t108 3q20 0 25.5 -8t5.5 -35q0 -20 -7 -25t-32 -5h-119q-4 -6 -41 -213q-2 -8 -2 -16.5t8 -8.5q2 0 18.5 2t47.5 4t70 2 q205 0 320.5 -99.5t115.5 -256.5q0 -113 -44 -195t-121 -126t-161 -63.5t-180 -19.5q-33 0 -91 2t-65 2q-18 0 -24 -4t-8 -24q-31 -184 -31 -223v-5h158q18 0 23 -7t5 -25q0 -25 -5 -33t-23 -8q-23 0 -119 3t-129 3t-122 -3t-112 -3q-20 0 -26 8t-6 35zM424 393 q0 -16 10 -20t45 -4q188 0 321.5 83t133.5 253q0 150 -85 228.5t-251 78.5q-37 0 -57 -2h-17.5t-8.5 -4.5t-5 -7.5t-2 -17l-25 -166q-59 -385 -59 -422z" />
<glyph unicode="&#xdf;" horiz-adv-x="999" d="M-262 -492q0 31 37 61t69 30q27 0 79 -25t87 -25q18 0 32.5 12.5t27 38t20.5 49t16.5 63.5t11.5 61.5l9 64.5t8 51q39 248 63.5 432.5t47 382t33.5 281.5q23 178 112.5 294t251.5 116q117 0 183.5 -72t66.5 -184q0 -80 -27.5 -148.5t-72.5 -114t-85 -72t-79 -42.5 q-16 -6 -16.5 -8t5.5 -4q272 -96 273 -344q0 -184 -90 -308.5t-234 -124.5q-82 0 -136 42t-54 114t84 100q20 6 33.5 0t13.5 -22q0 -8 -5 -40t-5 -46q0 -98 75 -98q78 0 123 134t45 279q0 76 -18 130.5t-37.5 82t-61.5 46t-59.5 21.5t-60.5 9q-16 0 -17 20q0 33 21 35 q90 8 172 112.5t82 272.5q0 76 -37 126t-107 50q-51 0 -86.5 -28.5t-56 -83.5t-30 -98.5t-17.5 -106.5q-2 -10 -2 -16q-14 -90 -65.5 -481.5t-92.5 -637.5q-6 -35 -22.5 -92t-63.5 -146t-108 -134q-4 -2 -17.5 -12.5t-20.5 -15.5t-21.5 -14.5t-23.5 -14.5t-23.5 -12t-27 -10 t-27.5 -6t-30 -3q-49 0 -97 26t-48 53z" />
<glyph unicode="&#xe0;" horiz-adv-x="886" d="M45 121q0 94 30.5 206.5t86 220t150 179.5t204.5 72q20 0 58 -18.5t57 -45.5l39 -53q6 0 26 84q6 27 97 27q33 0 32 -17q0 -10 -83 -303t-83 -344q0 -35 23 -35q14 0 69.5 57.5t61.5 57.5q10 0 19.5 -11.5t9.5 -23.5q0 -8 -46 -57t-113 -97.5t-108 -48.5q-61 0 -61 56 q0 68 98 383q-113 -188 -227 -308q-49 -51 -68.5 -69.5t-57.5 -39t-75 -20.5q-66 0 -102.5 42.5t-36.5 105.5zM195 197q0 -102 51 -103q57 0 164.5 123t195.5 268q31 51 31 107q0 49 -58.5 81t-113.5 32q-66 0 -131.5 -93.5t-102 -211t-36.5 -203.5zM428 1178q0 70 76 69 q49 0 59 -53l53 -258l2 -6v-6q0 -10 -14 -11h-31q-12 0 -20 17l-117 219q-8 15 -8 29z" />
<glyph unicode="&#xe1;" horiz-adv-x="886" d="M45 121q0 94 30.5 206.5t86 220t150 179.5t204.5 72q20 0 58 -18.5t57 -45.5l39 -53q6 0 26 84q6 27 97 27q33 0 32 -17q0 -10 -83 -303t-83 -344q0 -35 23 -35q14 0 69.5 57.5t61.5 57.5q10 0 19.5 -11.5t9.5 -23.5q0 -8 -46 -57t-113 -97.5t-108 -48.5q-61 0 -61 56 q0 68 98 383q-113 -188 -227 -308q-49 -51 -68.5 -69.5t-57.5 -39t-75 -20.5q-66 0 -102.5 42.5t-36.5 105.5zM195 197q0 -102 51 -103q57 0 164.5 123t195.5 268q31 51 31 107q0 49 -58.5 81t-113.5 32q-66 0 -131.5 -93.5t-102 -211t-36.5 -203.5zM518 924q0 2 6 14 l125 252q27 53 72 53q31 0 50.5 -13t19.5 -36q0 -33 -21 -55l-186 -211q-10 -14 -21 -15h-31q-14 1 -14 11z" />
<glyph unicode="&#xe2;" horiz-adv-x="886" d="M45 121q0 94 30.5 206.5t86 220t150 179.5t204.5 72q20 0 58 -18.5t57 -45.5l39 -53q6 0 26 84q6 27 97 27q33 0 32 -17q0 -10 -83 -303t-83 -344q0 -35 23 -35q14 0 69.5 57.5t61.5 57.5q10 0 19.5 -11.5t9.5 -23.5q0 -8 -46 -57t-113 -97.5t-108 -48.5q-61 0 -61 56 q0 68 98 383q-113 -188 -227 -308q-49 -51 -68.5 -69.5t-57.5 -39t-75 -20.5q-66 0 -102.5 42.5t-36.5 105.5zM195 197q0 -102 51 -103q57 0 164.5 123t195.5 268q31 51 31 107q0 49 -58.5 81t-113.5 32q-66 0 -131.5 -93.5t-102 -211t-36.5 -203.5zM348 944l12 19l187 213 q16 20 22 23t23 3h41q16 0 22.5 -4t16.5 -24l108 -211q8 -16 8 -19q0 -8 -20 -8h-25q-4 0 -18 14l-123 121q-8 8 -22 0l-166 -121q-18 -14 -23 -14h-31q-12 0 -12 8z" />
<glyph unicode="&#xe3;" horiz-adv-x="886" d="M45 121q0 94 30.5 206.5t86 220t150 179.5t204.5 72q20 0 58 -18.5t57 -45.5l39 -53q6 0 26 84q6 27 97 27q33 0 32 -17q0 -10 -83 -303t-83 -344q0 -35 23 -35q14 0 69.5 57.5t61.5 57.5q10 0 19.5 -11.5t9.5 -23.5q0 -8 -46 -57t-113 -97.5t-108 -48.5q-61 0 -61 56 q0 68 98 383q-113 -188 -227 -308q-49 -51 -68.5 -69.5t-57.5 -39t-75 -20.5q-66 0 -102.5 42.5t-36.5 105.5zM195 197q0 -102 51 -103q57 0 164.5 123t195.5 268q31 51 31 107q0 49 -58.5 81t-113.5 32q-66 0 -131.5 -93.5t-102 -211t-36.5 -203.5zM354 1012q0 18 23 55 q31 51 68.5 81t66.5 30q35 0 89 -37t75 -37q45 0 76 63q2 4 4 9q4 10 18 10h27q2 0 2 -4q0 -14 -21 -62q-61 -117 -143 -116q-39 0 -87 35.5t-77 35.5q-41 0 -72 -55q-6 -16 -20 -16h-23q-6 0 -6 8z" />
<glyph unicode="&#xe4;" horiz-adv-x="886" d="M45 121q0 94 30.5 206.5t86 220t150 179.5t204.5 72q20 0 58 -18.5t57 -45.5l39 -53q6 0 26 84q6 27 97 27q33 0 32 -17q0 -10 -83 -303t-83 -344q0 -35 23 -35q14 0 69.5 57.5t61.5 57.5q10 0 19.5 -11.5t9.5 -23.5q0 -8 -46 -57t-113 -97.5t-108 -48.5q-61 0 -61 56 q0 68 98 383q-113 -188 -227 -308q-49 -51 -68.5 -69.5t-57.5 -39t-75 -20.5q-66 0 -102.5 42.5t-36.5 105.5zM195 197q0 -102 51 -103q57 0 164.5 123t195.5 268q31 51 31 107q0 49 -58.5 81t-113.5 32q-66 0 -131.5 -93.5t-102 -211t-36.5 -203.5zM348 1096 q0 43 24.5 71.5t65.5 28.5q45 0 71 -33t26 -71q0 -43 -26 -72t-65 -29q-45 0 -70.5 33t-25.5 72zM635 1096q0 43 24.5 71.5t65.5 28.5q45 0 70.5 -33t25.5 -71q0 -43 -25.5 -72t-64.5 -29q-45 0 -70.5 33t-25.5 72z" />
<glyph unicode="&#xe5;" horiz-adv-x="886" d="M45 121q0 94 30.5 206.5t86 220t150 179.5t204.5 72q20 0 58 -18.5t57 -45.5l39 -53q6 0 26 84q6 27 97 27q33 0 32 -17q0 -10 -83 -303t-83 -344q0 -35 23 -35q14 0 69.5 57.5t61.5 57.5q10 0 19.5 -11.5t9.5 -23.5q0 -8 -46 -57t-113 -97.5t-108 -48.5q-61 0 -61 56 q0 68 98 383q-113 -188 -227 -308q-49 -51 -68.5 -69.5t-57.5 -39t-75 -20.5q-66 0 -102.5 42.5t-36.5 105.5zM195 197q0 -102 51 -103q57 0 164.5 123t195.5 268q31 51 31 107q0 49 -58.5 81t-113.5 32q-66 0 -131.5 -93.5t-102 -211t-36.5 -203.5zM436 1087.5 q0 59.5 43 102.5t102.5 43t102.5 -43t43 -102.5t-43 -102.5t-102.5 -43t-102.5 43t-43 102.5zM506 1087.5q0 -32.5 21.5 -54t54 -21.5t54 21.5t21.5 54t-21.5 54t-54 21.5t-54 -21.5t-21.5 -54z" />
<glyph unicode="&#xe6;" horiz-adv-x="1302" d="M45 121q0 94 30.5 206.5t86 220t150 179.5t204.5 72q74 0 119 -64q6 -8 13 -22.5t12.5 -22.5t9.5 -8q4 8 10 27.5t12 38.5l4 18q6 16 80 27q49 6 49 -17q0 -2 -2 -9t-4 -18.5t-4 -17.5q115 76 242 76q80 0 138 -32t58 -109q0 -90 -73.5 -162t-182.5 -113 q-133 -49 -290 -49q-10 0 -11 -88q0 -176 191 -176q84 0 165 45t129 89t54 44q12 0 22.5 -12.5t10.5 -22.5q0 -12 -59.5 -67.5t-172 -112.5t-223.5 -57q-115 0 -189.5 58t-74.5 173q0 68 8 109q-92 -137 -172 -222q-49 -51 -68.5 -69.5t-57.5 -39t-75 -20.5 q-66 0 -102.5 42.5t-36.5 105.5zM199 197q0 -102 47 -103q49 0 163.5 128t196.5 263q31 51 31 107q0 49 -54.5 81t-107.5 32q-61 0 -127.5 -93.5t-107.5 -212t-41 -202.5zM727 410q0 -8 14 -9q150 0 258.5 74t108.5 193q0 35 -26.5 56t-69.5 21q-164 0 -256 -245 q-29 -72 -29 -90z" />
<glyph unicode="&#xe7;" horiz-adv-x="823" d="M45 262q0 238 147.5 391.5t311.5 153.5q121 0 180 -66q47 -51 47 -118q0 -45 -26.5 -76t-67.5 -31q-51 0 -51 82q0 8 1 24.5t1 24.5q0 39 -22.5 65.5t-67.5 26.5q-55 0 -112.5 -36.5t-98.5 -98.5q-96 -141 -97 -309q0 -25 2.5 -43.5t13.5 -52t30.5 -55t62.5 -39 t102 -17.5q78 0 157 40t126 81l49 39q6 0 18.5 -13.5t12.5 -21.5q0 -14 -62.5 -69.5t-170 -112t-199.5 -56.5h-2q-41 -74 -60 -110q20 4 52 4q74 0 118.5 -41t44.5 -96q0 -80 -67.5 -131.5t-167.5 -51.5q-45 0 -84 12.5t-57.5 26t-18.5 23.5q0 27 23 27q4 0 19 -7.5 t41 -14.5t54 -7q135 0 135 94q0 35 -21.5 60.5t-68.5 25.5q-23 0 -47 -6t-26 -6q-4 0 -12.5 5t-8.5 7q0 6 101 188q-125 16 -179.5 96t-54.5 189z" />
<glyph unicode="&#xe8;" horiz-adv-x="798" d="M45 215q0 236 151.5 414t356.5 178q80 0 138.5 -32t58.5 -109q0 -90 -74 -162t-182 -113q-133 -49 -291 -49q-10 0 -10 -88q0 -176 190 -176q84 0 165 45t129 89t54 44q12 0 22.5 -12.5t10.5 -22.5q0 -12 -59.5 -67.5t-172 -112.5t-223.5 -57q-115 0 -189.5 58t-74.5 173 zM223 410q0 -8 15 -9q150 0 258 74t108 193q0 35 -26.5 56t-69.5 21q-164 0 -256 -245q-29 -72 -29 -90zM426 1178q0 70 76 69q49 0 59 -53l53 -258v-6q2 -4 2 -6q0 -10 -14 -11h-31q-12 0 -20 17l-117 219q-8 15 -8 29z" />
<glyph unicode="&#xe9;" horiz-adv-x="798" d="M45 215q0 236 151.5 414t356.5 178q80 0 138.5 -32t58.5 -109q0 -90 -74 -162t-182 -113q-133 -49 -291 -49q-10 0 -10 -88q0 -176 190 -176q84 0 165 45t129 89t54 44q12 0 22.5 -12.5t10.5 -22.5q0 -12 -59.5 -67.5t-172 -112.5t-223.5 -57q-115 0 -189.5 58t-74.5 173 zM223 410q0 -8 15 -9q150 0 258 74t108 193q0 35 -26.5 56t-69.5 21q-164 0 -256 -245q-29 -72 -29 -90zM516 924q0 2 6 14l125 252q27 53 72 53q31 0 50 -13t19 -36q0 -33 -20 -55l-186 -211q-10 -14 -21 -15h-31q-14 1 -14 11z" />
<glyph unicode="&#xea;" horiz-adv-x="798" d="M45 215q0 236 151.5 414t356.5 178q80 0 138.5 -32t58.5 -109q0 -90 -74 -162t-182 -113q-133 -49 -291 -49q-10 0 -10 -88q0 -176 190 -176q84 0 165 45t129 89t54 44q12 0 22.5 -12.5t10.5 -22.5q0 -12 -59.5 -67.5t-172 -112.5t-223.5 -57q-115 0 -189.5 58t-74.5 173 zM223 410q0 -8 15 -9q150 0 258 74t108 193q0 35 -26.5 56t-69.5 21q-164 0 -256 -245q-29 -72 -29 -90zM346 944l12 19l187 213q16 20 22 23t23 3h41q16 0 22 -4t17 -24l108 -211q8 -16 8 -19q0 -8 -20 -8h-25q-4 0 -18 14l-123 121q-8 8 -22 0l-166 -121q-18 -14 -23 -14 h-31q-12 0 -12 8z" />
<glyph unicode="&#xeb;" horiz-adv-x="798" d="M45 215q0 236 151.5 414t356.5 178q80 0 138.5 -32t58.5 -109q0 -90 -74 -162t-182 -113q-133 -49 -291 -49q-10 0 -10 -88q0 -176 190 -176q84 0 165 45t129 89t54 44q12 0 22.5 -12.5t10.5 -22.5q0 -12 -59.5 -67.5t-172 -112.5t-223.5 -57q-115 0 -189.5 58t-74.5 173 zM223 410q0 -8 15 -9q150 0 258 74t108 193q0 35 -26.5 56t-69.5 21q-164 0 -256 -245q-29 -72 -29 -90zM346 1096q0 43 24.5 71.5t65.5 28.5q45 0 70.5 -33t25.5 -71q0 -43 -25.5 -72t-64.5 -29q-45 0 -70.5 33t-25.5 72zM633 1096q0 43 24.5 71.5t65.5 28.5q45 0 70.5 -33 t25.5 -71q0 -43 -25.5 -72t-64.5 -29q-45 0 -70.5 33t-25.5 72z" />
<glyph unicode="&#xec;" horiz-adv-x="552" d="M45 578q0 20 132 116.5t183 96.5q47 0 48 -52q0 -55 -67 -309t-67 -276q0 -35 20.5 -35t89.5 65.5t73 65.5q8 0 19 -11.5t11 -19.5q0 -29 -134 -133t-181 -104q-55 0 -55 43q0 51 72.5 298.5t72.5 311.5q0 31 -18 31q-29 0 -95.5 -60.5t-72.5 -60.5q-10 0 -20.5 11.5 t-10.5 21.5zM227 1178q0 70 76 69q49 0 59 -53l54 -258l2 -6v-6q0 -10 -15 -11h-30q-12 0 -21 17l-116 219q-9 15 -9 29z" />
<glyph unicode="&#xed;" horiz-adv-x="552" d="M45 578q0 20 132 116.5t183 96.5q47 0 48 -52q0 -55 -67 -309t-67 -276q0 -35 20.5 -35t89.5 65.5t73 65.5q8 0 19 -11.5t11 -19.5q0 -29 -134 -133t-181 -104q-55 0 -55 43q0 51 72.5 298.5t72.5 311.5q0 31 -18 31q-29 0 -95.5 -60.5t-72.5 -60.5q-10 0 -20.5 11.5 t-10.5 21.5zM317 924q0 2 7 14l125 252q27 53 71 53q31 0 50.5 -13t19.5 -36q0 -33 -21 -55l-186 -211q-10 -14 -21 -15h-30q-15 1 -15 11z" />
<glyph unicode="&#xee;" horiz-adv-x="552" d="M45 578q0 20 132 116.5t183 96.5q47 0 48 -52q0 -55 -67 -309t-67 -276q0 -35 20.5 -35t89.5 65.5t73 65.5q8 0 19 -11.5t11 -19.5q0 -29 -134 -133t-181 -104q-55 0 -55 43q0 51 72.5 298.5t72.5 311.5q0 31 -18 31q-29 0 -95.5 -60.5t-72.5 -60.5q-10 0 -20.5 11.5 t-10.5 21.5zM147 944l13 19l186 213q16 20 22.5 23t22.5 3h41q16 0 22.5 -4t16.5 -24l109 -211q8 -16 8 -19q0 -8 -21 -8h-24q-4 0 -19 14l-123 121q-8 8 -22 0l-166 -121q-18 -14 -23 -14h-30q-13 0 -13 8z" />
<glyph unicode="&#xef;" horiz-adv-x="552" d="M45 578q0 20 132 116.5t183 96.5q47 0 48 -52q0 -55 -67 -309t-67 -276q0 -35 20.5 -35t89.5 65.5t73 65.5q8 0 19 -11.5t11 -19.5q0 -29 -134 -133t-181 -104q-55 0 -55 43q0 51 72.5 298.5t72.5 311.5q0 31 -18 31q-29 0 -95.5 -60.5t-72.5 -60.5q-10 0 -20.5 11.5 t-10.5 21.5zM162 1096q0 43 24.5 71.5t65.5 28.5q45 0 70.5 -33t25.5 -71q0 -43 -25.5 -72t-64.5 -29q-45 0 -70.5 33t-25.5 72zM420 1096q0 43 24.5 71.5t65.5 28.5q45 0 70.5 -33t25.5 -71q0 -43 -25.5 -72t-64.5 -29q-45 0 -70.5 33t-25.5 72z" />
<glyph unicode="&#xf0;" horiz-adv-x="841" d="M45 283q0 227 134 379.5t341 152.5q53 0 117 -29q-29 133 -102 263q-8 14 -25 8q-215 -59 -221 -59.5t-19.5 23t-13.5 32.5q0 2 225 61q10 2 11.5 4t-3.5 6q-2 4 -4 6q-82 125 -180 220q-27 27 4 26l90 2q31 0 201 -223q6 -8 18 -4q203 53 207 53q6 0 18.5 -22.5 t12.5 -30.5q0 -2 -40 -12.5t-96 -24.5t-67 -16l-4 -2q-8 -2 -4 -9q2 -2 2 -4q150 -256 150 -540q0 -240 -131 -403t-332 -163q-135 0 -212 89.5t-77 216.5zM184 299q0 -49 3 -81t15.5 -80t47.5 -73.5t88 -25.5q90 0 167 96t114.5 216t37.5 218q0 190 -159 191 q-113 0 -213.5 -159t-100.5 -302z" />
<glyph unicode="&#xf1;" horiz-adv-x="1054" d="M25 588q0 8 62.5 58t151.5 100.5t144 50.5q18 0 33.5 -12.5t15.5 -36.5q0 -27 -5 -65t-10 -68.5t-18.5 -83t-19.5 -79t-23.5 -88t-21.5 -79.5q143 248 263 380t232 132q111 0 111 -97q0 -61 -79 -298.5t-79 -258.5q0 -35 33 -34q25 0 70 38.5t80 77.5l34 39q4 0 17.5 -13 t13.5 -20q0 -12 -49 -67t-132 -111.5t-153 -56.5q-33 0 -52 25.5t-19 64.5q0 59 81.5 278.5t81.5 280.5q0 53 -38 53q-49 0 -158 -136t-203 -288q-45 -72 -90 -227q0 -2 -2 -10t-5 -14.5t-6 -14.5t-9.5 -13t-14.5 -5q-82 -8 -98 -8q-20 0 -17 28q123 510 123 637 q0 31 -20.5 31t-65.5 -33t-83 -65.5t-40 -32.5q-10 0 -23 12.5t-13 28.5zM494 1012q0 18 22 55q31 51 69 81t66 30q35 0 89.5 -37t74.5 -37q45 0 76 63q2 4 4 9q4 10 18 10h27q2 0 2 -4q0 -14 -20 -62q-61 -117 -144 -116q-39 0 -87 35.5t-77 35.5q-41 0 -71 -55 q-6 -16 -21 -16h-22q-6 0 -6 8z" />
<glyph unicode="&#xf2;" horiz-adv-x="858" d="M45 283q0 227 136 381.5t343 154.5q78 0 137.5 -32.5t91 -85t46 -106.5t14.5 -108q0 -195 -141.5 -352.5t-333.5 -157.5q-139 0 -216 89.5t-77 216.5zM184 299q0 -260 158 -260q90 0 170 95t120 216t40 219q0 72 -38 131.5t-132 59.5q-113 0 -215.5 -160t-102.5 -301z M440 1178q0 70 76 69q49 0 59 -53l54 -258l2 -6v-6q0 -10 -15 -11h-30q-12 0 -21 17l-116 219q-9 15 -9 29z" />
<glyph unicode="&#xf3;" horiz-adv-x="858" d="M45 283q0 227 136 381.5t343 154.5q78 0 137.5 -32.5t91 -85t46 -106.5t14.5 -108q0 -195 -141.5 -352.5t-333.5 -157.5q-139 0 -216 89.5t-77 216.5zM184 299q0 -260 158 -260q90 0 170 95t120 216t40 219q0 72 -38 131.5t-132 59.5q-113 0 -215.5 -160t-102.5 -301z M530 924q0 2 7 14l125 252q27 53 71 53q31 0 50.5 -13t19.5 -36q0 -33 -21 -55l-186 -211q-10 -14 -21 -15h-30q-15 1 -15 11z" />
<glyph unicode="&#xf4;" horiz-adv-x="858" d="M45 283q0 227 136 381.5t343 154.5q78 0 137.5 -32.5t91 -85t46 -106.5t14.5 -108q0 -195 -141.5 -352.5t-333.5 -157.5q-139 0 -216 89.5t-77 216.5zM184 299q0 -260 158 -260q90 0 170 95t120 216t40 219q0 72 -38 131.5t-132 59.5q-113 0 -215.5 -160t-102.5 -301z M360 944l13 19l186 213q16 20 22.5 23t22.5 3h41q16 0 22.5 -4t16.5 -24l109 -211q8 -16 8 -19q0 -8 -21 -8h-24q-4 0 -19 14l-123 121q-8 8 -22 0l-166 -121q-18 -14 -23 -14h-30q-13 0 -13 8z" />
<glyph unicode="&#xf5;" horiz-adv-x="858" d="M45 283q0 227 136 381.5t343 154.5q78 0 137.5 -32.5t91 -85t46 -106.5t14.5 -108q0 -195 -141.5 -352.5t-333.5 -157.5q-139 0 -216 89.5t-77 216.5zM184 299q0 -260 158 -260q90 0 170 95t120 216t40 219q0 72 -38 131.5t-132 59.5q-113 0 -215.5 -160t-102.5 -301z M367 1012q0 18 22 55q31 51 69 81t66 30q35 0 89.5 -37t74.5 -37q45 0 76 63q2 4 4 9q4 10 18 10h27q2 0 2 -4q0 -14 -20 -62q-61 -117 -144 -116q-39 0 -87 35.5t-77 35.5q-41 0 -71 -55q-6 -16 -21 -16h-22q-6 0 -6 8z" />
<glyph unicode="&#xf6;" horiz-adv-x="858" d="M45 283q0 227 136 381.5t343 154.5q78 0 137.5 -32.5t91 -85t46 -106.5t14.5 -108q0 -195 -141.5 -352.5t-333.5 -157.5q-139 0 -216 89.5t-77 216.5zM184 299q0 -260 158 -260q90 0 170 95t120 216t40 219q0 72 -38 131.5t-132 59.5q-113 0 -215.5 -160t-102.5 -301z M360 1096q0 43 25 71.5t66 28.5q45 0 70.5 -33t25.5 -71q0 -43 -25.5 -72t-64.5 -29q-45 0 -71 33t-26 72zM647 1096q0 43 24.5 71.5t65.5 28.5q45 0 71 -33t26 -71q0 -43 -26 -72t-65 -29q-45 0 -70.5 33t-25.5 72z" />
<glyph unicode="&#xf7;" horiz-adv-x="1079" d="M57 434q0 25 7.5 36t35.5 11h883q18 0 26.5 -7t10.5 -16t2 -26q0 -31 -8 -42t-41 -11h-875q-29 0 -35 12t-6 43zM428 655q0 37 27.5 63.5t64.5 26.5t62.5 -25.5t25.5 -62t-26.5 -63.5t-63.5 -27t-63.5 25.5t-26.5 62.5zM438 207q0 37 27 62.5t63.5 25.5t63 -26.5 t26.5 -63.5t-25.5 -62.5t-62 -25.5t-64.5 26.5t-28 63.5z" />
<glyph unicode="&#xf8;" horiz-adv-x="858" d="M45 283q0 227 136 381.5t343 154.5q31 0 72 -8q20 -6 33 16l57 103q10 16 43 -6q20 -12 14 -23l-55 -94q-10 -20 -11 -21.5t13 -17.5q61 -49 92 -127t31 -154q0 -195 -141.5 -352.5t-333.5 -157.5q-57 0 -100 15q-10 4 -13.5 4t-6.5 -3t-7 -11l-64 -111q-6 -6 -10 -6 q-10 0 -26.5 11t-16.5 20q0 6 4 10l58 100q8 16 8 17.5t-10 13.5q-109 86 -109 246zM184 299q0 -102 23 -162q4 -14 7 -17t6 -1t9 14l340 594q8 12 7 16.5t-15 8.5q-33 8 -59 8q-113 0 -215.5 -160t-102.5 -301zM261 65.5q1 -6.5 18 -14.5q29 -12 63 -12q90 0 170 95 t120 216t40 219q0 72 -29 121q-10 20 -22 0l-351 -604q-10 -14 -9 -20.5z" />
<glyph unicode="&#xf9;" horiz-adv-x="1067" d="M25 524q0 4 14 25.5t40.5 56.5t53.5 68q33 39 56.5 62.5t66.5 47t88 23.5q47 0 83 -20.5t36 -59.5q0 -29 -65.5 -273.5t-65.5 -295.5q0 -41 51 -41q66 0 176 157q143 207 205 406q14 45 24 111q4 12 15 14q53 12 106 12q18 0 19 -24q0 -12 -56.5 -300t-56.5 -311 q0 -45 33 -45q20 0 61 47t74 93.5t35 46.5q4 0 15 -7.5t11 -11.5q0 -14 -46 -88t-119.5 -148.5t-130.5 -74.5q-31 0 -52.5 17.5t-21.5 43.5q0 35 17.5 120t42 193.5t34.5 163.5q-70 -143 -123 -223q-215 -326 -360 -325q-119 0 -119 92q0 25 62.5 259t62.5 310q0 53 -35 53 q-23 0 -70 -50t-85 -101t-40 -51q-8 0 -22 10t-14 18zM498 1178q0 70 75 69q49 0 60 -53l53 -258l2 -6v-6q0 -10 -14 -11h-31q-12 0 -20 17l-117 219q-8 15 -8 29z" />
<glyph unicode="&#xfa;" horiz-adv-x="1067" d="M25 524q0 4 14 25.5t40.5 56.5t53.5 68q33 39 56.5 62.5t66.5 47t88 23.5q47 0 83 -20.5t36 -59.5q0 -29 -65.5 -273.5t-65.5 -295.5q0 -41 51 -41q66 0 176 157q143 207 205 406q14 45 24 111q4 12 15 14q53 12 106 12q18 0 19 -24q0 -12 -56.5 -300t-56.5 -311 q0 -45 33 -45q20 0 61 47t74 93.5t35 46.5q4 0 15 -7.5t11 -11.5q0 -14 -46 -88t-119.5 -148.5t-130.5 -74.5q-31 0 -52.5 17.5t-21.5 43.5q0 35 17.5 120t42 193.5t34.5 163.5q-70 -143 -123 -223q-215 -326 -360 -325q-119 0 -119 92q0 25 62.5 259t62.5 310q0 53 -35 53 q-23 0 -70 -50t-85 -101t-40 -51q-8 0 -22 10t-14 18zM588 924q0 2 6 14l125 252q27 53 72 53q31 0 50 -13t19 -36q0 -33 -20 -55l-187 -211q-10 -14 -20 -15h-31q-14 1 -14 11z" />
<glyph unicode="&#xfb;" horiz-adv-x="1067" d="M25 524q0 4 14 25.5t40.5 56.5t53.5 68q33 39 56.5 62.5t66.5 47t88 23.5q47 0 83 -20.5t36 -59.5q0 -29 -65.5 -273.5t-65.5 -295.5q0 -41 51 -41q66 0 176 157q143 207 205 406q14 45 24 111q4 12 15 14q53 12 106 12q18 0 19 -24q0 -12 -56.5 -300t-56.5 -311 q0 -45 33 -45q20 0 61 47t74 93.5t35 46.5q4 0 15 -7.5t11 -11.5q0 -14 -46 -88t-119.5 -148.5t-130.5 -74.5q-31 0 -52.5 17.5t-21.5 43.5q0 35 17.5 120t42 193.5t34.5 163.5q-70 -143 -123 -223q-215 -326 -360 -325q-119 0 -119 92q0 25 62.5 259t62.5 310q0 53 -35 53 q-23 0 -70 -50t-85 -101t-40 -51q-8 0 -22 10t-14 18zM418 944l12 19l186 213q16 20 22.5 23t23.5 3h40q16 0 22.5 -4t16.5 -24l109 -211q8 -16 8 -19q0 -8 -20 -8h-25q-4 0 -18 14l-123 121q-8 8 -23 0l-166 -121q-18 -14 -22 -14h-31q-12 0 -12 8z" />
<glyph unicode="&#xfc;" horiz-adv-x="1067" d="M25 524q0 4 14 25.5t40.5 56.5t53.5 68q33 39 56.5 62.5t66.5 47t88 23.5q47 0 83 -20.5t36 -59.5q0 -29 -65.5 -273.5t-65.5 -295.5q0 -41 51 -41q66 0 176 157q143 207 205 406q14 45 24 111q4 12 15 14q53 12 106 12q18 0 19 -24q0 -12 -56.5 -300t-56.5 -311 q0 -45 33 -45q20 0 61 47t74 93.5t35 46.5q4 0 15 -7.5t11 -11.5q0 -14 -46 -88t-119.5 -148.5t-130.5 -74.5q-31 0 -52.5 17.5t-21.5 43.5q0 35 17.5 120t42 193.5t34.5 163.5q-70 -143 -123 -223q-215 -326 -360 -325q-119 0 -119 92q0 25 62.5 259t62.5 310q0 53 -35 53 q-23 0 -70 -50t-85 -101t-40 -51q-8 0 -22 10t-14 18zM418 1096q0 43 24.5 71.5t65.5 28.5q45 0 70.5 -33t25.5 -71q0 -43 -25.5 -72t-64.5 -29q-45 0 -70.5 33t-25.5 72zM705 1096q0 43 24.5 71.5t65.5 28.5q45 0 70.5 -33t25.5 -71q0 -43 -25.5 -72t-64.5 -29 q-45 0 -70.5 33t-25.5 72z" />
<glyph unicode="&#xfd;" horiz-adv-x="864" d="M-33 -537q0 31 18.5 52.5t34 28.5t56.5 18.5t49 15.5q61 23 104 96q76 141 98.5 215t22.5 146q0 66 -2 130t-7 141t-15.5 141.5t-24.5 120t-36.5 86t-49.5 30.5q-35 0 -74 -31.5t-63.5 -63.5t-26.5 -32q-6 0 -22.5 8t-16.5 17q0 10 35 58t100.5 98t129 50t102.5 -43 t57.5 -133t25.5 -186t13 -248q2 -45 2 -67q14 27 55 102.5t65 119.5t53.5 111.5t45.5 122.5q25 76 35 205q4 41 28.5 41t52.5 -15.5t28 -41.5q0 -10 -4 -35q-25 -158 -304 -639q-8 -14 -59 -100l-20 -39q-168 -322 -207 -389q-23 -43 -84 -80q-119 -72 -154 -72 q-18 0 -29.5 20.5t-11.5 40.5zM508 924q0 2 6 14l125 252q27 53 72 53q31 0 50 -13t19 -36q0 -33 -20 -55l-187 -211q-10 -14 -20 -15h-31q-14 1 -14 11z" />
<glyph unicode="&#xfe;" horiz-adv-x="880" d="M-96 -528q0 39 8 47t37 8q6 0 18.5 -1t16.5 -1q29 0 36 41q53 281 88 498t72 425q90 514 121 764q4 16 -2 23.5t-23 3.5q-150 -39 -151 -39q-14 0 -14 21q0 16 2 26q2 27 24 33q80 18 158 37.5t113.5 29t42.5 9.5q20 0 20 -25q0 -16 -25.5 -167.5t-70.5 -401.5t-90 -471 q78 182 180 338q74 119 209 118q94 0 128 -51t34 -141q0 -227 -154 -421.5t-313 -194.5q-23 0 -66 7t-49 7q-18 0 -21 -10l-65 -428q-6 -41 22 -43q23 -2 58 -6.5t47 -4.5q53 -6 53 -28q0 -55 -26 -56q-10 0 -134.5 15.5t-242.5 15.5q-41 0 -41 23zM262 104q0 -59 125 -59 q100 0 204.5 180.5t104.5 343.5q0 125 -84 125q-29 0 -57.5 -19.5t-56 -59.5t-45 -68.5t-45 -82.5t-33.5 -67q-113 -215 -113 -293z" />
<glyph unicode="&#xff;" horiz-adv-x="864" d="M-33 -537q0 31 18.5 52.5t34 28.5t56.5 18.5t49 15.5q61 23 104 96q76 141 98.5 215t22.5 146q0 66 -2 130t-7 141t-15.5 141.5t-24.5 120t-36.5 86t-49.5 30.5q-35 0 -74 -31.5t-63.5 -63.5t-26.5 -32q-6 0 -22.5 8t-16.5 17q0 10 35 58t100.5 98t129 50t102.5 -43 t57.5 -133t25.5 -186t13 -248q2 -45 2 -67q14 27 55 102.5t65 119.5t53.5 111.5t45.5 122.5q25 76 35 205q4 41 28.5 41t52.5 -15.5t28 -41.5q0 -10 -4 -35q-25 -158 -304 -639q-8 -14 -59 -100l-20 -39q-168 -322 -207 -389q-23 -43 -84 -80q-119 -72 -154 -72 q-18 0 -29.5 20.5t-11.5 40.5zM338 1096q0 43 24.5 71.5t65.5 28.5q45 0 70.5 -33t25.5 -71q0 -43 -25.5 -72t-64.5 -29q-45 0 -70.5 33t-25.5 72zM625 1096q0 43 24.5 71.5t65.5 28.5q45 0 70.5 -33t25.5 -71q0 -43 -25.5 -72t-64.5 -29q-45 0 -70.5 33t-25.5 72z" />
<glyph unicode="&#x152;" horiz-adv-x="2023" d="M66 588q0 342 234.5 571.5t557.5 229.5q74 0 215 -13.5t201 -13.5q57 0 222 3t206 3q186 0 188 21q0 31 33 30q41 0 41 -28q0 -10 -8 -87t-10 -174q0 -14 -8.5 -18t-30.5 -4q-37 0 -37 27q0 6 12 153q-86 12 -528 12q-20 -57 -82 -544q-2 -10 -2 -21q18 -8 24 -8h336 q86 0 90 23l23 112q2 14 39 15q33 0 33 -19q0 -8 -5.5 -35.5t-14.5 -70.5t-15 -74q-29 -150 -31 -184q-2 -16 -33 -17h-8q-33 0 -33 17q0 6 12.5 73.5t12.5 69.5q0 23 -96 22h-310q-23 0 -27.5 -2t-6.5 -14q-6 -29 -40 -264.5t-40 -298.5q0 -12 8 -12q29 0 337 7t316 7 q6 6 18.5 40t28 83t25.5 71q8 23 35 23q14 0 27.5 -8t13.5 -20.5t-11.5 -45t-35 -97.5t-39.5 -114q-8 -27 -41 -26q-23 0 -367 3t-377 3q-43 0 -180 -17.5t-244 -17.5q-119 0 -228.5 37t-200.5 110.5t-145 197.5t-54 284zM266 600q0 -225 129 -402.5t334 -177.5 q88 0 143.5 6.5t72 11.5t52.5 21q0 2 23.5 148.5t47.5 302.5t50.5 346.5t38.5 298.5q12 117 12 121q-16 10 -101 28.5t-148 18.5q-295 0 -474.5 -207t-179.5 -516z" />
<glyph unicode="&#x153;" horiz-adv-x="1370" d="M45 283q0 227 136 381.5t343 154.5q188 0 258 -182q137 170 342 170q80 0 138.5 -32t58.5 -109q0 -90 -73.5 -162t-182.5 -113q-133 -49 -291 -49q-10 -10 -10 -88q0 -176 190 -176q84 0 165 45t129 89t55 44q12 0 22 -12.5t10 -22.5q0 -12 -59 -67.5t-172 -112.5 t-223 -57q-172 0 -240 131q-145 -137 -303 -138q-139 0 -216 89.5t-77 216.5zM184 299q0 -260 158 -260q90 0 170 95t120 216t40 219q0 72 -38 131.5t-132 59.5q-113 0 -215.5 -160t-102.5 -301zM795 410q0 -8 14 -9q150 0 258.5 74t108.5 193q0 35 -27 56t-70 21 q-164 0 -256 -245q-28 -72 -28 -90z" />
<glyph unicode="&#x178;" horiz-adv-x="1255" d="M35 1339.5q0 24.5 10 30.5t33 6q12 0 92 -3t115 -3q33 0 96 3t86 3q20 0 26.5 -8t6.5 -35q0 -20 -7.5 -25t-33.5 -5h-82q0 -2 2 -9.5t4 -13.5q27 -90 211 -543q6 -12 10 -15t10.5 4t14.5 19q2 2 2 5q20 31 72.5 107.5t94.5 139t87 132t70.5 115.5t25.5 59h-102 q-27 0 -35 5t-8 25q0 27 7 35t27 8q23 0 75 -3t85 -3q35 0 90.5 3t67.5 3q20 0 26.5 -6t6.5 -30.5t-6.5 -30.5t-26.5 -6h-78q-25 -25 -199 -264.5t-254 -360.5q-10 -18 -16 -45l-70 -420q-20 -127 -20 -145q0 -6 2 -7h131q18 0 23.5 -7t5.5 -25q0 -25 -5.5 -33t-23.5 -8 q-23 0 -102.5 3t-112.5 3t-103.5 -3t-93.5 -3q-20 0 -25 8t-5 31q0 20 7 27t32 7h90q8 10 86 474q10 55 10 81q0 6 -137 321.5t-160 365.5h-92q-23 0 -33 6t-10 30.5zM465 1608q0 43 24.5 71.5t65.5 28.5q45 0 70.5 -33t25.5 -71q0 -43 -25.5 -72t-64.5 -29q-45 0 -70.5 33 t-25.5 72zM752 1608q0 43 24.5 71.5t65.5 28.5q45 0 70.5 -33t25.5 -71q0 -43 -25.5 -72t-64.5 -29q-45 0 -70.5 33t-25.5 72z" />
<glyph unicode="&#x2c6;" horiz-adv-x="819" d="M176 944l12 19l187 213q16 20 22 23t23 3h41q16 0 22 -4t17 -24l108 -211q8 -16 8 -19q0 -8 -20 -8h-25q-4 0 -18 14l-123 121q-8 8 -22 0l-166 -121q-18 -14 -23 -14h-31q-12 0 -12 8z" />
<glyph unicode="&#x2dc;" horiz-adv-x="819" d="M182 1012q0 18 23 55q31 51 68.5 81t66.5 30q35 0 89 -37t75 -37q45 0 76 63q2 4 4 9q4 10 18 10h27q2 0 2 -4q0 -14 -21 -62q-61 -117 -143 -116q-39 0 -87 35.5t-77 35.5q-41 0 -72 -55q-6 -16 -20 -16h-23q-6 0 -6 8z" />
<glyph unicode="&#x2000;" horiz-adv-x="872" />
<glyph unicode="&#x2001;" horiz-adv-x="1745" />
<glyph unicode="&#x2002;" horiz-adv-x="872" />
<glyph unicode="&#x2003;" horiz-adv-x="1745" />
<glyph unicode="&#x2004;" horiz-adv-x="581" />
<glyph unicode="&#x2005;" horiz-adv-x="436" />
<glyph unicode="&#x2006;" horiz-adv-x="290" />
<glyph unicode="&#x2007;" horiz-adv-x="290" />
<glyph unicode="&#x2008;" horiz-adv-x="218" />
<glyph unicode="&#x2009;" horiz-adv-x="349" />
<glyph unicode="&#x200a;" horiz-adv-x="96" />
<glyph unicode="&#x2010;" horiz-adv-x="548" d="M55 412q0 27 13.5 56.5t29.5 31.5q14 2 189.5 8t187.5 6q8 0 8 -16q0 -80 -20 -82q-229 -16 -393 -17q-15 1 -15 13z" />
<glyph unicode="&#x2011;" horiz-adv-x="548" d="M55 412q0 27 13.5 56.5t29.5 31.5q14 2 189.5 8t187.5 6q8 0 8 -16q0 -80 -20 -82q-229 -16 -393 -17q-15 1 -15 13z" />
<glyph unicode="&#x2012;" horiz-adv-x="548" d="M55 412q0 27 13.5 56.5t29.5 31.5q14 2 189.5 8t187.5 6q8 0 8 -16q0 -80 -20 -82q-229 -16 -393 -17q-15 1 -15 13z" />
<glyph unicode="&#x2013;" d="M14 399q0 27 3 34t22 7h940q23 0 27 -5t4 -25v-25q0 -20 -5.5 -26.5t-25.5 -6.5h-934q-23 0 -27 7t-4 40z" />
<glyph unicode="&#x2014;" horiz-adv-x="1536" d="M14 399q0 27 3 34t22 7h1452q23 0 27 -5t4 -25v-25q0 -20 -5.5 -26.5t-25.5 -6.5h-1446q-23 0 -27 7t-4 40z" />
<glyph unicode="&#x2018;" horiz-adv-x="468" d="M137 1065q0 47 21.5 98t52.5 91t63.5 73t54 50.5t25.5 17.5t22.5 -18.5t18.5 -24.5q0 -2 -33.5 -35t-66.5 -75t-33 -71q0 -25 21.5 -83t21.5 -87q0 -41 -39 -78.5t-63 -37.5q-27 0 -46.5 66.5t-19.5 113.5z" />
<glyph unicode="&#x2019;" horiz-adv-x="509" d="M115 928q0 2 32.5 34.5t66.5 74.5t34 71q0 25 -21.5 83t-21.5 87q0 41 39 79t63 38q27 0 46.5 -66.5t19.5 -114t-21.5 -98.5t-52.5 -91t-63.5 -72.5t-54 -50t-25.5 -17.5t-22.5 18.5t-18.5 24.5z" />
<glyph unicode="&#x201a;" horiz-adv-x="509" d="M115 -229q0 2 32.5 34.5t66.5 74.5t34 71q0 25 -21.5 83t-21.5 87q0 41 39 79t63 38q27 0 46.5 -67t19.5 -114t-21.5 -98t-52.5 -91t-63.5 -73t-54 -50t-25.5 -17t-22.5 18.5t-18.5 24.5z" />
<glyph unicode="&#x201c;" horiz-adv-x="847" d="M137 1065q0 47 21.5 98t52.5 91t63.5 73t54 50.5t25.5 17.5t22.5 -18.5t18.5 -24.5q0 -2 -33.5 -35t-66.5 -75t-33 -71q0 -25 21.5 -83t21.5 -87q0 -41 -39 -78.5t-63 -37.5q-27 0 -46.5 66.5t-19.5 113.5zM516 1065q0 47 21.5 98t52.5 91t63.5 73t54 50.5t25.5 17.5 t22.5 -18.5t18.5 -24.5q0 -2 -32.5 -35t-66.5 -75t-34 -71q0 -25 21.5 -83t21.5 -87q0 -41 -39 -78.5t-63 -37.5q-27 0 -46.5 66.5t-19.5 113.5z" />
<glyph unicode="&#x201d;" horiz-adv-x="888" d="M115 928q0 2 32.5 34.5t66.5 74.5t34 71q0 25 -21.5 83t-21.5 87q0 41 39 79t63 38q27 0 46.5 -66.5t19.5 -114t-21.5 -98.5t-52.5 -91t-63.5 -72.5t-54 -50t-25.5 -17.5t-22.5 18.5t-18.5 24.5zM494 928q0 2 33.5 34.5t66.5 74.5t33 71q0 25 -21.5 83t-21.5 87 q0 41 39 79t63 38q27 0 46.5 -66.5t19.5 -114t-21.5 -98.5t-52.5 -91t-63.5 -72.5t-54 -50t-26 -17.5t-22.5 18.5t-18 24.5z" />
<glyph unicode="&#x201e;" horiz-adv-x="888" d="M115 -229q0 2 32.5 34.5t66.5 74.5t34 71q0 25 -21.5 83t-21.5 87q0 41 39 79t63 38q27 0 46.5 -67t19.5 -114t-21.5 -98t-52.5 -91t-63.5 -73t-54 -50t-25.5 -17t-22.5 18.5t-18.5 24.5zM494 -229q0 2 33.5 34.5t66.5 74.5t33 71q0 25 -21.5 83t-21.5 87q0 41 39 79 t63 38q27 0 46.5 -67t19.5 -114t-21.5 -98t-52.5 -91t-63.5 -73t-54 -50t-26 -17t-22.5 18.5t-18 24.5z" />
<glyph unicode="&#x2022;" horiz-adv-x="729" d="M117 669.5q0 102.5 72.5 175.5t175 73t175 -73t72.5 -175.5t-72.5 -175t-175 -72.5t-175 72.5t-72.5 175z" />
<glyph unicode="&#x2026;" horiz-adv-x="1290" d="M117 78q0 41 33.5 76.5t66.5 35.5q31 0 63.5 -34.5t32.5 -67.5q0 -51 -31.5 -81t-56.5 -30q-43 0 -75.5 35t-32.5 66zM547 78q0 41 33.5 76.5t66.5 35.5q31 0 63.5 -34.5t32.5 -67.5q0 -51 -31.5 -81t-56.5 -30q-43 0 -75.5 35t-32.5 66zM977 78q0 41 33.5 76.5 t66.5 35.5q31 0 64 -34.5t33 -67.5q0 -51 -32 -81t-57 -30q-43 0 -75.5 35t-32.5 66z" />
<glyph unicode="&#x202f;" horiz-adv-x="349" />
<glyph unicode="&#x2039;" horiz-adv-x="528" d="M96 395q0 8 13.5 22.5t49.5 46.5t52 48q31 29 74 71t66.5 65.5t27.5 23.5t19.5 -14.5t15.5 -16.5q0 -8 -64.5 -121.5t-64.5 -124t64.5 -123t64.5 -122.5q0 -6 -15.5 -18.5t-19.5 -12.5t-27.5 23.5t-66.5 65.5t-74 71q-12 12 -32.5 30.5t-33 29.5t-24.5 23.5t-18.5 20.5 t-6.5 12z" />
<glyph unicode="&#x203a;" horiz-adv-x="528" d="M115 150q0 8 64.5 121.5t64.5 124t-64.5 123t-64.5 122.5q0 6 15 18.5t19.5 12.5t28 -23.5t66.5 -65.5t73 -71q12 -12 33 -30.5t33 -30t24.5 -23.5t18.5 -20.5t6 -12.5q0 -8 -13 -22.5t-49 -46t-53 -47.5q-31 -29 -73.5 -71t-66 -65.5t-28 -23.5t-19.5 14.5t-15 16.5z " />
<glyph unicode="&#x205f;" horiz-adv-x="436" />
<glyph unicode="&#x20ac;" horiz-adv-x="1241" d="M53 571l35 88h143q29 113 94.5 199t144.5 130t152.5 65.5t135.5 21.5q125 0 220 -38t189 -126q-16 -45 -43 -92q-129 170 -358 170q-344 0 -442 -330h733l-35 -88h-711q-4 -20 -4 -49q0 -14 2 -30.5t2 -18.5h670l-39 -90h-616q63 -160 184 -244t254 -84q205 0 360 156 v-115q-162 -129 -354 -129q-72 0 -148.5 21.5t-155.5 66.5t-142.5 130t-92.5 198h-172l35 90h123q-4 20 -4 49q0 33 4 49h-164z" />
<glyph unicode="&#x2122;" horiz-adv-x="1632" d="M76 1184q0 4 3 23.5t7 48t6 49.5q4 29 25 28q18 0 22 -4t6 -16q18 -2 82 -2h330q68 0 88 4q4 18 9 19t18 1q25 0 24 -22q0 -6 -2 -44t-2 -83q0 -16 -5 -20.5t-19 -4.5q-16 0 -22.5 4t-6.5 25v27q2 25 2 34q-45 4 -88 4h-96q-4 -25 -4 -131v-14q0 -14 -1 -38.5t-1 -54.5 t-1 -64.5t-2.5 -68.5t-1.5 -67v-55v-45h64q16 0 16 -25q0 -29 -16 -28q-10 0 -58.5 2t-62.5 2t-63.5 -2t-59.5 -2q-16 0 -16 28q0 16 4 20.5t16 4.5h56q10 90 10 469q0 16 -1 41.5t-1 27.5h-121q-43 0 -74 -6l-6 -57q-2 -12 -4 -18.5t-5 -9.5t-7 -3h-13q-18 0 -23 3.5 t-5 19.5zM758 690q0 27 20 27h49q0 6 1 19.5t2 32.5t1 34q16 442 17 461h-64q-18 0 -18 28q0 25 18 25q6 0 51.5 -1t55.5 -1q12 0 32.5 1t22.5 1q25 0 33 -23l192 -483l183 471q12 33 39 33h32q14 0 53.5 1t49.5 1q12 0 15 -4t3 -23q0 -27 -22 -26h-41q-2 -14 -2 -64v-84 q0 -305 12 -399h47q16 0 16 -26.5t-14 -26.5q-10 0 -53 2t-57.5 2t-56.5 -2t-52 -2q-12 0 -15 5t-3 21q0 27 20 27h43q4 25 4 155q0 137 -4 310l-158 -404q-10 -25 -26.5 -48t-24.5 -42q-12 -27 -28.5 -26.5t-30.5 34.5l-203 504q-8 -250 -8 -397q0 -72 2 -86h63 q16 0 16.5 -26.5t-16.5 -26.5q-10 0 -43.5 2t-48 2t-48.5 -2t-40 -2q-12 0 -14 4t-2 22z" />
<glyph unicode="&#xe000;" horiz-adv-x="819" d="M0 0v819h819v-819h-819z" />
<glyph unicode="&#xfb01;" horiz-adv-x="1040" d="M-262 -492q0 31 37 61t69 30q27 0 79 -25t87 -25q18 0 32.5 12.5t27 38t20.5 49t16.5 63.5t11.5 61.5l9 64.5t8 51q20 133 48 329t44.5 329t16.5 139q0 12 -2 15.5t-13 3.5h-143q-14 0 -17 2t-3 12q0 16 4 33q2 16 20 16h146q16 0 18 18q18 199 86 324q88 154 229 233 q98 57 207 58q51 0 103.5 -26.5t52.5 -53.5q0 -31 -41 -60.5t-76 -29.5q-29 0 -90 38t-94 38q-51 0 -97.5 -54.5t-72.5 -138.5q-35 -106 -68 -340q0 -6 10 -6h168q106 0 179 11.5t98 11.5q47 0 47 -52q0 -55 -66.5 -309t-66.5 -276q0 -35 20 -35q14 0 54.5 32.5t73 65.5 t34.5 33q6 0 18.5 -12.5t12.5 -18.5q0 -25 -132 -131t-184 -106q-55 0 -55 43q0 51 73 298.5t73 311.5q0 20 -6.5 45t-14.5 25h-330q-10 0 -14 -17q-4 -23 -26.5 -186.5t-48 -336.5t-42.5 -276q-6 -35 -22.5 -92t-63.5 -146t-108 -134q-4 -2 -17.5 -12.5t-20.5 -15.5 t-21.5 -14.5t-23.5 -14.5t-23.5 -12t-27 -10t-27.5 -6t-30 -3q-49 0 -97 26t-48 53z" />
<glyph unicode="&#xfb02;" horiz-adv-x="1093" d="M-262 -492q0 31 37 61t69 30q27 0 79 -25t87 -25q18 0 32.5 12.5t27 38t20.5 49t16.5 63.5t11.5 61.5l9 64.5t8 51q20 133 48 329t44.5 329t16.5 139q0 18 -15 19h-143q-23 0 -23 10q0 14 7 39q2 14 20 14h143q18 0 21 18q4 43 22 134q29 127 78 207.5t140 156.5 q129 111 266 111q59 0 106 -35q10 -8 17 -8q4 0 16 6q80 39 82 39q27 0 27 -24.5t-102.5 -623.5t-102.5 -610q0 -37 22 -37q31 0 117 86t88 86q8 0 23.5 -12t15.5 -20q0 -12 -58.5 -76t-148.5 -128.5t-153 -64.5q-66 0 -66 84q0 10 14.5 93t43 246t49.5 288q4 20 -15 21 h-332q-16 0 -18 -17q-4 -27 -26.5 -187.5t-48 -334.5t-42.5 -277q-6 -35 -22.5 -92t-63.5 -146t-108 -134q-4 -2 -17.5 -12.5t-20.5 -15.5t-21.5 -14.5t-23.5 -14.5t-23.5 -12t-27 -10t-27.5 -6t-30 -3q-49 0 -97 26t-48 53zM393 780q-2 -8 1 -10t14 -2h337q12 0 16.5 3 t6.5 20q59 395 70 477q-23 -12 -54 -13q-27 0 -88 33q-37 18 -47 19q-27 0 -71 -31q-61 -43 -104.5 -150.5t-58 -187.5t-22.5 -158z" />
<glyph unicode="&#xfb03;" horiz-adv-x="1546" d="M-262 -492q0 31 37 61t69 30q27 0 79 -25t87 -25q18 0 32.5 12.5t27 38t20.5 49t16.5 63.5t11.5 61.5l9 64.5t8 51q20 133 48 329t44.5 329t16.5 139q0 18 -13 19h-145q-20 0 -20 14q2 25 4 33q2 16 20 16h150q12 0 14 18q12 109 49 211q53 145 179 264t292 119 q66 0 125 -26.5t80 -57.5l8 -16q33 31 88 63q102 57 207 58q51 0 103.5 -26.5t52.5 -53.5q0 -31 -41 -60.5t-76 -29.5q-27 0 -88.5 38t-95.5 38q-51 0 -97.5 -54.5t-72.5 -138.5q-35 -113 -68 -336q-2 -10 10 -10h168q106 0 179 11.5t98 11.5q47 0 47 -52q0 -55 -66.5 -309 t-66.5 -276q0 -35 20 -35q14 0 54 32.5t73 65.5t35 33q6 0 18.5 -12.5t12.5 -18.5q0 -25 -132 -131t-184 -106q-55 0 -55 43q0 51 72.5 298.5t72.5 311.5q0 20 -6 45t-14 25h-324q-18 0 -20 -17q-92 -616 -98 -655q-18 -115 -70.5 -240t-134.5 -199q-100 -90 -191 -90 q-49 0 -94 20.5t-45 45.5q0 29 36 57.5t66 28.5q25 0 76 -15.5t84 -15.5q16 0 30.5 9.5t27 29t21.5 36.5t18.5 50t14.5 53.5t11 58.5t8 54t7.5 52t5.5 40q18 133 39.5 300t34 270.5t12.5 109.5v4v8t-3.5 3.5t-9.5 1.5h-334q-16 0 -18 -17q-4 -27 -26.5 -187.5t-48 -334.5 t-42.5 -277q-6 -35 -22.5 -92t-63.5 -146t-108 -134q-4 -2 -17.5 -12.5t-20.5 -15.5t-21.5 -14.5t-23.5 -14.5t-23.5 -12t-27 -10t-27.5 -6t-30 -3q-49 0 -97 26t-48 53zM393 788q0 -20 17 -20h333q14 0 17 18q18 223 94 338q35 53 78 101q-25 -8 -39 -8q-35 0 -80 36 q-78 59 -119 60q-84 0 -152.5 -75t-97.5 -177q-43 -152 -51 -273z" />
<glyph unicode="&#xfb04;" horiz-adv-x="1599" d="M-262 -492q0 31 37 61t69 30q27 0 79 -25t87 -25q18 0 32.5 12.5t27 38t20.5 49t16.5 63.5t11.5 61.5l9 64.5t8 51q20 133 48 329t44.5 329t16.5 139q0 18 -13 19h-145q-20 0 -20 14q0 4 4 33q2 16 20 16h148q14 0 16 18q12 109 49 211q53 145 179 264t292 119 q82 0 156 -43q49 -29 57 -63l12 10q129 111 267 111q59 0 106 -35q14 -8 17 -8l16 6q80 39 82 39q27 0 26 -25q0 -27 -102 -627t-102 -606q0 -37 22 -37q33 0 119 86l86 86q8 0 23.5 -12t15.5 -20q0 -12 -58.5 -76t-148.5 -128.5t-154 -64.5q-66 0 -65 84q0 10 14.5 95.5 t43 247t50.5 290.5q2 14 -10 15h-338q-16 0 -18 -17q-92 -616 -98 -655q-18 -115 -70.5 -240t-134.5 -199q-100 -90 -191 -90q-49 0 -94 20.5t-45 45.5q0 29 36 57.5t66 28.5q25 0 76 -15.5t84 -15.5q16 0 30.5 9.5t27 29t21.5 36.5t18.5 50t14.5 53.5t11 58.5t8 54t7.5 52 t5.5 40q18 133 39.5 300t34 270.5t12.5 109.5q0 16 -13 17h-331q-18 0 -21 -17q-4 -27 -26.5 -187.5t-48 -334.5t-42.5 -277q-6 -35 -22.5 -92t-63.5 -146t-108 -134q-4 -2 -17.5 -12.5t-20.5 -15.5t-21.5 -14.5t-23.5 -14.5t-23.5 -12t-27 -10t-27.5 -6t-30 -3 q-49 0 -97 26t-48 53zM393 786q0 -18 17 -18h335q12 0 15 18q4 43 22 134q41 184 146 297q-14 -4 -23 -5q-43 0 -92 41q-78 59 -119 60q-84 0 -152.5 -75t-97.5 -177q-43 -154 -51 -275zM901 786q0 -18 8 -18h340q16 0 18.5 3t6.5 20q41 258 69 477q-20 -12 -53 -13 q-27 0 -88 33q-37 18 -47 19q-27 0 -72 -31q-59 -43 -102 -147.5t-57.5 -184.5t-22.5 -158z" />
</font>
</defs>
</svg>
