<?xml version="1.0" standalone="no"?>
<!DOCTYPE svg PUBLIC "-//W3C//DTD SVG 1.1//EN" "http://www.w3.org/Graphics/SVG/1.1/DTD/svg11.dtd" >
<svg xmlns="http://www.w3.org/2000/svg">
<metadata></metadata>
<defs>
<font id="fanwood_textregular" horiz-adv-x="1024" >
<font-face units-per-em="2048" ascent="1413" descent="-635" />
<missing-glyph horiz-adv-x="409" />
<glyph horiz-adv-x="2048" />
<glyph horiz-adv-x="2048" />
<glyph unicode="&#xd;" horiz-adv-x="681" />
<glyph unicode=" "  horiz-adv-x="409" />
<glyph unicode="&#x09;" horiz-adv-x="409" />
<glyph unicode="&#xa0;" horiz-adv-x="409" />
<glyph unicode="!" horiz-adv-x="534" d="M158 78q0 35 33.5 81t62.5 46q35 0 79 -32t44 -71q0 -45 -34 -85t-58 -40q-43 0 -85 36t-42 65zM193 1327q0 57 90 57q37 0 53 -10t16 -39q0 -6 -8 -129t-21.5 -359.5t-23.5 -473.5q0 -27 -35 -27q-33 0 -33 27q-6 195 -15 414t-16 358t-7 182z" />
<glyph unicode="&#x22;" horiz-adv-x="534" d="M55 1047q0 2 4 66.5t9.5 140t7.5 96.5q8 66 71 65q66 0 66 -57q0 -10 -4 -31q-8 -29 -25.5 -88t-36 -117.5t-20.5 -66.5q-2 -4 -4 -11.5t-3 -10.5t-3 -8t-4 -6t-6.5 -3t-9.5 -3t-11 -1q-31 0 -31 35zM322 1047q0 2 4 66.5t9 140t7 96.5q8 66 72 65q66 0 65 -57 q0 -10 -4 -31q-8 -29 -25.5 -88t-36 -117.5t-20.5 -66.5q-2 -4 -4 -11.5t-3 -10.5t-3 -8t-4 -6l-6 -3t-9.5 -3t-11.5 -1q-30 0 -30 35z" />
<glyph unicode="#" horiz-adv-x="905" d="M55 346v8q0 33 29 33h141q16 0 19 14v7q20 156 28 229q2 18 -12 18h-184q-20 0 -21 33v12q0 29 21 29h194q12 0 17.5 2t5.5 4t2 15q25 172 41 288q4 35 6 39q8 16 23 17q8 2 26 2q45 0 45 -29q0 -2 -49 -317q-2 -14 -1 -17.5t13 -3.5h168h6q12 4 13 10q2 6 2 11 q49 315 51 327q8 18 35 19q55 0 55 -27q0 -8 -10 -74.5t-22.5 -147.5t-14.5 -102q-2 -10 0 -13t10 -3h121q23 0 30 -7t7 -32q0 -35 -33 -35h-133q-14 0 -17 -3t-5 -15l-35 -231q-2 -8 -1 -12.5t3 -5.5t12 -1h180q18 0 23.5 -8t5.5 -33q0 -20 -7 -27.5t-28 -7.5h-186 q-14 0 -17 -14l-41 -293q-2 -12 -5 -18t-14 -9.5t-34 -3.5q-41 0 -41 23q0 25 43 299q2 10 1 13t-13 3h-172q-12 0 -14.5 -2t-4.5 -14q-41 -297 -43 -301q-12 -20 -51 -21q-43 0 -43 33q0 6 9.5 64.5t19.5 130t14 94.5q2 12 -1 14t-17 2h-119q-31 0 -31 35zM332 393.5 q2 -2.5 16 -2.5h168q12 0 15.5 2t5.5 15q33 221 34 227q4 16 2 20t-16 4h-166q-20 0 -22 -16t-37 -235q-2 -12 0 -14.5z" />
<glyph unicode="$" d="M113 188q0 18 27.5 30.5t49.5 12.5q14 0 24.5 -9t27 -33.5t26.5 -34.5q80 -96 195 -107q12 0 16 2t4 14v490q0 23 -4 29t-20 14q-154 70 -246 154t-92 221q0 131 99 217t245 102q18 10 18 17v82q0 14 21 14h18q20 0 21 -14v-84q0 -12 10 -13q135 -10 222 -76.5t87 -125.5 q0 -25 -29.5 -43.5t-48.5 -18.5q-23 0 -35 29.5t-19 66.5t-50 72t-121 43q-16 -10 -16 -14v-477q0 -25 2 -29t18 -12q80 -37 125 -63t105.5 -70t89 -101t28.5 -127q0 -150 -91 -245t-255 -109q-23 -2 -22 -19v-260q0 -16 -4 -19t-27 -3q-20 0 -24.5 3t-4.5 21v258 q0 10 -3 13.5t-17 5.5q-137 8 -243.5 69t-106.5 127zM246 991q0 -90 59.5 -145t159.5 -98q18 -6 18 8v469q0 14 -10 14q-84 -6 -155.5 -67.5t-71.5 -180.5zM543 76q0 -18 3 -22.5t17 -2.5q94 20 156.5 93t62.5 157q0 92 -58 149.5t-165 104.5q-8 4 -10 4q-6 0 -6 -14v-469z " />
<glyph unicode="%" horiz-adv-x="1345" d="M96 741q0 129 108.5 273.5t260.5 144.5q84 0 149 -65q47 -47 115 -47q90 0 186 57q27 16 54.5 38.5t44 38t46.5 45t38 36.5l8 10q10 10 18.5 19t10.5 9q10 0 26.5 -11t16.5 -19t-15 -29q-96 -139 -475 -702.5t-412 -614.5q-8 -14 -45 -14q-43 0 -43 22q0 2 9 19 q0 2 162.5 234.5t348 501.5t230.5 349q14 23 -6 13q-104 -49 -203 -50q-27 0 -41 2q-25 -16 -24 -22v-29q0 -35 -2 -51q-12 -150 -119 -271.5t-236 -121.5q-98 0 -154.5 67.5t-56.5 167.5zM209 688q0 -59 26.5 -99t77.5 -40q102 0 190.5 117.5t88.5 277.5q0 137 -100 137 q-90 0 -186.5 -129t-96.5 -264zM682 211q0 147 115.5 284.5t261.5 137.5q88 0 139 -62.5t51 -167.5q0 -162 -110.5 -295t-245.5 -133q-98 0 -154.5 68t-56.5 168zM795 160q0 -139 104 -140q100 0 189.5 118t89.5 276q0 139 -103 139q-88 0 -184 -129t-96 -264z" />
<glyph unicode="&#x26;" horiz-adv-x="1345" d="M76 317q0 203 256 383q25 18 24 23q0 2 -3 5t-11 10t-14 16q-117 133 -117 241q0 137 100.5 231.5t239.5 94.5q119 0 202 -54.5t83 -156.5q0 -156 -258 -332q-23 -14 -23 -20t20 -23q119 -100 320 -315q23 -25 35 -4q0 4 2 6q10 18 36.5 64t43 75t31 61.5t14.5 47.5 q0 2 -1 2t-8.5 1t-23.5 1h-129q-18 0 -22.5 5t-4.5 32q0 37 27 37q8 0 87 -3.5t140 -3.5q33 0 89.5 3.5t62.5 3.5q16 0 21 -8.5t5 -34.5q0 -20 -6 -25.5t-28 -5.5h-70q-14 0 -37 -35q-195 -281 -196 -291q0 -4 18 -29q68 -82 133 -202q14 -25 23.5 -34t38 -15.5t84.5 -6.5 q14 0 16 -4t2 -26q0 -27 -5 -32t-28 -5q-82 -2 -159.5 -11.5t-81.5 -9.5q-29 0 -37 25q-29 102 -97 199q-6 8 -9 11t-7 4t-7 -2t-9 -11q-205 -225 -389 -226q-168 0 -270.5 96t-102.5 248zM215 403q0 -117 91 -203.5t208 -86.5q156 0 291 135q10 14 10 16t-2 5t-5 8.5 t-7 11.5q-55 76 -159.5 182.5t-197.5 181.5q-29 23 -35 23t-47 -29q-147 -109 -147 -244zM356 1061q0 -92 103 -215q31 -35 41 -35q8 0 41 23q143 109 143 243q0 68 -45 119t-113 51q-82 0 -126 -54t-44 -132z" />
<glyph unicode="'" horiz-adv-x="268" d="M55 1047q0 2 4 66.5t9.5 140t7.5 96.5q8 66 71 65q66 0 66 -57q0 -10 -4 -31q-8 -29 -25.5 -88t-36 -117.5t-20.5 -66.5q-2 -4 -4 -11.5t-3 -10.5t-3 -8t-4 -6t-6.5 -3t-9.5 -3t-11 -1q-31 0 -31 35z" />
<glyph unicode="(" horiz-adv-x="571" d="M76 584q0 152 39 293t92 234t110.5 166t95.5 106.5t44 33.5q12 0 25.5 -10t13.5 -23q0 -2 -30 -36.5t-73 -99t-86 -150.5t-72.5 -216t-29.5 -274q0 -162 28.5 -307t70.5 -238.5t84 -163t70.5 -109.5t28.5 -48q0 -35 -38 -35q-10 0 -50.5 45t-94.5 129t-105.5 188.5 t-87 243t-35.5 271.5z" />
<glyph unicode=")" horiz-adv-x="571" d="M76 -260q0 2 29.5 37t72.5 99.5t86 150.5t73 216t30 273q0 162 -29 307.5t-71 238.5t-84 162.5t-70.5 109.5t-28.5 48q0 35 39 35q10 0 50 -45t94.5 -129t105.5 -188.5t87 -242.5t36 -271q0 -152 -39 -293.5t-92.5 -234.5t-110.5 -165.5t-95 -106.5t-44 -34 q-12 0 -25.5 10.5t-13.5 22.5z" />
<glyph unicode="*" horiz-adv-x="800" d="M55 915q0 49 51 70q23 10 103 38t104 38q27 10 32 16t1 10.5t-27 20.5q-12 8 -86.5 55t-93.5 68q-29 33 -28 63q0 25 16 43.5t47 18.5q39 0 68 -33q16 -16 38.5 -51t50 -81t36.5 -61q14 -23 15 -22.5t11 20.5q8 18 25.5 69.5t33 92.5t27.5 58q27 41 70 41q27 0 44 -20.5 t17 -43.5q0 -29 -20 -57q-18 -27 -81 -82.5t-79 -71.5q-23 -25 -17.5 -29t29.5 -6q16 -2 114.5 -4t125.5 -10q63 -20 63 -70q0 -31 -21.5 -48t-49.5 -17q-20 0 -59.5 17.5t-95.5 47t-79 39.5q-29 12 -29.5 12.5t1.5 -28.5q6 -23 21.5 -73t26.5 -90t11 -62q0 -35 -16.5 -60.5 t-51 -25.5t-54 26.5t-19.5 57.5q0 18 6 53t15 81t14 70q4 20 4 33q0 29 -27 2l-6 -6q-12 -12 -73.5 -76.5t-86 -79t-53.5 -14.5t-48.5 16t-19.5 45z" />
<glyph unicode="+" horiz-adv-x="1079" d="M57 434q0 25 7.5 36t35.5 11h349q18 0 26 4t10 10.5t2 18.5v360q0 25 11.5 31t38.5 6q18 0 27 -2t18.5 -13t9.5 -32v-334q0 -49 29 -49h362q18 0 26.5 -7t10.5 -16t2 -26q0 -31 -8 -42t-41 -11h-352q-14 0 -20.5 -3t-7.5 -7t-1 -21v-358q0 -41 -47 -41q-35 0 -46.5 7 t-11.5 36v356q0 23 -7 27t-36 4h-346q-18 0 -27.5 7t-11.5 17.5t-2 30.5z" />
<glyph unicode="," horiz-adv-x="415" d="M76 -285q0 6 35.5 39t71.5 82t36 94q0 39 -33.5 73t-67.5 56.5t-34 38.5q0 25 44 56.5t60 31.5q33 0 92.5 -48t59.5 -87q0 -80 -54.5 -173t-109.5 -148.5t-72 -55.5q-12 0 -20 14.5t-8 26.5z" />
<glyph unicode="-" horiz-adv-x="528" d="M43 412q0 14 13.5 50t25.5 38q14 2 192.5 8t190.5 6q8 0 8 -18q0 -78 -20 -80q-229 -16 -396 -17q-14 1 -14 13z" />
<glyph unicode="." horiz-adv-x="452" d="M117 78q0 35 33.5 81t62.5 46q35 0 79 -32t44 -71q0 -45 -34 -85t-58 -40q-43 0 -85 36t-42 65z" />
<glyph unicode="/" horiz-adv-x="831" d="M10 -459q0 16 43 127l649 1741q8 27 17.5 33t48.5 6q51 0 51 -23q0 -20 -31 -98l-643 -1743q-20 -57 -32 -63q-10 -4 -43 -4q-60 -1 -60 24z" />
<glyph unicode="0" d="M113 387q0 172 115.5 284.5t285.5 112.5q184 0 290.5 -115.5t106.5 -283.5q0 -174 -117.5 -287.5t-291.5 -113.5q-162 0 -275.5 119.5t-113.5 283.5zM193 387q0 -131 89 -212t218 -81q160 0 241.5 90t81.5 230q0 119 -95 197.5t-222 78.5q-125 0 -219 -90t-94 -213z" />
<glyph unicode="1" d="M301 25q0 18 5 25t26 7h92q14 0 14 19q2 59 2 180v182q0 190 -4 281q0 14 -1 16t-13 2h-92q-23 0 -23 33q0 35 23 35q18 0 92 -2t100.5 -2t99 2t91.5 2q16 0 19 -7t3 -28q0 -18 -4 -25.5t-24 -7.5h-95q-6 0 -8 -18q-6 -119 -6 -479q0 -109 2 -164q0 -12 2 -15.5t16 -3.5 h82q29 0 29 -32q0 -35 -29 -35q-18 0 -88.5 2t-97.5 2t-98.5 -2t-89.5 -2q-16 0 -20.5 7.5t-4.5 27.5z" />
<glyph unicode="2" d="M117 662q0 16 54 58t141 80t159 38q117 0 192.5 -76t75.5 -189q0 -193 -374 -421l-35 -23q0 -4 35 -4h428q4 0 39.5 69.5t37.5 69.5q8 0 26.5 -5t18.5 -11q0 -14 -57 -238q-6 -16 -29 -16h-667q-39 0 -39 29q0 16 29 38q27 27 111.5 85.5t149 107.5t120 131t55.5 168 q0 88 -46 137t-120 49q-61 0 -125 -31.5t-102 -64.5l-39 -31q-6 0 -22.5 19t-16.5 31z" />
<glyph unicode="3" d="M158 -336q0 18 25.5 32.5t58.5 14.5q37 0 88 -30q10 -6 28.5 -19.5t30.5 -21t36 -13.5t52 -6q94 0 173 91t79 208q0 139 -72.5 200.5t-230.5 61.5q-25 0 -66 -3t-43 -3q-10 0 -16 5t-9 9.5t-6 14.5t-3 12q-4 12 -4 21q0 25 47 41q158 45 231.5 108.5t73.5 169.5 q0 80 -47 136.5t-121 56.5q-68 0 -122 -27t-81 -52.5t-29 -25.5q-8 0 -25.5 16.5t-17.5 24.5q0 14 41 50t114 70t144 34q127 0 204 -71t77 -187q0 -174 -190 -256q-72 -29 -72 -37q0 -4 57 -8q307 -25 307 -336q0 -166 -126 -276.5t-287 -110.5q-90 0 -194.5 30.5 t-104.5 75.5z" />
<glyph unicode="4" d="M76 16q0 68 174 271l272 327q176 199 201 199q33 0 33 -59v-607q0 -23 3 -26.5t21 -3.5h119q8 0 12 -1t6.5 -5.5t2.5 -14.5v-82q0 -14 -3.5 -17t-21.5 -3h-113q-14 0 -19 -3t-3 -20q18 -375 18 -379q0 -27 -39 -28l-92 -8q-29 0 -29 32v381q0 16 -4 20.5t-22 4.5h-473 q-43 -1 -43 22zM205 123q8 -6 37 -6h344q25 0 28.5 5t3.5 30v442q0 23 -2 29t-8 2t-16 -17q-4 -6 -6 -8l-357 -430q-33 -39 -24 -47z" />
<glyph unicode="5" d="M199 324q0 12 17 92t42 194.5t37 180.5q4 16 27 16q4 0 85.5 -4t186 -9.5t162.5 -5.5q37 0 43 7q2 2 6 15t10 25.5t10 12.5h9q33 0 32 -19q-6 -92 -8 -141q-2 -41 -82 -41q-72 0 -134 3t-141 9.5t-136 8.5q-25 0 -27 -17q-41 -205 -41 -217q0 -6 16 -8 q219 -20 345 -108.5t126 -278.5q0 -102 -50 -189.5t-121.5 -142.5t-153.5 -94t-141.5 -55.5t-86.5 -16.5q-23 0 -22 43q0 33 20 35q57 12 120 39t128.5 71t107.5 116.5t42 160.5q0 145 -109.5 216t-281.5 71q-37 0 -37 31z" />
<glyph unicode="6" d="M92 473q0 160 63.5 307.5t153.5 246.5t187.5 175t167 111t90.5 35q12 0 23 -17.5t11 -30t-24 -22.5q-98 -41 -182 -110.5t-139.5 -148.5t-88 -138.5t-53.5 -114.5q-14 -35 -14 -45q0 -4 6 -4t37 6q88 16 188 16q164 0 277.5 -98t113.5 -254q0 -184 -117.5 -293.5 t-291.5 -109.5q-184 0 -296 128t-112 361zM242 412q0 -139 73.5 -246t212.5 -107q98 0 164 88.5t66 196.5q0 152 -80 245t-234 93q-59 0 -133 -12q-33 -6 -38 -13.5t-13 -48.5q-18 -87 -18 -196z" />
<glyph unicode="7" d="M166 567q0 2 3 36t9 97.5t12 118.5q4 29 9.5 36t29.5 7q23 0 28 -6t5 -27v-10q0 -8 330 -8h340q41 0 41 -25q0 -6 -8 -22q-96 -180 -262 -503.5t-267.5 -517.5t-111.5 -194q-20 0 -50 20.5t-30 43.5q0 4 592 1032q16 31 12 33t-25 2h-407q-172 0 -174 -21l-13 -98 q-2 -16 -26 -16q-37 -1 -37 22z" />
<glyph unicode="8" d="M139 315q0 78 23.5 139.5t68.5 101.5t74 59.5t70 39.5q6 4 11 6.5t7 2.5l2 2l-2 2q-4 4 -12 9t-14 9q-209 143 -209 328q0 143 103.5 241.5t250.5 98.5q139 0 234.5 -87t95.5 -227q0 -37 -7.5 -70.5t-15.5 -58t-27.5 -52.5t-29.5 -42t-36 -36.5t-34 -29t-37 -26.5 l-26 -20q-10 -8 -11 -11l11 -8l35 -18q33 -20 47 -30.5t47 -35t50 -50.5t38.5 -61.5t31 -79.5t9.5 -96q0 -150 -104.5 -241.5t-274.5 -91.5q-152 0 -260.5 94t-108.5 239zM260 336q0 -127 70.5 -206t185.5 -79q100 0 162.5 78t62.5 184q0 80 -38.5 141.5t-80.5 90t-120 71.5 q-39 25 -53 25q-16 -6 -64 -41q-125 -90 -125 -264zM289 1038q0 -129 139 -237q66 -49 109 -70q8 -4 15 -7t11 -5l4 -2q4 0 25 18q53 47 99 132t46 157q0 129 -63.5 200.5t-165.5 71.5q-100 0 -159.5 -74.5t-59.5 -183.5z" />
<glyph unicode="9" d="M117 418q0 184 114.5 293.5t286.5 109.5q180 0 298 -129t118 -360q0 -170 -79 -313.5t-187.5 -226.5t-228.5 -142.5t-196.5 -81t-97.5 -21.5q-8 0 -15 22.5t-7 37.5q0 4 50 20.5t128 51t161 86t163 144.5t120 208q6 20 3 21t-21 -11q-115 -68 -260 -68q-160 0 -255 99.5 t-95 259.5zM262 438q0 -121 70.5 -212t189.5 -91q195 0 252 103q12 25 12 114q0 160 -66.5 278t-195.5 118t-195.5 -86.5t-66.5 -223.5z" />
<glyph unicode=":" horiz-adv-x="452" d="M117 78q0 35 33.5 81t62.5 46q35 0 79 -32t44 -71q0 -45 -34 -85t-58 -40q-43 0 -85 36t-42 65zM117 641q0 35 33.5 81t62.5 46q35 0 79 -31.5t44 -70.5q0 -45 -34 -85t-58 -40q-43 0 -85 35.5t-42 64.5z" />
<glyph unicode=";" horiz-adv-x="456" d="M96 -285q0 6 36 39t72 82t36 94q0 39 -34 73t-68 56.5t-34 38.5q0 25 44.5 56.5t60.5 31.5q33 0 92 -48t59 -87q0 -80 -54 -173t-109.5 -148.5t-71.5 -55.5q-12 0 -20.5 14.5t-8.5 26.5zM119 641q0 35 33.5 81t62.5 46q35 0 79 -31.5t44 -70.5q0 -45 -34 -85t-58 -40 q-43 0 -85 35.5t-42 64.5z" />
<glyph unicode="&#x3c;" horiz-adv-x="1079" d="M78 432q0 35 35 47l845 307q45 0 46 -57q0 -25 -37 -39l-645 -227q-70 -25 -82 -37q2 -2 82 -31l655 -229q27 -8 27 -33q0 -18 -14.5 -36.5t-41.5 -18.5q-8 0 -837 301q-33 10 -33 53z" />
<glyph unicode="=" horiz-adv-x="1079" d="M57 274q0 25 7.5 37.5t35.5 12.5h883q18 0 26.5 -7.5t10.5 -16.5t2 -26q0 -31 -8 -43t-41 -12h-875q-29 0 -35 12t-6 43zM57 594q0 25 7.5 36t35.5 11h883q18 0 26.5 -7t10.5 -16.5t2 -25.5q0 -31 -8 -42t-41 -11h-875q-29 0 -35 12t-6 43z" />
<glyph unicode="&#x3e;" horiz-adv-x="1079" d="M78 133q0 27 24 33l658 229q76 27 82 31q-10 10 -82 37l-647 227q-35 12 -35 39q0 57 43 57q2 0 846 -307q37 -14 37 -47q0 -41 -35 -53q-829 -301 -838 -301q-27 0 -40 18.5t-13 36.5z" />
<glyph unicode="?" horiz-adv-x="745" d="M117 1239v92q0 41 24 41q16 0 26.5 -25.5t12.5 -25.5q49 -8 77 -13t88.5 -22.5t99 -37t90 -55.5t82 -80t52 -109.5t21.5 -145.5q0 -362 -284 -362q-29 0 -36.5 -4.5t-9.5 -24.5q-14 -143 -16 -191q0 -12 -5 -15t-26 -3q-27 0 -33 5t-6 28q0 262 5 319q2 27 14 35t43 8 h123q57 0 94 16.5t52.5 46t20.5 54.5t5 57q0 145 -116 246t-345 129q-2 0 -12.5 1t-13.5 2t-10 4t-10 6.5t-5 9.5t-2 14zM190 78q0 35 34 81t63 46q35 0 79 -32t44 -71q0 -45 -34 -85t-59 -40q-43 0 -85 36t-42 65z" />
<glyph unicode="@" horiz-adv-x="1628" d="M96 383q0 172 75 327.5t195.5 264t276.5 172t315 63.5q156 0 280 -46t209 -163.5t85 -295.5q0 -188 -112.5 -330t-267.5 -206.5t-314 -64.5q-78 0 -78 52q0 33 8 77q-125 -125 -231 -124q-61 0 -93 52t-32 124q0 53 40 141t106.5 175t166.5 150.5t205 63.5q12 0 27.5 -3 t24.5 -6t11 -3q4 2 25 28q29 35 61 35q57 0 58 -32q0 -14 -7 -31q-225 -485 -225 -567q0 -31 5 -44.5t30 -13.5q86 0 188.5 50.5t192.5 140.5q137 137 137 321q0 225 -134 338t-359 113q-319 0 -553 -221.5t-234 -548.5q0 -240 163 -388.5t388 -148.5q197 0 344.5 65.5 t286.5 194.5q20 20 31 21q14 0 25 -16.5t11 -24.5q0 -10 -12 -23q-129 -139 -309 -214t-383 -75q-258 0 -442.5 166t-184.5 455zM561 301q0 -35 22.5 -61.5t57.5 -26.5q86 0 190.5 217t104.5 287q0 18 -18.5 30.5t-40.5 12.5q-82 0 -199 -152.5t-117 -306.5z" />
<glyph unicode="A" horiz-adv-x="1429" d="M55 31q0 20 6.5 25t30.5 5h62q12 0 295 674l217 504q8 20 34.5 54t38.5 61q27 59 45 59q20 0 25 -18l246 -690q231 -643 245 -644h72q14 0 18.5 -6t4.5 -26q0 -25 -4.5 -33t-18.5 -8q-12 0 -83.5 3t-106.5 3q-33 0 -123 -3t-113 -3q-18 0 -22 8t-4 35q0 23 5 26.5t29 3.5 h113q2 0 2 2q0 59 -143 459q-6 18 -8.5 24.5t-7.5 8.5t-15 2h-414q-23 0 -29 -5t-14 -28q-164 -412 -166 -461l2 -2h158q16 0 20.5 -6t4.5 -26q0 -18 -1 -25.5t-6.5 -11.5t-17.5 -4q-2 0 -70.5 3t-121.5 3q-49 0 -100.5 -3t-55.5 -3q-20 0 -24.5 7t-4.5 36zM479 625 q0 -6 27 -7h366q18 0 19 9q0 4 -6 20l-170 498q-8 25 -10 24q-4 0 -15 -24l-201 -492q-10 -24 -10 -28z" />
<glyph unicode="B" horiz-adv-x="1212" d="M76 1329.5q0 24.5 7 30.5t30 6q12 0 109 -2t132 -2q39 0 124 3t128 3q205 0 333 -79t128 -257q0 -211 -305 -323q-16 -6 -16.5 -8.5t14.5 -4.5q367 -53 366 -350q0 -356 -579 -356q-55 0 -124 2t-73 2q-37 0 -126 -3t-93 -3q-20 0 -26.5 8t-6.5 35q0 20 8.5 25t34.5 5 h107q6 0 6 80v662q0 489 -16 489l-125 -4q-20 0 -28.5 8.5t-8.5 33zM434 645q0 -584 15 -584h122q362 0 363 299q0 221 -174 281q-61 20 -240 21h-69q-17 -1 -17 -17zM434 733q0 -6 1 -9t6 -4t20 -1h117q20 0 41.5 -1t25.5 -1q20 0 39 6q82 25 140.5 93.5t58.5 182.5 q0 145 -99.5 229.5t-257.5 84.5q-68 0 -84 -8q-8 -6 -8 -474v-98z" />
<glyph unicode="C" horiz-adv-x="1497" d="M86 686q0 319 210 516t527 197q43 0 87 -5t77 -13.5t69 -21.5t57.5 -23.5t49 -27t38.5 -23.5t32 -21l18 -15q25 -18 25 2v56q0 20 7 26t30 6q47 0 47 -32q0 -10 -4 -177t-4 -229q0 -18 -8.5 -23.5t-30.5 -5.5q-29 0 -37 5.5t-8 21.5q0 2 4 90t4 98q0 16 -57.5 70.5 t-173 111t-236.5 56.5q-219 0 -360.5 -182t-141.5 -461q0 -258 164 -443.5t397 -185.5q104 0 200.5 31t144 60.5t49.5 41.5l26 238q6 31 29 31q2 0 10 -1t12 -1q31 -2 31 -23q0 -29 -33 -283q-4 -25 -77.5 -67.5t-201.5 -80.5t-247 -38q-145 0 -273 44t-230.5 130 t-162 228.5t-59.5 322.5z" />
<glyph unicode="D" horiz-adv-x="1552" d="M66 20q0 25 9 31t31 6h132q8 0 16 452t8 644q0 154 -4 154l-141 -4q-16 0 -22.5 5t-6.5 25q0 39 29 39h24.5t56 -1t64.5 -1q84 0 234.5 12.5t183.5 12.5q342 0 564 -192.5t222 -516.5q0 -330 -213 -515t-520 -185q-61 0 -188 4t-191 4q-33 0 -143.5 -4t-116.5 -4 q-18 0 -23 7t-5 27zM442 176q0 -117 2 -119q14 -6 113 -6q141 0 254 29t183.5 69.5t121.5 106.5t76 120t38 129t15 113.5t2 94.5q0 147 -72.5 286.5t-216 234.5t-321.5 95q-129 0 -180 -12q-12 -4 -13 -293q-2 -281 -2 -848z" />
<glyph unicode="E" horiz-adv-x="1239" d="M76 31q0 20 8 25t33 5h125q8 0 8 148v197q0 63 -1 147t-2 159.5t-2 142.5t-2 109t-1 44q0 66 -3 134t-7.5 111t-8.5 43h-96q-20 0 -27.5 6.5t-7.5 30.5q0 35 27 35l90 -4q90 -2 133 -2q59 0 266 3t250 3q96 0 109.5 2t15.5 19q2 14 4 18t8 8t21 4q25 0 33 -5t8 -23 q0 -4 -4 -90.5t-4 -180.5q0 -14 -8.5 -18t-30.5 -4q-37 0 -37 30q0 2 3 72t3 86q0 14 -547 14q-12 0 -12 -256q0 -86 4 -290q0 -18 3 -22.5t15 -4.5h342q106 0 107 27v106q0 20 41 21q35 0 35 -19q0 -2 -2 -61.5t-2 -102.5t2 -104.5t2 -69.5q0 -18 -33 -18q-43 0 -43 20v103 q0 30 -100 30h-7h-333h-7q-12 0 -16 -3t-4 -21q12 -559 22 -559q96 0 247 1t263.5 3t116.5 2q10 0 13.5 6t5.5 31v4q2 27 6 182q0 18 35 19q41 0 41 -21q0 -57 -4 -159.5t-3 -127.5q0 -28 -38 -28h-3q-23 0 -379 3t-388.5 3t-130 -3t-119.5 -3q-20 0 -26.5 8t-6.5 35z" />
<glyph unicode="F" horiz-adv-x="1126" d="M76 1333q0 35 26 35l91 -4q90 -2 133 -2q57 0 273 3t257 3q102 0 115.5 2t15.5 19q2 14 7 21t9.5 8t16.5 1q41 0 41 -28q0 -4 -4 -90.5t-4 -180.5q0 -14 -8.5 -18t-30.5 -4q-37 0 -37 30q0 4 3 75t3 85q-86 12 -567 12q-12 0 -13 -227q0 -225 5 -319q0 -25 4 -27h22h354 q106 0 107 27v108q0 18 41 19q35 0 35 -17q0 -2 -2 -62.5t-2 -103.5t2 -115.5t2 -80.5q0 -16 -33 -17q-43 0 -43 19v125q0 10 -4 15t-28.5 10t-74.5 5h-354q-20 0 -23 -3t-3 -31q2 -100 4 -255t3 -232t5 -77h166q18 0 23 -7t5 -25q0 -25 -5 -33t-23 -8q-23 0 -118 3t-128 3 q-35 0 -119 -3t-96 -3q-20 0 -25.5 8t-5.5 35q0 20 8.5 25t34.5 5h86q10 0 10 148v197q0 63 -1 147t-2 159.5t-2 142.5t-2 109t-1 44q0 66 -3 134t-7 111t-8 43h-90q-23 0 -32 6t-9 31z" />
<glyph unicode="G" horiz-adv-x="1564" d="M86 686q0 332 213 519.5t537 187.5q240 0 415 -123q25 -18 25 2v51q0 20 7 26.5t30 6.5q25 0 35 -6.5t10 -26.5q0 -4 -3 -160.5t-3 -218.5q0 -18 -8.5 -24.5t-30.5 -6.5q-29 0 -37 5.5t-8 21.5q0 2 4 80t4 88q0 16 -51 65.5t-162 100.5t-236 51q-221 0 -370.5 -184.5 t-149.5 -458.5q0 -264 161 -457.5t400 -193.5q66 0 123.5 10t93 23.5t61 30t38 27.5t12.5 17q6 53 6 193q0 113 -14 112h-178q-23 0 -23 31q0 43 21 43q29 0 132 -3t142 -3q57 0 116.5 3t67.5 3q23 0 23 -35q0 -39 -23 -39h-63q-20 0 -21 -112q0 -25 -1 -86.5t-1 -95.5 q0 -25 -81.5 -70t-221 -84t-266.5 -39q-145 0 -273 43t-230.5 129t-162 229.5t-59.5 327.5z" />
<glyph unicode="H" horiz-adv-x="1619" d="M76 31q0 20 6 25t31 5h118q12 0 13 523v209q0 510 -11 510h-90q-23 0 -32 6t-9 30.5t9.5 30.5t31.5 6q10 0 76 -3t115 -3t126 3t95 3q20 0 25.5 -8t5.5 -35q0 -20 -7.5 -25t-31.5 -5h-113q-10 0 -10 -269q0 -55 1 -149t1 -121q0 -23 3 -27t22 -4h747q18 0 21.5 3t3.5 22 v250q0 295 -17 295h-116q-20 0 -27.5 7t-7.5 29q0 25 5 31t27 6q8 0 85 -3t135 -3q51 0 123.5 3t74.5 3q20 0 25.5 -8t5.5 -35q0 -20 -7 -25t-32 -5h-90q-6 0 -6 -490q0 -752 8 -752h109q18 0 22 -6t4 -26q0 -25 -4 -33t-22 -8q-23 0 -92.5 3t-102.5 3t-121 -3t-110 -3 q-20 0 -25.5 8t-5.5 35q0 20 7 25t32 5h112q10 0 11 332v254q0 18 -2 21.5t-11 3.5h-766q-14 0 -16 -4t-2 -25q0 -582 18 -582h136q16 0 20 -6t4 -26q0 -18 -1 -25.5t-6 -11.5t-17 -4q-23 0 -110 3t-120 3t-128 -3t-118 -3q-20 0 -24 7t-4 36z" />
<glyph unicode="I" horiz-adv-x="681" d="M55 31q0 20 8.5 25t34.5 5h135q18 0 19 746v201q0 63 -3 133.5t-7 116t-6 45.5h-136q-20 0 -28.5 6t-8.5 30.5t7.5 30.5t29.5 6q6 0 96.5 -3t159.5 -3q53 0 139.5 3t102.5 3q18 0 23.5 -8t5.5 -35q0 -20 -6.5 -25t-30.5 -5h-133q-18 0 -19 -318v-276q0 -647 19 -648h141 q18 0 23.5 -7t5.5 -25q0 -25 -5.5 -33t-23.5 -8q-8 0 -99 3t-147 3q-59 0 -152.5 -3t-109.5 -3q-20 0 -27.5 8t-7.5 35z" />
<glyph unicode="J" horiz-adv-x="681" d="M-68 -385q0 49 59.5 93t84.5 44q18 0 52 -21.5t54 -21.5q49 0 62.5 63.5t13.5 217.5v1018q0 295 -18 295h-136q-23 0 -32 6t-9 30.5t9.5 30.5t31.5 6q8 0 103.5 -3t154.5 -3q47 0 125 3t88 3q20 0 25.5 -8t5.5 -35q0 -20 -7 -25t-32 -5h-104q-10 0 -10 -545v-492 q0 -172 -35 -315.5t-144 -257.5q-39 -41 -65.5 -64.5t-71.5 -46t-90 -22.5q-41 0 -78 15t-37 40z" />
<glyph unicode="K" horiz-adv-x="1331" d="M76 31q0 20 8 25t35 5h108q14 0 15 342v594q0 295 -13 295h-94q-23 0 -32 6.5t-9 31t9.5 30.5t31.5 6q10 0 88 -3t127 -3q33 0 116 3t105 3q20 0 25.5 -8t5.5 -35q0 -20 -7 -25.5t-32 -5.5h-112q-10 0 -17.5 -111.5t-7.5 -205.5v-256q0 -16 1 -22.5t5 -9.5t14 -3h46 q18 0 111 114.5t218 280.5t135 181q25 33 -8 32h-82q-23 0 -32 6.5t-9 31t9.5 30.5t31.5 6q10 0 72.5 -3t108.5 -3q43 0 102 3t68 3q20 0 24 -7t4 -36q0 -20 -6 -25.5t-31 -5.5h-98q-4 0 -446 -526l-5 -4q-8 -14 -2 -21q8 -6 13 -12l551 -635q29 -33 59 -33h33q16 0 20 -6 t4 -26q0 -18 -1 -25.5t-6 -11.5t-17 -4q-23 0 -99.5 3t-109.5 3t-111 -3t-100 -3q-20 0 -24.5 7t-4.5 36q0 20 7.5 25t29.5 5h68q10 0 15 1t4 6.5t-3 8.5t-10 11l-445 526q-12 14 -41 15h-38q-18 0 -21.5 -3t-3.5 -20q0 -545 18 -545h148q18 0 23.5 -7t5.5 -25 q0 -25 -4.5 -33t-22.5 -8q-23 0 -119 3t-129 3t-125 -3t-115 -3q-20 0 -25 8t-5 35z" />
<glyph unicode="L" horiz-adv-x="1212" d="M76 31q0 20 8 25t33 5h123q16 0 16 592v473q0 176 -10 177h-121q-23 0 -29 7t-6 29q0 25 8 31t33 6q12 0 104.5 -3t126.5 -3q33 0 128.5 3t117.5 3q25 0 31 -6t6 -31q0 -20 -7 -28t-32 -8h-143q-16 0 -17 -435v-567q0 -231 13 -231q463 0 598 12q31 2 35 10q2 8 6 31 l24 176q4 23 29 18q47 -4 47 -24q0 -8 -9 -63.5t-19.5 -123t-14.5 -90.5q-2 -18 -11 -23t-40 -5q-23 0 -368 3t-377.5 3t-130 -3t-119.5 -3q-20 0 -26.5 8t-6.5 35z" />
<glyph unicode="M" horiz-adv-x="1832" d="M66 31q0 20 8 25t35 5h84q4 0 14 203q37 750 37 1018v8t-2 5t-6.5 4t-11.5 2.5t-19 1.5h-103q-14 0 -17 6t-3 26q0 18 1 25.5t5 11.5t14 4q8 0 96.5 -3t131.5 -3q27 0 77 3t52 3q27 0 39 -30l430 -1074q8 -20 13 -24t8 2l12 24l401 1045q12 35 20.5 43t32.5 8h98 q33 0 110 3t99 3q20 0 25.5 -8t5.5 -35q0 -20 -7 -25t-32 -5h-96q-10 -16 -10 -158v-184q0 -287 9 -593.5t21 -306.5h107q18 0 25.5 -6t7.5 -26q0 -25 -5.5 -33t-23.5 -8q-23 0 -104.5 3t-114.5 3q-51 0 -132 -3t-87 -3q-20 0 -26.5 8t-6.5 35q0 20 8 25t35 5h92 q14 0 14 357q0 336 -10 772q-2 37 -4 41q-4 4 -8 -8q-2 -4 -14 -33l-379 -969q-20 -53 -57 -105.5t-58 -92.5q-20 -43 -37 -43q-14 0 -41 61l-477 1178q-10 29 -15 37t-8.5 -0.5t-5.5 -38.5q-16 -432 -16 -953q0 -203 10 -203h142q18 0 23 -7t5 -25q0 -25 -5 -33t-23 -8 q-23 0 -85.5 3t-95.5 3q-35 0 -95 -3t-75 -3q-20 0 -26 8t-6 35z" />
<glyph unicode="N" horiz-adv-x="1667" d="M76 31q0 20 7 25t32 5h94q12 0 16 136q2 43 2 67q16 530 17 1039h-133q-18 0 -23.5 7t-5.5 25q0 25 5 33t24 8q12 0 109 -3t120 -3q27 0 69 3t44 3q23 0 45 -28l831 -1022q25 -29 30 -25t5 37v86q0 100 -2 383t-2 387q0 109 -2 109h-191q-16 0 -20 6t-4 26q0 18 1 25.5 t6 11.5t17 4q4 0 41 -2t89.5 -3t91.5 -1q47 0 106 3t68 3q20 0 24 -7t4 -36q0 -20 -7 -25t-34 -5h-92q-8 0 -8 -115q0 -139 -7 -429t-13 -518.5t-7 -232.5q0 -51 -26 -51q-10 0 -41 35l-1008 1225q-23 25 -24 22q-4 -2 -5 -22q-2 -82 -2 -250q0 -111 -1 -360t-1 -343 q0 -203 9 -203h176q16 0 20 -6t4 -26q0 -18 -1 -25.5t-6 -11.5t-17 -4q-18 0 -94 3t-127 3q-53 0 -109.5 -3t-63.5 -3q-20 0 -25 8t-5 35z" />
<glyph unicode="O" horiz-adv-x="1540" d="M86 651q0 328 205 533t497 205q299 0 482.5 -209t183.5 -516q0 -309 -194.5 -501t-501.5 -192q-266 0 -469 183.5t-203 496.5zM291 707q0 -283 128 -474.5t341 -191.5q158 0 273.5 96t167.5 238.5t52 306.5q0 162 -51 303t-164.5 237.5t-269.5 96.5q-209 0 -343 -184 t-134 -428z" />
<glyph unicode="P" horiz-adv-x="1155" d="M76 1329q0 25 7 31t30 6q16 0 119.5 -2t121.5 -2q33 0 139.5 5t129.5 5q223 0 360 -103.5t137 -303.5q0 -193 -133 -285t-362 -92q-39 0 -95.5 3t-83.5 3q-14 0 -14 -16v-136q0 -381 8 -381h146q18 0 23 -7t5 -25q0 -25 -5 -33t-23 -8q-23 0 -113 3t-123 3q-37 0 -128 -3 t-95 -3q-20 0 -25.5 8t-5.5 35q0 20 8.5 25t34.5 5h99q18 0 18 910v106q0 215 -8 215l-135 -4q-23 0 -30 7t-7 34zM434 666q0 -20 72 -21q190 0 308 84t118 266q0 143 -120 227.5t-306 84.5q-45 0 -64 -2q-8 -2 -8 -105v-534z" />
<glyph unicode="Q" horiz-adv-x="1603" d="M86 696q0 322 209 507.5t508 185.5q307 0 511 -196t204 -497q0 -246 -139.5 -428t-364.5 -245q-74 -23 -342 -144q-18 -8 -19 -10q-4 -4 6 -4q4 -2 13 -2q209 -12 270 -27q51 -10 131 -33.5t138.5 -37t97.5 -13.5q61 0 111 15.5t77 32t31 16.5q6 0 20.5 -16.5t14.5 -24.5 q0 -33 -113 -98.5t-215 -65.5q-123 0 -278.5 43t-276.5 85t-160 42q-29 0 -80 -18.5t-57 -18.5q-23 0 -51.5 35t-28.5 57q0 37 57 37q8 0 22.5 -1t23.5 -1q63 0 114 12q90 25 254 105q14 8 14 10t-22 4q-141 18 -259 66.5t-215 128t-151.5 207.5t-54.5 292zM276 729 q0 -137 47.5 -264t125.5 -217q74 -86 229.5 -145.5t210.5 -59.5q29 0 91 38t138 108.5t131.5 201.5t55.5 289q0 160 -60.5 303t-182.5 239.5t-280 96.5q-213 0 -359.5 -176t-146.5 -414z" />
<glyph unicode="R" horiz-adv-x="1312" d="M76 1329q0 25 9 31t32 6q12 0 107 -2t130 -2q33 0 154 6t143 6q68 0 127.5 -8t121 -32.5t105.5 -62.5t71.5 -102.5t27.5 -148.5q0 -68 -30 -127t-79 -101t-89 -68t-81 -44q-2 0 -4 -2q-14 -6 4 -12q61 -20 110.5 -47t107 -79.5t91 -141.5t37.5 -210q2 -45 3.5 -70.5 t4.5 -37.5t6 -15.5t9 -3.5h94q18 0 24.5 -10t6.5 -41q0 -22 -30 -22h-3l-280 6q-23 0 -23 22v119q0 88 -4 147.5t-23.5 131t-55.5 113.5t-103.5 73t-161.5 33q-20 0 -89 1t-100 1q-16 0 -16 -17q0 -111 8 -334t15 -223h118q18 0 23.5 -7t5.5 -25q0 -25 -5 -33t-24 -8 q-23 0 -105.5 3t-115.5 3q-37 0 -116.5 -3t-83.5 -3q-20 0 -27.5 8t-7.5 35q0 20 8 25t35 5h88q8 0 8 258v273q0 700 -21 700l-118 -4q-39 0 -39 41zM430 702q0 -10 27 -10q41 0 133 -1t129 -3q16 0 22 2q176 82 177 301q0 143 -111 230.5t-262 87.5q-74 0 -105 -4 q-10 0 -10 -105v-498z" />
<glyph unicode="S" horiz-adv-x="1081" d="M106 999q0 170 135.5 282t309.5 112q152 0 280 -88q18 -14 31 -15q8 0 8 37q2 25 7.5 30t29.5 5q31 0 38 -5t7 -30l-6 -131q-6 -131 -6 -195q0 -20 -6 -27t-31 -7q-27 0 -36 7t-9 23q0 2 3 61.5t3 69.5q0 41 -104.5 118t-204.5 77q-115 0 -190.5 -73.5t-75.5 -184.5 q0 -86 54 -147.5t134 -92t175.5 -68.5t175 -78t134 -121t54.5 -193q0 -184 -140.5 -293t-324.5 -109q-104 0 -203.5 18.5t-153 42t-55.5 39.5q-2 29 -7 99.5t-9 129t-4 70.5q0 8 1 12.5t3 9.5t9 7t18 2h10q37 0 39 -35l12 -192q2 -39 132 -81t226 -42q109 0 188 69.5 t79 172.5q0 72 -40 126t-104.5 87.5t-142.5 64.5t-156 66t-142.5 80t-104.5 118.5t-40 171.5z" />
<glyph unicode="T" horiz-adv-x="1413" d="M37 1110q0 2 6 46t14.5 109.5t12.5 110.5q2 23 8 30t31 7q33 0 32 -18v-21q0 -10 215 -10h731q217 0 218 16q2 20 9 26.5t23 6.5q25 0 33 -4t8 -25q0 -4 -4 -93t-4 -183q0 -14 -7 -17.5t-32 -3.5q-37 0 -37 29q0 4 3 78t3 86q0 14 -225 14h-235q-10 0 -17 -317v-59 q-2 -57 -4 -148.5t-4 -194t-3 -209t-1 -178.5q0 -127 4 -127h146q18 0 23 -7t5 -25q0 -25 -5 -33t-23 -8q-23 0 -118 3t-128 3t-131.5 -3t-120.5 -3q-20 0 -25.5 8t-5.5 35q0 20 7 25t32 5h127q12 0 19.5 398.5t7.5 656.5q0 178 -13 178h-290q-188 0 -193 -20l-16 -158 q-2 -18 -7.5 -23.5t-23.5 -5.5q-45 0 -45 23z" />
<glyph unicode="U" horiz-adv-x="1546" d="M76 1329.5q0 24.5 7 30.5t30 6q12 0 85.5 -3t108.5 -3q33 0 124 3t114 3q20 0 25 -8t5 -35q0 -20 -7 -25.5t-31 -5.5h-134q-10 0 -18 -342t-8 -483q0 -197 96 -294t309 -97q188 0 348 108q33 23 39 43q10 33 11 279v624q0 162 -13 162h-102q-23 0 -32 6.5t-9 31t9 30.5 t32 6q12 0 94 -3t117 -3t94.5 3t65.5 3q20 0 27 -8t7 -35q0 -20 -8 -25.5t-35 -5.5h-47q-8 0 -11 -84t-6 -274.5t-5 -284.5q-2 -117 -6 -262t-6.5 -231t-2.5 -105q0 -71 -48 -71h-1q-27 0 -67.5 74.5t-59 74.5t-92.5 -41q-82 -47 -197.5 -82t-226.5 -35q-121 0 -207 29 t-133 72t-73.5 112.5t-33.5 131t-7 149.5q0 23 1 321.5t1 391.5q0 115 -9 114h-77q-20 0 -28.5 6.5t-8.5 31z" />
<glyph unicode="V" horiz-adv-x="1402" d="M14 1329.5q0 24.5 8.5 30.5t30.5 6q8 0 83 -3t110 -3q33 0 138 3t128 3q20 0 27.5 -8t7.5 -35q0 -20 -8.5 -25.5t-34.5 -5.5h-144v-4q0 -37 25 -102q139 -408 326 -893q31 -84 41 -84q8 0 39 80q23 59 76 195.5t95 244t87 227t69.5 200.5t24.5 110q0 27 -13 26h-145 q-23 0 -33 6.5t-10 31t7 30.5t30 6q12 0 96 -3t119 -3t94.5 3t65.5 3q20 0 27.5 -8t7.5 -35q0 -20 -8.5 -25.5t-35 -5.5t-39 -4t-15.5 -9t-13 -30l-473 -1112q-10 -23 -18.5 -36t-20.5 -27.5t-18 -24.5q-12 -18 -30 -51t-29 -44t-30 -11q-14 0 -26 31.5t-37 108.5t-53 140 q-2 2 -106.5 271.5t-209 533.5t-110.5 264h-64q-20 0 -29.5 6.5t-9.5 31z" />
<glyph unicode="W" horiz-adv-x="2064" d="M14 1329.5q0 24.5 9.5 30.5t31.5 6q12 0 87 -3t110 -3q33 0 111.5 3t101.5 3q20 0 27.5 -8t7.5 -35q0 -20 -8.5 -25.5t-34.5 -5.5h-103q-12 0 -14 -12q4 -29 55 -201q39 -131 97.5 -317.5t103.5 -323.5t47 -145q18 -51 23 -51q2 0 24 51l293 747q6 16 6 35q0 4 -14 62 q-43 156 -55 155h-117q-23 0 -32 6.5t-9 31t9 30.5t32 6q12 0 102 -3t125 -3q33 0 128 3t118 3q20 0 27.5 -8t7.5 -35q0 -20 -9.5 -25.5t-31.5 -5.5h-129q-2 -4 -2 -12q0 -53 37 -201q27 -98 66.5 -237.5t70 -247t58.5 -201.5t30 -100q27 -84 35 -84q6 0 37 80 q10 29 72.5 191.5t94 250.5t78.5 219t69.5 209t22.5 107q0 27 -12 26h-133q-23 0 -32 6.5t-9 31t9 30.5t32 6q4 0 75.5 -3t135.5 -3q43 0 89 3t50 3q20 0 27.5 -8t7.5 -31q0 -20 -8 -27.5t-35 -7.5t-39 -4t-16 -10t-13 -29l-452 -1112q-10 -23 -18.5 -36t-20.5 -28.5 t-18 -23.5q-12 -16 -26.5 -40.5t-22 -36t-17.5 -20.5t-22.5 -9t-23.5 13t-21.5 42t-18.5 58.5t-22.5 78.5t-26.5 88q0 2 -11.5 43t-31 112t-42 153.5t-51 183t-53.5 184.5q-8 37 -14 37q-2 0 -18 -37l-291 -762q-10 -23 -18.5 -36t-20.5 -28.5t-19 -23.5 q-12 -16 -26.5 -40.5t-21.5 -36t-17 -20.5t-22.5 -9t-23.5 13t-21.5 42t-18.5 58.5t-22.5 78.5t-26.5 88q0 2 -34 115t-81 268.5t-94 312t-82 265t-39 108.5h-74q-23 0 -32 6.5t-9 31z" />
<glyph unicode="X" horiz-adv-x="1306" d="M14 25q0 25 9.5 30.5t29.5 5.5h76q6 0 147 203q41 59 87.5 122t115 147.5t92.5 117.5q12 16 -2 35q-59 100 -216.5 353t-166.5 253h-80q-23 0 -31.5 6.5t-8.5 31t8 30.5t30 6q12 0 110.5 -3t133.5 -3q33 0 106.5 3t96.5 3q20 0 25.5 -8t5.5 -35q0 -20 -8.5 -25.5 t-34.5 -5.5h-84q-14 0 -16.5 -3t1.5 -11q2 -6 4 -8q45 -111 238 -449q2 -2 6 -9t7 -11t5 -4t9 8q53 78 168 254q129 193 129 231v2h-115q-27 0 -35 5.5t-8 25.5q0 27 7 35t28 8q10 0 63 -3t96 -3q35 0 89.5 3t66.5 3q23 0 31 -7t8 -30q0 -25 -9 -31t-30 -6h-47 q-12 0 -96 -121q-68 -98 -180.5 -247.5t-129.5 -173.5q-8 -10 0 -23q422 -666 435 -666h69q29 0 36 -5t7 -31q0 -25 -7 -31t-32 -6q-12 0 -95 3t-118 3q-33 0 -124 -3t-113 -3q-20 0 -27.5 8t-7.5 35q0 20 8 25t35 5h102q25 0 11 23q-37 76 -297 512q-8 14 -17 2 q-225 -317 -334 -496q-20 -35 -16 -39q4 -2 12 -2h113q27 0 35 -5t8 -25q0 -27 -7 -35t-28 -8q-23 0 -80 3t-90 3q-35 0 -96 -3t-74 -3q-23 0 -31 7t-8 30z" />
<glyph unicode="Y" horiz-adv-x="1222" d="M14 1339.5q0 24.5 7.5 30.5t29.5 6q2 0 74 -3t143 -3q68 0 152 3t90 3q16 0 22.5 -8t6.5 -35q0 -20 -6.5 -25t-30.5 -5h-121h-15.5t-6.5 -4.5t0 -6.5l6 -12q18 -47 75.5 -156.5t128 -239.5t86.5 -163q14 -27 19 -27q4 0 14 21q285 549 285 581q0 6 -4 7h-107q-27 0 -35 5 t-8 25q0 27 7.5 35t27.5 8q4 0 56.5 -3t103.5 -3t98 3t57 3q23 0 31 -7t8 -30q0 -25 -9 -30.5t-30 -5.5h-69q-4 0 -80 -131.5t-169 -296t-126 -216.5q-6 -8 -6 -18q0 -580 18 -580h142q18 0 23 -7t5 -25q0 -25 -5 -33t-23 -8q-14 0 -95.5 3t-150.5 3q-51 0 -139 -3t-95 -3 q-20 0 -25 8t-5 35q0 20 7 25t32 5h104q20 0 20 494q0 20 -14 45q-76 139 -235.5 421t-171.5 282h-60q-20 0 -28.5 6t-8.5 30.5z" />
<glyph unicode="Z" horiz-adv-x="1230" d="M76 31q0 12 126 204.5t336 511t336 519.5q4 4 4.5 10t-22.5 6h-639q-8 0 -10 -16q-4 -18 -10.5 -58.5t-11.5 -69t-5 -32.5q-6 -37 -22 -37q-59 0 -60 21q0 2 7.5 46t18.5 117.5t19 132.5q2 14 15 17q6 2 14 2q47 0 45 -16l-2 -17q0 -12 115 -12h788q20 0 26.5 -7t6.5 -30 q0 -14 -128 -203.5t-325.5 -487.5t-322.5 -511q-27 -39 2 -39h696q10 0 10 16q0 14 2 25q2 27 7 184q0 18 43 19q41 0 41 -21q0 -55 -3 -159.5t-4 -129.5q0 -28 -32 -28h-2q-117 0 -524.5 3t-512.5 3q-22 0 -22 37z" />
<glyph unicode="[" horiz-adv-x="606" d="M158 -264v1653q0 18 6 24t24 6h314q18 0 23 -5t5 -19v-29q0 -20 -5 -26.5t-23 -6.5h-219q-16 0 -18.5 -2t-2.5 -16v-1505q0 -14 2 -16.5t19 -2.5h219q18 0 23 -6t5 -27v-24q0 -29 -28 -29h-312q-23 0 -27.5 4t-4.5 27z" />
<glyph unicode="\" horiz-adv-x="831" d="M12 1425q0 23 51 23q39 0 48.5 -6t17.5 -33l649 -1741q43 -111 43 -127q0 -25 -59 -24q-39 0 -48 9t-28 58l-643 1743q-31 78 -31 98z" />
<glyph unicode="]" horiz-adv-x="606" d="M76 -242q0 20 5 26.5t23 6.5h220q16 0 18 2t2 17v1505q0 14 -2 16t-18 2h-220q-18 0 -23 6.5t-5 26.5v25q0 29 28 28h312q20 0 26.5 -5t6.5 -23v-1653q0 -14 -1.5 -19.5t-7.5 -9.5t-18 -4h-318q-18 0 -23 5t-5 20v28z" />
<glyph unicode="^" horiz-adv-x="823" d="M96 633l303 663l2 2q6 2 14.5 2t14.5 -2l2 -2l303 -663q-27 -8 -61 -8q-23 0 -56 6h-2l-204 465l-197 -465h-4q-37 -6 -57 -6q-33 0 -58 8z" />
<glyph unicode="_" horiz-adv-x="839" d="M45 -84q0 39 35 39h686q29 0 29 -29v-28q0 -47 -29 -48h-692q-18 0 -23.5 8.5t-5.5 32.5v25z" />
<glyph unicode="`" horiz-adv-x="819" d="M195 1192q0 29 21.5 48.5t57.5 19.5q47 0 68 -56l100 -266q4 -8 4 -14q0 -10 -14 -11h-33q-10 0 -20 15l-168 219q-16 22 -16 45z" />
<glyph unicode="a" horiz-adv-x="858" d="M66 145q0 88 77.5 156t174 100.5t212.5 53.5q10 2 11 26q0 55 -1 86t-10.5 74t-27 65.5t-51 39t-82.5 16.5q-37 0 -64 -12q-39 -16 -49 -43t-10 -95q0 -31 -15 -41q-25 -18 -67.5 -39.5t-50.5 -21.5q-18 0 -19 39q0 121 102.5 197.5t215.5 76.5q150 0 212 -70.5 t62 -203.5q0 -59 -6 -231.5t-6 -186.5q0 -20 8 -33.5t16.5 -17.5t12.5 -4q10 0 47 26l35 25q8 0 20 -15.5t12 -25.5q0 -2 -104 -80q-66 -47 -86 -47q-18 0 -32.5 6t-24 18.5t-13.5 20.5t-9 27.5t-7 21.5q-4 12 -8 13.5t-15 -7.5q-152 -94 -254 -94q-96 0 -151 49t-55 131z M221 203q0 -51 35 -93t92 -42q37 0 83 11t78 24.5t32 21.5v268q0 16 -6 17q-29 0 -125 -31q-189 -59 -189 -176z" />
<glyph unicode="b" horiz-adv-x="993" d="M2 1309q0 49 12 49q43 4 116 12t126 14.5t57 6.5q17 -1 17 -17v-18q0 -26 -1 -80q-1 -82 -3 -213t-2 -264q0 -59 4 -60q2 0 14 6.5t33.5 14.5t46 16t56.5 14.5t61 6.5q174 0 286.5 -118t112.5 -294q0 -190 -131 -304t-313 -114q-51 0 -114 19.5t-83 19.5 q-27 0 -60.5 -18.5t-48.5 -18.5q-20 0 -20 33q0 2 1 12.5t2 34t2 61t2 109.5t1 162q0 287 -8 604.5t-23 317.5q-8 0 -64 -6.5t-61 -6.5q-18 1 -18 19zM319 131q0 -96 166 -96q135 0 214 102.5t79 245.5q0 141 -95 241.5t-226 100.5q-41 0 -87 -18.5t-46 -30.5 q0 -123 -2.5 -326t-2.5 -219z" />
<glyph unicode="c" horiz-adv-x="843" d="M66 362q0 215 131 338t297 123q104 0 191 -60.5t87 -141.5q0 -27 -22 -46q-36 -28 -64 -28h-2q-33 0 -41 26q-4 14 -14.5 45t-15.5 45.5t-16 36t-25.5 30.5t-37 17.5t-53.5 8.5q-121 0 -195.5 -106.5t-74.5 -235.5q0 -137 81 -237.5t228 -100.5q63 0 121.5 15t91.5 32 l35 14q20 0 20 -22q0 -10 -37.5 -42t-119.5 -66t-172 -34q-182 0 -287.5 105.5t-105.5 283.5z" />
<glyph unicode="d" horiz-adv-x="1021" d="M55 371q0 176 121 293.5t301 117.5q33 0 65.5 -5t57.5 -12t44.5 -15.5t30.5 -13.5t13 -5q6 0 6 29q0 127 -7 339t-15 212q-6 0 -67.5 -9.5t-69.5 -9.5q-14 0 -9 37q4 29 11 31q4 2 8 2q55 6 123.5 15t110.5 15.5t57 6.5q10 0 10 -33q0 -14 -3 -133t-6 -347.5t-3 -508.5 q0 -88 4 -236q2 -66 10 -86t35 -20q2 0 16 2t31.5 5t25.5 3q20 4 21 -12q0 -51 -19 -53q-242 -33 -251 -33q-16 0 -17 24q0 2 1 36t1 38q0 16 -22 2q-129 -80 -248 -80q-156 0 -261.5 97.5t-105.5 306.5zM217 385q0 -150 75 -240t230 -90q45 0 108.5 20.5t63.5 41.5v512 q0 12 -25.5 34.5t-72.5 44t-94 21.5q-127 0 -206 -101.5t-79 -242.5z" />
<glyph unicode="e" horiz-adv-x="868" d="M57 379q0 186 119 312t303 126q147 0 229.5 -96t82.5 -236q0 -30 -110 -30h-7q-10 0 -225.5 5t-231.5 5q-6 -14 -6 -68q0 -152 88 -241.5t205 -89.5q47 0 92 13t74.5 33.5t52 40t36 33t15.5 13.5q4 0 22.5 -15.5t18.5 -19.5t-16.5 -25.5t-49 -51.5t-73.5 -57.5 t-100.5 -47t-118.5 -19.5q-188 0 -294 115t-106 301zM221 522q0 -10 19 -10q117 0 321 8q76 2 76 8q0 125 -58.5 178.5t-123.5 53.5q-92 0 -160 -77t-74 -161z" />
<glyph unicode="f" horiz-adv-x="626" d="M66 25q0 33 30 32h76q8 0 8 123q0 41 -1 104.5t-1 67.5v123q0 227 -4 227h-68q-18 0 -23 6.5t-5 27t4 26.5t18 6h62q14 0 14 18q0 49 -2 96.5t-2 102.5q0 180 78 295t248 115q66 0 121 -40t55 -104q0 -35 -39 -68.5t-66 -33.5q-31 0 -32 25q-8 61 -13.5 87.5t-25 51 t-52.5 24.5q-114 0 -114 -323v-6q0 -35 -4 -211q0 -20 8 -24.5t39 -4.5h227q20 0 21 -14q0 -8 -5.5 -28.5t-13.5 -20.5h-229q-39 0 -39 -19v-340q0 -289 18 -289h140q16 0 20 -6t4 -26.5t-4 -27.5t-25 -7q-16 0 -102 2t-119 2q-25 0 -81 -2t-88.5 -2t-32.5 35z" />
<glyph unicode="g" horiz-adv-x="870" d="M25 -354q0 90 76.5 148.5t174.5 84.5q4 2 13 4l12 6h-29h-73q-68 0 -88 43q-18 47 -19 101q0 63 41 71q213 53 213 58q0 2 -18 6q-264 76 -265 336q0 133 112 222t255 89q70 0 130.5 -26.5t90.5 -51.5l33 -26q2 0 26.5 9t60.5 18.5t63 11.5q10 0 17 -22.5t7 -41 t-12 -18.5q-113 -12 -113 -25q0 -2 6 -21.5t12.5 -53t6.5 -70.5q0 -125 -60.5 -199t-179.5 -119q-55 -23 -354 -106q-4 0 -4 -13q0 -10 5 -23t11 -22.5t8 -9.5q37 -2 119 -5t132 -6t125 -11.5t122 -25.5t93 -44t68.5 -69t22.5 -99q0 -158 -127 -252t-329 -94 q-145 0 -265 64.5t-120 181.5zM129 -340q0 -90 87 -142.5t192 -52.5q133 0 231 56.5t98 175.5q0 76 -109.5 117t-240.5 41q-86 0 -172 -53.5t-86 -141.5zM207 512q0 -131 83 -221t134 -90q66 0 130 86t64 213q0 119 -53 185.5t-145 66.5q-86 0 -149.5 -71t-63.5 -169z" />
<glyph unicode="h" horiz-adv-x="1030" d="M14 1313q0 37 15 39q262 37 301 37q16 0 16 -29q0 -2 -4 -103.5t-8 -254t-4 -277.5q0 -16 1 -17t13 5q150 82 274 82q68 0 117 -25t77 -61.5t44 -96t20.5 -114t4.5 -129.5v-174q0 -137 6 -138h69q29 0 29 -32q0 -35 -29 -35q-16 0 -67 2t-84 2q-25 0 -86.5 -2t-93.5 -2 q-20 0 -24.5 7t-4.5 28q0 33 25 32h98q10 0 10 377q0 117 -48 190.5t-142.5 73.5t-180.5 -43q-29 -14 -28 -24q2 -373 2 -393q0 -180 8 -181h94q18 0 22.5 -7t4.5 -25q0 -35 -27 -35q-16 0 -79.5 2t-96.5 2q-25 0 -86 -2t-94 -2q-20 0 -24.5 7t-4.5 28q0 33 31 32h88 q8 0 8 377q0 539 -16 834q0 14 -2 20t-3 7t-8 1q-2 0 -58 -7t-62 -7q-13 0 -13 31z" />
<glyph unicode="i" horiz-adv-x="509" d="M41 725q0 8 10 35q8 20 39 20q49 2 105.5 4t89 4.5t37.5 2.5q14 0 17 -4.5t3 -14.5v-348q0 -367 10 -367h88q16 0 20.5 -6t4.5 -26q0 -35 -25 -35q-18 0 -83.5 2t-92 2t-98.5 -2t-90 -2q-16 0 -20.5 7t-4.5 28q0 18 5 25t26 7h102q6 0 6 199q0 240 -8 438q0 14 -4 20.5 t-7 6.5h-13q-2 0 -48.5 -2t-50.5 -2q-18 0 -18 8zM152 1133q0 53 42 85.5t87 32.5q39 0 65.5 -21.5t26.5 -66.5q0 -53 -41 -87t-90 -34q-37 0 -63.5 24t-26.5 67z" />
<glyph unicode="j" horiz-adv-x="598" d="M4 -522q0 35 32 74.5t54 39.5q25 0 68 -4t49 -4q72 0 72 62q0 18 -4.5 115.5t-9.5 297t-5 469.5q0 100 -4 156q-2 16 -4 19.5t-8 3.5t-69.5 -3.5t-74.5 -3.5q-14 0 -14 9q0 14 6 36.5t17 22.5q51 2 120.5 5t113.5 5t46 2q20 0 21 -45v-8q0 -82 5 -306t5 -366 q0 -184 -22.5 -298.5t-90.5 -202.5q-29 -37 -120 -80t-138 -43q-45 0 -45 47zM158 1188q0 53 42 86t87 33q39 0 65.5 -21.5t26.5 -66.5q0 -53 -41 -87t-90 -34q-37 0 -63.5 23.5t-26.5 66.5z" />
<glyph unicode="k" horiz-adv-x="919" d="M12 1329v23q0 27 25 28q260 20 280 21q12 0 14.5 -5t2.5 -22v-6l-23 -913q0 -14 4 -17.5t23 -3.5h45q25 0 55 43q98 129 160 232q6 10 6 15t-4 6t-16 1h-49q-18 0 -22.5 7t-4.5 26q0 35 29 35q6 0 51 -2t76 -2q29 0 71.5 2t55.5 2q25 0 24 -35q0 -33 -27 -33h-65 q-12 0 -221 -250q-12 -16 -13.5 -20t7.5 -12q4 -4 6 -9l309 -358q20 -25 41 -25h25q20 0 24 -6t4 -26.5t-4 -27.5t-24 -7q-12 0 -62.5 2t-79 2t-81 -2t-64.5 -2q-18 0 -22.5 7t-4.5 28q0 33 27 32h26q10 0 13.5 2t1.5 6.5t-8 12.5l-226 278q-18 23 -24 28t-21 5h-24 q-16 0 -17 -27v-172q0 -133 4 -133h66q18 0 22.5 -8t4.5 -31q0 -28 -25 -28h-2q-16 0 -64.5 2t-80.5 2q-39 0 -102.5 -2t-70.5 -2q-18 0 -22 7t-4 28q0 12 1 18t6 10t17 4h91q12 0 14 4.5t2 26.5v395q0 831 -16 832q-2 0 -54.5 -3t-62.5 -3q-14 0 -18.5 3t-4.5 17z" />
<glyph unicode="l" horiz-adv-x="526" d="M33 1319q0 16 6 39q4 16 18 18h6q246 18 254 19q20 0 21 -37q2 -328 7 -680t5 -547q0 -74 10 -74h89q16 0 20 -6t4 -26q0 -14 -1 -20.5t-6 -10.5t-17 -4q-16 0 -77 2t-93 2q-25 0 -94.5 -2t-102.5 -2q-27 0 -27 35q0 33 25 32h104q10 0 11 168q0 809 -23 1059 q-2 16 -6 24.5t-6 8.5h-10q-6 0 -54.5 -4t-52.5 -4q-10 0 -10 10z" />
<glyph unicode="m" horiz-adv-x="1513" d="M43 717q0 4 10 39q4 14 8.5 17t18.5 3h8q211 10 219 10q16 0 20.5 -5t4.5 -23v-62q0 -14 1 -15t9 5q164 115 293 115q43 0 78 -11.5t52 -25.5t29.5 -29.5t16.5 -25.5l6 -13q2 0 18.5 10.5t44 24.5t61.5 29.5t77 26t80 10.5q143 0 201.5 -80t58.5 -225q0 -45 -2 -195 t-2 -154q0 -86 4 -86h82q29 0 28 -32q0 -35 -28 -35q-16 0 -72.5 2t-89.5 2q-25 0 -86.5 -2t-93.5 -2q-27 0 -27 35q0 33 31 32h84q16 0 16 385q0 256 -176 256q-43 0 -91 -13t-74.5 -26.5t-26.5 -17.5q0 -2 3 -17.5t6 -51t3 -89.5v-229q0 -197 4 -197h74q18 0 22 -7t4 -25 q0 -35 -26 -35q-16 0 -70.5 2t-87.5 2q-25 0 -73 -2t-81 -2q-20 0 -26 7t-6 28q0 33 26 32h78q14 0 14 193q0 39 -1 84t-1 74.5v33.5q0 66 -3 103t-16 77t-43 58t-79 18q-127 0 -201 -59q-20 -16 -20 -33v-489q0 -43 5 -51.5t28 -8.5h49q29 0 28 -32q0 -35 -28 -35 q-18 0 -76.5 2t-85.5 2q-29 0 -96.5 -2t-81.5 -2q-25 0 -25 33q0 35 23 34h86q14 0 20 60q4 41 4 217v223q0 86 -4 139q-10 14 -12 15q-98 -6 -115 -6q-10 0 -10 12z" />
<glyph unicode="n" horiz-adv-x="1052" d="M41 713q0 8 12 39q4 14 8.5 16t24.5 4q12 0 103.5 6t123.5 8q18 2 22.5 -3t4.5 -19v-6v-70q0 -16 12 -6q6 4 10 6q4 4 37 25.5t48.5 30t47 22.5t63.5 20.5t69 6.5q88 0 145 -28t85 -83t38 -114.5t10 -143.5q0 -68 -5 -205t-5 -143q0 -14 2 -16.5t14 -2.5h62q20 0 27.5 -6 t7.5 -26q0 -35 -31 -35q-16 0 -68.5 2t-85.5 2q-25 0 -85 -2t-93 -2q-23 0 -27 6t-4 27q0 35 33 34h88q12 0 13 377q0 123 -42 191.5t-149 68.5q-66 0 -180 -57q-33 -18 -33 -41q0 -84 -1 -253t-1 -253q0 -25 3 -29t17 -4h78q20 0 24.5 -7t4.5 -25q0 -35 -27 -35 q-16 0 -77.5 2t-94.5 2q-25 0 -89 -2t-97 -2q-18 0 -22.5 7t-4.5 28q0 33 27 32h92q16 0 17 428q0 139 -5 203q0 12 -3 17.5t-6 5.5h-7h-6t-56.5 -4.5t-58.5 -4.5q-10 1 -10 11z" />
<glyph unicode="o" horiz-adv-x="913" d="M55 375q0 186 119 314t307 128q168 0 272.5 -119.5t104.5 -294.5q0 -195 -109.5 -317.5t-299.5 -122.5q-166 0 -280 121t-114 291zM213 346q0 -125 63.5 -221t172.5 -96q249 0 249 386q0 130 -63.5 233.5t-177.5 103.5q-244 0 -244 -406z" />
<glyph unicode="p" horiz-adv-x="1048" d="M43 713q0 6 6 32.5t12 26.5q59 2 128 5t109 5t42 2q29 0 29 -34v-41q0 -20 26 0q2 0 3 2t3 2q111 78 226 78q172 0 264 -111t92 -283q0 -166 -120 -294t-314 -128q-39 0 -81 8.5t-67 16.5l-26 10q-4 0 -4 -26l6 -367q4 -131 10 -131h143q20 0 24.5 -7t4.5 -26 q0 -35 -29 -35q-16 0 -102 2t-119 2q-25 0 -98.5 -2t-106.5 -2q-27 0 -26 35q0 33 26 33h111q6 0 6 321v291q0 391 -14 588q-2 16 -5 19.5t-14 3.5h-8q-12 0 -64.5 -2t-54.5 -2q-18 0 -18 8zM371 100q0 -25 60.5 -49t111.5 -24q131 0 205.5 110.5t74.5 245.5 q0 145 -73.5 234.5t-186.5 89.5q-72 0 -129 -27q-63 -33 -63 -53v-527z" />
<glyph unicode="q" horiz-adv-x="1003" d="M66 369q0 180 122.5 298.5t309.5 118.5q68 0 149.5 -26.5t89.5 -26.5q14 0 41 36t47 36q29 0 29 -37q-10 -305 -10 -610v-338q0 -328 8 -328h74q20 0 26 -6t6 -31q0 -16 -1 -22t-6 -9.5t-19 -3.5h-62q-80 0 -159.5 -5t-128.5 -11l-50 -6q-20 0 -20 43q0 27 25 29 q121 12 129 16q16 8 16 43l4 471q0 18 -20 10q-6 -2 -11 -4q-133 -39 -227 -39q-141 0 -251.5 100.5t-110.5 301.5zM223 391q0 -133 79 -239.5t210 -106.5q55 0 115.5 11.5t60.5 27.5v512q0 57 -54 90t-153 33q-125 0 -191.5 -98.5t-66.5 -229.5z" />
<glyph unicode="r" horiz-adv-x="673" d="M43 715q0 4 1 11t4 15.5t3 12.5q2 12 8.5 14t28.5 2q29 0 85 2t93 3t43 1q18 0 21.5 -2t3.5 -16q0 -16 -1 -58.5t-1 -60.5v-14l2 -4q4 8 6 14q35 82 90 130t107 48q45 0 83.5 -35t38.5 -59q0 -20 -28.5 -56t-55.5 -36q-25 0 -64.5 32.5t-55.5 32.5q-111 0 -111 -411 q0 -223 18 -224h136q27 0 26 -32q0 -35 -26 -35q-16 0 -103.5 2t-120.5 2q-25 0 -87 -2t-95 -2q-27 0 -26 35q0 12 1 18t6 10t17 4h90q16 0 17 275q0 381 -17 381q-6 0 -63.5 -2t-59.5 -2q-14 0 -14 6z" />
<glyph unicode="s" horiz-adv-x="690" d="M66 102q0 27 26.5 56.5t40.5 29.5q6 0 12.5 -8t14.5 -24.5t16 -26.5q82 -100 186 -100q55 0 92.5 32.5t37.5 94.5q0 63 -45.5 101t-133.5 75q-59 27 -86.5 41t-71.5 45t-63.5 68.5t-19.5 86.5q0 102 92 170t209 68q106 0 162.5 -47t56.5 -100q0 -16 -34 -28.5t-58 -12.5 q-18 0 -30.5 32.5t-40.5 66.5t-83 34q-57 0 -100 -34t-43 -104q0 -31 10 -52t43 -43.5t45 -29t66 -32.5q68 -31 94 -45.5t74.5 -47t69 -69.5t20.5 -82q0 -111 -87 -179.5t-208 -68.5q-96 0 -180 40t-84 93z" />
<glyph unicode="t" horiz-adv-x="591" d="M63 705q0 10 11 20l186 260q12 18 27 19q23 0 22 -25q0 -2 -3 -44t-6 -90t-3 -63q0 -10 2 -12t14 -2h211q14 0 15 -12q0 -2 -7 -33q-10 -37 -32 -37h-195q-8 0 -8 -88v-393q0 -39 4 -61.5t25.5 -41t62.5 -18.5q47 0 106.5 16.5t61.5 16.5q10 0 10 -31q0 -12 -10 -20 q-37 -27 -121 -59t-133 -32q-80 0 -116.5 44t-36.5 102q0 84 2 255t2 189q0 119 -23 119h-51q-17 1 -17 21z" />
<glyph unicode="u" horiz-adv-x="1044" d="M23 731q0 14 8 35q6 16 28 18h9q180 8 233 9q12 0 12 -19v-557q0 -131 222 -131q57 0 118.5 8t61.5 19v241q0 375 -17 375q-10 0 -55 -2t-47 -2q-16 0 -16 6q0 25 4 37q2 18 26 18q45 2 103.5 4.5t94.5 4.5t40 2q8 0 12 -1t6 -4.5t2 -4.5v-9q-2 -489 -2 -616 q0 -76 6.5 -95.5t26.5 -19.5q2 0 44 6t46 6q12 0 12 -26q0 -25 -3 -30t-23 -7q-238 -35 -244 -35t-9 52.5t-5 52.5l-21 -9q-20 -10 -54 -24.5t-74 -28.5t-89 -23.5t-92 -9.5q-135 0 -182 77t-47 202v321q0 152 -19 152q-2 0 -49 -1t-51 -1q-16 0 -16 10z" />
<glyph unicode="v" horiz-adv-x="944" d="M45 754q0 34 26 34h1q16 0 63 -2t80 -2q27 0 97.5 2t87 2t19.5 -7t3 -27q0 -33 -21 -33h-71q-31 0 -31 -10q4 -23 79 -236t114 -301q12 -27 16 -27q6 0 14 23q193 457 193 524q0 27 -15 27h-59q-18 0 -22.5 7t-4.5 26q0 12 1 18t7.5 11t20.5 5q4 0 51 -2t72 -2t60.5 2 t50.5 2q22 0 22 -31q0 -36 -25 -36h-38q-10 0 -23 -21q-23 -39 -117 -268t-141 -328q-14 -31 -27.5 -48t-34 -41.5t-40.5 -55.5q-12 -16 -27 -16q-10 0 -19.5 10t-16.5 28.5t-12 34t-11.5 38t-8.5 28.5q-66 201 -223 612q-20 25 -26 27h-37q-27 0 -27 33z" />
<glyph unicode="w" horiz-adv-x="1427" d="M45 754q0 34 27 34h2q16 0 62 -2t79 -2q27 0 94.5 2t83.5 2q20 0 24.5 -7t4.5 -27q0 -33 -27 -33h-55q-29 0 -29 -14q0 -8 32 -110.5t76 -231.5t70 -191q10 -18 15 -18q6 0 18 32q139 352 164 422q14 37 14 54q0 10 -10 30q-14 27 -63 27h-25q-29 0 -29 33q0 34 27 34h2 q23 0 70 -2t84 -2q27 0 75 2t72 2q20 0 24.5 -7t4.5 -27q0 -33 -31 -33h-43q-12 0 -15 -3t-3 -11v-2q6 -29 68.5 -236t97.5 -295q10 -31 18 -31q4 0 16 29q37 86 103.5 289t66.5 235q0 25 -16 25h-70q-27 0 -26 33q0 34 26 34h2q4 0 51.5 -2t71.5 -2q27 0 67 2t44 2 q24 0 24 -31q0 -36 -26 -36h-12q-20 0 -31 -21q-18 -35 -102.5 -262t-135.5 -334q-18 -37 -45.5 -71.5t-48.5 -71.5q-10 -18 -29 -18q-31 0 -67 139q-90 307 -142 459q-8 18 -10 18q-4 0 -12 -18q-137 -362 -172 -435q-16 -35 -46 -69.5t-52 -75.5q-10 -18 -31 -18 q-27 0 -70 139q-8 31 -43 130t-86 244.5t-84 237.5q-8 27 -33 27h-32q-20 0 -24.5 7.5t-4.5 25.5z" />
<glyph unicode="x" horiz-adv-x="958" d="M45 24.5q0 20.5 6 26.5t25 6q27 0 40 8.5t52 49.5l246 252q16 16 6 30l-219 295q-23 29 -41 29h-45q-20 0 -24.5 7t-4.5 26q0 34 27 34h2q4 0 67.5 -2t98.5 -2q31 0 78 2t49 2q25 0 24 -34q0 -33 -22 -33q-41 0 -41 -8q0 -10 16 -31l129 -188q10 -16 14 -17.5t15 8.5 q4 6 8 11q14 14 81.5 94t84.5 100q12 14 12 21q0 10 -43 10h-33q-18 0 -22 7t-4 26q0 12 1 18t7 11t20 5q2 0 20.5 -1t45.5 -2t51 -1q35 0 75 2t42 2q16 0 20 -7t4 -27q0 -33 -26 -33q-14 0 -27.5 -6t-19.5 -10.5t-22.5 -20.5t-20.5 -20q-27 -25 -215 -213 q-16 -16 -16.5 -20.5t16.5 -27.5q160 -223 237 -321q18 -25 37 -25h25q20 0 24 -7t4 -25q0 -35 -26 -35q-6 0 -59.5 2t-88.5 2q-31 0 -86 -2t-57 -2q-20 0 -24.5 7t-4.5 28q0 33 27 32h26q29 0 29 13q0 6 -6 15t-15.5 23.5t-15.5 22.5q-59 94 -131 191q-12 16 -16 16 t-17 -14q-182 -215 -192 -232q-14 -18 -12 -26.5t24 -8.5h62q20 0 24 -7t4 -25q0 -35 -28 -35q-12 0 -56.5 2t-76.5 2q-29 0 -72 -2t-55 -2q-14 0 -17.5 7t-3.5 27.5z" />
<glyph unicode="y" horiz-adv-x="956" d="M45 754q0 34 26 34h1q12 0 68.5 -2t88.5 -2q45 0 107.5 2t73.5 2q33 0 32 -34q0 -33 -30 -33h-39q-47 0 -47 -14q0 -23 64.5 -200t117.5 -308q29 -66 33 -66t28 66q145 426 164 493q2 8 2 17q0 12 -37 12h-71q-18 0 -22.5 7t-4.5 26q0 34 27 34h2q6 0 59 -2t78 -2 q27 0 70 2t49 2q26 0 26 -32q0 -14 -1 -20q-1 -7 -6 -11t-17 -4h-31q-18 0 -25 -16q-78 -213 -272 -701q-2 -6 -14.5 -40t-31.5 -94t-36 -106q-43 -123 -78 -174q-20 -31 -55 -73q-4 -4 -10 -13.5t-8 -11.5t-8.5 -9t-9.5 -9t-8 -7.5t-11 -8.5t-13.5 -7t-17.5 -8 q-111 -53 -129 -53q-43 0 -43 47q0 33 41 90q18 25 59 39q8 4 37 13t45.5 15.5t40 17.5t37.5 24.5t21 29.5q90 223 90 246q0 14 -57.5 155.5t-147.5 355.5t-115 271q-8 18 -11 22.5t-13 4.5h-41q-18 0 -22.5 7.5t-4.5 25.5z" />
<glyph unicode="z" horiz-adv-x="845" d="M66 20q0 14 22 46l436 643q25 35 -6 34l-309 -10q-35 -2 -40 -5t-11 -30l-21 -88q-2 -12 -4 -17t-9 -7t-20 -2q-35 4 -34 12q0 4 3 31.5t7 74t6 68.5q0 12 1 16.5t5 9.5t10.5 6t18.5 1h575q55 0 56 -21q0 -10 -21 -39l-432 -634q-14 -21 -14 -33q0 -15 22 -15l357 9 q14 0 20 4t6 7t2 17l13 111q2 16 4 21.5t9 7.5t27 2q25 0 25 -15q0 -37 -10 -194q-2 -25 -8.5 -31t-30.5 -6h-604h-4q-47 0 -47 26z" />
<glyph unicode="{" horiz-adv-x="628" d="M76 561.5q0 16.5 11 23.5t29.5 9t38 14.5t38 35t29.5 75.5t11 133v164q0 72 1.5 108.5t6.5 89t16 77t31.5 54t51.5 42t76 21.5t106 9q18 0 24.5 -6t6.5 -27q0 -33 -35 -32q-86 0 -126 -37t-40 -146v-305q0 -150 -20.5 -209t-102.5 -86q-16 -6 -16 -9t16 -7 q82 -27 102.5 -86t20.5 -209v-305q0 -109 40 -145.5t126 -36.5q35 0 35 -33q0 -20 -6 -26.5t-25 -6.5q-61 0 -106 9.5t-76 21.5t-51.5 41.5t-31.5 54.5t-16 77t-6.5 89t-1.5 108v164q0 80 -11 133.5t-29.5 76t-38 34.5t-38 14t-29.5 9.5t-11 24z" />
<glyph unicode="|" horiz-adv-x="505" d="M199 -383v1911q0 39 43 39h14q23 0 32 -2t14 -11.5t5 -27.5v-1909q0 -18 -1 -26.5t-8 -16.5t-22 -8h-43q-25 0 -29.5 9t-4.5 42z" />
<glyph unicode="}" horiz-adv-x="628" d="M76 -262q0 33 35 33q86 0 125.5 36.5t39.5 145.5v305q0 150 20.5 209t102.5 86q18 8 19 8l-19 8q-82 27 -102.5 86.5t-20.5 208.5v305q0 109 -39.5 146t-125.5 37q-35 0 -35 32q0 20 7 26.5t23 6.5q61 0 106.5 -9t76 -21.5t51 -42t32 -54t16.5 -77t6 -89.5t1 -108v-164 q0 -80 11.5 -133t30 -75.5t38 -35t37.5 -14.5t29.5 -9t11.5 -23.5t-11.5 -24t-29.5 -9.5t-37.5 -14t-38 -34.5t-30 -76t-11.5 -133.5v-164q0 -72 -1 -108.5t-6 -88.5t-16.5 -77t-32 -54.5t-51 -41.5t-75.5 -21.5t-107 -9.5q-16 0 -23 6.5t-7 26.5z" />
<glyph unicode="~" horiz-adv-x="1624" d="M86 240q0 12 8 36q12 47 35 95.5t66 108t113.5 96t158.5 36.5q100 0 210.5 -46t191.5 -101t178.5 -101.5t175.5 -46.5q51 0 96 32t73.5 83t44 87t25.5 71q6 25 39 18q27 -8 27 -20q0 -8 -2 -15q-14 -57 -40 -112t-70 -112.5t-112.5 -93.5t-152.5 -36q-102 0 -216 44 t-196 97.5t-182 97.5t-180 44q-158 0 -223 -254q-8 -33 -21 -33q-6 0 -22 4q-25 7 -25 21z" />
<glyph unicode="&#xa1;" horiz-adv-x="534" d="M158 1260q0 45 33.5 84.5t58.5 39.5q43 0 85 -35.5t42 -64.5q0 -35 -34 -81t-62 -46q-35 0 -79 32t-44 71zM182 27q0 6 8.5 129t21.5 359.5t24 473.5q0 27 34 27q33 0 33 -27q6 -195 15.5 -414t16.5 -358t7 -182q0 -57 -90 -58q-37 0 -53.5 10.5t-16.5 39.5z" />
<glyph unicode="&#xa2;" horiz-adv-x="833" d="M55 362q0 199 113 319t266 138q14 2 17 17v6l8 112q4 61 10 62h16q35 0 35 -10q0 -2 -3 -31t-6 -70t-5 -63v-6q0 -10 2 -11.5t18 -3.5q92 -14 164 -71.5t72 -128.5q0 -31 -23 -46q-37 -29 -65 -28q-33 0 -41 26q-4 12 -14.5 46t-16.5 48.5t-18.5 36t-28.5 31.5t-41 17 q-10 2 -12 0t-4 -15l-54 -639q0 -14 9 -16q27 -6 57 -6q63 0 121.5 15t93.5 32l33 14q20 0 20 -22q0 -10 -38 -42t-119.5 -66t-171.5 -34q-16 0 -19 -10q-23 -236 -24 -235h-17q-31 0 -31 10q0 4 2 30.5t7.5 84t9.5 110.5q0 12 -1 14.5t-20 4.5q-141 27 -221 127.5 t-80 252.5zM201 414q0 -100 45 -185.5t129 -124.5q14 -6 14 2l51 631q0 14 -6 15h-8q-100 -23 -162.5 -123t-62.5 -215z" />
<glyph unicode="&#xa3;" horiz-adv-x="1044" d="M76 -115q0 25 18.5 44.5t64.5 47t58 35.5q27 18 27 35q8 147 8 215q0 102 -6 213q-2 27 -19 27h-112q-25 0 -25 33q0 29 23 28h102q27 0 27 12q0 2 -4.5 69t-7.5 173.5t-3 206.5q0 154 103.5 249t244.5 95q98 0 170 -44t72 -122q0 -37 -25.5 -63.5t-62.5 -26.5 q-39 0 -39 23q0 68 -29.5 121t-99.5 53q-61 0 -100 -28t-55.5 -86t-21.5 -111.5t-5 -141.5v-348q0 -20 4 -25.5t27 -5.5h247q25 0 25 -30.5t-25 -30.5h-260q-16 0 -18 -27q-10 -219 -72 -391q-4 -10 6 -4q74 35 158 35q57 0 181 -17.5t165 -17.5q100 0 101 70q0 18 -45.5 56 t-45.5 48q0 16 25 44t49 28q33 0 65.5 -36t32.5 -83q0 -92 -73.5 -161t-161.5 -69q-66 0 -266.5 14.5t-210.5 14.5q-16 0 -33 -45q0 -2 -7 -22.5t-10.5 -26.5t-11.5 -23.5t-14 -23.5t-17.5 -16.5t-24.5 -14.5t-30 -4q-25 0 -44 14t-19 41z" />
<glyph unicode="&#xa4;" horiz-adv-x="1011" d="M45 16.5q0 22.5 37 59.5l121 123q-70 98 -70 219t68 215l-119 123q-37 37 -37 59q0 25 16.5 40t38.5 15q27 0 62 -34l123 -123q94 70 215 69q123 0 217 -69l123 123q35 35 59.5 34.5t40.5 -16.5t16 -38.5t-36 -59.5l-123 -125q74 -104 73 -217q0 -115 -73 -213l123 -125 q37 -37 36 -60q0 -25 -17 -41t-39.5 -16t-59.5 37l-123 123q-98 -72 -217 -72q-123 0 -215 70l-123 -121q-35 -35 -62 -35q-25 0 -40 16.5t-15 39zM250 413.5q0 -104.5 73.5 -178t176 -73.5t177.5 74.5t75 179t-75 181.5t-177 77q-104 0 -177 -78t-73 -182.5z" />
<glyph unicode="&#xa5;" horiz-adv-x="1222" d="M14 1339.5q0 24.5 7.5 30.5t29.5 6q2 0 74 -3t143 -3q68 0 152 3t90 3q16 0 22.5 -8t6.5 -35q0 -20 -6.5 -25t-30.5 -5h-121h-15.5t-6.5 -4.5t0 -6.5l6 -12q18 -47 75.5 -156.5t128 -239.5t86.5 -163q14 -27 19 -27q4 0 14 21q285 549 285 581q0 6 -4 7h-107q-27 0 -35 5 t-8 25q0 27 7.5 35t27.5 8q4 0 56.5 -3t103.5 -3t98 3t57 3q23 0 31 -7t8 -30q0 -25 -9 -30.5t-30 -5.5h-69q-4 0 -54.5 -87.5t-136.5 -238t-123 -215.5h295q12 0 12.5 -31t-12.5 -31h-331l-25 -41q-6 -8 -6 -18v-129h362q12 0 12.5 -30.5t-12.5 -30.5h-362q4 -389 18 -390 h142q18 0 23 -7t5 -25q0 -25 -5 -33t-23 -8q-14 0 -95.5 3t-150.5 3q-51 0 -139 -3t-95 -3q-20 0 -25 8t-5 35q0 20 7 25t32 5h104q20 0 20 390h-354q-12 0 -12 32q0 29 12 29h354v43q0 20 -14 45l-55 100h-285q-12 0 -12 33q0 29 12 29h250q-301 541 -317 541h-60 q-20 0 -28.5 6t-8.5 30.5z" />
<glyph unicode="&#xa6;" horiz-adv-x="505" d="M199 -383v770q0 35 28 35h52q29 0 28 -35v-770q0 -18 -1 -26.5t-8 -16.5t-22 -8h-43q-25 0 -29.5 9t-4.5 42zM199 776v752q0 39 43 39h14q23 0 32 -2t14 -11.5t5 -27.5v-750q0 -27 -8 -36t-27 -9h-36q-23 0 -30 8t-7 37z" />
<glyph unicode="&#xa7;" horiz-adv-x="780" d="M76 635q0 139 143 246q12 8 -4 28q-92 127 -92 230q0 111 71.5 182.5t190.5 71.5q88 0 164 -23.5t76 -75.5q0 -63 -82 -63q-49 0 -117 33.5t-121 33.5q-98 0 -98 -81q0 -47 51 -127t124 -174.5t146.5 -198t125 -223t51.5 -224.5q0 -33 -8.5 -60.5t-29 -50t-31.5 -33.5 t-39 -30.5t-30 -21.5q-16 -14 -16 -21q0 -4 12 -26q86 -156 86 -236q0 -117 -82 -188.5t-223 -71.5q-217 0 -217 96q0 23 19.5 38.5t43.5 15.5q16 0 91 -27q70 -25 145 -25q141 0 141 101q0 49 -76.5 160.5t-169 226t-169 261t-76.5 257.5zM168 731q0 -158 338 -620 q12 -16 16 -17q6 0 25 17q63 59 63 98q0 35 -14 83t-43 103.5t-56.5 103.5t-68.5 108.5t-64.5 94t-59.5 83t-40 53.5q-10 12 -13 13t-15 -9q-68 -52 -68 -111z" />
<glyph unicode="&#xa8;" horiz-adv-x="819" d="M135 1092q0 53 42 85.5t87 32.5q39 0 65.5 -21.5t26.5 -66.5q0 -53 -41 -87t-90 -34q-37 0 -63.5 24t-26.5 67zM463 1092q0 53 42 85.5t87 32.5q39 0 65.5 -21.5t26.5 -66.5q0 -53 -41 -87t-90 -34q-37 0 -63.5 24t-26.5 67z" />
<glyph unicode="&#xa9;" horiz-adv-x="1726" d="M104 387.5q0 321.5 218.5 544.5t537.5 223q322 0 539 -222t217 -546q0 -322 -218 -545t-537.5 -223t-538 223.5t-218.5 545zM186 387q0 -287 194.5 -488.5t479.5 -201.5t479.5 201.5t194.5 488.5t-194.5 488.5t-479.5 201.5t-479.5 -201.5t-194.5 -488.5zM395 412 q0 205 135.5 330.5t339.5 125.5q29 0 56.5 -3t49 -9t44 -14t37 -14.5t31 -16.5t24.5 -15t19.5 -13.5t13.5 -10.5q12 -10 12 2v39q0 18 37 18q31 0 31 -18q0 -4 -1 -55t-2 -112.5t-1 -92.5q0 -25 -27 -25q-43 0 -43 17q0 2 3 57t3 61.5t-14.5 22.5t-42 37.5t-62 42t-83 35 t-95.5 14.5q-139 0 -229 -115.5t-90 -291.5q0 -164 104.5 -280t253.5 -116q88 0 155.5 25.5t99.5 51.5t34 26q6 0 18.5 -19.5t12.5 -25.5q0 -14 -38 -43t-126 -58.5t-193 -29.5q-197 0 -332 123t-135 350z" />
<glyph unicode="&#xaa;" horiz-adv-x="720" d="M66 834q0 72 65.5 128t145 82.5t178.5 42.5q6 0 6 9v10q0 43 -1 67.5t-8.5 57.5t-20.5 50t-39.5 29.5t-65.5 12.5q-29 0 -47 -8q-31 -12 -39.5 -30.5t-10.5 -70.5q0 -33 -14 -40q-68 -43 -100 -44q-23 0 -23 31q0 98 87 159.5t183 61.5q127 0 179.5 -56t52.5 -163 q0 -47 -5 -184t-5 -150q0 -41 30 -43l29 21q29 18 35 18q8 0 17.5 -11t9.5 -21q0 -6 -18.5 -21.5t-53.5 -41t-41 -30.5q-31 -20 -49 -20q-53 0 -74 100q-2 0 -11 -8t-16 -12q-115 -74 -200 -74q-82 0 -129 40t-47 108zM207 883q0 -41 27.5 -73t74.5 -32q41 0 90.5 15.5 t61.5 25.5v211l-2 12q-23 0 -101 -24q-151 -47 -151 -135z" />
<glyph unicode="&#xab;" horiz-adv-x="835" d="M96 395q0 8 13.5 22.5t49.5 46.5t52 48q31 29 74 71t66.5 65.5t27.5 23.5t19.5 -14.5t15.5 -16.5q0 -8 -64.5 -121.5t-64.5 -124t64.5 -123t64.5 -122.5q0 -6 -15.5 -18.5t-19.5 -12.5t-27.5 23.5t-66.5 65.5t-74 71q-12 12 -32.5 30.5t-33 29.5t-24.5 23.5t-18.5 20.5 t-6.5 12zM403 395q0 8 13.5 22.5t49.5 46.5t52 48q31 29 74 71t66.5 65.5t27.5 23.5t19.5 -14.5t15.5 -16.5q0 -8 -64.5 -121.5t-64.5 -124t64.5 -123t64.5 -122.5q0 -6 -15.5 -18.5t-19.5 -12.5t-27.5 23.5t-66.5 65.5t-74 71q-12 12 -32.5 30.5t-33 29.5t-24.5 23.5 t-18.5 20.5t-6.5 12z" />
<glyph unicode="&#xac;" horiz-adv-x="1079" d="M57 440q0 41 45 41h875q29 0 38 -9t9 -36v-323q0 -37 -39 -37q-23 0 -35 2t-21 13t-9 32v227q0 29 -48 29h-770q-29 0 -37 13t-8 48z" />
<glyph unicode="&#xad;" horiz-adv-x="528" d="M43 412q0 14 13.5 50t25.5 38q14 2 192.5 8t190.5 6q8 0 8 -18q0 -78 -20 -80q-229 -16 -396 -17q-14 1 -14 13z" />
<glyph unicode="&#xae;" horiz-adv-x="1097" d="M45 963q0 215 144.5 363.5t359.5 148.5t359.5 -147.5t144.5 -364.5q0 -215 -144.5 -363.5t-359.5 -148.5t-359.5 148.5t-144.5 363.5zM109 962.5q0 -188.5 126.5 -320.5t313 -132t313.5 132t127 320.5t-127 320.5t-313.5 132t-313 -132t-126.5 -320.5zM285 1286 q0 16 6 20.5t18 4.5q6 0 50 -1t58.5 -1t71 3t66.5 3q213 0 213 -170q0 -94 -121 -158q147 -51 154 -221q2 -25 4 -47v-4h45q16 0 16 -31q0 -18 -22 -18l-127 2q-20 0 -21 20v55q0 96 -22.5 149.5t-102.5 63.5q-31 4 -106 5h-4q0 -176 8 -246h53q16 0 17 -21q0 -29 -17 -28 q-10 0 -51 1t-55.5 1t-53 -1t-40.5 -1q-20 0 -21 28q0 20 25 21h36q4 41 5 112v123q0 268 -9 312l-49 -2q-24 -1 -24 26zM461 1004h4q25 0 69 -1.5t58 -1.5q76 39 76 132q0 61 -48.5 99t-113.5 38q-6 0 -20.5 -1t-22.5 -1q-2 -10 -2 -41v-223z" />
<glyph unicode="&#xaf;" horiz-adv-x="819" d="M195 1061v47q0 14 2 18t14 4h395q18 0 19 -20v-51q0 -10 -1 -14.5t-4.5 -6.5t-13.5 -2h-395q-16 0 -16 25z" />
<glyph unicode="&#xb0;" horiz-adv-x="524" d="M76 1095.5q0 75.5 54 131t132 55.5t132.5 -55.5t54.5 -131t-54.5 -131t-132.5 -55.5t-132 55.5t-54 131zM152 1096q0 -47 32.5 -79t77.5 -32t78 32t33 79t-33 78.5t-78 31.5t-77.5 -31.5t-32.5 -78.5z" />
<glyph unicode="&#xb1;" horiz-adv-x="1079" d="M57 184q0 33 7.5 47.5t35.5 14.5h879q25 0 34 -10.5t9 -37t-9 -41t-40 -14.5h-875q-41 0 -41 41zM57 664q0 51 43 51h371q12 0 14 3t2 11v285q0 37 39 37q37 0 50.5 -8.5t13.5 -32.5v-279q0 -16 18 -16h375q39 0 39 -37t-8 -52.5t-41 -15.5h-365q-18 0 -18 -28v-271 q0 -35 -39 -35q-35 0 -49.5 6.5t-14.5 28.5v271v15t-2 8t-8 5h-16h-363q-18 0 -27.5 8.5t-11.5 18t-2 27.5z" />
<glyph unicode="&#xb2;" horiz-adv-x="737" d="M76 1374q0 18 33.5 61.5t102.5 86.5t142 43q119 0 181.5 -79t62.5 -167q0 -211 -330 -453q-18 -12 -41 -41h363q2 16 12 101q0 20 27 16q29 0 28 -16q0 -4 -5 -41t-12 -86t-9 -72q-2 -16 -31 -16h-471q-33 0 -33 24q0 14 41 78t51 72q4 4 30 25.5t38 32.5t40 36t43 44 t39.5 47t38 53.5t28 55t21.5 61.5t7 63q0 66 -39 114.5t-106 48.5q-57 0 -106.5 -30.5t-77 -62.5t-35.5 -32q-10 0 -21.5 10.5t-11.5 22.5z" />
<glyph unicode="&#xb3;" horiz-adv-x="737" d="M127 754q0 31 20.5 48t51.5 17q27 0 61 -14q14 -6 53 -27.5t56 -21.5q63 0 110 51t47 127q0 156 -145 156q-25 0 -85 -4.5t-65 -4.5q-33 0 -32 49q0 23 39 33q129 27 177 66t48 127q0 63 -34 96t-89 33q-63 0 -115.5 -34t-56.5 -34q-12 0 -22.5 10.5t-10.5 22.5 q0 27 70.5 71t152.5 44q100 0 167 -53.5t67 -135.5q0 -80 -52.5 -127t-140.5 -82q111 -8 181.5 -61t70.5 -143q0 -117 -98 -193t-215 -76q-74 0 -142.5 13.5t-68.5 46.5z" />
<glyph unicode="&#xb4;" horiz-adv-x="819" d="M373 924q0 6 4 14l100 266q20 55 68 56q37 0 58.5 -19.5t21.5 -48.5q0 -23 -17 -45l-168 -219q-10 -14 -20 -15h-33q-14 1 -14 11z" />
<glyph unicode="&#xb5;" horiz-adv-x="1042" d="M45 -279q0 86 17.5 175.5t53.5 217.5t52 205q37 164 58.5 252t37 135.5t23.5 58.5t20 11q86 0 86 -41q0 -16 -19.5 -84.5t-46 -178.5t-38.5 -210q-6 -74 -6 -88q0 -90 53 -90q90 0 208 190.5t201 401.5q37 96 48 100q2 2 6 2q29 0 58.5 -9t29.5 -28q0 -6 -51.5 -275 t-51.5 -323q0 -20 14.5 -33.5t30.5 -13.5q39 0 74 68.5t51 68.5q23 0 23 -32q0 -70 -77 -156t-175 -86q-76 0 -76 137q0 49 16.5 164t16.5 117q0 6 -4 0q-45 -76 -111 -172q-2 -4 -31.5 -47t-40 -57.5t-41 -48.5t-52 -48t-55.5 -27.5t-68 -13.5q-61 0 -95 107q-8 27 -14 0 q-31 -135 -31 -232q0 -37 24.5 -94t24.5 -63q0 -16 -16 -39t-51 -23q-31 0 -53.5 26.5t-22.5 75.5z" />
<glyph unicode="&#xb6;" horiz-adv-x="1007" d="M76 854q0 123 49 218t126 147.5t155.5 79t152.5 26.5q18 0 24.5 -6t6.5 -23v-964q0 -23 -17 -23q-61 0 -140 30t-162 89t-139 171t-56 255zM567 -420q0 23 23 23h123q12 0 14 1t2 9v1706q0 18 5 22.5t20 4.5h155q23 0 23 -29v-29q0 -14 -3 -19t-20 -5h-102q-8 0 -9 -2 t-1 -13v-1708q0 -16 -3 -18t-24 -2h-180q-23 0 -23 22v37z" />
<glyph unicode="&#xb7;" horiz-adv-x="301" d="M45 682q0 53 42 86t87 33q39 0 65.5 -21.5t26.5 -66.5q0 -53 -41 -87t-90 -34q-37 0 -63.5 23.5t-26.5 66.5z" />
<glyph unicode="&#xb8;" horiz-adv-x="819" d="M233 -401q0 20 21 20q4 0 21.5 -8t45 -15.5t58.5 -7.5q70 0 99.5 26t29.5 83q0 86 -107 86q-23 0 -48 -9.5t-27 -9.5q-4 0 -13.5 6.5t-9.5 10.5q0 20 84 219h47l-49 -135q-2 -6 2 -6q2 0 12 2q25 6 54 6q84 0 132 -45t48 -101q0 -74 -62.5 -134t-160.5 -60 q-111 0 -170 53q-7 7 -7 19z" />
<glyph unicode="&#xb9;" horiz-adv-x="737" d="M188 745q0 27 35 27h117q2 25 2 96v289q0 319 -8 320q-2 0 -60.5 -3.5t-62.5 -3.5q-23 0 -23 19v24q0 18 29 19q57 2 101 6t68 6t38 5t20.5 4t8.5 1q14 0 17 -6t3 -28q0 -133 -1 -361.5t-1 -347.5v-39h86q20 0 21 -27q0 -39 -23 -38q-2 0 -48 2t-97 2q-55 0 -119 -2 t-74 -2q-29 -1 -29 38z" />
<glyph unicode="&#xba;" horiz-adv-x="786" d="M55 1018q0 152 100.5 255t258.5 103q139 0 228 -97t89 -239q0 -158 -92 -257t-252 -99q-141 0 -236.5 97.5t-95.5 236.5zM199 995q0 -98 51 -175t137 -77q197 0 197 310q0 106 -49.5 185t-141.5 79q-194 0 -194 -322z" />
<glyph unicode="&#xbb;" horiz-adv-x="835" d="M115 150q0 8 64.5 121.5t64.5 124t-64.5 123t-64.5 122.5q0 6 15 18.5t19.5 12.5t28 -23.5t66.5 -65.5t73 -71q12 -12 33 -30.5t33 -30t24.5 -23.5t18.5 -20.5t6 -12.5q0 -8 -13 -22.5t-49 -46t-53 -47.5q-31 -29 -73.5 -71t-66 -65.5t-28 -23.5t-19.5 14.5t-15 16.5z M422 150q0 8 64.5 121.5t64.5 124t-64.5 123t-64.5 122.5q0 6 15.5 18.5t19.5 12.5t27.5 -23.5t66.5 -65.5t74 -71q12 -12 32.5 -30.5t32.5 -30t24.5 -23.5t18.5 -20.5t6 -12.5q0 -8 -13 -22.5t-49 -46t-52 -47.5q-31 -29 -74 -71t-66.5 -65.5t-27.5 -23.5t-19.5 14.5 t-15.5 16.5z" />
<glyph unicode="&#xbc;" horiz-adv-x="1585" d="M188 541q0 27 35 26h117q2 25 2 97v288q0 319 -8 320q-2 0 -60.5 -3t-62.5 -3q-23 0 -23 18v25q0 18 29 18q57 2 101 6t68 6t38 5.5t20.5 4.5t8.5 1q14 0 17 -6.5t3 -28.5q0 -133 -1 -361.5t-1 -347.5v-39h86q20 0 21 -26q0 -39 -23 -39q-2 0 -48 2t-97 2q-55 0 -119 -2 t-74 -2q-29 0 -29 39zM399 -20l13 24l837 1348q2 2 4 6l3 6t5.5 4t8.5 3t12 2t18 1q47 0 48 -12l-9 -16l-839 -1352q-12 -20 -19.5 -23.5t-34.5 -3.5q-47 1 -47 13zM913 283q0 43 23 82q90 158 307 391q14 16 55 45l25.5 25.5t24 21.5t18.5 6q33 0 33 -51v-434q0 -8 8 -9 h104q20 0 21 -26v-45q0 -27 -31 -27h-94q-6 0 -6 -6v-252q0 -23 -19 -22l-88 -9q-18 0 -18 23l6 256q0 8 -2 9t-12 1h-314q-41 1 -41 21zM1008 360h266q8 0 8 11v340q-49 -53 -145 -174.5t-129 -176.5z" />
<glyph unicode="&#xbd;" horiz-adv-x="1728" d="M188 541q0 27 35 26h117q2 25 2 97v288q0 319 -8 320q-2 0 -60.5 -3t-62.5 -3q-23 0 -23 18v25q0 18 29 18q57 2 101 6t68 6t38 5.5t20.5 4.5t8.5 1q14 0 17 -6.5t3 -28.5q0 -133 -1 -361.5t-1 -347.5v-39h86q20 0 21 -26q0 -39 -23 -39q-2 0 -48 2t-97 2q-55 0 -119 -2 t-74 -2q-29 0 -29 39zM399 -20l13 24l837 1348q2 2 4 6l3 6t5.5 4t8.5 3t12 2t18 1q47 0 48 -12l-9 -16l-839 -1352q-12 -20 -19.5 -23.5t-34.5 -3.5q-47 1 -47 13zM1067 657q0 18 34 61.5t102.5 86.5t142.5 43q119 0 181 -79t62 -167q0 -211 -329 -452q-18 -12 -41 -41h362 q2 16 12 100q0 20 27 16q29 0 29 -16q0 -4 -5.5 -41t-12.5 -86t-9 -72q-2 -16 -31 -16h-471q-33 0 -33 24q0 14 41 78t52 72q4 4 29.5 25.5t38 33t40 36t43 44t40 47t37.5 53t27.5 55.5t21.5 61.5t7 62.5q0 66 -39 115t-106 49q-57 0 -106.5 -31t-77 -62.5t-35.5 -31.5 q-10 0 -21.5 10t-11.5 22z" />
<glyph unicode="&#xbe;" horiz-adv-x="1585" d="M127 549q0 31 20.5 48t51.5 17q27 0 61 -14q14 -6 53 -27.5t56 -21.5q63 0 110 51t47 127q0 156 -145 156q-25 0 -85 -4t-65 -4q-33 0 -32 49q0 23 39 32q129 27 177 66t48 127q0 63 -34 96t-89 33q-63 0 -115.5 -34t-56.5 -34q-12 0 -22.5 10.5t-10.5 22.5q0 27 70.5 71 t152.5 44q100 0 167 -53.5t67 -135.5q0 -80 -52.5 -127t-140.5 -81q111 -8 181.5 -61.5t70.5 -143.5q0 -117 -98 -193t-215 -76q-74 0 -142.5 13.5t-68.5 46.5zM399 -20l13 24l837 1348q2 2 4 6l3 6t5.5 4t8.5 3t12 2t18 1q47 0 48 -12l-9 -16l-839 -1352 q-12 -20 -19.5 -23.5t-34.5 -3.5q-47 1 -47 13zM913 283q0 43 23 82q90 158 307 391q14 16 55 45l25.5 25.5t24 21.5t18.5 6q33 0 33 -51v-434q0 -8 8 -9h104q20 0 21 -26v-45q0 -27 -31 -27h-94q-6 0 -6 -6v-252q0 -23 -19 -22l-88 -9q-18 0 -18 23l6 256q0 8 -2 9t-12 1 h-314q-41 1 -41 21zM1008 360h266q8 0 8 11v340q-49 -53 -145 -174.5t-129 -176.5z" />
<glyph unicode="&#xbf;" horiz-adv-x="745" d="M55 492q0 362 285 362q29 0 36 4t9 25q14 143 16 190q0 12 5.5 15.5t25.5 3.5q27 0 33 -5.5t6 -27.5q0 -262 -4 -320q-2 -27 -14.5 -35t-42.5 -8h-123q-57 0 -94 -16t-52.5 -46t-20.5 -54.5t-5 -57.5q0 -145 115.5 -245.5t344.5 -129.5q2 0 12.5 -1t13.5 -2t10 -4 t10.5 -6t5.5 -9t2 -14v-93q0 -41 -25 -41q-16 0 -26.5 26t-12.5 26q-49 8 -76.5 13t-88 22.5t-99.5 37t-90 55.5t-82 80t-52.5 109.5t-21.5 145.5zM336 1247q0 45 33.5 85t58.5 40q43 0 85 -36t42 -64q0 -35 -34 -81t-62 -46q-35 0 -79 31.5t-44 70.5z" />
<glyph unicode="&#xc0;" horiz-adv-x="1429" d="M55 31q0 20 6.5 25t30.5 5h62q12 0 295 674l217 504q8 20 34.5 54t38.5 61q27 59 45 59q20 0 25 -18l246 -690q231 -643 245 -644h72q14 0 18.5 -6t4.5 -26q0 -25 -4.5 -33t-18.5 -8q-12 0 -83.5 3t-106.5 3q-33 0 -123 -3t-113 -3q-18 0 -22 8t-4 35q0 23 5 26.5t29 3.5 h113q2 0 2 2q0 59 -143 459q-6 18 -8.5 24.5t-7.5 8.5t-15 2h-414q-23 0 -29 -5t-14 -28q-164 -412 -166 -461l2 -2h158q16 0 20.5 -6t4.5 -26q0 -18 -1 -25.5t-6.5 -11.5t-17.5 -4q-2 0 -70.5 3t-121.5 3q-49 0 -100.5 -3t-55.5 -3q-20 0 -24.5 7t-4.5 36zM479 625 q0 -6 27 -7h366q18 0 19 9q0 4 -6 20l-170 498q-8 25 -10 24q-4 0 -15 -24l-201 -492q-10 -24 -10 -28zM530 1683q0 25 17.5 41.5t50.5 16.5q41 0 76 -53l108 -177l9 -16q0 -8 -19 -8h-43q-2 0 -5 3t-8 6t-7 5l-148 123q-31 24 -31 59z" />
<glyph unicode="&#xc1;" horiz-adv-x="1429" d="M55 31q0 20 6.5 25t30.5 5h62q12 0 295 674l217 504q8 20 34.5 54t38.5 61q27 59 45 59q20 0 25 -18l246 -690q231 -643 245 -644h72q14 0 18.5 -6t4.5 -26q0 -25 -4.5 -33t-18.5 -8q-12 0 -83.5 3t-106.5 3q-33 0 -123 -3t-113 -3q-18 0 -22 8t-4 35q0 23 5 26.5t29 3.5 h113q2 0 2 2q0 59 -143 459q-6 18 -8.5 24.5t-7.5 8.5t-15 2h-414q-23 0 -29 -5t-14 -28q-164 -412 -166 -461l2 -2h158q16 0 20.5 -6t4.5 -26q0 -18 -1 -25.5t-6.5 -11.5t-17.5 -4q-2 0 -70.5 3t-121.5 3q-49 0 -100.5 -3t-55.5 -3q-20 0 -24.5 7t-4.5 36zM479 625 q0 -6 27 -7h366q18 0 19 9q0 4 -6 20l-170 498q-8 25 -10 24q-4 0 -15 -24l-201 -492q-10 -24 -10 -28zM729 1493q0 2 8 18l109 177q35 53 76 53q33 0 50 -16.5t17 -41.5q0 -33 -31 -59l-147 -123l-8 -6q-6 -8 -12 -8h-50q-12 0 -12 6z" />
<glyph unicode="&#xc2;" horiz-adv-x="1429" d="M55 31q0 20 6.5 25t30.5 5h62q12 0 295 674l217 504q8 20 34.5 54t38.5 61q27 59 45 59q20 0 25 -18l246 -690q231 -643 245 -644h72q14 0 18.5 -6t4.5 -26q0 -25 -4.5 -33t-18.5 -8q-12 0 -83.5 3t-106.5 3q-33 0 -123 -3t-113 -3q-18 0 -22 8t-4 35q0 23 5 26.5t29 3.5 h113q2 0 2 2q0 59 -143 459q-6 18 -8.5 24.5t-7.5 8.5t-15 2h-414q-23 0 -29 -5t-14 -28q-164 -412 -166 -461l2 -2h158q16 0 20.5 -6t4.5 -26q0 -18 -1 -25.5t-6.5 -11.5t-17.5 -4q-2 0 -70.5 3t-121.5 3q-49 0 -100.5 -3t-55.5 -3q-20 0 -24.5 7t-4.5 36zM479 625 q0 -6 27 -7h366q18 0 19 9q0 4 -6 20l-170 498q-8 25 -10 24q-4 0 -15 -24l-201 -492q-10 -24 -10 -28zM524 1495l13 18l161 183q27 29 37 28h49q14 0 37 -28l162 -183q12 -12 12 -18q0 -8 -14 -8h-25q-6 0 -26 12l-164 92q-6 2 -12 0l-164 -92q-20 -12 -27 -12h-24 q-15 0 -15 8z" />
<glyph unicode="&#xc3;" horiz-adv-x="1429" d="M55 31q0 20 6.5 25t30.5 5h62q12 0 295 674l217 504q8 20 34.5 54t38.5 61q27 59 45 59q20 0 25 -18l246 -690q231 -643 245 -644h72q14 0 18.5 -6t4.5 -26q0 -25 -4.5 -33t-18.5 -8q-12 0 -83.5 3t-106.5 3q-33 0 -123 -3t-113 -3q-18 0 -22 8t-4 35q0 23 5 26.5t29 3.5 h113q2 0 2 2q0 59 -143 459q-6 18 -8.5 24.5t-7.5 8.5t-15 2h-414q-23 0 -29 -5t-14 -28q-164 -412 -166 -461l2 -2h158q16 0 20.5 -6t4.5 -26q0 -18 -1 -25.5t-6.5 -11.5t-17.5 -4q-2 0 -70.5 3t-121.5 3q-49 0 -100.5 -3t-55.5 -3q-20 0 -24.5 7t-4.5 36zM479 625 q0 -6 27 -7h366q18 0 19 9q0 4 -6 20l-170 498q-8 25 -10 24q-4 0 -15 -24l-201 -492q-10 -24 -10 -28zM539 1532q0 16 16 55q23 57 56.5 87t64.5 30q37 0 97.5 -39t82.5 -39q49 0 70 68q4 14 6 16t16 2q27 0 27 -8q0 -20 -14 -59q-47 -123 -130 -123q-39 0 -95 37.5 t-85 37.5q-45 0 -65 -59q-2 -10 -3 -11t-6.5 -3t-17.5 -2q-20 0 -20 10z" />
<glyph unicode="&#xc4;" horiz-adv-x="1429" d="M55 31q0 20 6.5 25t30.5 5h62q12 0 295 674l217 504q8 20 34.5 54t38.5 61q27 59 45 59q20 0 25 -18l246 -690q231 -643 245 -644h72q14 0 18.5 -6t4.5 -26q0 -25 -4.5 -33t-18.5 -8q-12 0 -83.5 3t-106.5 3q-33 0 -123 -3t-113 -3q-18 0 -22 8t-4 35q0 23 5 26.5t29 3.5 h113q2 0 2 2q0 59 -143 459q-6 18 -8.5 24.5t-7.5 8.5t-15 2h-414q-23 0 -29 -5t-14 -28q-164 -412 -166 -461l2 -2h158q16 0 20.5 -6t4.5 -26q0 -18 -1 -25.5t-6.5 -11.5t-17.5 -4q-2 0 -70.5 3t-121.5 3q-49 0 -100.5 -3t-55.5 -3q-20 0 -24.5 7t-4.5 36zM479 625 q0 -6 27 -7h366q18 0 19 9q0 4 -6 20l-170 498q-8 25 -10 24q-4 0 -15 -24l-201 -492q-10 -24 -10 -28zM485 1604q0 53 42 85.5t87 32.5q39 0 66 -21.5t27 -66.5q0 -53 -41 -87t-91 -34q-37 0 -63.5 24t-26.5 67zM813 1604q0 53 42 85.5t87 32.5q39 0 65.5 -21.5t26.5 -66.5 q0 -53 -41 -87t-90 -34q-37 0 -63.5 24t-26.5 67z" />
<glyph unicode="&#xc5;" horiz-adv-x="1429" d="M55 31q0 20 6.5 25t30.5 5h62q12 0 295 674l217 504q8 20 34.5 54t38.5 61q27 59 45 59q20 0 25 -18l246 -690q231 -643 245 -644h72q14 0 18.5 -6t4.5 -26q0 -25 -4.5 -33t-18.5 -8q-12 0 -83.5 3t-106.5 3q-33 0 -123 -3t-113 -3q-18 0 -22 8t-4 35q0 23 5 26.5t29 3.5 h113q2 0 2 2q0 59 -143 459q-6 18 -8.5 24.5t-7.5 8.5t-15 2h-414q-23 0 -29 -5t-14 -28q-164 -412 -166 -461l2 -2h158q16 0 20.5 -6t4.5 -26q0 -18 -1 -25.5t-6.5 -11.5t-17.5 -4q-2 0 -70.5 3t-121.5 3q-49 0 -100.5 -3t-55.5 -3q-20 0 -24.5 7t-4.5 36zM479 625 q0 -6 27 -7h366q18 0 19 9q0 4 -6 20l-170 498q-8 25 -10 24q-4 0 -15 -24l-201 -492q-10 -24 -10 -28zM608 1607.5q0 63.5 44 107.5t107.5 44t107.5 -44t44 -107.5t-44 -107.5t-107.5 -44t-107.5 44t-44 107.5zM678 1607.5q0 -34.5 23.5 -58t58.5 -23.5t58.5 23.5t23.5 58 t-23.5 58.5t-58.5 24t-58.5 -24t-23.5 -58.5z" />
<glyph unicode="&#xc6;" horiz-adv-x="1992" d="M35 31q0 20 8 25t35 5h57q6 0 23.5 24t48.5 74t62.5 101t81.5 136t91 151l453 737q6 12 -10 12h-103q-14 0 -18 7.5t-4 29.5q0 35 22 35l39 -2q39 -2 113 -3t162 -1q59 0 266 3t250 3q96 0 109.5 2t15.5 19q2 14 4 18t8 8t20 4q25 0 33 -5t8 -23q0 -4 -4 -90.5t-4 -180.5 q0 -14 -8 -18t-31 -4q-37 0 -37 30q0 2 3.5 72t3.5 86q0 14 -547 14q-12 0 -12 -256q0 -86 4 -290q0 -18 3 -22.5t15 -4.5h342q106 0 107 27v106q0 20 41 21q35 0 34 -19q0 -2 -2 -61.5t-2 -102.5t2 -104.5t2 -69.5q0 -18 -32 -18q-43 0 -43 20v103q0 31 -107 30h-334h-6 q-12 0 -16 -3t-4 -21q12 -559 22 -559q96 0 246.5 1t263.5 3t117 2q10 0 13 6t5 31v4q2 27 6 182q0 18 35 19q41 0 41 -21q0 -57 -3 -159.5t-3 -127.5q0 -29 -41 -28q-23 0 -379 3t-389 3t-132 -3t-122 -3q-20 0 -24.5 7t-4.5 36q0 20 6.5 25t30.5 5h129q8 0 9 148v323 q0 16 -11.5 20.5t-44.5 4.5h-407q-10 0 -145.5 -239.5t-135.5 -254.5l2 -2h131q18 0 23.5 -7t5.5 -25q0 -25 -5 -33t-24 -8q-23 0 -84 3t-94 3q-37 0 -94.5 -3t-59.5 -3q-18 0 -22 8t-4 35zM578 629q0 -10 26 -11h346q39 0 46.5 5.5t7.5 29.5v271q0 373 -17 372h-8 q-6 0 -16 -16l-373 -627q-12 -20 -12 -24z" />
<glyph unicode="&#xc7;" horiz-adv-x="1497" d="M86 686q0 319 210 516t527 197q43 0 87 -5t77 -13.5t69 -21.5t57.5 -23.5t49 -27t38.5 -23.5t32 -21l18 -15q25 -18 25 2v56q0 20 7 26t30 6q47 0 47 -32q0 -10 -4 -177t-4 -229q0 -18 -8.5 -23.5t-30.5 -5.5q-29 0 -37 5.5t-8 21.5q0 2 4 90t4 98q0 16 -57.5 70.5 t-173 111t-236.5 56.5q-219 0 -360.5 -182t-141.5 -461q0 -258 164 -443.5t397 -185.5q104 0 200.5 31t144 60.5t49.5 41.5l26 238q6 31 29 31q2 0 10 -1t12 -1q31 -2 31 -23q0 -29 -33 -283q-4 -25 -76.5 -66.5t-196.5 -79.5t-243 -40l-35 -96q-2 -6 2 -6q2 0 13 2 q25 6 53 6q84 0 132 -45t48 -101q0 -74 -62.5 -134t-160.5 -60q-111 0 -170 53q-6 6 -6 19q0 20 20 20q4 0 21.5 -8t45.5 -15.5t58 -7.5q70 0 99.5 26t29.5 83q0 86 -106 86q-23 0 -48.5 -9.5t-27.5 -9.5q-4 0 -13 6.5t-9 10.5q0 8 67 180q-295 12 -490.5 197.5 t-195.5 527.5z" />
<glyph unicode="&#xc8;" horiz-adv-x="1239" d="M76 31q0 20 8 25t33 5h125q8 0 8 148v197q0 63 -1 147t-2 159.5t-2 142.5t-2 109t-1 44q0 66 -3 134t-7.5 111t-8.5 43h-96q-20 0 -27.5 6.5t-7.5 30.5q0 35 27 35l90 -4q90 -2 133 -2q59 0 266 3t250 3q96 0 109.5 2t15.5 19q2 14 4 18t8 8t21 4q25 0 33 -5t8 -23 q0 -4 -4 -90.5t-4 -180.5q0 -14 -8.5 -18t-30.5 -4q-37 0 -37 30q0 2 3 72t3 86q0 14 -547 14q-12 0 -12 -256q0 -86 4 -290q0 -18 3 -22.5t15 -4.5h342q106 0 107 27v106q0 20 41 21q35 0 35 -19q0 -2 -2 -61.5t-2 -102.5t2 -104.5t2 -69.5q0 -18 -33 -18q-43 0 -43 20v103 q0 31 -107 30h-333h-7q-12 0 -16 -3t-4 -21q12 -559 22 -559q96 0 247 1t263.5 3t116.5 2q10 0 13.5 6t5.5 31v4q2 27 6 182q0 18 35 19q41 0 41 -21q0 -57 -3.5 -159.5t-3.5 -127.5q0 -29 -41 -28q-23 0 -379 3t-388.5 3t-130 -3t-119.5 -3q-20 0 -26.5 8t-6.5 35z M418 1683q0 25 17.5 41.5t49.5 16.5q41 0 76 -53l109 -177l8 -16q0 -8 -19 -8h-43q-2 0 -5 3t-8 6t-7 5l-147 123q-31 24 -31 59z" />
<glyph unicode="&#xc9;" horiz-adv-x="1239" d="M76 31q0 20 8 25t33 5h125q8 0 8 148v197q0 63 -1 147t-2 159.5t-2 142.5t-2 109t-1 44q0 66 -3 134t-7.5 111t-8.5 43h-96q-20 0 -27.5 6.5t-7.5 30.5q0 35 27 35l90 -4q90 -2 133 -2q59 0 266 3t250 3q96 0 109.5 2t15.5 19q2 14 4 18t8 8t21 4q25 0 33 -5t8 -23 q0 -4 -4 -90.5t-4 -180.5q0 -14 -8.5 -18t-30.5 -4q-37 0 -37 30q0 2 3 72t3 86q0 14 -547 14q-12 0 -12 -256q0 -86 4 -290q0 -18 3 -22.5t15 -4.5h342q106 0 107 27v106q0 20 41 21q35 0 35 -19q0 -2 -2 -61.5t-2 -102.5t2 -104.5t2 -69.5q0 -18 -33 -18q-43 0 -43 20v103 q0 31 -107 30h-333h-7q-12 0 -16 -3t-4 -21q12 -559 22 -559q96 0 247 1t263.5 3t116.5 2q10 0 13.5 6t5.5 31v4q2 27 6 182q0 18 35 19q41 0 41 -21q0 -57 -3.5 -159.5t-3.5 -127.5q0 -29 -41 -28q-23 0 -379 3t-388.5 3t-130 -3t-119.5 -3q-20 0 -26.5 8t-6.5 35z M616 1493q0 2 9 18l108 177q35 53 76 53q33 0 50.5 -16.5t17.5 -41.5q0 -33 -31 -59l-148 -123l-6 -6q-8 -8 -14 -8h-49q-13 0 -13 6z" />
<glyph unicode="&#xca;" horiz-adv-x="1239" d="M76 31q0 20 8 25t33 5h125q8 0 8 148v197q0 63 -1 147t-2 159.5t-2 142.5t-2 109t-1 44q0 66 -3 134t-7.5 111t-8.5 43h-96q-20 0 -27.5 6.5t-7.5 30.5q0 35 27 35l90 -4q90 -2 133 -2q59 0 266 3t250 3q96 0 109.5 2t15.5 19q2 14 4 18t8 8t21 4q25 0 33 -5t8 -23 q0 -4 -4 -90.5t-4 -180.5q0 -14 -8.5 -18t-30.5 -4q-37 0 -37 30q0 2 3 72t3 86q0 14 -547 14q-12 0 -12 -256q0 -86 4 -290q0 -18 3 -22.5t15 -4.5h342q106 0 107 27v106q0 20 41 21q35 0 35 -19q0 -2 -2 -61.5t-2 -102.5t2 -104.5t2 -69.5q0 -18 -33 -18q-43 0 -43 20v103 q0 31 -107 30h-333h-7q-12 0 -16 -3t-4 -21q12 -559 22 -559q96 0 247 1t263.5 3t116.5 2q10 0 13.5 6t5.5 31v4q2 27 6 182q0 18 35 19q41 0 41 -21q0 -57 -3.5 -159.5t-3.5 -127.5q0 -29 -41 -28q-23 0 -379 3t-388.5 3t-130 -3t-119.5 -3q-20 0 -26.5 8t-6.5 35z M412 1495l12 18l162 183q27 29 37 28h49q14 0 37 -28l161 -183q12 -12 13 -18q0 -8 -15 -8h-24q-6 0 -27 12l-164 92q-6 2 -12 0l-164 -92q-20 -12 -26 -12h-25q-14 0 -14 8z" />
<glyph unicode="&#xcb;" horiz-adv-x="1239" d="M76 31q0 20 8 25t33 5h125q8 0 8 148v197q0 63 -1 147t-2 159.5t-2 142.5t-2 109t-1 44q0 66 -3 134t-7.5 111t-8.5 43h-96q-20 0 -27.5 6.5t-7.5 30.5q0 35 27 35l90 -4q90 -2 133 -2q59 0 266 3t250 3q96 0 109.5 2t15.5 19q2 14 4 18t8 8t21 4q25 0 33 -5t8 -23 q0 -4 -4 -90.5t-4 -180.5q0 -14 -8.5 -18t-30.5 -4q-37 0 -37 30q0 2 3 72t3 86q0 14 -547 14q-12 0 -12 -256q0 -86 4 -290q0 -18 3 -22.5t15 -4.5h342q106 0 107 27v106q0 20 41 21q35 0 35 -19q0 -2 -2 -61.5t-2 -102.5t2 -104.5t2 -69.5q0 -18 -33 -18q-43 0 -43 20v103 q0 31 -107 30h-333h-7q-12 0 -16 -3t-4 -21q12 -559 22 -559q96 0 247 1t263.5 3t116.5 2q10 0 13.5 6t5.5 31v4q2 27 6 182q0 18 35 19q41 0 41 -21q0 -57 -3.5 -159.5t-3.5 -127.5q0 -29 -41 -28q-23 0 -379 3t-388.5 3t-130 -3t-119.5 -3q-20 0 -26.5 8t-6.5 35z M373 1604q0 53 42 85.5t87 32.5q39 0 65.5 -21.5t26.5 -66.5q0 -53 -41 -87t-90 -34q-37 0 -63.5 24t-26.5 67zM700 1604q0 53 42 85.5t87 32.5q39 0 66 -21.5t27 -66.5q0 -53 -41 -87t-90 -34q-37 0 -64 24t-27 67z" />
<glyph unicode="&#xcc;" horiz-adv-x="681" d="M55 31q0 20 8.5 25t34.5 5h135q18 0 19 746v201q0 63 -3 133.5t-7 116t-6 45.5h-136q-20 0 -28.5 6t-8.5 30.5t7.5 30.5t29.5 6q6 0 96.5 -3t159.5 -3q53 0 139.5 3t102.5 3q18 0 23.5 -8t5.5 -35q0 -20 -6.5 -25t-30.5 -5h-133q-18 0 -19 -318v-276q0 -647 19 -648h141 q18 0 23.5 -7t5.5 -25q0 -25 -5.5 -33t-23.5 -8q-8 0 -99 3t-147 3q-59 0 -152.5 -3t-109.5 -3q-20 0 -27.5 8t-7.5 35zM115 1683q0 25 17.5 41.5t49.5 16.5q41 0 76 -53l109 -177l8 -16q0 -8 -19 -8h-43q-2 0 -5 3t-8 6t-7 5l-148 123q-30 24 -30 59z" />
<glyph unicode="&#xcd;" horiz-adv-x="681" d="M55 31q0 20 8.5 25t34.5 5h135q18 0 19 746v201q0 63 -3 133.5t-7 116t-6 45.5h-136q-20 0 -28.5 6t-8.5 30.5t7.5 30.5t29.5 6q6 0 96.5 -3t159.5 -3q53 0 139.5 3t102.5 3q18 0 23.5 -8t5.5 -35q0 -20 -6.5 -25t-30.5 -5h-133q-18 0 -19 -318v-276q0 -647 19 -648h141 q18 0 23.5 -7t5.5 -25q0 -25 -5.5 -33t-23.5 -8q-8 0 -99 3t-147 3q-59 0 -152.5 -3t-109.5 -3q-20 0 -27.5 8t-7.5 35zM313 1493q0 2 9 18l108 177q35 53 76 53q33 0 50 -16.5t17 -41.5q0 -33 -30 -59l-148 -123l-6 -6q-8 -8 -14 -8h-49q-13 0 -13 6z" />
<glyph unicode="&#xce;" horiz-adv-x="681" d="M55 31q0 20 8.5 25t34.5 5h135q18 0 19 746v201q0 63 -3 133.5t-7 116t-6 45.5h-136q-20 0 -28.5 6t-8.5 30.5t7.5 30.5t29.5 6q6 0 96.5 -3t159.5 -3q53 0 139.5 3t102.5 3q18 0 23.5 -8t5.5 -35q0 -20 -6.5 -25t-30.5 -5h-133q-18 0 -19 -318v-276q0 -647 19 -648h141 q18 0 23.5 -7t5.5 -25q0 -25 -5.5 -33t-23.5 -8q-8 0 -99 3t-147 3q-59 0 -152.5 -3t-109.5 -3q-20 0 -27.5 8t-7.5 35zM109 1495l12 18l162 183q27 29 36 28h50q14 0 37 -28l161 -183q12 -12 13 -18q0 -8 -15 -8h-24q-6 0 -27 12l-164 92q-6 2 -12 0l-164 -92 q-20 -12 -27 -12h-24q-14 0 -14 8z" />
<glyph unicode="&#xcf;" horiz-adv-x="681" d="M55 31q0 20 8.5 25t34.5 5h135q18 0 19 746v201q0 63 -3 133.5t-7 116t-6 45.5h-136q-20 0 -28.5 6t-8.5 30.5t7.5 30.5t29.5 6q6 0 96.5 -3t159.5 -3q53 0 139.5 3t102.5 3q18 0 23.5 -8t5.5 -35q0 -20 -6.5 -25t-30.5 -5h-133q-18 0 -19 -318v-276q0 -647 19 -648h141 q18 0 23.5 -7t5.5 -25q0 -25 -5.5 -33t-23.5 -8q-8 0 -99 3t-147 3q-59 0 -152.5 -3t-109.5 -3q-20 0 -27.5 8t-7.5 35zM70 1604q0 53 42 85.5t87 32.5q39 0 65.5 -21.5t26.5 -66.5q0 -53 -41 -87t-90 -34q-37 0 -63.5 24t-26.5 67zM397 1604q0 53 42 85.5t87 32.5 q39 0 65.5 -21.5t26.5 -66.5q0 -53 -40.5 -87t-90.5 -34q-37 0 -63.5 24t-26.5 67z" />
<glyph unicode="&#xd0;" horiz-adv-x="1552" d="M66 20q0 25 9 31t31 6h132q8 0 20 605q0 10 -16 10h-156q-10 0 -10 33q0 29 10 28h158q10 0 12 2t2 13q4 303 4 405q0 154 -4 154l-141 -4q-16 0 -22.5 5t-6.5 25q0 39 29 39h24.5t56 -1t64.5 -1q84 0 234.5 12.5t183.5 12.5q342 0 564 -192.5t222 -516.5 q0 -330 -213 -515t-520 -185q-61 0 -188 4t-191 4q-33 0 -143.5 -4t-116.5 -4q-18 0 -23 7t-5 27zM442 176q0 -117 2 -119q14 -6 113 -6q141 0 254 29t183.5 69.5t121.5 106.5t76 120t38 129t15 113.5t2 94.5q0 147 -72.5 286.5t-216 234.5t-321.5 95q-129 0 -180 -12 q-12 -4 -13 -293q0 -45 -1 -137t-1 -139q0 -10 2 -12.5t15 -2.5h428q10 0 10 -30.5t-10 -30.5h-426q-18 0 -19 -15v-481z" />
<glyph unicode="&#xd1;" horiz-adv-x="1667" d="M76 31q0 20 7 25t32 5h94q12 0 16 136q2 43 2 67q16 530 17 1039h-133q-18 0 -23.5 7t-5.5 25q0 25 5 33t24 8q12 0 109 -3t120 -3q27 0 69 3t44 3q23 0 45 -28l831 -1022q25 -29 30 -25t5 37v86q0 100 -2 383t-2 387q0 109 -2 109h-191q-16 0 -20 6t-4 26q0 18 1 25.5 t6 11.5t17 4q4 0 41 -2t89.5 -3t91.5 -1q47 0 106 3t68 3q20 0 24 -7t4 -36q0 -20 -7 -25t-34 -5h-92q-8 0 -8 -115q0 -139 -7 -429t-13.5 -518.5t-6.5 -232.5q0 -51 -26 -51q-10 0 -41 35l-1008 1225q-23 25 -24 22q-4 -2 -5 -22q-2 -82 -2 -250q0 -111 -1 -360t-1 -343 q0 -203 9 -203h176q16 0 20 -6t4 -26q0 -18 -1 -25.5t-6 -11.5t-17 -4q-18 0 -94 3t-127 3q-53 0 -109.5 -3t-63.5 -3q-20 0 -25 8t-5 35zM641 1532q0 16 16 55q23 57 57 87t64 30q37 0 97.5 -39t82.5 -39q49 0 70 68q4 14 6 16t17 2q27 0 26 -8q0 -20 -14 -59 q-47 -123 -129 -123q-39 0 -95.5 37.5t-84.5 37.5q-45 0 -66 -59q-2 -10 -3 -11t-6 -3t-17 -2q-21 0 -21 10z" />
<glyph unicode="&#xd2;" horiz-adv-x="1540" d="M86 651q0 328 205 533t497 205q299 0 482.5 -209t183.5 -516q0 -309 -194.5 -501t-501.5 -192q-266 0 -469 183.5t-203 496.5zM291 707q0 -283 128 -474.5t341 -191.5q158 0 273.5 96t167.5 238.5t52 306.5q0 162 -51 303t-164.5 237.5t-269.5 96.5q-209 0 -343 -184 t-134 -428zM539 1683q0 25 17 41.5t50 16.5q41 0 76 -53l109 -177l8 -16q0 -8 -19 -8h-43q-2 0 -5 3t-8 6t-7 5l-148 123q-30 24 -30 59z" />
<glyph unicode="&#xd3;" horiz-adv-x="1540" d="M86 651q0 328 205 533t497 205q299 0 482.5 -209t183.5 -516q0 -309 -194.5 -501t-501.5 -192q-266 0 -469 183.5t-203 496.5zM291 707q0 -283 128 -474.5t341 -191.5q158 0 273.5 96t167.5 238.5t52 306.5q0 162 -51 303t-164.5 237.5t-269.5 96.5q-209 0 -343 -184 t-134 -428zM737 1493q0 2 8 18l109 177q35 53 76 53q33 0 50 -16.5t17 -41.5q0 -33 -30 -59l-148 -123l-8 -6q-6 -8 -12 -8h-49q-13 0 -13 6z" />
<glyph unicode="&#xd4;" horiz-adv-x="1540" d="M86 651q0 328 205 533t497 205q299 0 482.5 -209t183.5 -516q0 -309 -194.5 -501t-501.5 -192q-266 0 -469 183.5t-203 496.5zM291 707q0 -283 128 -474.5t341 -191.5q158 0 273.5 96t167.5 238.5t52 306.5q0 162 -51 303t-164.5 237.5t-269.5 96.5q-209 0 -343 -184 t-134 -428zM532 1495l13 18l162 183q27 29 36 28h50q14 0 36 -28l162 -183q12 -12 13 -18q0 -8 -15 -8h-24q-6 0 -27 12l-164 92q-6 2 -12 0l-164 -92q-20 -12 -27 -12h-24q-15 0 -15 8z" />
<glyph unicode="&#xd5;" horiz-adv-x="1540" d="M86 651q0 328 205 533t497 205q299 0 482.5 -209t183.5 -516q0 -309 -194.5 -501t-501.5 -192q-266 0 -469 183.5t-203 496.5zM291 707q0 -283 128 -474.5t341 -191.5q158 0 273.5 96t167.5 238.5t52 306.5q0 162 -51 303t-164.5 237.5t-269.5 96.5q-209 0 -343 -184 t-134 -428zM547 1532q0 16 16 55q23 57 56.5 87t64.5 30q37 0 97.5 -39t82.5 -39q49 0 70 68q4 14 6 16t16 2q27 0 27 -8q0 -20 -14 -59q-47 -123 -129 -123q-39 0 -95.5 37.5t-85.5 37.5q-45 0 -65 -59q-2 -10 -3 -11t-6 -3t-18 -2q-20 0 -20 10z" />
<glyph unicode="&#xd6;" horiz-adv-x="1540" d="M86 651q0 328 205 533t497 205q299 0 482.5 -209t183.5 -516q0 -309 -194.5 -501t-501.5 -192q-266 0 -469 183.5t-203 496.5zM291 707q0 -283 128 -474.5t341 -191.5q158 0 273.5 96t167.5 238.5t52 306.5q0 162 -51 303t-164.5 237.5t-269.5 96.5q-209 0 -343 -184 t-134 -428zM494 1604q0 53 42 85.5t87 32.5q39 0 65.5 -21.5t26.5 -66.5q0 -53 -41 -87t-90 -34q-37 0 -63.5 24t-26.5 67zM821 1604q0 53 42 85.5t87 32.5q39 0 65.5 -21.5t26.5 -66.5q0 -53 -40.5 -87t-90.5 -34q-37 0 -63.5 24t-26.5 67z" />
<glyph unicode="&#xd7;" horiz-adv-x="1079" d="M174 733q0 14 23.5 37t40.5 23q14 0 32 -19l238 -235q33 -35 53 -15l256 256q14 14 28.5 14.5t36 -22t21.5 -39.5q0 -12 -20 -33l-248 -247q-14 -16 -14 -22.5t14 -20.5l254 -254q14 -14 14 -28.5t-22.5 -38t-37 -23.5t-30.5 16l-252 254q-18 14 -25.5 12t-25.5 -20 l-246 -246q-16 -16 -28 -16q-14 0 -37 22.5t-23 36.5q0 12 19 31l245 247q27 27 4 50l-254 254q-16 16 -16 26z" />
<glyph unicode="&#xd8;" horiz-adv-x="1540" d="M86 651q0 328 205 533t497 205q162 0 293 -64q8 -6 11.5 -5t7.5 9l88 154l2 2l2 2h6q10 0 25 -10q25 -12 18 -27l-90 -152q-4 -6 -4 -10q2 -4 6 -6q143 -96 222 -259t79 -359q0 -309 -194.5 -501t-501.5 -192q-168 0 -314 74q-12 8 -16 0l-88 -149q-10 -14 -16 -15 q-16 2 -39 21q-4 2 -4 12l94 162q4 6 -6 14q-283 192 -283 561zM291 707q0 -299 137 -488q10 -12 14 -12q6 0 13 10l579 1000q6 10 -6 18q-109 84 -260 84q-209 0 -343 -184t-134 -428zM492 152q0 -4 4 -9q115 -102 264 -102q158 0 273.5 96t167.5 238.5t52 306.5 q0 141 -42 272t-119 222q-6 4 -11 0l-587 -1016q-2 -2 -2 -8z" />
<glyph unicode="&#xd9;" horiz-adv-x="1546" d="M76 1329.5q0 24.5 7 30.5t30 6q12 0 85.5 -3t108.5 -3q33 0 124 3t114 3q20 0 25 -8t5 -35q0 -20 -7 -25.5t-31 -5.5h-134q-10 0 -18 -342t-8 -483q0 -197 96 -294t309 -97q188 0 348 108q33 23 39 43q10 33 11 279v624q0 162 -13 162h-102q-23 0 -32 6.5t-9 31t9 30.5 t32 6q12 0 94 -3t117 -3t94.5 3t65.5 3q20 0 27 -8t7 -35q0 -20 -8 -25.5t-35 -5.5h-47q-8 0 -11 -84t-6 -274.5t-5 -284.5q-2 -117 -6 -262t-6.5 -231t-2.5 -105q0 -72 -49 -71q-27 0 -67.5 74.5t-59 74.5t-92.5 -41q-82 -47 -197.5 -82t-226.5 -35q-121 0 -207 29t-133 72 t-73.5 112.5t-33.5 131t-7 149.5q0 23 1 321.5t1 391.5q0 115 -9 114h-77q-20 0 -28.5 6.5t-8.5 31zM557 1683q0 25 17.5 41.5t50.5 16.5q41 0 75 -53l109 -177l8 -16q0 -8 -18 -8h-43q-2 0 -5 3t-8.5 6t-7.5 5l-147 123q-31 24 -31 59z" />
<glyph unicode="&#xda;" horiz-adv-x="1546" d="M76 1329.5q0 24.5 7 30.5t30 6q12 0 85.5 -3t108.5 -3q33 0 124 3t114 3q20 0 25 -8t5 -35q0 -20 -7 -25.5t-31 -5.5h-134q-10 0 -18 -342t-8 -483q0 -197 96 -294t309 -97q188 0 348 108q33 23 39 43q10 33 11 279v624q0 162 -13 162h-102q-23 0 -32 6.5t-9 31t9 30.5 t32 6q12 0 94 -3t117 -3t94.5 3t65.5 3q20 0 27 -8t7 -35q0 -20 -8 -25.5t-35 -5.5h-47q-8 0 -11 -84t-6 -274.5t-5 -284.5q-2 -117 -6 -262t-6.5 -231t-2.5 -105q0 -72 -49 -71q-27 0 -67.5 74.5t-59 74.5t-92.5 -41q-82 -47 -197.5 -82t-226.5 -35q-121 0 -207 29t-133 72 t-73.5 112.5t-33.5 131t-7 149.5q0 23 1 321.5t1 391.5q0 115 -9 114h-77q-20 0 -28.5 6.5t-8.5 31zM756 1493q0 2 8 18l108 177q35 53 76 53q33 0 50.5 -16.5t17.5 -41.5q0 -33 -31 -59l-147 -123l-7 -6q-8 -8 -14 -8h-49q-12 0 -12 6z" />
<glyph unicode="&#xdb;" horiz-adv-x="1546" d="M76 1329.5q0 24.5 7 30.5t30 6q12 0 85.5 -3t108.5 -3q33 0 124 3t114 3q20 0 25 -8t5 -35q0 -20 -7 -25.5t-31 -5.5h-134q-10 0 -18 -342t-8 -483q0 -197 96 -294t309 -97q188 0 348 108q33 23 39 43q10 33 11 279v624q0 162 -13 162h-102q-23 0 -32 6.5t-9 31t9 30.5 t32 6q12 0 94 -3t117 -3t94.5 3t65.5 3q20 0 27 -8t7 -35q0 -20 -8 -25.5t-35 -5.5h-47q-8 0 -11 -84t-6 -274.5t-5 -284.5q-2 -117 -6 -262t-6.5 -231t-2.5 -105q0 -72 -49 -71q-27 0 -67.5 74.5t-59 74.5t-92.5 -41q-82 -47 -197.5 -82t-226.5 -35q-121 0 -207 29t-133 72 t-73.5 112.5t-33.5 131t-7 149.5q0 23 1 321.5t1 391.5q0 115 -9 114h-77q-20 0 -28.5 6.5t-8.5 31zM551 1495l12 18l162 183q27 29 37 28h49q14 0 37 -28l162 -183q12 -12 12 -18q0 -8 -14 -8h-25q-6 0 -27 12l-163 92q-6 2 -13 0l-164 -92q-20 -12 -26 -12h-25 q-14 0 -14 8z" />
<glyph unicode="&#xdc;" horiz-adv-x="1546" d="M76 1329.5q0 24.5 7 30.5t30 6q12 0 85.5 -3t108.5 -3q33 0 124 3t114 3q20 0 25 -8t5 -35q0 -20 -7 -25.5t-31 -5.5h-134q-10 0 -18 -342t-8 -483q0 -197 96 -294t309 -97q188 0 348 108q33 23 39 43q10 33 11 279v624q0 162 -13 162h-102q-23 0 -32 6.5t-9 31t9 30.5 t32 6q12 0 94 -3t117 -3t94.5 3t65.5 3q20 0 27 -8t7 -35q0 -20 -8 -25.5t-35 -5.5h-47q-8 0 -11 -84t-6 -274.5t-5 -284.5q-2 -117 -6 -262t-6.5 -231t-2.5 -105q0 -72 -49 -71q-27 0 -67.5 74.5t-59 74.5t-92.5 -41q-82 -47 -197.5 -82t-226.5 -35q-121 0 -207 29t-133 72 t-73.5 112.5t-33.5 131t-7 149.5q0 23 1 321.5t1 391.5q0 115 -9 114h-77q-20 0 -28.5 6.5t-8.5 31zM512 1604q0 53 42 85.5t87 32.5q39 0 65.5 -21.5t26.5 -66.5q0 -53 -41 -87t-90 -34q-37 0 -63.5 24t-26.5 67zM840 1604q0 53 42 85.5t87 32.5q39 0 65.5 -21.5 t26.5 -66.5q0 -53 -41 -87t-90 -34q-37 0 -63.5 24t-26.5 67z" />
<glyph unicode="&#xdd;" horiz-adv-x="1222" d="M14 1339.5q0 24.5 7.5 30.5t29.5 6q2 0 74 -3t143 -3q68 0 152 3t90 3q16 0 22.5 -8t6.5 -35q0 -20 -6.5 -25t-30.5 -5h-121h-15.5t-6.5 -4.5t0 -6.5l6 -12q18 -47 75.5 -156.5t128 -239.5t86.5 -163q14 -27 19 -27q4 0 14 21q285 549 285 581q0 6 -4 7h-107q-27 0 -35 5 t-8 25q0 27 7.5 35t27.5 8q4 0 56.5 -3t103.5 -3t98 3t57 3q23 0 31 -7t8 -30q0 -25 -9 -30.5t-30 -5.5h-69q-4 0 -80 -131.5t-169 -296t-126 -216.5q-6 -8 -6 -18q0 -580 18 -580h142q18 0 23 -7t5 -25q0 -25 -5 -33t-23 -8q-14 0 -95.5 3t-150.5 3q-51 0 -139 -3t-95 -3 q-20 0 -25 8t-5 35q0 20 7 25t32 5h104q20 0 20 494q0 20 -14 45q-76 139 -235.5 421t-171.5 282h-60q-20 0 -28.5 6t-8.5 30.5zM641 1493q0 2 8 18l109 177q35 53 76 53q33 0 50 -16.5t17 -41.5q0 -33 -31 -59l-147 -123l-6 -6q-8 -8 -15 -8h-49q-12 0 -12 6z" />
<glyph unicode="&#xde;" horiz-adv-x="1210" d="M55 31q0 20 8.5 25t34.5 5h135q18 0 19 746v201q0 295 -16 295h-136q-20 0 -28.5 6t-8.5 30.5t7.5 30.5t29.5 6q12 0 117 -3t139 -3q33 0 126 3t116 3q18 0 23.5 -8t5.5 -35q0 -20 -6.5 -25t-30.5 -5h-133q-6 0 -12.5 -73t-6.5 -130q0 -27 15 -27q20 0 90.5 3t83.5 3 q223 0 360 -103.5t137 -303.5q0 -193 -133 -285t-362 -92q-10 0 -158 6q-23 2 -27 -3t-4 -30q0 -199 17 -207h141q18 0 23.5 -7t5.5 -25q0 -25 -4.5 -33t-22.5 -8q-16 0 -103 3t-145 3q-55 0 -150.5 -3t-111.5 -3q-20 0 -27.5 8t-7.5 35zM438 381q0 -29 72 -29q188 0 307 83 t119 263q0 145 -120 230.5t-306 85.5q-53 0 -62.5 -5t-9.5 -38v-590z" />
<glyph unicode="&#xdf;" horiz-adv-x="987" d="M55 25q0 12 1 18t6.5 10t17.5 4h80q10 33 10 359q0 143 -2 356l-2 213q0 178 88 294t270 116q141 0 222 -77t81 -214q0 -135 -71.5 -217t-159.5 -115q-18 -8 -8 -12q37 -10 73.5 -25.5t89 -50.5t89.5 -79t64.5 -114.5t27.5 -154.5q0 -150 -80 -256.5t-211 -106.5 q-96 0 -159.5 45t-63.5 121q0 39 17.5 58.5t58.5 31.5q12 4 24 4q16 0 21 -26q0 -8 2 -38t3 -43t8 -38t17.5 -36t29.5 -20t46 -9q57 0 90 88t33 204q0 80 -12.5 144.5t-28.5 106.5t-48 74t-54.5 47t-61.5 27.5t-57.5 15.5t-54.5 7q-20 2 -21 25q0 29 21 29q92 4 163.5 82.5 t71.5 236.5q0 106 -40 166.5t-152 60.5q-45 0 -78 -23.5t-49.5 -55t-25.5 -82t-11 -85t-2 -83.5v-983q0 -23 -4.5 -28t-18.5 -5q-4 0 -25.5 1t-31.5 1q-25 0 -79 -2t-87 -2q-27 0 -27 35z" />
<glyph unicode="&#xe0;" horiz-adv-x="858" d="M66 145q0 88 77.5 156t174 100.5t212.5 53.5q10 2 11 26q0 55 -1 86t-10.5 74t-27 65.5t-51 39t-82.5 16.5q-37 0 -64 -12q-39 -16 -49 -43t-10 -95q0 -31 -15 -41q-25 -18 -67.5 -39.5t-50.5 -21.5q-18 0 -19 39q0 121 102.5 197.5t215.5 76.5q150 0 212 -70.5 t62 -203.5q0 -59 -6 -231.5t-6 -186.5q0 -20 8 -33.5t16.5 -17.5t12.5 -4q10 0 47 26l35 25q8 0 20 -15.5t12 -25.5q0 -2 -104 -80q-66 -47 -86 -47q-18 0 -32.5 6t-24 18.5t-13.5 20.5t-9 27.5t-7 21.5q-4 12 -8 13.5t-15 -7.5q-152 -94 -254 -94q-96 0 -151 49t-55 131z M197 1192q0 29 21.5 48.5t57.5 19.5q47 0 68 -56l100 -266q4 -8 5 -14q0 -10 -15 -11h-33q-10 0 -20 15l-168 219q-16 22 -16 45zM221 203q0 -51 35 -93t92 -42q37 0 83 11t78 24.5t32 21.5v268q0 16 -6 17q-29 0 -125 -31q-189 -59 -189 -176z" />
<glyph unicode="&#xe1;" horiz-adv-x="858" d="M66 145q0 88 77.5 156t174 100.5t212.5 53.5q10 2 11 26q0 55 -1 86t-10.5 74t-27 65.5t-51 39t-82.5 16.5q-37 0 -64 -12q-39 -16 -49 -43t-10 -95q0 -31 -15 -41q-25 -18 -67.5 -39.5t-50.5 -21.5q-18 0 -19 39q0 121 102.5 197.5t215.5 76.5q150 0 212 -70.5 t62 -203.5q0 -59 -6 -231.5t-6 -186.5q0 -20 8 -33.5t16.5 -17.5t12.5 -4q10 0 47 26l35 25q8 0 20 -15.5t12 -25.5q0 -2 -104 -80q-66 -47 -86 -47q-18 0 -32.5 6t-24 18.5t-13.5 20.5t-9 27.5t-7 21.5q-4 12 -8 13.5t-15 -7.5q-152 -94 -254 -94q-96 0 -151 49t-55 131z M221 203q0 -51 35 -93t92 -42q37 0 83 11t78 24.5t32 21.5v268q0 16 -6 17q-29 0 -125 -31q-189 -59 -189 -176zM375 924q0 6 4 14l100 266q20 55 68 56q37 0 58.5 -19.5t21.5 -48.5q0 -23 -17 -45l-168 -219q-10 -14 -20 -15h-33q-14 1 -14 11z" />
<glyph unicode="&#xe2;" horiz-adv-x="858" d="M66 145q0 88 77.5 156t174 100.5t212.5 53.5q10 2 11 26q0 55 -1 86t-10.5 74t-27 65.5t-51 39t-82.5 16.5q-37 0 -64 -12q-39 -16 -49 -43t-10 -95q0 -31 -15 -41q-25 -18 -67.5 -39.5t-50.5 -21.5q-18 0 -19 39q0 121 102.5 197.5t215.5 76.5q150 0 212 -70.5 t62 -203.5q0 -59 -6 -231.5t-6 -186.5q0 -20 8 -33.5t16.5 -17.5t12.5 -4q10 0 47 26l35 25q8 0 20 -15.5t12 -25.5q0 -2 -104 -80q-66 -47 -86 -47q-18 0 -32.5 6t-24 18.5t-13.5 20.5t-9 27.5t-7 21.5q-4 12 -8 13.5t-15 -7.5q-152 -94 -254 -94q-96 0 -151 49t-55 131z M178 940q0 6 10 21l162 243q14 20 19.5 24.5t21.5 4.5h43q16 0 20.5 -4t18.5 -25l162 -243q10 -14 10 -20.5t-18 -6.5h-25q-2 0 -20 14l-166 144h-8l-166 -144q-14 -14 -21 -14h-24q-19 0 -19 6zM221 203q0 -51 35 -93t92 -42q37 0 83 11t78 24.5t32 21.5v268q0 16 -6 17 q-29 0 -125 -31q-189 -59 -189 -176z" />
<glyph unicode="&#xe3;" horiz-adv-x="858" d="M66 145q0 88 77.5 156t174 100.5t212.5 53.5q10 2 11 26q0 55 -1 86t-10.5 74t-27 65.5t-51 39t-82.5 16.5q-37 0 -64 -12q-39 -16 -49 -43t-10 -95q0 -31 -15 -41q-25 -18 -67.5 -39.5t-50.5 -21.5q-18 0 -19 39q0 121 102.5 197.5t215.5 76.5q150 0 212 -70.5 t62 -203.5q0 -59 -6 -231.5t-6 -186.5q0 -20 8 -33.5t16.5 -17.5t12.5 -4q10 0 47 26l35 25q8 0 20 -15.5t12 -25.5q0 -2 -104 -80q-66 -47 -86 -47q-18 0 -32.5 6t-24 18.5t-13.5 20.5t-9 27.5t-7 21.5q-4 12 -8 13.5t-15 -7.5q-152 -94 -254 -94q-96 0 -151 49t-55 131z M190 1020q0 16 17 55q23 57 56.5 87t64.5 30q37 0 97 -39t83 -39q49 0 70 68q4 14 6 16t16 2q27 0 27 -8q0 -20 -15 -59q-47 -123 -129 -123q-39 0 -95 37.5t-85 37.5q-45 0 -65 -59q-2 -10 -3.5 -11t-6.5 -3t-17 -2q-21 0 -21 10zM221 203q0 -51 35 -93t92 -42q37 0 83 11 t78 24.5t32 21.5v268q0 16 -6 17q-29 0 -125 -31q-189 -59 -189 -176z" />
<glyph unicode="&#xe4;" horiz-adv-x="858" d="M66 145q0 88 77.5 156t174 100.5t212.5 53.5q10 2 11 26q0 55 -1 86t-10.5 74t-27 65.5t-51 39t-82.5 16.5q-37 0 -64 -12q-39 -16 -49 -43t-10 -95q0 -31 -15 -41q-25 -18 -67.5 -39.5t-50.5 -21.5q-18 0 -19 39q0 121 102.5 197.5t215.5 76.5q150 0 212 -70.5 t62 -203.5q0 -59 -6 -231.5t-6 -186.5q0 -20 8 -33.5t16.5 -17.5t12.5 -4q10 0 47 26l35 25q8 0 20 -15.5t12 -25.5q0 -2 -104 -80q-66 -47 -86 -47q-18 0 -32.5 6t-24 18.5t-13.5 20.5t-9 27.5t-7 21.5q-4 12 -8 13.5t-15 -7.5q-152 -94 -254 -94q-96 0 -151 49t-55 131z M137 1092q0 53 42 85.5t87 32.5q39 0 65.5 -21.5t26.5 -66.5q0 -53 -41 -87t-90 -34q-37 0 -63.5 24t-26.5 67zM221 203q0 -51 35 -93t92 -42q37 0 83 11t78 24.5t32 21.5v268q0 16 -6 17q-29 0 -125 -31q-189 -59 -189 -176zM465 1092q0 53 42 85.5t87 32.5 q39 0 65.5 -21.5t26.5 -66.5q0 -53 -41 -87t-90 -34q-37 0 -63.5 24t-26.5 67z" />
<glyph unicode="&#xe5;" horiz-adv-x="858" d="M66 145q0 88 77.5 156t174 100.5t212.5 53.5q10 2 11 26q0 55 -1 86t-10.5 74t-27 65.5t-51 39t-82.5 16.5q-37 0 -64 -12q-39 -16 -49 -43t-10 -95q0 -31 -15 -41q-25 -18 -67.5 -39.5t-50.5 -21.5q-18 0 -19 39q0 121 102.5 197.5t215.5 76.5q150 0 212 -70.5 t62 -203.5q0 -59 -6 -231.5t-6 -186.5q0 -20 8 -33.5t16.5 -17.5t12.5 -4q10 0 47 26l35 25q8 0 20 -15.5t12 -25.5q0 -2 -104 -80q-66 -47 -86 -47q-18 0 -32.5 6t-24 18.5t-13.5 20.5t-9 27.5t-7 21.5q-4 12 -8 13.5t-15 -7.5q-152 -94 -254 -94q-96 0 -151 49t-55 131z M221 203q0 -51 35 -93t92 -42q37 0 83 11t78 24.5t32 21.5v268q0 16 -6 17q-29 0 -125 -31q-189 -59 -189 -176zM260 1095.5q0 63.5 44 107.5t107.5 44t107.5 -44t44 -107.5t-44 -107.5t-107.5 -44t-107.5 44t-44 107.5zM330 1095.5q0 -34.5 23.5 -58t58 -23.5t58.5 23.5 t24 58t-24 58.5t-58.5 24t-58 -24t-23.5 -58.5z" />
<glyph unicode="&#xe6;" horiz-adv-x="1329" d="M66 143q0 88 77.5 156t174 100.5t212.5 53.5q10 2 11 26q0 55 -1 86t-10.5 74t-27 64.5t-51 38t-82.5 16.5q-39 0 -62 -10q-39 -16 -49 -41t-12 -91q0 -37 -17 -47q-25 -18 -63.5 -38.5t-48.5 -20.5q-23 0 -23 37q0 121 102.5 197.5t215.5 76.5q166 0 231 -94 q8 -14 13.5 -14t17.5 10q117 94 266 94q147 0 229 -96t82 -236q0 -31 -116 -30q-10 0 -224.5 5t-230.5 5q-8 0 -8 -68q0 -154 89 -242.5t210 -88.5q55 0 106 20t81 46t51.5 46.5t25.5 20.5q8 0 23.5 -14.5t15.5 -22.5q0 -14 -44 -59.5t-133 -92.5t-184 -47q-186 0 -292 113 q-10 10 -13.5 9t-19.5 -11q-178 -111 -316 -111q-96 0 -151 49t-55 131zM221 201q0 -51 35 -93t92 -42q39 0 85 11t77 24.5t31 21.5v268q0 16 -6 17q-29 0 -125 -31q-189 -59 -189 -176zM682 522q0 -10 18 -10q117 0 322 8q76 2 76 6q0 127 -58.5 180.5t-124.5 53.5 q-92 0 -159.5 -77t-73.5 -161z" />
<glyph unicode="&#xe7;" horiz-adv-x="843" d="M66 362q0 215 131 338t297 123q104 0 191 -60.5t87 -141.5q0 -27 -22 -46q-37 -29 -66 -28q-33 0 -41 26q-4 14 -14.5 45t-15.5 45.5t-16 36t-25.5 30.5t-37 17.5t-53.5 8.5q-121 0 -195.5 -106.5t-74.5 -235.5q0 -137 81 -237.5t228 -100.5q63 0 121.5 15t91.5 32l35 14 q20 0 20 -22q0 -4 -13 -18.5t-39.5 -34t-61.5 -38t-84 -33t-103 -18.5l-38 -108q-2 -6 2 -6q2 0 12 2q25 6 53 6q84 0 132 -45t48 -101q0 -74 -62.5 -134t-160.5 -60q-111 0 -170 53q-6 6 -6 19q0 20 20 20q4 0 21.5 -8t45.5 -15.5t58 -7.5q70 0 99.5 26t29.5 83 q0 86 -106 86q-23 0 -48.5 -9.5t-27.5 -9.5q-4 0 -13 6.5t-9 10.5q0 10 73 192q-174 6 -274 111.5t-100 277.5z" />
<glyph unicode="&#xe8;" horiz-adv-x="868" d="M57 379q0 186 119 312t303 126q147 0 229.5 -96t82.5 -236q0 -31 -117 -30q-10 0 -225.5 5t-231.5 5q-6 -14 -6 -68q0 -152 88 -241.5t205 -89.5q47 0 92 13t74.5 33.5t52 40t36 33t15.5 13.5q4 0 22.5 -15.5t18.5 -19.5t-16.5 -25.5t-49 -51.5t-73.5 -57.5t-100.5 -47 t-118.5 -19.5q-188 0 -294 115t-106 301zM221 522q0 -10 19 -10q117 0 321 8q76 2 76 8q0 125 -58.5 178.5t-123.5 53.5q-92 0 -160 -77t-74 -161zM252 1192q0 29 21.5 48.5t58.5 19.5q47 0 67 -56l101 -266q4 -8 4 -14q0 -10 -15 -11h-32q-10 0 -21 15l-168 219 q-16 22 -16 45z" />
<glyph unicode="&#xe9;" horiz-adv-x="868" d="M57 379q0 186 119 312t303 126q147 0 229.5 -96t82.5 -236q0 -31 -117 -30q-10 0 -225.5 5t-231.5 5q-6 -14 -6 -68q0 -152 88 -241.5t205 -89.5q47 0 92 13t74.5 33.5t52 40t36 33t15.5 13.5q4 0 22.5 -15.5t18.5 -19.5t-16.5 -25.5t-49 -51.5t-73.5 -57.5t-100.5 -47 t-118.5 -19.5q-188 0 -294 115t-106 301zM221 522q0 -10 19 -10q117 0 321 8q76 2 76 8q0 125 -58.5 178.5t-123.5 53.5q-92 0 -160 -77t-74 -161zM430 924q0 6 4 14l101 266q20 55 67 56q37 0 58.5 -19.5t21.5 -48.5q0 -23 -16 -45l-168 -219q-10 -14 -21 -15h-33 q-14 1 -14 11z" />
<glyph unicode="&#xea;" horiz-adv-x="868" d="M57 379q0 186 119 312t303 126q147 0 229.5 -96t82.5 -236q0 -31 -117 -30q-10 0 -225.5 5t-231.5 5q-6 -14 -6 -68q0 -152 88 -241.5t205 -89.5q47 0 92 13t74.5 33.5t52 40t36 33t15.5 13.5q4 0 22.5 -15.5t18.5 -19.5t-16.5 -25.5t-49 -51.5t-73.5 -57.5t-100.5 -47 t-118.5 -19.5q-188 0 -294 115t-106 301zM221 522q0 -10 19 -10q117 0 321 8q76 2 76 8q0 125 -58.5 178.5t-123.5 53.5q-92 0 -160 -77t-74 -161zM233 940q0 6 11 21l162 243q14 20 19 24.5t21 4.5h43q14 0 19.5 -4t19.5 -25l162 -243q10 -14 10 -20.5t-18 -6.5h-25 q-2 0 -20 14l-166 144h-8l-166 -144q-14 -14 -21 -14h-24q-19 0 -19 6z" />
<glyph unicode="&#xeb;" horiz-adv-x="868" d="M57 379q0 186 119 312t303 126q147 0 229.5 -96t82.5 -236q0 -31 -117 -30q-10 0 -225.5 5t-231.5 5q-6 -14 -6 -68q0 -152 88 -241.5t205 -89.5q47 0 92 13t74.5 33.5t52 40t36 33t15.5 13.5q4 0 22.5 -15.5t18.5 -19.5t-16.5 -25.5t-49 -51.5t-73.5 -57.5t-100.5 -47 t-118.5 -19.5q-188 0 -294 115t-106 301zM193 1092q0 53 41.5 85.5t87.5 32.5q39 0 65.5 -21.5t26.5 -66.5q0 -53 -41 -87t-90 -34q-37 0 -63.5 24t-26.5 67zM221 522q0 -10 19 -10q117 0 321 8q76 2 76 8q0 125 -58.5 178.5t-123.5 53.5q-92 0 -160 -77t-74 -161zM520 1092 q0 53 42 85.5t87 32.5q39 0 65.5 -21.5t26.5 -66.5q0 -53 -41 -87t-90 -34q-37 0 -63.5 24t-26.5 67z" />
<glyph unicode="&#xec;" horiz-adv-x="509" d="M20 1192q0 29 21.5 48.5t58.5 19.5q47 0 68 -56l100 -266q4 -8 4 -14q0 -10 -14 -11h-33q-10 0 -20 15l-168 219q-17 22 -17 45zM41 725q0 8 10 35q8 20 39 20q49 2 105.5 4t89 4.5t37.5 2.5q14 0 17 -4.5t3 -14.5v-348q0 -367 10 -367h88q16 0 20.5 -6t4.5 -26 q0 -35 -25 -35q-18 0 -83.5 2t-92 2t-98.5 -2t-90 -2q-16 0 -20.5 7t-4.5 28q0 18 5 25t26 7h102q6 0 6 199q0 240 -8 438q0 14 -4 20.5t-7 6.5h-13q-2 0 -48.5 -2t-50.5 -2q-18 0 -18 8z" />
<glyph unicode="&#xed;" horiz-adv-x="509" d="M41 725q0 8 10 35q8 20 39 20q49 2 105.5 4t89 4.5t37.5 2.5q14 0 17 -4.5t3 -14.5v-348q0 -367 10 -367h88q16 0 20.5 -6t4.5 -26q0 -35 -25 -35q-18 0 -83.5 2t-92 2t-98.5 -2t-90 -2q-16 0 -20.5 7t-4.5 28q0 18 5 25t26 7h102q6 0 6 199q0 240 -8 438q0 14 -4 20.5 t-7 6.5h-13q-2 0 -48.5 -2t-50.5 -2q-18 0 -18 8zM199 924q0 6 4 14l100 266q20 55 68 56q37 0 58.5 -19.5t21.5 -48.5q0 -23 -17 -45l-168 -219q-10 -14 -20 -15h-33q-14 1 -14 11z" />
<glyph unicode="&#xee;" horiz-adv-x="509" d="M2 940q0 6 10 21l162 243q14 20 19.5 24.5t21.5 4.5h43q16 0 20.5 -4t18.5 -25l162 -243q10 -14 10 -20.5t-18 -6.5h-25q-2 0 -20 14l-166 144h-9l-165 -144q-14 -14 -21 -14h-25q-18 0 -18 6zM41 725q0 8 10 35q8 20 39 20q49 2 105.5 4t89 4.5t37.5 2.5q14 0 17 -4.5 t3 -14.5v-348q0 -367 10 -367h88q16 0 20.5 -6t4.5 -26q0 -35 -25 -35q-18 0 -83.5 2t-92 2t-98.5 -2t-90 -2q-16 0 -20.5 7t-4.5 28q0 18 5 25t26 7h102q6 0 6 199q0 240 -8 438q0 14 -4 20.5t-7 6.5h-13q-2 0 -48.5 -2t-50.5 -2q-18 0 -18 8z" />
<glyph unicode="&#xef;" horiz-adv-x="509" d="M-18 1092q0 53 42 85.5t87 32.5q39 0 65.5 -21.5t26.5 -66.5q0 -53 -41 -87t-90 -34q-37 0 -63.5 24t-26.5 67zM41 725q0 8 10 35q8 20 39 20q49 2 105.5 4t89 4.5t37.5 2.5q14 0 17 -4.5t3 -14.5v-348q0 -367 10 -367h88q16 0 20.5 -6t4.5 -26q0 -35 -25 -35 q-18 0 -83.5 2t-92 2t-98.5 -2t-90 -2q-16 0 -20.5 7t-4.5 28q0 18 5 25t26 7h102q6 0 6 199q0 240 -8 438q0 14 -4 20.5t-7 6.5h-13q-2 0 -48.5 -2t-50.5 -2q-18 0 -18 8zM268 1092q0 53 42 85.5t87 32.5q39 0 65.5 -21.5t26.5 -66.5q0 -53 -40.5 -87t-90.5 -34 q-37 0 -63.5 24t-26.5 67z" />
<glyph unicode="&#xf0;" horiz-adv-x="897" d="M55 375q0 197 109.5 318.5t281.5 121.5q88 0 154 -35q20 -10 21.5 -3t-11.5 32q-66 150 -135 246q-6 8 -20 4q-31 -8 -89.5 -23.5t-99.5 -26t-43 -10.5q-8 0 -18 22.5t-10 31.5q0 2 217 61q14 4 6 14q-2 0 -2 2q-102 127 -207 207q-18 10 -19 17q0 10 23 10h90 q47 0 217 -203q12 -12 12 -13t19 3q184 51 197 51q8 0 20 -20.5t12 -28.5q0 -2 -196 -55q-10 -2 -4 -13q106 -143 184 -328.5t78 -353.5q0 -193 -107.5 -316.5t-283.5 -123.5q-168 0 -282 118t-114 294zM217 393q0 -147 62.5 -255.5t181.5 -108.5q231 0 231 366 q0 150 -56 253.5t-177 103.5q-115 0 -178.5 -98.5t-63.5 -260.5z" />
<glyph unicode="&#xf1;" horiz-adv-x="1052" d="M41 713q0 8 12 39q4 14 8.5 16t24.5 4q12 0 103.5 6t123.5 8q18 2 22.5 -3t4.5 -19v-6v-70q0 -16 12 -6q6 4 10 6q4 4 37 25.5t48.5 30t47 22.5t63.5 20.5t69 6.5q88 0 145 -28t85 -83t38 -114.5t10 -143.5q0 -68 -5 -205t-5 -143q0 -14 2 -16.5t14 -2.5h62q20 0 27.5 -6 t7.5 -26q0 -35 -31 -35q-16 0 -68.5 2t-85.5 2q-25 0 -85 -2t-93 -2q-23 0 -27 6t-4 27q0 35 33 34h88q12 0 13 377q0 123 -42 191.5t-149 68.5q-66 0 -180 -57q-33 -18 -33 -41q0 -84 -1 -253t-1 -253q0 -25 3 -29t17 -4h78q20 0 24.5 -7t4.5 -25q0 -35 -27 -35 q-16 0 -77.5 2t-94.5 2q-25 0 -89 -2t-97 -2q-18 0 -22.5 7t-4.5 28q0 33 27 32h92q16 0 17 428q0 139 -5 203q0 12 -3 17.5t-6 5.5h-7h-6t-56.5 -4.5t-58.5 -4.5q-10 1 -10 11zM336 1020q0 16 16 55q23 57 56.5 87t64.5 30q37 0 97.5 -39t82.5 -39q49 0 70 68q4 14 7 16 t15 2q27 0 27 -8q0 -20 -14 -59q-47 -123 -129 -123q-39 0 -95.5 37.5t-84.5 37.5q-45 0 -66 -59q-2 -10 -3 -11t-6 -3t-18 -2q-20 0 -20 10z" />
<glyph unicode="&#xf2;" horiz-adv-x="913" d="M55 375q0 186 119 314t307 128q168 0 272.5 -119.5t104.5 -294.5q0 -195 -109.5 -317.5t-299.5 -122.5q-166 0 -280 121t-114 291zM213 346q0 -125 63.5 -221t172.5 -96q250 0 249 389q0 127 -63.5 230.5t-177.5 103.5q-244 0 -244 -406zM256 1192q0 29 21.5 48.5 t58.5 19.5q47 0 67 -56l101 -266q4 -8 4 -14q0 -10 -14 -11h-33q-10 0 -21 15l-168 219q-16 22 -16 45z" />
<glyph unicode="&#xf3;" horiz-adv-x="913" d="M55 375q0 186 119 314t307 128q168 0 272.5 -119.5t104.5 -294.5q0 -195 -109.5 -317.5t-299.5 -122.5q-166 0 -280 121t-114 291zM213 346q0 -125 63.5 -221t172.5 -96q250 0 249 389q0 127 -63.5 230.5t-177.5 103.5q-244 0 -244 -406zM434 924q0 6 4 14l101 266 q20 55 67 56q37 0 58.5 -19.5t21.5 -48.5q0 -23 -16 -45l-168 -219q-10 -14 -21 -15h-32q-15 1 -15 11z" />
<glyph unicode="&#xf4;" horiz-adv-x="913" d="M55 375q0 186 119 314t307 128q168 0 272.5 -119.5t104.5 -294.5q0 -195 -109.5 -317.5t-299.5 -122.5q-166 0 -280 121t-114 291zM213 346q0 -125 63.5 -221t172.5 -96q250 0 249 389q0 127 -63.5 230.5t-177.5 103.5q-244 0 -244 -406zM238 940q0 6 10 21l162 243 q14 20 19 24.5t22 4.5h43q14 0 19 -4t19 -25l162 -243q10 -14 10.5 -20.5t-18.5 -6.5h-24q-2 0 -21 14l-166 144h-8l-166 -144q-14 -14 -20 -14h-25q-18 0 -18 6z" />
<glyph unicode="&#xf5;" horiz-adv-x="913" d="M55 375q0 186 119 314t307 128q168 0 272.5 -119.5t104.5 -294.5q0 -195 -109.5 -317.5t-299.5 -122.5q-166 0 -280 121t-114 291zM213 346q0 -125 63.5 -221t172.5 -96q250 0 249 389q0 127 -63.5 230.5t-177.5 103.5q-244 0 -244 -406zM250 1020q0 16 16 55 q23 57 56.5 87t64.5 30q37 0 97.5 -39t82.5 -39q49 0 70 68q4 14 7 16t15 2q27 0 27 -8q0 -20 -14 -59q-47 -123 -129 -123q-39 0 -95.5 37.5t-85.5 37.5q-45 0 -65 -59q-2 -10 -3 -11t-6 -3t-18 -2q-20 0 -20 10z" />
<glyph unicode="&#xf6;" horiz-adv-x="913" d="M55 375q0 186 119 314t307 128q168 0 272.5 -119.5t104.5 -294.5q0 -195 -109.5 -317.5t-299.5 -122.5q-166 0 -280 121t-114 291zM197 1092q0 53 42 85.5t87 32.5q39 0 65.5 -21.5t26.5 -66.5q0 -53 -41 -87t-90 -34q-37 0 -63.5 24t-26.5 67zM213 346q0 -125 63.5 -221 t172.5 -96q250 0 249 389q0 127 -63.5 230.5t-177.5 103.5q-244 0 -244 -406zM524 1092q0 53 42 85.5t87 32.5q39 0 65.5 -21.5t26.5 -66.5q0 -53 -40.5 -87t-90.5 -34q-37 0 -63.5 24t-26.5 67z" />
<glyph unicode="&#xf7;" horiz-adv-x="1079" d="M57 434q0 25 7.5 36t35.5 11h883q18 0 26.5 -7t10.5 -16t2 -26q0 -31 -8 -42t-41 -11h-875q-29 0 -35 12t-6 43zM428 655q0 37 27.5 63.5t64.5 26.5t62.5 -25.5t25.5 -62t-26.5 -63.5t-63.5 -27t-63.5 25.5t-26.5 62.5zM438 207q0 37 27 62.5t63.5 25.5t63 -26.5 t26.5 -63.5t-25.5 -62.5t-62 -25.5t-64.5 26.5t-28 63.5z" />
<glyph unicode="&#xf8;" horiz-adv-x="913" d="M55 375q0 186 119 314t307 128q63 0 140 -26q14 -4 18 4l80 137q2 6 10 6q10 0 29 -12q20 -14 14 -25l-78 -135q-6 -10 -2 -14q166 -117 166 -349q0 -195 -109.5 -317.5t-299.5 -122.5q-98 0 -183 45q-8 4 -12 -6l-76 -131q-8 -8 -10 -8q-6 0 -25.5 11t-19.5 17l4 13 l78 135q4 8 -6 16q-144 121 -144 320zM213 346q0 -104 47 -192q6 -10 10 0l314 542q2 2 2 6q0 8 -8 11q-57 39 -121 39q-244 0 -244 -406zM311 84q61 -55 138 -55q135 0 191 112.5t56 276.5q0 127 -57 225q-8 12 -14 0l-314 -543q-6 -10 0 -16z" />
<glyph unicode="&#xf9;" horiz-adv-x="1044" d="M23 731q0 14 8 35q6 16 28 18h9q180 8 233 9q12 0 12 -19v-557q0 -131 222 -131q57 0 118.5 8t61.5 19v241q0 375 -17 375q-10 0 -55 -2t-47 -2q-16 0 -16 6q0 25 4 37q2 18 26 18q45 2 103.5 4.5t94.5 4.5t40 2q8 0 12 -1t6 -4.5t2 -4.5v-9q-2 -489 -2 -616 q0 -76 6.5 -95.5t26.5 -19.5q2 0 44 6t46 6q12 0 12 -26q0 -25 -3 -30t-23 -7q-238 -35 -244 -35t-9 52.5t-5 52.5l-21 -9q-20 -10 -54 -24.5t-74 -28.5t-89 -23.5t-92 -9.5q-135 0 -182 77t-47 202v321q0 152 -19 152q-2 0 -49 -1t-51 -1q-16 0 -16 10zM276 1192 q0 29 21.5 48.5t58.5 19.5q47 0 68 -56l100 -266q4 -8 4 -14q0 -10 -14 -11h-33q-10 0 -20 15l-168 219q-17 22 -17 45z" />
<glyph unicode="&#xfa;" horiz-adv-x="1044" d="M23 731q0 14 8 35q6 16 28 18h9q180 8 233 9q12 0 12 -19v-557q0 -131 222 -131q57 0 118.5 8t61.5 19v241q0 375 -17 375q-10 0 -55 -2t-47 -2q-16 0 -16 6q0 25 4 37q2 18 26 18q45 2 103.5 4.5t94.5 4.5t40 2q8 0 12 -1t6 -4.5t2 -4.5v-9q-2 -489 -2 -616 q0 -76 6.5 -95.5t26.5 -19.5q2 0 44 6t46 6q12 0 12 -26q0 -25 -3 -30t-23 -7q-238 -35 -244 -35t-9 52.5t-5 52.5l-21 -9q-20 -10 -54 -24.5t-74 -28.5t-89 -23.5t-92 -9.5q-135 0 -182 77t-47 202v321q0 152 -19 152q-2 0 -49 -1t-51 -1q-16 0 -16 10zM455 924q0 6 4 14 l100 266q20 55 68 56q37 0 58.5 -19.5t21.5 -48.5q0 -23 -17 -45l-168 -219q-10 -14 -20 -15h-33q-14 1 -14 11z" />
<glyph unicode="&#xfb;" horiz-adv-x="1044" d="M23 731q0 14 8 35q6 16 28 18h9q180 8 233 9q12 0 12 -19v-557q0 -131 222 -131q57 0 118.5 8t61.5 19v241q0 375 -17 375q-10 0 -55 -2t-47 -2q-16 0 -16 6q0 25 4 37q2 18 26 18q45 2 103.5 4.5t94.5 4.5t40 2q8 0 12 -1t6 -4.5t2 -4.5v-9q-2 -489 -2 -616 q0 -76 6.5 -95.5t26.5 -19.5q2 0 44 6t46 6q12 0 12 -26q0 -25 -3 -30t-23 -7q-238 -35 -244 -35t-9 52.5t-5 52.5l-21 -9q-20 -10 -54 -24.5t-74 -28.5t-89 -23.5t-92 -9.5q-135 0 -182 77t-47 202v321q0 152 -19 152q-2 0 -49 -1t-51 -1q-16 0 -16 10zM258 940q0 6 10 21 l162 243q14 20 19.5 24.5t21.5 4.5h43q14 0 19.5 -4t19.5 -25l162 -243q10 -14 10 -20.5t-18 -6.5h-25q-2 0 -20 14l-166 144h-9l-165 -144q-14 -14 -21 -14h-25q-18 0 -18 6z" />
<glyph unicode="&#xfc;" horiz-adv-x="1044" d="M23 731q0 14 8 35q6 16 28 18h9q180 8 233 9q12 0 12 -19v-557q0 -131 222 -131q57 0 118.5 8t61.5 19v241q0 375 -17 375q-10 0 -55 -2t-47 -2q-16 0 -16 6q0 25 4 37q2 18 26 18q45 2 103.5 4.5t94.5 4.5t40 2q8 0 12 -1t6 -4.5t2 -4.5v-9q-2 -489 -2 -616 q0 -76 6.5 -95.5t26.5 -19.5q2 0 44 6t46 6q12 0 12 -26q0 -25 -3 -30t-23 -7q-238 -35 -244 -35t-9 52.5t-5 52.5l-21 -9q-20 -10 -54 -24.5t-74 -28.5t-89 -23.5t-92 -9.5q-135 0 -182 77t-47 202v321q0 152 -19 152q-2 0 -49 -1t-51 -1q-16 0 -16 10zM217 1092 q0 53 42 85.5t87 32.5q39 0 65.5 -21.5t26.5 -66.5q0 -53 -41 -87t-90 -34q-37 0 -63.5 24t-26.5 67zM545 1092q0 53 42 85.5t87 32.5q39 0 65.5 -21.5t26.5 -66.5q0 -53 -41 -87t-90 -34q-37 0 -63.5 24t-26.5 67z" />
<glyph unicode="&#xfd;" horiz-adv-x="956" d="M45 754q0 35 27 34q12 0 68.5 -2t88.5 -2q45 0 107.5 2t73.5 2q33 0 32 -34q0 -33 -30 -33h-39q-47 0 -47 -14q0 -23 64.5 -200t117.5 -308q29 -66 33 -66t28 66q145 426 164 493q2 8 2 17q0 12 -37 12h-71q-18 0 -22.5 7t-4.5 26q0 35 29 34q6 0 59 -2t78 -2q27 0 70 2 t49 2q27 0 26 -34q0 -12 -1 -18.5t-6 -10.5t-17 -4h-31q-18 0 -25 -16q-78 -213 -272 -701q-2 -6 -14.5 -40t-31.5 -94t-36 -106q-43 -123 -78 -174q-20 -31 -55 -73q-4 -4 -10 -13.5t-8 -11.5t-8.5 -9t-9.5 -9t-8 -7.5t-11 -8.5t-13.5 -7t-17.5 -8q-111 -53 -129 -53 q-43 0 -43 47q0 33 41 90q18 25 59 39q8 4 37 13t45.5 15.5t40 17.5t37.5 24.5t21 29.5q90 223 90 246q0 14 -57.5 155.5t-147.5 355.5t-115 271q-8 18 -11 22.5t-13 4.5h-41q-18 0 -22.5 7.5t-4.5 25.5zM477 924q0 6 4 14l101 266q20 55 67 56q37 0 58.5 -19.5t21.5 -48.5 q0 -23 -16 -45l-168 -219q-10 -14 -21 -15h-32q-15 1 -15 11z" />
<glyph unicode="&#xfe;" horiz-adv-x="1019" d="M33 1319q0 16 6 39q4 16 18 18h6q246 18 254 19q20 0 21 -37q2 -266 2 -608v-41q0 -20 27 0q2 0 3 2t3 2q111 78 225 78q172 0 264 -111t92 -283q0 -166 -119.5 -294t-314.5 -128q-39 0 -81 8.5t-66 16.5l-27 10q-4 0 -4 -26l6 -367q4 -131 10 -131h144q20 0 24 -7t4 -26 q0 -35 -28 -35q-16 0 -102.5 2t-118.5 2q-25 0 -98.5 -2t-106.5 -2q-27 0 -27 35q0 33 27 33h110q6 0 7 321l-3 418q0 854 -18 1059q-2 16 -6 24.5t-6 8.5h-10q-6 0 -54.5 -4t-52.5 -4q-10 0 -10 10zM342 100q0 -25 60.5 -49t111.5 -24q131 0 206 110.5t75 245.5 q0 145 -74 234.5t-186 89.5q-72 0 -129 -27q-63 -33 -64 -53v-527z" />
<glyph unicode="&#xff;" horiz-adv-x="956" d="M45 754q0 35 27 34q12 0 68.5 -2t88.5 -2q45 0 107.5 2t73.5 2q33 0 32 -34q0 -33 -30 -33h-39q-47 0 -47 -14q0 -23 64.5 -200t117.5 -308q29 -66 33 -66t28 66q145 426 164 493q2 8 2 17q0 12 -37 12h-71q-18 0 -22.5 7t-4.5 26q0 35 29 34q6 0 59 -2t78 -2q27 0 70 2 t49 2q27 0 26 -34q0 -12 -1 -18.5t-6 -10.5t-17 -4h-31q-18 0 -25 -16q-78 -213 -272 -701q-2 -6 -14.5 -40t-31.5 -94t-36 -106q-43 -123 -78 -174q-20 -31 -55 -73q-4 -4 -10 -13.5t-8 -11.5t-8.5 -9t-9.5 -9t-8 -7.5t-11 -8.5t-13.5 -7t-17.5 -8q-111 -53 -129 -53 q-43 0 -43 47q0 33 41 90q18 25 59 39q8 4 37 13t45.5 15.5t40 17.5t37.5 24.5t21 29.5q90 223 90 246q0 14 -57.5 155.5t-147.5 355.5t-115 271q-8 18 -11 22.5t-13 4.5h-41q-18 0 -22.5 7.5t-4.5 25.5zM240 1092q0 53 42 85.5t87 32.5q39 0 65.5 -21.5t26.5 -66.5 q0 -53 -41 -87t-90 -34q-37 0 -63.5 24t-26.5 67zM567 1092q0 53 42 85.5t87 32.5q39 0 65.5 -21.5t26.5 -66.5q0 -53 -40.5 -87t-90.5 -34q-37 0 -63.5 24t-26.5 67z" />
<glyph unicode="&#x152;" horiz-adv-x="2039" d="M86 651q0 328 205 533t497 205q117 0 218.5 -13.5t136.5 -13.5q59 0 266 3t250 3q98 0 110.5 2t14.5 19q2 14 4 18t8 8t21 4q25 0 33 -5t8 -23q0 -4 -4.5 -90.5t-4.5 -180.5q0 -14 -8 -18t-31 -4q-37 0 -36 30q0 2 3 72t3 86q0 14 -547 14q-12 0 -12 -256q0 -86 4 -290 q0 -18 3 -22.5t15 -4.5h342q106 0 107 27v106q0 20 41 21q35 0 34 -19q0 -2 -2 -61.5t-2 -102.5t2 -104.5t2 -69.5q0 -18 -32 -18q-43 0 -43 20v103q0 31 -107 30h-334h-6q-12 0 -16 -3t-4 -21q12 -559 22 -559q96 0 247 1t263.5 3t116.5 2q10 0 13 6t5 31v4q2 27 6 182 q0 18 35 19q41 0 41 -21q0 -57 -3 -159.5t-3 -127.5q0 -29 -41 -28q-23 0 -379 3t-389 3q-92 0 -204.5 -11.5t-196.5 -11.5q-266 0 -469 183.5t-203 496.5zM291 707q0 -221 82 -391.5t227 -237.5q82 -39 270 -39q59 0 104.5 11t62 22.5t16.5 19.5q0 43 -1 153.5t-1 160.5 q0 63 -1 147t-2 159.5t-2.5 142.5t-2.5 109t-1 44v241q0 70 -268 70q-209 0 -346 -183t-137 -429z" />
<glyph unicode="&#x153;" horiz-adv-x="1501" d="M55 375q0 186 119 314t307 128q176 0 283 -133q12 -14 18 -14q4 0 25 20q117 127 305 127q147 0 229 -96t82 -236q0 -31 -116 -30q-10 0 -225.5 5t-231.5 5q-6 -14 -6 -68q0 -152 88 -241.5t205 -89.5q47 0 92 13t74.5 33.5t52 40t36 33t15.5 13.5q4 0 22.5 -15.5 t18.5 -19.5t-16.5 -25.5t-49 -51.5t-73.5 -57.5t-100.5 -47t-118.5 -19.5q-199 0 -304 129q-2 4 -7 11.5t-7 8.5t-5 2t-7 -3.5t-10 -12.5q-98 -135 -301 -135q-166 0 -280 121t-114 291zM213 346q0 -125 63.5 -221t172.5 -96q135 0 191 112.5t56 276.5q0 133 -61.5 233.5 t-177.5 100.5q-244 0 -244 -406zM854 522q0 -10 18 -10q117 0 322 8q76 2 76 8q0 125 -58.5 178.5t-124.5 53.5q-92 0 -159.5 -77t-73.5 -161z" />
<glyph unicode="&#x178;" horiz-adv-x="1222" d="M14 1339.5q0 24.5 7.5 30.5t29.5 6q2 0 74 -3t143 -3q68 0 152 3t90 3q16 0 22.5 -8t6.5 -35q0 -20 -6.5 -25t-30.5 -5h-121h-15.5t-6.5 -4.5t0 -6.5l6 -12q18 -47 75.5 -156.5t128 -239.5t86.5 -163q14 -27 19 -27q4 0 14 21q285 549 285 581q0 6 -4 7h-107q-27 0 -35 5 t-8 25q0 27 7.5 35t27.5 8q4 0 56.5 -3t103.5 -3t98 3t57 3q23 0 31 -7t8 -30q0 -25 -9 -30.5t-30 -5.5h-69q-4 0 -80 -131.5t-169 -296t-126 -216.5q-6 -8 -6 -18q0 -580 18 -580h142q18 0 23 -7t5 -25q0 -25 -5 -33t-23 -8q-14 0 -95.5 3t-150.5 3q-51 0 -139 -3t-95 -3 q-20 0 -25 8t-5 35q0 20 7 25t32 5h104q20 0 20 494q0 20 -14 45q-76 139 -235.5 421t-171.5 282h-60q-20 0 -28.5 6t-8.5 30.5zM397 1604q0 53 42 85.5t87 32.5q39 0 65.5 -21.5t26.5 -66.5q0 -53 -40.5 -87t-90.5 -34q-37 0 -63.5 24t-26.5 67zM725 1604q0 53 42 85.5 t87 32.5q39 0 65.5 -21.5t26.5 -66.5q0 -53 -41 -87t-90 -34q-37 0 -63.5 24t-26.5 67z" />
<glyph unicode="&#x2c6;" horiz-adv-x="819" d="M176 940q0 6 10 21l162 243q14 20 19.5 24.5t21.5 4.5h43q14 0 19.5 -4t19.5 -25l162 -243q10 -14 10 -20.5t-18 -6.5h-25q-2 0 -20 14l-166 144h-8l-166 -144q-14 -14 -21 -14h-24q-19 0 -19 6z" />
<glyph unicode="&#x2dc;" horiz-adv-x="819" d="M188 1020q0 16 17 55q23 57 56.5 87t64.5 30q37 0 97 -39t83 -39q49 0 69 68q4 14 7.5 16t15.5 2q27 0 27 -8q0 -20 -15 -59q-47 -123 -129 -123q-39 0 -95 37.5t-85 37.5q-45 0 -65 -59q-2 -10 -3.5 -11t-6.5 -3t-17 -2q-21 0 -21 10z" />
<glyph unicode="&#x2000;" horiz-adv-x="879" />
<glyph unicode="&#x2001;" horiz-adv-x="1759" />
<glyph unicode="&#x2002;" horiz-adv-x="879" />
<glyph unicode="&#x2003;" horiz-adv-x="1759" />
<glyph unicode="&#x2004;" horiz-adv-x="586" />
<glyph unicode="&#x2005;" horiz-adv-x="439" />
<glyph unicode="&#x2006;" horiz-adv-x="293" />
<glyph unicode="&#x2007;" horiz-adv-x="293" />
<glyph unicode="&#x2008;" horiz-adv-x="219" />
<glyph unicode="&#x2009;" horiz-adv-x="351" />
<glyph unicode="&#x200a;" horiz-adv-x="97" />
<glyph unicode="&#x2010;" horiz-adv-x="528" d="M43 412q0 14 13.5 50t25.5 38q14 2 192.5 8t190.5 6q8 0 8 -18q0 -78 -20 -80q-229 -16 -396 -17q-14 1 -14 13z" />
<glyph unicode="&#x2011;" horiz-adv-x="528" d="M43 412q0 14 13.5 50t25.5 38q14 2 192.5 8t190.5 6q8 0 8 -18q0 -78 -20 -80q-229 -16 -396 -17q-14 1 -14 13z" />
<glyph unicode="&#x2012;" horiz-adv-x="528" d="M43 412q0 14 13.5 50t25.5 38q14 2 192.5 8t190.5 6q8 0 8 -18q0 -78 -20 -80q-229 -16 -396 -17q-14 1 -14 13z" />
<glyph unicode="&#x2013;" d="M14 399q0 27 3 34t22 7h940q23 0 27 -5t4 -25v-25q0 -20 -5.5 -26.5t-25.5 -6.5h-934q-23 0 -27 7t-4 40z" />
<glyph unicode="&#x2014;" horiz-adv-x="1536" d="M14 399q0 27 3 34t22 7h1452q23 0 27 -5t4 -25v-25q0 -20 -5.5 -26.5t-25.5 -6.5h-1446q-23 0 -27 7t-4 40z" />
<glyph unicode="&#x2018;" horiz-adv-x="428" d="M55 1065q0 68 51.5 153t103.5 137t64 52q8 0 23.5 -15.5t15.5 -27.5q0 -2 -35.5 -36t-71.5 -78t-36 -72q0 -23 49 -76t49 -84q0 -35 -37.5 -85t-64.5 -50q-18 0 -64.5 72.5t-46.5 109.5z" />
<glyph unicode="&#x2019;" horiz-adv-x="428" d="M115 926q0 2 35.5 35.5t71.5 77.5t36 73q0 23 -49 76t-49 84q0 35 38 85t64 50q18 0 64.5 -72.5t46.5 -109.5q0 -68 -51.5 -153t-103.5 -137t-64 -52q-8 0 -23.5 15.5t-15.5 27.5z" />
<glyph unicode="&#x201a;" horiz-adv-x="428" d="M115 -244q0 2 35.5 36t71.5 78t36 73q0 23 -49 76t-49 83q0 35 38 85.5t64 50.5q18 0 64.5 -73t46.5 -110q0 -68 -51.5 -152.5t-103.5 -137t-64 -52.5q-8 0 -23.5 15.5t-15.5 27.5z" />
<glyph unicode="&#x201c;" horiz-adv-x="806" d="M55 1065q0 68 51.5 153t103.5 137t64 52q8 0 23.5 -15.5t15.5 -27.5q0 -2 -35.5 -36t-71.5 -78t-36 -72q0 -23 49 -76t49 -84q0 -35 -37.5 -85t-64.5 -50q-18 0 -64.5 72.5t-46.5 109.5zM434 1065q0 68 51.5 153t103.5 137t64 52q8 0 23.5 -15.5t15.5 -27.5 q0 -2 -35.5 -36t-71.5 -78t-36 -72q0 -23 49 -76t49 -84q0 -35 -38 -85t-64 -50q-18 0 -64.5 72.5t-46.5 109.5z" />
<glyph unicode="&#x201d;" horiz-adv-x="806" d="M115 926q0 2 35.5 35.5t71.5 77.5t36 73q0 23 -49 76t-49 84q0 35 38 85t64 50q18 0 64.5 -72.5t46.5 -109.5q0 -68 -51.5 -153t-103.5 -137t-64 -52q-8 0 -23.5 15.5t-15.5 27.5zM494 926q0 2 35.5 35.5t71.5 77.5t36 73q0 23 -49 76t-49 84q0 35 37.5 85t64.5 50 q18 0 64.5 -72.5t46.5 -109.5q0 -68 -51.5 -153t-103.5 -137t-65 -52q-8 0 -23 15.5t-15 27.5z" />
<glyph unicode="&#x201e;" horiz-adv-x="806" d="M115 -244q0 2 35.5 36t71.5 78t36 73q0 23 -49 76t-49 83q0 35 38 85.5t64 50.5q18 0 64.5 -73t46.5 -110q0 -68 -51.5 -152.5t-103.5 -137t-64 -52.5q-8 0 -23.5 15.5t-15.5 27.5zM494 -244q0 2 35.5 36t71.5 78t36 73q0 23 -49 76t-49 83q0 35 37.5 85.5t64.5 50.5 q18 0 64.5 -73t46.5 -110q0 -68 -51.5 -152.5t-103.5 -137t-65 -52.5q-8 0 -23 15.5t-15 27.5z" />
<glyph unicode="&#x2022;" horiz-adv-x="729" d="M117 669.5q0 102.5 72.5 175.5t175 73t175 -73t72.5 -175.5t-72.5 -175t-175 -72.5t-175 72.5t-72.5 175z" />
<glyph unicode="&#x2026;" horiz-adv-x="1357" d="M117 78q0 35 33.5 81t62.5 46q35 0 79 -32t44 -71q0 -45 -34 -85t-58 -40q-43 0 -85 36t-42 65zM569 78q0 35 34 81t63 46q35 0 78.5 -32t43.5 -71q0 -45 -33.5 -85t-58.5 -40q-43 0 -85 36t-42 65zM1022 78q0 35 34 81t62 46q35 0 79 -32t44 -71q0 -45 -33.5 -85 t-58.5 -40q-43 0 -85 36t-42 65z" />
<glyph unicode="&#x202f;" horiz-adv-x="351" />
<glyph unicode="&#x2039;" horiz-adv-x="528" d="M96 395q0 8 13.5 22.5t49.5 46.5t52 48q31 29 74 71t66.5 65.5t27.5 23.5t19.5 -14.5t15.5 -16.5q0 -8 -64.5 -121.5t-64.5 -124t64.5 -123t64.5 -122.5q0 -6 -15.5 -18.5t-19.5 -12.5t-27.5 23.5t-66.5 65.5t-74 71q-12 12 -32.5 30.5t-33 29.5t-24.5 23.5t-18.5 20.5 t-6.5 12z" />
<glyph unicode="&#x203a;" horiz-adv-x="528" d="M115 150q0 8 64.5 121.5t64.5 124t-64.5 123t-64.5 122.5q0 6 15 18.5t19.5 12.5t28 -23.5t66.5 -65.5t73 -71q12 -12 33 -30.5t33 -30t24.5 -23.5t18.5 -20.5t6 -12.5q0 -8 -13 -22.5t-49 -46t-53 -47.5q-31 -29 -73.5 -71t-66 -65.5t-28 -23.5t-19.5 14.5t-15 16.5z " />
<glyph unicode="&#x205f;" horiz-adv-x="439" />
<glyph unicode="&#x20ac;" horiz-adv-x="1241" d="M53 571l35 88h143q29 113 94.5 199t144.5 130t152.5 65.5t135.5 21.5q125 0 220 -38t189 -126q-16 -45 -43 -92q-129 170 -358 170q-344 0 -442 -330h733l-35 -88h-711q-4 -20 -4 -49q0 -14 2 -30.5t2 -18.5h670l-39 -90h-616q63 -160 184 -244t254 -84q205 0 360 156 v-115q-162 -129 -354 -129q-72 0 -148.5 21.5t-155.5 66.5t-142.5 130t-92.5 198h-172l35 90h123q-4 20 -4 49q0 33 4 49h-164z" />
<glyph unicode="&#x2122;" horiz-adv-x="1632" d="M76 1184q0 4 3 23.5t7 48t6 49.5q4 29 25 28q18 0 22 -4t6 -16q18 -2 82 -2h330q68 0 88 4q4 18 9 19t18 1q25 0 24 -22q0 -6 -2 -44t-2 -83q0 -16 -5 -20.5t-19 -4.5q-16 0 -22.5 4t-6.5 25v27q2 25 2 34q-45 4 -88 4h-96q-4 -25 -4 -131v-14q0 -14 -1 -38.5t-1 -54.5 t-1 -64.5t-2.5 -68.5t-1.5 -67v-55v-45h64q16 0 16 -25q0 -29 -16 -28q-10 0 -58.5 2t-62.5 2t-63.5 -2t-59.5 -2q-16 0 -16 28q0 16 4 20.5t16 4.5h56q10 90 10 469q0 16 -1 41.5t-1 27.5h-121q-43 0 -74 -6l-6 -57q-2 -12 -4 -18.5t-5 -9.5t-7 -3h-13q-18 0 -23 3.5 t-5 19.5zM758 690q0 27 20 27h49q0 6 1 19.5t2 32.5t1 34q16 442 17 461h-64q-18 0 -18 28q0 25 18 25q6 0 51.5 -1t55.5 -1q12 0 32.5 1t22.5 1q25 0 33 -23l192 -483l183 471q12 33 39 33h32q14 0 53.5 1t49.5 1q12 0 15 -4t3 -23q0 -27 -22 -26h-41q-2 -14 -2 -64v-84 q0 -305 12 -399h47q16 0 16 -26.5t-14 -26.5q-10 0 -53 2t-57.5 2t-56.5 -2t-52 -2q-12 0 -15 5t-3 21q0 27 20 27h43q4 25 4 155q0 137 -4 310l-158 -404q-10 -25 -26.5 -48t-24.5 -42q-12 -27 -28.5 -26.5t-30.5 34.5l-203 504q-8 -250 -8 -397q0 -72 2 -86h63 q16 0 16.5 -26.5t-16.5 -26.5q-10 0 -43.5 2t-48 2t-48.5 -2t-40 -2q-12 0 -14 4t-2 22z" />
<glyph unicode="&#xe000;" horiz-adv-x="788" d="M0 0v788h788v-788h-788z" />
<glyph unicode="&#xfb01;" horiz-adv-x="1021" d="M66 25q0 12 1 18t6 10t17 4h84q6 25 6 123q0 41 -1 104.5t-1 67.5v164q0 186 -4 186h-70q-18 0 -22 6.5t-4 26.5v16.5t2 9.5t6 6t12 1h64q16 0 16 10q0 135 12 256q16 170 111.5 265.5t237.5 95.5q119 0 192.5 -60.5t73.5 -126.5q0 -35 -37 -66.5t-63 -31.5q-31 0 -33 25 q-8 125 -44 163.5t-100 38.5q-66 0 -107.5 -44t-60 -125t-24.5 -154.5t-6 -175.5v-45q0 -16 5 -20.5t27 -4.5h240q23 0 121 5t111 5q20 0 20 -18v-336q0 -367 10 -367h78q16 0 20.5 -6t4.5 -26q0 -35 -25 -35q-18 0 -78.5 2t-87 2t-92.5 -2t-84 -2q-16 0 -20.5 7t-4.5 28 q0 18 5.5 25t25.5 7h90q6 0 6 199q0 227 -8 426q-2 23 -14 23h-322q-18 0 -23 -3.5t-5 -15.5v-340q0 -262 16 -289h127q25 0 25 -32q0 -35 -25 -35q-16 0 -94 2t-111 2q-25 0 -84 -2t-92 -2q-18 0 -22 7.5t-4 27.5z" />
<glyph unicode="&#xfb02;" horiz-adv-x="1026" d="M61 25q0 12 1 18t6.5 10t17.5 4h84q10 0 10 123q0 41 -1 104.5t-1 67.5v123q0 227 -4 227h-72q-18 0 -23 6.5t-5 27t4 26.5t18 6h62q12 0 15 3t3 15q0 49 -1 96.5t-1 102.5q0 174 95.5 292t275.5 118q78 0 155 -45q25 -14 52 -11q18 2 37.5 6.5t29.5 6.5t15 2 q20 0 20 -37q-8 -371 -8 -713q0 -547 8 -547h98q27 0 27 -32q0 -35 -27 -35q-12 0 -78.5 2t-99.5 2q-29 0 -101.5 -2t-84.5 -2q-27 0 -27 35q0 12 1 18t6 10t18 4h96q8 0 8 168v449q0 23 -3 27t-19 4h-308q-23 0 -27.5 -3.5t-4.5 -15.5v-463q0 -166 10 -166h117q20 0 24 -7 t4 -25q0 -35 -28 -35q-16 0 -87 2t-104 2q-29 0 -96.5 -2t-79.5 -2q-18 0 -22.5 7.5t-4.5 27.5zM324 797q0 -23 4 -26t32 -3h304q18 0 22 5t4 30q0 125 -4 321q0 12 -2 21.5t-5 14.5t-9 13.5t-11 14.5q-12 16 -28.5 49t-27.5 51.5t-36.5 33.5t-62.5 15q-57 0 -95 -30.5 t-55.5 -90t-23.5 -118t-6 -142.5v-159z" />
<glyph unicode="&#xfb03;" horiz-adv-x="1542" d="M72 25q0 12 1 18t6 10t17 4h76q8 0 8 123q0 41 -1 104.5t-1 67.5v135q0 215 -4 215h-76q-18 0 -21 5.5t-3 27.5v16.5t2 9.5t6 6t10 1h70q14 0 14 18q0 94 5 156t24.5 145.5t68 145t123.5 96.5q78 37 154 37q129 0 217 -98q14 -18 27 -2q98 129 264 129q119 0 192.5 -60.5 t73.5 -126.5q0 -35 -37 -66.5t-63 -31.5q-31 0 -33 25q-8 125 -44 163.5t-99 38.5q-66 0 -108 -44t-60.5 -125t-24.5 -154.5t-6 -175.5v-45q0 -18 4 -21.5t29 -3.5h239q23 0 121 5t111 5q20 0 20 -18v-336q0 -367 10 -367h78q16 0 20.5 -6t4.5 -26q0 -35 -25 -35 q-18 0 -78.5 2t-87 2t-92 -2t-84.5 -2q-16 0 -20 7t-4 28q0 18 5 25t25 7h91q6 0 6 199q0 227 -9 426q-2 23 -14 23h-321q-18 0 -23.5 -5.5t-5.5 -23.5v-330q0 -289 16 -289h103q20 0 24 -7t4 -25q0 -35 -26 -35q-16 0 -83 2t-100 2q-29 0 -95 -2t-81 -2q-18 0 -22 7t-4 28 q0 12 1 18t6 10t17 4h82q8 0 8 123q0 41 -1 104.5t-1 67.5v314q0 37 -8 36q-14 0 -40.5 1.5t-35.5 1.5h-254q-23 0 -25.5 -3.5t-2.5 -15.5v-340q0 -289 16 -289h117q20 0 24.5 -7t4.5 -25q0 -35 -29 -35q-16 0 -92 2t-109 2q-27 0 -88 -2t-78 -2q-18 0 -22 7.5t-4 27.5z M324 786q0 -14 6 -16t30 -2h318q20 0 20 10q0 215 21 309l8 37l-16 17q-35 31 -64 80q-49 86 -121 86q-37 0 -65.5 -9.5t-49 -31t-36 -43t-24.5 -60.5t-14 -65.5t-8 -76.5t-4 -76.5t-1 -81v-77.5z" />
<glyph unicode="&#xfb04;" horiz-adv-x="1544" d="M72 25q0 33 24 32h76q8 0 8 123q0 41 -1 104.5t-1 67.5v123q0 227 -4 227h-65q-35 0 -35 33t28 33h60q10 0 12 2t2 16q0 440 221 543q78 37 154 37q57 0 118.5 -26.5t100.5 -73.5q4 -6 10 0q104 129 285 129q78 0 156 -45q25 -14 51 -11q18 2 37.5 6.5t30 6.5t14.5 2 q20 0 20 -37q-8 -371 -8 -768q0 -492 6 -492h98q20 0 24.5 -7t4.5 -25q0 -35 -29 -35q-16 0 -79.5 2t-96.5 2q-27 0 -97.5 -2t-88.5 -2q-27 0 -27 35q0 33 27 32h96q6 0 6 168v449q0 23 -3 27t-19 4h-307q-23 0 -28 -3.5t-5 -15.5v-463q0 -166 12 -166h107q27 0 26 -32 q0 -35 -26 -35q-16 0 -83 2t-100 2q-27 0 -92 -2t-82 -2q-20 0 -24 7t-4 28q0 33 26 32h82q10 0 10 123q0 41 -1 104.5t-1 67.5v338q0 10 -3 12.5t-19 2.5h-316q-20 0 -24 -3.5t-4 -15.5v-340q0 -289 16 -289h119q27 0 27 -32q0 -35 -27 -35q-16 0 -93 2t-110 2 q-27 0 -87 -2t-79 -2q-26 0 -26 35zM326 786q0 -12 5 -15t29 -3h322q10 0 12 3t2 22q0 43 -1 91t-1 101q0 96 17 152q4 8 -6 16q-35 29 -52 57q-18 31 -31.5 48.5t-39 33t-56.5 15.5q-68 0 -110.5 -41t-61 -116t-23.5 -137.5t-5 -150.5v-76zM844 797q0 -20 5 -24.5t32 -4.5 h303q18 0 22 5t4 30q0 125 -4 321q0 12 -2 21.5t-5 14.5t-9 13.5t-10 14.5q-12 16 -28.5 49t-28 51.5t-37 33.5t-62.5 15q-57 0 -95 -30.5t-55.5 -90t-23.5 -118t-6 -142.5v-159z" />
</font>
</defs>
</svg>
